<svg version="1.1" id="Layer_1" xmlns="http://www.w3.org/2000/svg" xmlns:xlink="http://www.w3.org/1999/xlink" x="0" y="0" viewBox="0 0 66.9 12.9" xml:space="preserve"><style>.st0{clip-path:url(#SVGID_2_);fill:#4967a9}</style><defs><path id="SVGID_1_" d="M0 0h66.9v12.9H0z"/></defs><clipPath id="SVGID_2_"><use xlink:href="#SVGID_1_" overflow="visible"/></clipPath><path class="st0" d="M5.2 2c-.8 0-1 .4-1 1.1v1.3h2.1l-.2 2.1H4.2v6.3H1.7V6.5H0V4.4h1.7V3.2c0-2.1.8-3.2 3.2-3.2.5 0 1.1 0 1.4.1V2M6.5 8.3c0-2.3 1.1-4.1 3.4-4.1 1.3 0 2 .6 2.4 1.5V4.4h2.4v8.3h-2.4v-1.3c-.4.8-1.1 1.4-2.4 1.4-2.3 0-3.4-1.7-3.4-4.1m2.5.2c0 1.2.5 2.1 1.6 2.1 1 0 1.6-.8 1.6-1.9v-.9c0-1.2-.5-1.9-1.6-1.9-1.1-.1-1.6.8-1.6 2v.6zM20 4.3c1 0 1.9.2 2.4.6l-.6 1.8c-.4-.2-1-.4-1.7-.4-1.4 0-2 .8-2 2.1v.5c0 1.3.6 2.1 2 2.1.7 0 1.3-.2 1.7-.4l.6 1.8c-.5.4-1.4.6-2.4.6-3 0-4.3-1.6-4.3-4.1v-.5c0-2.6 1.3-4.1 4.3-4.1M22.7 8.9v-.7c0-2.4 1.3-3.9 4.1-3.9 2.6 0 3.7 1.6 3.7 3.9v1.3h-5.3c.1 1.1.6 1.6 2 1.6.9 0 1.9-.2 2.7-.5l.5 1.7c-.7.3-2 .6-3.2.6-3.3 0-4.5-1.5-4.5-4m2.5-1.1h3v-.2c0-.9-.4-1.6-1.5-1.6-1 0-1.5.7-1.5 1.8M39.9 8.9c0 2.3-1.1 4.1-3.4 4.1-1.3 0-2.1-.6-2.5-1.4v1.3h-2.4V.2l2.5-.2v5.6c.4-.7 1.2-1.3 2.3-1.3 2.3 0 3.4 1.7 3.4 4.1m-2.4-.1c0-1.2-.5-2-1.7-2-1 0-1.6.7-1.6 1.9V9c0 1.2.6 1.9 1.6 1.9 1.2 0 1.7-.9 1.7-2v-.6zM40.7 8.8v-.4c0-2.4 1.4-4.1 4.1-4.1C47.6 4.3 49 6 49 8.4v.4c0 2.4-1.4 4.1-4.1 4.1-2.8 0-4.2-1.7-4.2-4.1m5.8-.6c0-1.1-.5-2-1.6-2-1.2 0-1.6.9-1.6 2V9c0 1.1.5 2 1.6 2 1.2 0 1.6-.9 1.6-2v-.8zM49.8 8.8v-.4c0-2.4 1.4-4.1 4.1-4.1C56.7 4.3 58 6 58 8.4v.4c0 2.4-1.4 4.1-4.1 4.1-2.7 0-4.1-1.7-4.1-4.1m5.8-.6c0-1.1-.5-2-1.6-2-1.2 0-1.6.9-1.6 2V9c0 1.1.5 2 1.6 2 1.2 0 1.6-.9 1.6-2v-.8zM61.6 8.4l2.5-4h2.7l-2.7 4.1 2.8 4.3h-2.7l-2.6-4.1v4.1h-2.5V.2l2.5-.2"/></svg>