<?xml version="1.0" encoding="UTF-8" standalone="no"?>
<svg
   xmlns:dc="http://purl.org/dc/elements/1.1/"
   xmlns:cc="http://creativecommons.org/ns#"
   xmlns:rdf="http://www.w3.org/1999/02/22-rdf-syntax-ns#"
   xmlns:svg="http://www.w3.org/2000/svg"
   xmlns="http://www.w3.org/2000/svg"
   viewBox="0 0 682.66669 490.66666"
   height="490.66666"
   width="682.66669"
   id="svg455"
   version="1.1">
  <metadata
     id="metadata461">
    <rdf:RDF>
      <cc:Work
         rdf:about="">
        <dc:format>image/svg+xml</dc:format>
        <dc:type
           rdf:resource="http://purl.org/dc/dcmitype/StillImage" />
        <dc:title></dc:title>
      </cc:Work>
    </rdf:RDF>
  </metadata>
  <defs
     id="defs459" />
  <g
     transform="translate(3.9235164,1.3078394)"
     id="g465">
    <path
       id="path479"
       d="m 293.66069,342.44444 c -0.25853,-115.48383 -0.67771,-146.36359 -1.99401,-146.89474 -1.30542,-0.52674 -1.29635,-0.69533 0.0419,-0.77777 0.9397,-0.0579 1.99422,0.64473 2.34339,1.5614 0.34919,0.91667 0.47765,67.06667 0.28551,147 L 293.9881,488.66666 293.66076,342.44444 Z M 388.33407,342 c -0.16127,-80.66667 0.14758,-147.35968 0.68636,-148.2067 0.88134,-1.3856 0.8563,147.52827 -0.0427,253.54003 C 388.78499,470.06666 388.49531,422.66666 388.33404,342 Z M 540.10529,192.55556 c 0.064,-1.55327 0.37992,-1.8692 0.80554,-0.80556 0.38516,0.96249 0.3378,2.11249 -0.1052,2.55556 -0.44305,0.44305 -0.75818,-0.34446 -0.70029,-1.75 z m -358.62636,-63.8889 c 0,-0.73333 14.03449,-29.233328 31.18774,-63.333328 C 229.81993,31.233333 243.85442,3.9333333 243.85442,4.6666666 243.85442,5.3999999 229.81993,33.9 212.66667,67.999999 195.51342,102.1 181.47893,129.4 181.47893,128.66666 Z M 41.478473,108.66667 c 0,-0.73334 11.934689,-25.033338 26.521529,-54.000004 C 82.586843,25.7 94.521531,2.6 94.521531,3.3333333 94.521531,4.0666666 82.586843,28.366666 68.000002,57.333333 53.413162,86.299999 41.478473,109.4 41.478473,108.66667 Z M 598.81034,73.999999 c 0,-0.733333 8.03536,-17.233333 17.85635,-36.666666 C 626.48767,17.9 634.52304,2.6 634.52304,3.3333333 c 0,0.7333333 -8.03537,17.2333327 -17.85635,36.6666657 -9.82099,19.433334 -17.85635,34.733333 -17.85635,34 z M 454.66668,62.210628 c 0,-1.453002 29.27926,-59.5439614 30.0116,-59.5439614 0.59596,0 -28.23,58.5326424 -29.49388,59.8888884 -0.28474,0.305555 -0.51772,0.150339 -0.51772,-0.344927 z"
       style="fill:#cccccc;stroke-width:1.33333337" />
    <path
       id="path477"
       d="m 148.87186,195 c -0.56207,-0.90823 51.95936,-0.89296 117.12815,0.034 13.93333,0.1982 -6.58125,0.49661 -45.58798,0.66314 -39.00672,0.16655 -71.1998,-0.1472 -71.54017,-0.6972 z m 389.81524,-1.33334 c 0.0144,-1.65097 0.32773,-1.84945 1.07125,-0.67869 0.80996,1.27533 17.08092,1.73659 70.97959,2.01215 l 69.92875,0.35752 -71,0.32117 c -66.85919,0.30245 -70.99882,0.18511 -70.97959,-2.01215 z m -147.92593,-1 c 0,-0.73333 0.85748,-2.83333 1.90551,-4.66666 1.04803,-1.83334 1.90551,-2.73334 1.90551,-2 0,0.73333 -0.85748,2.83333 -1.90551,4.66666 -1.04803,1.83334 -1.90551,2.73334 -1.90551,2 z M 173.45915,143.33333 c 0,-0.73333 1.74339,-4.63333 3.87419,-8.66667 2.1308,-4.03333 3.87419,-6.73333 3.87419,-6 0,0.73334 -1.74339,4.63334 -3.87419,8.66667 -2.1308,4.03333 -3.87419,6.73333 -3.87419,6 z M 590.7925,88.666665 c 0,-0.733333 1.74339,-4.633333 3.87419,-8.666666 2.1308,-4.033333 3.87418,-6.733333 3.87418,-6 0,0.733333 -1.74338,4.633333 -3.87418,8.666667 -2.1308,4.033333 -3.87419,6.733333 -3.87419,5.999999 z"
       style="fill:#b3b3b3;stroke-width:1.33333337" />
    <path
       id="path475"
       d="m 291.9999,343.06652 c -0.36661,-80.81342 -0.21389,-146.48075 0.33938,-145.9274 0.55325,0.55333 0.85321,66.6734 0.66654,146.93348 l -0.33937,145.92739 z m 97.97707,-0.39986 c 0,-81.03333 0.16027,-114.18333 0.35615,-73.66666 0.19587,40.51666 0.19587,106.81666 0,147.33333 -0.19588,40.51666 -0.35615,7.36666 -0.35615,-73.66667 z"
       style="fill:#898989;stroke-width:1.33333337" />
    <path
       id="path473"
       d="m 184.33334,196.33428 c 19.61667,-0.20782 51.71667,-0.20782 71.33334,0 19.61666,0.2078 3.56666,0.37782 -35.66667,0.37782 -39.23334,0 -55.28334,-0.17002 -35.66667,-0.37782 z m 353.87187,-9.5e-4 c -0.56207,-0.90823 51.95936,-0.89296 117.12815,0.034 13.93333,0.1982 -6.58126,0.49661 -45.58798,0.66315 -39.00672,0.16654 -71.1998,-0.1472 -71.54017,-0.6972 z"
       style="fill:#6f6f6f;stroke-width:1.33333337" />
    <path
       id="path471"
       d="m 72.230936,489.66694 c 40.093684,-0.19596 106.093684,-0.196 146.666674,-9e-5 40.57299,0.1959 7.76906,0.35624 -72.89761,0.35629 -80.666664,5e-5 -113.862746,-0.16024 -73.769064,-0.3562 z m 390.666684,0 c 40.09368,-0.19596 106.09368,-0.196 146.66667,-9e-5 40.57299,0.1959 7.76906,0.35624 -72.8976,0.35629 -80.66667,5e-5 -113.86276,-0.16024 -73.76907,-0.3562 z M 133.76106,0.33404564 c 20.40192,-0.20710839 53.40192,-0.20694256 73.33333,3.685e-4 19.93143,0.20731105 3.23895,0.37676336 -37.09438,0.37656068 -40.33334,-2.0268e-4 -56.64086,-0.16982081 -36.23895,-0.37692918 z m 390.66668,0 c 20.40192,-0.20710839 53.40192,-0.20694256 73.33333,3.685e-4 19.93143,0.20731105 3.23895,0.37676336 -37.09438,0.37656068 -40.33334,-2.0268e-4 -56.64086,-0.16982081 -36.23895,-0.37692918 z"
       style="fill:#515151;stroke-width:1.33333337" />
    <path
       id="path469"
       d="m 291.30978,343.33333 c 7e-5,-79.2 0.16058,-111.40399 0.35671,-71.56443 0.19612,39.83958 0.19607,104.63957 -1.1e-4,144 -0.19618,39.36044 -0.35665,6.76443 -0.3566,-72.43557 z M 391.31,342 c -5e-5,-79.93334 0.16032,-112.82938 0.35639,-73.10232 0.19606,39.72705 0.19612,105.12705 1e-4,145.33333 C 391.47048,454.43729 391.31005,421.93333 391.31,342 Z M 145.73706,196.46221 c -0.54142,-1.41089 11.81707,-27.54487 34.33144,-72.59928 19.34756,-38.717162 35.38115,-70.191068 35.6302,-69.942016 0.24905,0.249053 -15.21808,31.790085 -34.37141,70.091176 -19.15332,38.30109 -34.50826,70.46179 -34.12206,71.46819 0.58072,1.51332 13.10686,1.89156 72.41515,2.18661 l 71.71296,0.35676 -72.37517,0.32151 c -66.26794,0.29437 -72.44658,0.13549 -73.22111,-1.88295 z m 391.15185,1.31556 c -0.48889,-0.48888 -0.88889,-1.98235 -0.88889,-3.3188 0,-1.33647 21.3,-45.05141 47.33333,-97.144335 26.03334,-52.092926 47.33334,-94.0977704 47.33334,-93.3441 0,0.7536704 -21,43.36693 -46.66667,94.69613 -25.66667,51.329195 -46.66667,94.522295 -46.66667,95.984665 0,2.61883 1.07848,2.6642 71.66667,3.01557 l 71.66667,0.35675 -71.44444,0.32151 c -39.29446,0.17682 -71.84446,-0.0785 -72.33334,-0.56739 z m -144.74336,-2.44444 c 0,-0.73333 13.7345,-28.63333 30.52113,-62 16.78663,-33.366665 30.52114,-60.066664 30.52114,-59.333331 0,0.733333 -13.73451,28.633331 -30.52114,62.000001 -16.78663,33.36666 -30.52113,60.06666 -30.52113,59.33333 z M 2.8106377,194 c 0,-0.73334 8.6352133,-18.43334 19.1893633,-39.33334 10.554149,-20.9 19.189363,-37.39999 19.189363,-36.66666 0,0.73333 -8.635214,18.43333 -19.189363,39.33333 -10.55415,20.9 -19.1893633,37.4 -19.1893633,36.66667 z M 487.11112,3.3919849 c 0,-1.0677417 0.50979,-1.6262827 1.13287,-1.2412023 0.62307,0.3850804 0.78767,1.2586872 0.36575,1.9413484 -1.07816,1.7445092 -1.49862,1.5480771 -1.49862,-0.7001461 z"
       style="fill:#343434;stroke-width:1.33333337" />
    <path
       id="path467"
       d="M 0,343.44238 C 0,263.20236 0.36287089,196.60581 0.80637975,195.45004 1.2498886,194.29428 2.0382979,193.61165 2.5584006,193.93309 3.6088831,194.58232 98.196314,4.1001515 97.66667,2.4020432 97.483337,1.8142528 130.0762,1.3333333 170.09525,1.3333333 c 61.55721,0 72.49058,0.2811288 71,1.8256153 -3.87235,4.0123682 -96.18751,191.1421014 -95.3593,193.3004114 0.7738,2.01649 7.07374,2.2073 72.87716,2.2073 h 72.03013 l 0.34505,145.33342 0.34505,145.33339 -145.66667,-6e-5 L 0,489.33333 Z m 392.00001,-1.1089 0.66667,-147.00015 47.91182,-95.999998 c 26.35149,-52.799999 47.80149,-96.4499987 47.66666,-96.9999987 -0.13482,-0.55 32.30486,-0.9908124 72.08819,-0.9795829 39.78334,0.011227 71.73334,0.4612293 71,1 C 628.53965,4.4062461 535.69,192.73884 536.19074,195.3373 536.69614,197.96 537.80034,198 609.68553,198 h 72.98167 l -2.6e-4,145.66666 -2.5e-4,145.66667 -145.66667,1.4e-4 -145.66667,1.4e-4 z"
       style="fill:#000000;stroke-width:1.33333337" />
  </g>
</svg>
