<svg xmlns="http://www.w3.org/2000/svg" width="32" height="40" viewBox="0 0 32 40"><g><g><path fill="#404041" d="M27.077 39.997H4.923C2.204 39.997 0 37.76 0 34.998v-30c0-2.762 2.204-5 4.923-5h14.77c1.647-.026 2.302.036 2.46.036v-.036l9.847 10v25c0 2.762-2.204 5-4.923 5zm-4.923-37.5v5c0 1.381 1.102 2.502 2.461 2.502h4.924zm7.385 10h-4.924c-2.719 0-4.923-2.239-4.923-5 0 0-.057-2.005-.035-5H4.923c-1.36 0-2.461 1.12-2.461 2.5v30.001c0 1.38 1.102 2.5 2.461 2.5h22.154c1.36 0 2.462-1.12 2.462-2.5zm-6.154 17.5H8.615c-.68 0-1.23-.56-1.23-1.25s.55-1.25 1.23-1.25h14.77c.68 0 1.23.56 1.23 1.25s-.55 1.25-1.23 1.25zm0-7.5H8.615c-.68 0-1.23-.559-1.23-1.249 0-.69.55-1.25 1.23-1.25h14.77c.68 0 1.23.56 1.23 1.25s-.55 1.25-1.23 1.25z"/></g></g></svg>