<svg width="15" height="17" xmlns="http://www.w3.org/2000/svg" xmlns:xlink="http://www.w3.org/1999/xlink" xmlns:svgjs="http://svgjs.com/svgjs" viewBox="0.063 0 14.875 17"><svg xmlns="http://www.w3.org/2000/svg" width="15" height="17" viewBox="2 1.999 14 16" fill="#54a684"><path fill="#36AEEA" paint-order="stroke fill markers" fill-rule="evenodd" d="M15 7.998h-2V6a4 4 0 10-8 0v2H3a1 1 0 00-1 1v8a1 1 0 001 1h12a1 1 0 001-1V9a1 1 0 00-1-1zm-6 6A.999.999 0 119 12a.999.999 0 110 2zm2-6H7V6a2 2 0 114 0v2z"/></svg></svg>