<?xml version="1.0" encoding="utf-8"?><svg xmlns="http://www.w3.org/2000/svg" xmlns:xlink="http://www.w3.org/1999/xlink"><symbol viewBox="0 0 512 512" id="adobe" xmlns="http://www.w3.org/2000/svg"><path d="M17.397 46.662v418.677h2.653L188.984 46.662H17.397zm477.207 0H320.426l174.178 418.677V46.662zM299.781 465.339h72.178L255.762 195.082 178.99 383.725h85.782l35.009 81.614zm0 0" fill="#f84437"/></symbol><symbol viewBox="0 0 66.9 12.9" id="facebook" xmlns="http://www.w3.org/2000/svg"><defs><path id="ba" d="M0 0h66.9v12.9H0z"/></defs><clipPath id="bb"><use xlink:href="#ba" overflow="visible"/></clipPath><path d="M5.2 2c-.8 0-1 .4-1 1.1v1.3h2.1l-.2 2.1H4.2v6.3H1.7V6.5H0V4.4h1.7V3.2c0-2.1.8-3.2 3.2-3.2.5 0 1.1 0 1.4.1V2m.2 6.3c0-2.3 1.1-4.1 3.4-4.1 1.3 0 2 .6 2.4 1.5V4.4h2.4v8.3h-2.4v-1.3c-.4.8-1.1 1.4-2.4 1.4-2.3 0-3.4-1.7-3.4-4.1m2.5.2c0 1.2.5 2.1 1.6 2.1 1 0 1.6-.8 1.6-1.9v-.9c0-1.2-.5-1.9-1.6-1.9-1.1-.1-1.6.8-1.6 2v.6zm11-4.6c1 0 1.9.2 2.4.6l-.6 1.8c-.4-.2-1-.4-1.7-.4-1.4 0-2 .8-2 2.1v.5c0 1.3.6 2.1 2 2.1.7 0 1.3-.2 1.7-.4l.6 1.8c-.5.4-1.4.6-2.4.6-3 0-4.3-1.6-4.3-4.1v-.5c0-2.6 1.3-4.1 4.3-4.1m2.7 4.6v-.7c0-2.4 1.3-3.9 4.1-3.9 2.6 0 3.7 1.6 3.7 3.9v1.3h-5.3c.1 1.1.6 1.6 2 1.6.9 0 1.9-.2 2.7-.5l.5 1.7c-.7.3-2 .6-3.2.6-3.3 0-4.5-1.5-4.5-4m2.5-1.1h3v-.2c0-.9-.4-1.6-1.5-1.6-1 0-1.5.7-1.5 1.8m14.7 1.1c0 2.3-1.1 4.1-3.4 4.1-1.3 0-2.1-.6-2.5-1.4v1.3h-2.4V.2l2.5-.2v5.6c.4-.7 1.2-1.3 2.3-1.3 2.3 0 3.4 1.7 3.4 4.1m-2.4-.1c0-1.2-.5-2-1.7-2-1 0-1.6.7-1.6 1.9V9c0 1.2.6 1.9 1.6 1.9 1.2 0 1.7-.9 1.7-2v-.6zm3.3.5v-.4c0-2.4 1.4-4.1 4.1-4.1C47.6 4.3 49 6 49 8.4v.4c0 2.4-1.4 4.1-4.1 4.1-2.8 0-4.2-1.7-4.2-4.1m5.8-.6c0-1.1-.5-2-1.6-2-1.2 0-1.6.9-1.6 2V9c0 1.1.5 2 1.6 2 1.2 0 1.6-.9 1.6-2v-.8zm3.3.6v-.4c0-2.4 1.4-4.1 4.1-4.1C56.7 4.3 58 6 58 8.4v.4c0 2.4-1.4 4.1-4.1 4.1-2.7 0-4.1-1.7-4.1-4.1m5.8-.6c0-1.1-.5-2-1.6-2-1.2 0-1.6.9-1.6 2V9c0 1.1.5 2 1.6 2 1.2 0 1.6-.9 1.6-2v-.8zm6 .2l2.5-4h2.7l-2.7 4.1 2.8 4.3h-2.7l-2.6-4.1v4.1h-2.5V.2l2.5-.2" clip-path="url(#bb)" fill="#4967a9"/></symbol><symbol viewBox="0 0 512 512" id="facebook-1" xmlns="http://www.w3.org/2000/svg"><path d="M288 176v-64c0-17.664 14.336-32 32-32h32V0h-64c-53.024 0-96 42.976-96 96v80h-64v80h64v256h96V256h64l32-80h-96z"/></symbol><symbol viewBox="0 0 272 92" id="google" xmlns="http://www.w3.org/2000/svg"><path fill="#EA4335" d="M115.75 47.18c0 12.77-9.99 22.18-22.25 22.18s-22.25-9.41-22.25-22.18C71.25 34.32 81.24 25 93.5 25s22.25 9.32 22.25 22.18zm-9.74 0c0-7.98-5.79-13.44-12.51-13.44S80.99 39.2 80.99 47.18c0 7.9 5.79 13.44 12.51 13.44s12.51-5.55 12.51-13.44z"/><path fill="#FBBC05" d="M163.75 47.18c0 12.77-9.99 22.18-22.25 22.18s-22.25-9.41-22.25-22.18c0-12.85 9.99-22.18 22.25-22.18s22.25 9.32 22.25 22.18zm-9.74 0c0-7.98-5.79-13.44-12.51-13.44s-12.51 5.46-12.51 13.44c0 7.9 5.79 13.44 12.51 13.44s12.51-5.55 12.51-13.44z"/><path fill="#4285F4" d="M209.75 26.34v39.82c0 16.38-9.66 23.07-21.08 23.07-10.75 0-17.22-7.19-19.66-13.07l8.48-3.53c1.51 3.61 5.21 7.87 11.17 7.87 7.31 0 11.84-4.51 11.84-13v-3.19h-.34c-2.18 2.69-6.38 5.04-11.68 5.04-11.09 0-21.25-9.66-21.25-22.09 0-12.52 10.16-22.26 21.25-22.26 5.29 0 9.49 2.35 11.68 4.96h.34v-3.61h9.25zm-8.56 20.92c0-7.81-5.21-13.52-11.84-13.52-6.72 0-12.35 5.71-12.35 13.52 0 7.73 5.63 13.36 12.35 13.36 6.63 0 11.84-5.63 11.84-13.36z"/><path fill="#34A853" d="M225 3v65h-9.5V3h9.5z"/><path fill="#EA4335" d="M262.02 54.48l7.56 5.04c-2.44 3.61-8.32 9.83-18.48 9.83-12.6 0-22.01-9.74-22.01-22.18 0-13.19 9.49-22.18 20.92-22.18 11.51 0 17.14 9.16 18.98 14.11l1.01 2.52-29.65 12.28c2.27 4.45 5.8 6.72 10.75 6.72 4.96 0 8.4-2.44 10.92-6.14zm-23.27-7.98l19.82-8.23c-1.09-2.77-4.37-4.7-8.23-4.7-4.95 0-11.84 4.37-11.59 12.93z"/><path fill="#4285F4" d="M35.29 41.41V32H67c.31 1.64.47 3.58.47 5.68 0 7.06-1.93 15.79-8.15 22.01-6.05 6.3-13.78 9.66-24.02 9.66C16.32 69.35.36 53.89.36 34.91.36 15.93 16.32.47 35.3.47c10.5 0 17.98 4.12 23.6 9.49l-6.64 6.64c-4.03-3.78-9.49-6.72-16.97-6.72-13.86 0-24.7 11.17-24.7 25.03 0 13.86 10.84 25.03 24.7 25.03 8.99 0 14.11-3.61 17.39-6.89 2.66-2.66 4.41-6.46 5.1-11.65l-22.49.01z"/></symbol><symbol viewBox="135.5 361.375 200 72" overflow="visible" id="nike" xmlns="http://www.w3.org/2000/svg"><path d="M159.23 431.966c-5.84-.232-10.618-1.83-14.354-4.798-.713-.567-2.412-2.267-2.982-2.984-1.515-1.905-2.545-3.759-3.232-5.816-2.114-6.332-1.026-14.641 3.112-23.76 3.543-7.807 9.01-15.55 18.548-26.274 1.405-1.578 5.589-6.193 5.616-6.193.01 0-.218.395-.505.876-2.48 4.154-4.602 9.047-5.758 13.283-1.857 6.797-1.633 12.63.656 17.153 1.579 3.116 4.286 5.815 7.33 7.307 5.329 2.611 13.131 2.827 22.659.632.656-.152 33.162-8.781 72.236-19.176a88696.433 88696.433 0 0171.054-18.888c.011.009-90.78 38.859-137.911 59.014-7.464 3.191-9.46 3.997-12.969 5.229-8.97 3.15-17.005 4.653-23.5 4.395z"/></symbol><symbol viewBox="0 0 682.667 490.667" id="quote" xmlns="http://www.w3.org/2000/svg"><path d="M297.584 343.752c-.258-115.484-.678-146.363-1.994-146.894-1.305-.527-1.296-.696.042-.778.94-.058 1.994.644 2.343 1.561.35.917.478 67.067.286 147l-.35 145.333-.327-146.222zm94.674-.444c-.162-80.667.147-147.36.686-148.207.881-1.385.856 147.528-.043 253.54-.192 22.733-.482-24.667-.643-105.333zm151.77-149.445c.065-1.553.38-1.869.806-.805.386.962.338 2.112-.105 2.555-.443.443-.758-.344-.7-1.75zm-358.626-63.889c0-.733 14.035-29.233 31.188-63.333 17.153-34.1 31.188-61.4 31.188-60.666 0 .733-14.035 29.233-31.188 63.333-17.153 34.1-31.188 61.4-31.188 60.666zm-140-20c0-.733 11.935-25.033 26.522-54C86.51 27.009 98.445 3.909 98.445 4.642c0 .734-11.935 25.034-26.521 54-14.587 28.967-26.522 52.067-26.522 51.334zm557.332-34.666c0-.733 8.035-17.233 17.856-36.667 9.821-19.433 17.857-34.733 17.857-34 0 .734-8.036 17.234-17.857 36.667-9.82 19.433-17.856 34.733-17.856 34zM458.59 63.518c0-1.453 29.28-59.543 30.012-59.543.596 0-28.23 58.532-29.494 59.888-.285.306-.518.15-.518-.345z" fill="#ccc"/><path d="M152.795 196.308c-.562-.908 51.96-.893 117.129.034 13.933.198-6.582.496-45.588.663-39.007.167-71.2-.147-71.54-.697zm389.816-1.334c.014-1.65.327-1.849 1.07-.678.81 1.275 17.082 1.736 70.98 2.012l69.93.357-71 .322c-66.86.302-71 .185-70.98-2.013zm-147.926-1c0-.733.857-2.833 1.905-4.666 1.048-1.834 1.906-2.734 1.906-2 0 .733-.858 2.833-1.906 4.666-1.048 1.834-1.905 2.734-1.905 2zm-217.302-49.333c0-.733 1.743-4.633 3.874-8.667 2.13-4.033 3.874-6.733 3.874-6 0 .734-1.743 4.634-3.874 8.667-2.13 4.033-3.874 6.733-3.874 6zm417.333-54.666c0-.734 1.743-4.634 3.874-8.667 2.131-4.033 3.874-6.733 3.874-6 0 .733-1.743 4.633-3.874 8.667-2.13 4.033-3.874 6.733-3.874 6z" fill="#b3b3b3"/><path d="M295.923 344.374c-.366-80.813-.213-146.48.34-145.927.553.553.853 66.673.666 146.933l-.339 145.928zm97.977-.4c0-81.033.16-114.183.357-73.666.196 40.516.196 106.816 0 147.333-.196 40.517-.357 7.367-.357-73.667z" fill="#898989"/><path d="M188.257 197.642c19.617-.208 51.717-.208 71.333 0 19.617.208 3.567.378-35.666.378-39.234 0-55.284-.17-35.667-.378zm353.872 0c-.562-.91 51.96-.894 117.128.033 13.933.198-6.581.497-45.588.663-39.007.167-71.2-.147-71.54-.697z" fill="#6f6f6f"/><path d="M76.154 490.975c40.094-.196 106.094-.196 146.667 0 40.573.196 7.77.356-72.897.356s-113.863-.16-73.77-.356zm390.667 0c40.094-.196 106.094-.196 146.667 0 40.573.196 7.769.356-72.898.356-80.666 0-113.863-.16-73.769-.356zM137.685 1.642c20.401-.207 53.401-.207 73.333 0 19.931.208 3.239.377-37.094.377-40.334 0-56.641-.17-36.24-.377zm390.666 0c20.402-.207 53.402-.207 73.334 0 19.931.208 3.239.377-37.095.377-40.333 0-56.64-.17-36.239-.377z" fill="#515151"/><path d="M295.233 344.641c0-79.2.16-111.404.357-71.564.196 39.84.196 104.64 0 144s-.357 6.764-.357-72.436zm100-1.333c0-79.934.16-112.83.357-73.102.196 39.727.196 105.127 0 145.333s-.356 7.702-.356-72.231zM149.662 197.77c-.542-1.41 11.817-27.545 34.331-72.6 19.348-38.716 35.381-70.19 35.63-69.941.25.249-15.218 31.79-34.371 70.09-19.154 38.302-34.508 70.463-34.122 71.47.58 1.512 13.107 1.89 72.415 2.186l71.713.356-72.375.322c-66.268.294-72.447.135-73.221-1.883zm391.151 1.316c-.488-.49-.888-1.983-.888-3.32 0-1.336 21.3-45.05 47.333-97.144C613.29 46.53 634.59 4.525 634.59 5.278c0 .754-21 43.367-46.666 94.697-25.667 51.329-46.667 94.522-46.667 95.984 0 2.619 1.078 2.664 71.667 3.016l71.666.356-71.444.322c-39.295.177-71.845-.079-72.334-.567zM396.07 196.64c0-.733 13.735-28.633 30.521-62 16.787-33.366 30.521-60.066 30.521-59.333 0 .733-13.734 28.633-30.52 62-16.787 33.366-30.522 60.066-30.522 59.333zM6.734 195.308c0-.734 8.635-18.434 19.19-39.334 10.554-20.9 19.189-37.4 19.189-36.666 0 .733-8.635 18.433-19.19 39.333-10.554 20.9-19.189 37.4-19.189 36.667zM491.034 4.7c0-1.068.51-1.626 1.134-1.241.623.385.787 1.258.365 1.941-1.078 1.744-1.498 1.548-1.498-.7z" fill="#343434"/><path d="M3.924 344.75c0-80.24.362-146.836.806-147.992.443-1.156 1.232-1.839 1.752-1.517 1.05.65 95.638-189.833 95.108-191.531-.183-.588 32.41-1.069 72.429-1.069 61.557 0 72.49.281 71 1.826-3.873 4.012-96.188 191.142-95.36 193.3.774 2.017 7.074 2.207 72.878 2.207h72.03l.345 145.334.345 145.333H3.924zm392-1.109l.666-147 47.912-96c26.352-52.8 47.802-96.45 47.667-97-.135-.55 32.305-.99 72.088-.98 39.783.012 71.733.462 71 1-2.794 2.053-95.643 190.386-95.143 192.984.506 2.623 1.61 2.663 73.495 2.663h72.982V490.64H395.256z"/></symbol><symbol viewBox="1.464 25.444 498.152 149.23" id="slack" xmlns="http://www.w3.org/2000/svg"><path fill="#443642" d="M178.463 83.987c0-14.818 10.804-25.165 30.438-25.165 11.98 0 21.783 3.825 27.094 7.572.76.535 2.116 1.833 1.303 4.247-1.042 2.6-2.953 6.51-4.324 9.05-.798 1.48-2.836 1.285-3.88.756-3.783-1.917-9.988-5.16-15.688-5.758a33.378 33.378 0 00-4.347-.188c-5.02.112-9.214 1.855-10.691 5.685a6.74 6.74 0 00-.477 2.274c-.138 5.047 6.886 6.872 15.395 8.334 15.819 2.71 27.787 7.348 27.787 23.63 0 13.827-10.989 26.323-32.52 25.94-14.194-.287-24.264-5.083-29.66-9.737-.184-.158-2.238-2.25-1.137-4.766 1.26-3.239 3.387-6.951 5.056-8.922.928-1.266 3.377-1.467 4.65-.678 4.448 2.764 11.768 7.196 20.206 7.49.666.023 1.326.027 1.974.01 7.59-.184 12.182-3.062 12.086-7.91-.082-4.271-6.1-6.766-15.683-8.572-15.284-2.879-27.58-7.917-27.58-23.292m138.851 21.099c-10.778.141-20.66 3.087-20.945 11.51-.003 6.684 5.419 9.967 13.029 9.537 7.3-.703 12.867-3.869 15.32-8.07.907-1.557 1.045-7.383.99-9.873-.014-.53-1.062-1.533-1.521-1.726-2.29-.965-3.985-1.263-6.874-1.38m-35.862-33.938c5.04-4.51 15.033-11.53 30.959-11.16 21.017.437 32.12 10.29 33.154 33.86.426 9.72-.28 36.832-.448 43.587-.025.969-.353 1.639-1.659 1.664-3.461.139-11.457.084-15.131.036-1.854-.09-2.069-1.01-2.093-1.973-.016-.63-.07-2.498-.109-4.021-.021-.808-.78-.785-.974-.578-4.93 5.264-13.004 7.806-21.59 7.806-13.05 0-26.06-7.677-26.02-22.88.04-15.57 11.08-23.25 23.208-25.061 7.766-1.156 16.52-.128 23.149 2.506.424.17 1.29-.076 1.297-.677.027-1.984-.069-5.765-.45-7.557-.973-4.566-4.782-8.24-12.784-9.23-1.648-.203-3.307-.27-4.968-.138-6.361.5-14.016 5.46-17.186 7.317-.746.436-1.914.117-2.292-.37-1.85-2.39-6.5-9.38-6.866-10.497-.366-1.114.15-2.052.801-2.638l.002.004zm71.043 28.984c-.125-21.715 15.005-40.034 39.573-40.195 15.33-.1 26.467 6.85 28.431 10.128.399.77.194 1.413-.082 2.188-1.298 2.74-4.576 8.034-6.912 11.034-.995 1.278-2.075.183-3.33-.652-3.483-2.32-10.101-5.157-16.614-5.157-11.816.002-20.615 8.104-20.517 23.01.092 14.304 8.52 22.165 20.558 22.45 6.293.158 12.39-3.459 15.67-6.422 1.03-.899 2.096-.449 3.273.471 2.31 2.361 5.623 6.006 7.46 8.515 1.203 1.394.303 2.758-.13 3.306-4.984 6.307-14.61 11.615-27.349 11.687-26.674.187-39.906-18.568-40.029-40.36m127.325 39.381c1.252-.094 14.613-1.938 18.714-2.877 1.018-.232 1.38-1.088.811-1.936-2.29-3.434-8.311-13.186-14.617-21.916-5.8-8.027-11.913-15.087-13.89-17.803-.482-.66-.456-1.31.069-1.822 3.761-3.68 19.493-19.105 25.408-25.475 2.29-2.478.915-3.544-1.03-4.123-3.757-1.12-9.834-2.516-13.29-3.245-1.457-.308-3.212-.2-4.486 1.11-5.914 5.515-23.963 23.63-29.351 29.045-.97.977-1.535.76-1.54-.636-.044-10.44-.25-55.138-.623-62.49-.026-.972-1.195-1.71-1.854-1.745-3.388-.177-11.947-.228-15.32-.03-.945.107-1.848 1.07-1.93 1.884-.778 11.756.33 98.054.792 110.126.033.873.683 1.55 1.512 1.599 3.365.195 11.688.182 15.574.109 1.912 0 2.146-1.344 2.146-1.344l.288-23.157s.197-1.03.516-1.37c1.37-1.475 5.16-5.537 6.776-7.107.388-.377 1-.35 1.396.183 1.92 2.59 7.395 11.01 12.47 18.53 4.663 6.908 9.016 13.039 9.32 13.472.702 1 1.522 1.04 2.14 1.021v-.003zm-227.233-.08c1.175.039 10.09.029 14.04.024 1.33.026 2.021-.981 2.065-1.87.839-16.926.48-97.512-.05-110.237-.044-1.1-.515-1.513-1.266-1.613-3.39-.454-13.024-.348-16.112.46-.604.157-.96.616-.979 1.206-.756 32.8-.246 108.42-.086 109.852.159 1.434.909 2.128 2.39 2.178h-.002z"/><path fill="#70CADB" d="M13.997 105.78c-5.494.042-10.148-3.232-11.864-8.342a13.67 13.67 0 01-.178-.583c-1.87-6.544 1.756-13.39 8.255-15.582L114.45 46.35a14.128 14.128 0 013.807-.556c5.64-.044 10.422 3.302 12.18 8.52l.156.504c1.95 6.816-2.895 12.9-8.7 14.85-.004.003-1.06.36-103.662 35.391a13.49 13.49 0 01-4.234.721z"/><path fill="#E01765" d="M31.372 157.045c-5.537.04-10.207-3.188-11.903-8.225a13.34 13.34 0 01-.18-.579c-1.896-6.622 1.726-13.54 8.247-15.735L131.78 97.263c1.347-.45 2.738-.68 4.137-.693 5.552-.042 10.43 3.35 12.151 8.444l.16.53c1.007 3.521.412 7.478-1.59 10.601-1.492 2.322-6.198 4.366-6.198 4.366L35.8 156.29a14.356 14.356 0 01-4.428.757v-.002z"/><path fill="#E8A723" d="M118.148 157.268a12.798 12.798 0 01-12.255-8.723l-34.79-103.34-.174-.58c-1.885-6.59 1.74-13.464 8.237-15.654 1.3-.437 2.644-.665 3.997-.677 2.01-.015 3.955.438 5.787 1.343a12.772 12.772 0 016.449 7.392l34.787 103.331.101.332c1.954 6.842-1.663 13.72-8.16 15.91a12.935 12.935 0 01-3.979.666z"/><path fill="#3EB890" d="M66.435 174.674a12.803 12.803 0 01-12.26-8.73L19.394 62.608a12.797 12.797 0 018.051-16.23 12.96 12.96 0 013.985-.668 12.796 12.796 0 0112.257 8.723l34.782 103.34a12.797 12.797 0 01-8.06 16.233 12.88 12.88 0 01-3.978.667h.004z"/><path fill="#CC2027" d="M100.997 133.996l24.258-8.294-7.93-23.55-24.286 8.207 7.958 23.637z"/><path fill="#361238" d="M49.364 151.65l24.256-8.293-7.99-23.73-24.28 8.21 8.014 23.813z"/><path fill="#65863A" d="M83.727 82.7l24.26-8.283-7.837-23.275-24.305 8.143L83.727 82.7z"/><path fill="#1A937D" d="M32.088 100.33l24.26-8.283-7.933-23.572-24.305 8.142 7.978 23.713z"/></symbol><symbol viewBox="0 0 559 168" id="spotify" xmlns="http://www.w3.org/2000/svg"><path fill="#1ED760" d="M83.996.277C37.747.277.253 37.77.253 84.019c0 46.251 37.494 83.741 83.743 83.741 46.254 0 83.744-37.49 83.744-83.741 0-46.246-37.49-83.738-83.745-83.738l.001-.004zm38.404 120.78a5.217 5.217 0 01-7.18 1.73c-19.662-12.01-44.414-14.73-73.564-8.07a5.222 5.222 0 01-6.249-3.93 5.213 5.213 0 013.926-6.25c31.9-7.288 59.263-4.15 81.337 9.34 2.46 1.51 3.24 4.72 1.73 7.18zm10.25-22.802c-1.89 3.072-5.91 4.042-8.98 2.152-22.51-13.836-56.823-17.843-83.448-9.761-3.453 1.043-7.1-.903-8.148-4.35a6.538 6.538 0 014.354-8.143c30.413-9.228 68.222-4.758 94.072 11.127 3.07 1.89 4.04 5.91 2.15 8.976v-.001zm.88-23.744c-26.99-16.031-71.52-17.505-97.289-9.684-4.138 1.255-8.514-1.081-9.768-5.219a7.835 7.835 0 015.221-9.771c29.581-8.98 78.756-7.245 109.83 11.202a7.823 7.823 0 012.74 10.733c-2.2 3.722-7.02 4.949-10.73 2.739zm94.56 3.072c-14.46-3.448-17.03-5.868-17.03-10.953 0-4.804 4.52-8.037 11.25-8.037 6.52 0 12.98 2.455 19.76 7.509.2.153.46.214.71.174a.933.933 0 00.63-.386l7.06-9.952a.95.95 0 00-.18-1.288c-8.07-6.473-17.15-9.62-27.77-9.62-15.61 0-26.52 9.369-26.52 22.774 0 14.375 9.41 19.465 25.67 23.394 13.83 3.187 16.17 5.857 16.17 10.629 0 5.29-4.72 8.58-12.32 8.58-8.44 0-15.33-2.85-23.03-9.51a.98.98 0 00-.69-.23c-.26.02-.49.14-.65.33l-7.92 9.42c-.33.4-.29.98.09 1.32 8.96 8 19.98 12.22 31.88 12.22 16.82 0 27.69-9.19 27.69-23.42.03-12.007-7.16-18.657-24.77-22.941l-.03-.013zm62.86-14.26c-7.29 0-13.27 2.872-18.21 8.757v-6.624a.945.945 0 00-.94-.949h-12.95c-.52 0-.94.426-.94.949v73.601c0 .52.42.95.94.95h12.95c.52 0 .94-.43.94-.95v-23.23c4.94 5.53 10.92 8.24 18.21 8.24 13.55 0 27.27-10.43 27.27-30.369.02-19.943-13.7-30.376-27.26-30.376l-.01.001zm12.21 30.375c0 10.149-6.25 17.239-15.21 17.239-8.85 0-15.53-7.41-15.53-17.239 0-9.83 6.68-17.238 15.53-17.238 8.81-.001 15.21 7.247 15.21 17.237v.001zm50.21-30.375c-17.45 0-31.12 13.436-31.12 30.592 0 16.972 13.58 30.262 30.91 30.262 17.51 0 31.22-13.39 31.22-30.479 0-17.031-13.62-30.373-31.01-30.373v-.002zm0 47.714c-9.28 0-16.28-7.46-16.28-17.344 0-9.929 6.76-17.134 16.07-17.134 9.34 0 16.38 7.457 16.38 17.351 0 9.927-6.8 17.127-16.17 17.127zm68.27-46.53h-14.25V49.941a.944.944 0 00-.94-.948H393.5c-.52 0-.95.426-.95.948v14.566h-6.22c-.52 0-.94.426-.94.949v11.127c0 .522.42.949.94.949h6.22v28.795c0 11.63 5.79 17.53 17.22 17.53 4.64 0 8.49-.96 12.12-3.02.3-.16.48-.48.48-.82v-10.6c0-.32-.17-.63-.45-.8a.918.918 0 00-.92-.04c-2.49 1.25-4.9 1.83-7.6 1.83-4.15 0-6.01-1.89-6.01-6.11v-26.76h14.25c.52 0 .94-.426.94-.949V65.462a.918.918 0 00-.93-.949l-.01-.006zm49.64.057v-1.789c0-5.263 2.02-7.61 6.54-7.61 2.7 0 4.87.536 7.3 1.346.3.094.61.047.85-.132a.94.94 0 00.39-.77v-10.91a.937.937 0 00-.67-.909c-2.56-.763-5.84-1.546-10.76-1.546-11.95 0-18.28 6.734-18.28 19.467v2.74h-6.22c-.52 0-.95.426-.95.948v11.184c0 .522.43.949.95.949h6.22v44.405c0 .53.43.95.95.95h12.94c.53 0 .95-.42.95-.95V77.535h12.09l18.52 44.402c-2.1 4.66-4.17 5.59-6.99 5.59-2.28 0-4.69-.68-7.14-2.03a1.03 1.03 0 00-.75-.07c-.25.09-.46.27-.56.51l-4.39 9.63c-.21.46-.03.99.41 1.23 4.58 2.48 8.71 3.54 13.82 3.54 9.56 0 14.85-4.46 19.5-16.44l22.46-58.037a.925.925 0 00-.1-.881.924.924 0 00-.77-.412h-13.48c-.41 0-.77.257-.9.636l-13.81 39.434-15.12-39.46a.944.944 0 00-.88-.61h-22.12v-.003zm-28.78-.057h-12.95c-.52 0-.95.426-.95.949v56.481c0 .53.43.95.95.95h12.95c.52 0 .95-.42.95-.95V65.46a.947.947 0 00-.95-.949v-.004zm-6.4-25.719c-5.13 0-9.29 4.152-9.29 9.281 0 5.132 4.16 9.289 9.29 9.289s9.28-4.157 9.28-9.289c0-5.128-4.16-9.281-9.28-9.281zm113.42 43.88c-5.12 0-9.11-4.115-9.11-9.112s4.04-9.159 9.16-9.159 9.11 4.114 9.11 9.107c0 4.997-4.04 9.164-9.16 9.164zm.05-17.365c-4.67 0-8.2 3.71-8.2 8.253 0 4.541 3.51 8.201 8.15 8.201 4.67 0 8.2-3.707 8.2-8.253 0-4.541-3.51-8.201-8.15-8.201zm2.02 9.138l2.58 3.608h-2.18l-2.32-3.31h-1.99v3.31h-1.82v-9.564h4.26c2.23 0 3.69 1.137 3.69 3.051.01 1.568-.9 2.526-2.21 2.905h-.01zm-1.54-4.315h-2.37v3.025h2.37c1.18 0 1.89-.579 1.89-1.514 0-.984-.71-1.511-1.89-1.511z"/></symbol><symbol viewBox="0 0 512 512" id="twitter" xmlns="http://www.w3.org/2000/svg"><path d="M512 97.248c-19.04 8.352-39.328 13.888-60.48 16.576 21.76-12.992 38.368-33.408 46.176-58.016-20.288 12.096-42.688 20.64-66.56 25.408C411.872 60.704 384.416 48 354.464 48c-58.112 0-104.896 47.168-104.896 104.992 0 8.32.704 16.32 2.432 23.936-87.264-4.256-164.48-46.08-216.352-109.792-9.056 15.712-14.368 33.696-14.368 53.056 0 36.352 18.72 68.576 46.624 87.232-16.864-.32-33.408-5.216-47.424-12.928v1.152c0 51.008 36.384 93.376 84.096 103.136-8.544 2.336-17.856 3.456-27.52 3.456-6.72 0-13.504-.384-19.872-1.792 13.6 41.568 52.192 72.128 98.08 73.12-35.712 27.936-81.056 44.768-130.144 44.768-8.608 0-16.864-.384-25.12-1.44C46.496 446.88 101.6 464 161.024 464c193.152 0 298.752-160 298.752-298.688 0-4.64-.16-9.12-.384-13.568 20.832-14.784 38.336-33.248 52.608-54.496z"/></symbol><symbol viewBox="0 0 511.962 511.962" id="vk" xmlns="http://www.w3.org/2000/svg"><path d="M507.399 370.471c-1.376-2.304-9.888-20.8-50.848-58.816-42.88-39.808-37.12-33.344 14.528-102.176 31.456-41.92 44.032-67.52 40.096-78.464-3.744-10.432-26.88-7.68-26.88-7.68l-76.928.448s-5.696-.768-9.952 1.76c-4.128 2.496-6.784 8.256-6.784 8.256s-12.192 32.448-28.448 60.032c-34.272 58.208-48 61.28-53.6 57.664-13.024-8.416-9.76-33.856-9.76-51.904 0-56.416 8.544-79.936-16.672-86.016-8.384-2.016-14.528-3.36-35.936-3.584-27.456-.288-50.72.096-63.872 6.528-8.768 4.288-15.52 13.856-11.392 14.4 5.088.672 16.608 3.104 22.72 11.424 7.904 10.72 7.616 34.848 7.616 34.848s4.544 66.4-10.592 74.656c-10.4 5.664-24.64-5.888-55.2-58.72-15.648-27.04-27.488-56.96-27.488-56.96s-2.272-5.568-6.336-8.544c-4.928-3.616-11.84-4.768-11.84-4.768l-73.152.448s-10.976.32-15.008 5.088c-3.584 4.256-.288 13.024-.288 13.024s57.28 133.984 122.112 201.536c59.488 61.92 127.008 57.856 127.008 57.856h30.592s9.248-1.024 13.952-6.112c4.352-4.672 4.192-13.44 4.192-13.44s-.608-41.056 18.464-47.104c18.784-5.952 42.912 39.68 68.48 57.248 19.328 13.28 34.016 10.368 34.016 10.368l68.384-.96s35.776-2.208 18.816-30.336z"/></symbol><symbol id="star" viewBox="0 0 53.867 53.867" style="enable-background:new 0 0 53.867 53.867;" xml:space="preserve"><polygon style="fill:#ffffff;" points="26.934,1.318 35.256,18.182 53.867,20.887 40.4,34.013 43.579,52.549 26.934,43.798 10.288,52.549 13.467,34.013 0,20.887 18.611,18.182 "/></symbol></svg>