<?xml version="1.0" encoding="utf-8"?><svg xmlns="http://www.w3.org/2000/svg" xmlns:xlink="http://www.w3.org/1999/xlink"><symbol viewBox="0 0 306 306" id="arrow-down" xmlns="http://www.w3.org/2000/svg"><path d="M270.3 58.65L153 175.95 35.7 58.65 0 94.35l153 153 153-153z"/></symbol><symbol viewBox="0 0 492 492" id="arrow-left" xmlns="http://www.w3.org/2000/svg"><path d="M198.608 246.104L382.664 62.04c5.068-5.056 7.856-11.816 7.856-19.024 0-7.212-2.788-13.968-7.856-19.032l-16.128-16.12C361.476 2.792 354.712 0 347.504 0s-13.964 2.792-19.028 7.864L109.328 227.008c-5.084 5.08-7.868 11.868-7.848 19.084-.02 7.248 2.76 14.028 7.848 19.112l218.944 218.932c5.064 5.072 11.82 7.864 19.032 7.864 7.208 0 13.964-2.792 19.032-7.864l16.124-16.12c10.492-10.492 10.492-27.572 0-38.06L198.608 246.104z"/></symbol><symbol viewBox="0 0 492.004 492.004" id="arrow-right" xmlns="http://www.w3.org/2000/svg"><path d="M382.678 226.804L163.73 7.86C158.666 2.792 151.906 0 144.698 0s-13.968 2.792-19.032 7.86l-16.124 16.12c-10.492 10.504-10.492 27.576 0 38.064L293.398 245.9l-184.06 184.06c-5.064 5.068-7.86 11.824-7.86 19.028 0 7.212 2.796 13.968 7.86 19.04l16.124 16.116c5.068 5.068 11.824 7.86 19.032 7.86s13.968-2.792 19.032-7.86L382.678 265c5.076-5.084 7.864-11.872 7.848-19.088.016-7.244-2.772-14.028-7.848-19.108z"/></symbol><symbol viewBox="0 0 284.929 284.929" id="arrow-up" xmlns="http://www.w3.org/2000/svg"><path d="M282.082 195.285L149.028 62.24c-1.901-1.903-4.088-2.856-6.562-2.856s-4.665.953-6.567 2.856L2.856 195.285C.95 197.191 0 199.378 0 201.853c0 2.474.953 4.664 2.856 6.566l14.272 14.271c1.903 1.903 4.093 2.854 6.567 2.854s4.664-.951 6.567-2.854l112.204-112.202 112.208 112.209c1.902 1.903 4.093 2.848 6.563 2.848 2.478 0 4.668-.951 6.57-2.848l14.274-14.277c1.902-1.902 2.847-4.093 2.847-6.566.001-2.476-.944-4.666-2.846-6.569z"/></symbol><symbol viewBox="0 0 512 512" id="basket" xmlns="http://www.w3.org/2000/svg"><path d="M501.333 170.664h-90.388L296.792 4.622c-3.313-4.865-9.958-6.063-14.833-2.75-4.854 3.344-6.083 9.979-2.75 14.833l105.846 153.958h-258.11L232.792 16.705c3.333-4.854 2.104-11.49-2.75-14.833-4.854-3.313-11.5-2.115-14.833 2.75L101.055 170.664H10.667A10.66 10.66 0 0 0 0 181.33a10.66 10.66 0 0 0 10.667 10.667h13.772l62.165 177.625c7.479 21.354 27.708 35.708 50.333 35.708h2.27c5.415 59.711 55.706 106.667 116.793 106.667s111.378-46.956 116.793-106.667h2.27c22.625 0 42.854-14.354 50.333-35.719l62.165-177.615h13.772A10.66 10.66 0 0 0 512 181.329a10.66 10.66 0 0 0-10.667-10.665zM256 490.664c-52.938 0-96-43.063-96-96s43.063-96 96-96 96 43.063 96 96-43.062 96-96 96zm149.271-128.105c-4.5 12.823-16.646 21.438-30.208 21.438h-2.27C367.378 324.286 317.087 277.33 256 277.33s-111.378 46.956-116.793 106.667h-2.27c-13.563 0-25.708-8.615-30.208-21.427l-59.7-170.573h417.943l-59.701 170.562z"/><path d="M301.792 355.122l-67.125 67.125-24.458-24.458c-4.167-4.167-10.917-4.167-15.083 0s-4.167 10.917 0 15.083l32 32a10.634 10.634 0 0 0 7.542 3.125c2.729 0 5.458-1.042 7.542-3.125l74.667-74.667c4.167-4.167 4.167-10.917 0-15.083-4.169-4.167-10.919-4.167-15.085 0z"/></symbol><symbol viewBox="0 0 373.878 373.878" id="basket1" xmlns="http://www.w3.org/2000/svg"><path d="M287.343 373.878H90.346c-18.546 0-33.633-15.087-33.633-33.615l-27.898-131.02c-10.534-5.223-17.469-15.899-17.469-27.792 0-17.399 14.152-31.533 31.533-31.533h288.102c17.381 0 31.551 14.134 31.551 31.533 0 10.182-4.923 19.499-13.128 25.375L320.746 342.38c.23 16.41-14.857 31.498-33.403 31.498zM42.879 170.599c-5.982 0-10.852 4.87-10.852 10.852 0 4.711 3.406 8.893 8.293 10.129a10.298 10.298 0 0 1 7.535 7.888l29.31 138.66c.229 9.264 6.035 15.052 13.164 15.052h196.997c7.147 0 12.934-5.788 12.934-12.934l29.804-142.083c.653-3.123 2.7-5.77 5.541-7.164 3.829-1.853 6.211-5.541 6.211-9.564 0-5.982-4.87-10.852-10.852-10.852H42.879v.016z"/><path d="M116.903 313.212c0 4.006-3.282 7.288-7.288 7.288h-1.994c-4.006 0-7.27-3.282-7.27-7.288v-85.176c0-4.006 3.282-7.27 7.27-7.27h2.012c4.006 0 7.288 3.282 7.288 7.27v85.176h-.018zm53.29 0c0 4.006-3.282 7.288-7.27 7.288h-2.029c-4.006 0-7.288-3.282-7.288-7.288v-85.176c0-4.006 3.282-7.27 7.288-7.27h2.012c4.006 0 7.27 3.282 7.27 7.27v85.176h.017zm53.272 0c0 4.006-3.282 7.288-7.27 7.288h-2.012c-4.006 0-7.288-3.282-7.288-7.288v-85.176c0-4.006 3.282-7.27 7.288-7.27h2.012c4.006 0 7.27 3.282 7.27 7.27v85.176zm53.291 0c0 4.006-3.282 7.288-7.288 7.288h-2.012c-4.006 0-7.27-3.282-7.27-7.288v-85.176c0-4.006 3.282-7.27 7.27-7.27h2.012c4.006 0 7.288 3.282 7.288 7.27v85.176zM187.151 0C120.203 0 65.924 54.278 65.924 121.226h21.934c0-54.843 44.45-99.292 99.292-99.292s99.292 44.45 99.292 99.292h21.934C308.359 54.278 254.098 0 187.151 0z"/></symbol><symbol viewBox="0 0 52.946 52.946" id="bowl" xmlns="http://www.w3.org/2000/svg"><path d="M52.946 16.736c0-4.107-10.196-6.5-21.558-7.034a105.33 105.33 0 0 0-9.829 0C10.197 10.237 0 12.63 0 16.736v.149c0 14.597 11.876 26.473 26.474 26.473 14.597 0 26.473-11.876 26.473-26.473v-.149h-.001zm-2 .001c-.001 2.1-9.534 5.149-24.473 5.149S2.002 18.836 2 16.737c.001-2.1 9.535-5.149 24.474-5.149s24.471 3.049 24.472 5.149zM26.474 41.358c-12.522 0-22.872-9.455-24.299-21.599 4.299 2.719 14.343 4.126 24.299 4.126s19.999-1.408 24.298-4.126c-1.428 12.145-11.777 21.599-24.298 21.599z"/></symbol><symbol viewBox="0 0 511.634 511.634" id="calendar" xmlns="http://www.w3.org/2000/svg"><path d="M482.513 83.942c-7.225-7.233-15.797-10.85-25.694-10.85h-36.544v-27.41c0-12.56-4.477-23.315-13.422-32.26C397.904 4.474 387.154 0 374.59 0h-18.267c-12.565 0-23.318 4.475-32.264 13.422-8.95 8.945-13.425 19.7-13.425 32.26v27.41h-109.63v-27.41c0-12.56-4.475-23.314-13.422-32.26C178.64 4.475 167.883 0 155.32 0h-18.27c-12.562 0-23.317 4.475-32.264 13.422-8.945 8.945-13.42 19.7-13.42 32.26v27.41H54.822c-9.9 0-18.464 3.618-25.697 10.85-7.233 7.233-10.85 15.8-10.85 25.698v365.453c0 9.89 3.617 18.456 10.85 25.693 7.232 7.23 15.796 10.85 25.697 10.85h401.99c9.896 0 18.47-3.618 25.693-10.85 7.234-7.234 10.852-15.804 10.852-25.693V109.64c0-9.9-3.615-18.465-10.845-25.698zM347.187 45.686c0-2.667.85-4.858 2.56-6.567 1.71-1.714 3.9-2.57 6.57-2.57h18.268c2.67 0 4.853.853 6.57 2.57 1.712 1.71 2.567 3.9 2.567 6.564v82.224c0 2.665-.855 4.852-2.567 6.566-1.718 1.71-3.9 2.568-6.57 2.568h-18.268c-2.67 0-4.86-.855-6.57-2.568-1.71-1.715-2.56-3.9-2.56-6.567V45.685zm-219.272 0c0-2.667.855-4.858 2.568-6.567 1.714-1.714 3.9-2.57 6.567-2.57h18.27c2.668 0 4.86.853 6.568 2.57 1.71 1.71 2.57 3.9 2.57 6.564v82.224c0 2.665-.855 4.855-2.57 6.566-1.713 1.71-3.9 2.568-6.567 2.568h-18.27c-2.664 0-4.854-.855-6.565-2.568-1.71-1.715-2.568-3.9-2.568-6.567V45.685zm328.897 429.402H54.822v-292.36h401.99v292.36z"/></symbol><symbol viewBox="0 0 54.971 54.971" id="chain" xmlns="http://www.w3.org/2000/svg"><path d="M51.173 3.8c-5.068-5.067-13.315-5.065-18.384 0l-9.2 9.193c-.78.78-.78 2.047 0 2.828.78.79 2.046.79 2.83 0l9.19-9.19a8.932 8.932 0 0 1 6.363-2.62c2.412 0 4.672.93 6.363 2.628S50.96 10.588 50.96 13c0 2.41-.932 4.67-2.623 6.362L36.324 31.38c-3.51 3.507-9.217 3.507-12.727 0a2 2 0 1 0-2.828 2.827c2.53 2.534 5.86 3.8 9.19 3.8s6.66-1.266 9.19-3.8l12.02-12.02c2.45-2.447 3.796-5.712 3.796-9.193 0-3.482-1.35-6.746-3.798-9.193z"/><path d="M27.132 40.57l-7.778 7.778a8.936 8.936 0 0 1-6.364 2.623 8.938 8.938 0 0 1-6.364-2.62c-3.51-3.51-3.51-9.22 0-12.73L17.94 24.31a8.935 8.935 0 0 1 6.364-2.622c2.412 0 4.672.932 6.363 2.622a2 2 0 0 0 2.828-2.828c-5.067-5.068-13.314-5.07-18.384 0L3.8 32.792C1.35 35.24.003 38.502.003 41.985c0 3.48 1.348 6.745 3.795 9.19a12.9 12.9 0 0 0 9.19 3.796c3.482 0 6.747-1.34 9.193-3.79l7.78-7.78c.78-.78.78-2.042 0-2.83s-2.04-.78-2.82 0z"/></symbol><symbol viewBox="0 0 448.8 448.8" id="check" xmlns="http://www.w3.org/2000/svg"><path d="M142.8 323.85L35.7 216.75 0 252.45l142.8 142.8 306-306-35.7-35.7z"/></symbol><symbol viewBox="0 0 60 60" id="clock" xmlns="http://www.w3.org/2000/svg"><path d="M30 0C13.458 0 0 13.458 0 30s13.458 30 30 30 30-13.458 30-30S46.542 0 30 0zm0 58C14.561 58 2 45.439 2 30S14.561 2 30 2s28 12.561 28 28-12.561 28-28 28z"/><path d="M31 26.021V15.879a1 1 0 1 0-2 0v10.142a3.995 3.995 0 0 0-2.858 2.858H19a1 1 0 1 0 0 2h7.142c.447 1.72 2 3 3.858 3 2.206 0 4-1.794 4-4 0-1.859-1.28-3.411-3-3.858zm-1 5.858c-1.103 0-2-.897-2-2s.897-2 2-2 2 .897 2 2-.897 2-2 2zm0-22a1 1 0 0 0 1-1v-1a1 1 0 1 0-2 0v1a1 1 0 0 0 1 1zm0 40a1 1 0 0 0-1 1v1a1 1 0 1 0 2 0v-1a1 1 0 0 0-1-1zm22-21h-1a1 1 0 1 0 0 2h1a1 1 0 1 0 0-2zm-43 0H8a1 1 0 1 0 0 2h1a1 1 0 1 0 0-2zm35.849-15.264l-.707.707a.999.999 0 1 0 1.414 1.414l.707-.707a.999.999 0 1 0-1.414-1.414zM14.444 44.021l-.707.707a.999.999 0 1 0 1.414 1.414l.707-.707a.999.999 0 1 0-1.414-1.414zm31.112 0a.999.999 0 1 0-1.414 1.414l.707.707a.997.997 0 0 0 1.414 0 .999.999 0 0 0 0-1.414l-.707-.707zM15.151 13.615a.999.999 0 1 0-1.414 1.414l.707.707a.997.997 0 0 0 1.414 0 .999.999 0 0 0 0-1.414l-.707-.707z"/></symbol><symbol viewBox="0 0 512 512" id="delivery" xmlns="http://www.w3.org/2000/svg"><path d="M476.158 231.363l-13.26-53.035c3.626-.77 6.346-3.986 6.346-7.84v-8.55c0-18.566-15.105-33.67-33.67-33.67h-60.392V110.63c0-9.136-7.432-16.568-16.568-16.568H50.772c-9.136 0-16.568 7.432-16.568 16.568V256a8.018 8.018 0 1 0 16.037 0V110.63c0-.295.24-.534.54-.534h307.84c.3 0 .54.24.54.534v145.372c0 4.427 3.59 8.017 8.02 8.017s8.018-3.59 8.018-8.02v-9.09h94.61c11.637 0 21.518 7.64 24.91 18.17h-24.93c-4.426 0-8.016 3.59-8.016 8.01v17.11c0 13.85 11.268 25.12 25.12 25.12h9.085v35.27H475.01c-6.886-19.886-25.787-34.208-47.982-34.208s-41.096 14.322-47.98 34.205h-3.86V290.2a8.018 8.018 0 0 0-16.035-.001v60.39H192.82c-6.888-19.89-25.79-34.21-47.984-34.21s-41.096 14.32-47.982 34.2h-46.08a.536.536 0 0 1-.535-.54v-17.63h34.74c4.42 0 8.01-3.59 8.01-8.017s-3.59-8.017-8.02-8.017H8.01c-4.42.013-8.01 3.603-8.01 8.03s3.59 8.016 8.017 8.016h26.188v17.637c0 9.14 7.432 16.57 16.568 16.57h43.304c-.002.18-.014.357-.014.536 0 27.996 22.777 50.772 50.772 50.772s50.772-22.78 50.772-50.775c0-.18-.012-.356-.014-.534h180.67c-.002.18-.014.36-.014.54 0 28 22.77 50.77 50.77 50.77 27.99 0 50.77-22.77 50.77-50.77 0-.18-.01-.353-.02-.53h26.2c4.42 0 8.01-3.59 8.01-8.02V273.1c0-21.112-15.577-38.653-35.84-41.74zM375.182 144.3h60.392c9.725 0 17.637 7.913 17.637 17.638v.534h-78.02v-18.17zm0 86.58v-52.375h71.235l13.094 52.376h-84.32zM144.835 401.905c-19.155 0-34.74-15.583-34.74-34.74s15.585-34.738 34.74-34.738 34.74 15.583 34.74 34.74-15.585 34.738-34.74 34.738zm282.188 0c-19.155 0-34.74-15.583-34.74-34.74s15.585-34.738 34.74-34.738 34.74 15.583 34.74 34.74-15.585 34.738-34.74 34.738zm68.944-102.614h-9.086c-5.01 0-9.08-4.07-9.08-9.08v-9.08h18.17v18.17z"/><path d="M144.835 350.597c-9.136 0-16.568 7.432-16.568 16.568 0 9.136 7.432 16.568 16.568 16.568 9.136 0 16.568-7.432 16.568-16.568 0-9.136-7.432-16.568-16.568-16.568zm282.188 0c-9.136 0-16.568 7.432-16.568 16.568 0 9.136 7.432 16.568 16.568 16.568 9.136 0 16.568-7.432 16.568-16.568 0-9.136-7.43-16.568-16.56-16.568zm-94.063-34.204H213.244a8.018 8.018 0 0 0 0 16.034H332.96a8.018 8.018 0 0 0 0-16.034zm-205.227-34.205H25.12a8.018 8.018 0 0 0-.001 16.034h102.61c4.42 0 8.01-3.59 8.01-8.017s-3.59-8.017-8.02-8.017zM278.77 173.37a8.016 8.016 0 0 0-11.336 0l-71.292 71.292-37.087-37.087a8.018 8.018 0 0 0-11.337 11.337l42.756 42.756c1.565 1.566 3.617 2.348 5.668 2.348s4.104-.782 5.668-2.348l76.96-76.96a8.019 8.019 0 0 0 0-11.338z"/></symbol><symbol viewBox="0 0 250 250" id="diameter" xmlns="http://www.w3.org/2000/svg"><path d="M116.39 9.59c25.44-1.54 51.3 6.1 71.86 21.14 18.42 13.39 32.49 32.61 39.71 54.2 6.34 18.54 7.48 38.81 3.51 57.98-5.21 25.32-19.57 48.68-40 64.56-28.04 22.43-67.33 29.83-101.53 18.8-23.29-7.16-44.1-22.23-57.95-42.29-15.2-21.59-22.33-48.75-19.49-75.01 2.7-26.42 15.2-51.74 34.71-69.78 18.72-17.46 43.62-28.16 69.18-29.6M62.36 36.31C44.04 49.34 30.34 68.6 23.84 90.11c-7.32 23.6-5.7 49.83 4.5 72.33l-.49.44.64-.09c5.57 12.44 13.62 23.8 23.62 33.07 17.5 16.46 40.92 26.46 64.9 27.76 22 1.33 44.34-4.74 62.7-16.9 21.07-13.64 36.66-35.36 43.05-59.61 6.19-22.58 4.2-47.21-5.26-68.6l.61-.53-.82.1a103.285 103.285 0 0 0-27.59-36.8c-19.2-16.32-44.54-25.22-69.73-24.46-20.57.53-40.94 7.4-57.61 19.49z"/><path opacity=".98" d="M62.36 36.31c16.67-12.09 37.04-18.96 57.61-19.49 25.19-.76 50.53 8.14 69.73 24.46a103.285 103.285 0 0 1 27.59 36.8c-13.56 1.9-27.13 3.7-40.64 5.83 4.11 1.52 8.21 3.08 12.31 4.66-44.67 19.7-89.23 39.65-133.77 59.64 1.61-4.1 3.19-8.22 4.72-12.36-10.5 8.89-21.15 17.61-31.57 26.59-10.2-22.5-11.82-48.73-4.5-72.33 6.5-21.51 20.2-40.77 38.52-53.8zm123.62 68.65c10.5-8.83 21.08-17.56 31.52-26.45 9.46 21.39 11.45 46.02 5.26 68.6-6.39 24.25-21.98 45.97-43.05 59.61-18.36 12.16-40.7 18.23-62.7 16.9-23.98-1.3-47.4-11.3-64.9-27.76-10-9.27-18.05-20.63-23.62-33.07 13.59-1.92 27.17-3.83 40.75-5.83-4.07-1.66-8.14-3.28-12.29-4.7 44.63-19.84 89.26-39.7 133.81-59.72-1.64 4.12-3.18 8.28-4.78 12.42z"/><path d="M176.65 83.91c13.51-2.13 27.08-3.93 40.64-5.83l.82-.1-.61.53c-10.44 8.89-21.02 17.62-31.52 26.45 1.6-4.14 3.14-8.3 4.78-12.42-44.55 20.02-89.18 39.88-133.81 59.72 4.15 1.42 8.22 3.04 12.29 4.7-13.58 2-27.16 3.91-40.75 5.83l-.64.09.49-.44c10.42-8.98 21.07-17.7 31.57-26.59-1.53 4.14-3.11 8.26-4.72 12.36 44.54-19.99 89.1-39.94 133.77-59.64-4.1-1.58-8.2-3.14-12.31-4.66z"/></symbol><symbol viewBox="0 0 51.997 51.997" id="favorities" xmlns="http://www.w3.org/2000/svg"><path d="M51.911 16.242c-.759-8.354-6.672-14.415-14.072-14.415-4.93 0-9.444 2.653-11.984 6.905-2.517-4.307-6.846-6.906-11.697-6.906C6.759 1.826.845 7.887.087 16.241c-.06.369-.306 2.311.442 5.478 1.078 4.568 3.568 8.723 7.199 12.013l18.115 16.439 18.426-16.438c3.631-3.291 6.121-7.445 7.199-12.014.748-3.166.502-5.108.443-5.477zm-2.39 5.019c-.984 4.172-3.265 7.973-6.59 10.985L25.855 47.481 9.072 32.25c-3.331-3.018-5.611-6.818-6.596-10.99-.708-2.997-.417-4.69-.416-4.701l.015-.101c.65-7.319 5.731-12.632 12.083-12.632 4.687 0 8.813 2.88 10.771 7.515l.921 2.183.921-2.183c1.927-4.564 6.271-7.514 11.069-7.514 6.351 0 11.433 5.313 12.096 12.727.002.016.293 1.71-.415 4.707z"/></symbol><symbol viewBox="0 0 96.124 96.123" id="fb" xmlns="http://www.w3.org/2000/svg"><path d="M72.089.02L59.624 0C45.62 0 36.57 9.285 36.57 23.656v10.907H24.037a1.96 1.96 0 0 0-1.96 1.961v15.803a1.96 1.96 0 0 0 1.96 1.96H36.57v39.876a1.96 1.96 0 0 0 1.96 1.96h16.352a1.96 1.96 0 0 0 1.96-1.96V54.287h14.654a1.96 1.96 0 0 0 1.96-1.96l.006-15.803a1.963 1.963 0 0 0-1.961-1.961H56.842v-9.246c0-4.444 1.059-6.7 6.848-6.7l8.397-.003a1.96 1.96 0 0 0 1.959-1.96V1.98A1.96 1.96 0 0 0 72.089.02z"/></symbol><symbol viewBox="0 0 100.5 100.5" id="guarantee" xmlns="http://www.w3.org/2000/svg"><path d="M63.43 39.02L46.55 57.93l-8.565-8.566a1.498 1.498 0 1 0-2.12 2.12l9.687 9.69c.28.28.663.438 1.06.438h.043a1.508 1.508 0 0 0 1.077-.5L65.67 41.018a1.502 1.502 0 0 0-.12-2.12 1.506 1.506 0 0 0-2.12.12z"/><path d="M92.075 50c.028-.114.047-.232.047-.355 0-3.998-4.147-6.064-7.807-7.888-2.598-1.294-5.283-2.633-5.998-4.32-.728-1.722.3-4.528 1.292-7.243 1.38-3.783 2.81-7.694.17-10.33-2.59-2.59-6.37-1.713-10.04-.862-2.56.594-5.22 1.207-6.98.46-1.73-.728-3.16-2.988-4.54-5.176-2.01-3.17-4.29-6.762-8.24-6.762-3.96 0-6.19 3.67-8.16 6.91-1.37 2.25-2.78 4.574-4.5 5.302-1.76.745-4.44.07-7.03-.58-3.69-.927-7.51-1.89-10.1.708-2.62 2.62-1.35 6.55-.12 10.354.88 2.713 1.78 5.52 1.05 7.256-.72 1.694-3.28 3.02-5.77 4.305-3.52 1.81-7.5 3.87-7.5 7.86 0 .12.02.24.05.36-.03.11-.05.23-.05.35 0 3.99 3.98 6.05 7.5 7.86 2.48 1.28 5.05 2.61 5.76 4.3.73 1.73-.18 4.54-1.05 7.25-1.23 3.8-2.5 7.73.12 10.35 2.59 2.59 6.41 1.63 10.1.71 2.59-.65 5.27-1.33 7.02-.58 1.72.72 3.13 3.05 4.5 5.3 1.97 3.23 4.2 6.91 8.15 6.91s6.23-3.6 8.235-6.77c1.385-2.19 2.82-4.45 4.54-5.18 1.77-.75 4.415-.14 6.98.46 3.655.85 7.44 1.73 10.03-.86 2.64-2.64 1.21-6.55-.176-10.33-.99-2.72-2.02-5.53-1.29-7.25.72-1.69 3.4-3.03 6-4.32 3.66-1.83 7.81-3.89 7.81-7.89 0-.13-.02-.25-.044-.36zm-9.097 5.56c-3.085 1.537-6.275 3.127-7.424 5.838-1.187 2.81.046 6.18 1.238 9.44 1.108 3.03 2.156 5.896.87 7.18-1.41 1.412-4.24.755-7.233.06-3.03-.7-6.16-1.428-8.83-.3-2.59 1.093-4.27 3.757-5.91 6.333-1.75 2.76-3.4 5.37-5.7 5.37-2.27 0-3.89-2.65-5.6-5.47-1.62-2.65-3.28-5.4-5.9-6.5-2.69-1.14-5.86-.34-8.93.44-3.01.76-5.86 1.48-7.25.08-1.32-1.32-.38-4.23.61-7.31 1.04-3.23 2.12-6.58.96-9.35-1.14-2.69-4.2-4.27-7.15-5.8-3.03-1.56-5.89-3.04-5.89-5.2 0-.12-.02-.24-.05-.36.02-.11.04-.23.04-.35 0-2.16 2.855-3.64 5.88-5.2 2.955-1.52 6.012-3.1 7.15-5.8 1.17-2.76.09-6.11-.96-9.35-.996-3.08-1.937-5.98-.61-7.31 1.39-1.39 4.232-.67 7.244.08 3.07.77 6.24 1.58 8.93.44 2.61-1.1 4.28-3.85 5.892-6.5 1.71-2.81 3.324-5.47 5.593-5.47 2.295 0 3.95 2.61 5.695 5.37 1.633 2.58 3.32 5.24 5.91 6.34 2.66 1.13 5.792.4 8.82-.3 2.993-.69 5.82-1.35 7.233.06 1.28 1.29.23 4.15-.87 7.18-1.2 3.26-2.43 6.63-1.24 9.44 1.15 2.71 4.34 4.3 7.42 5.84 3.16 1.58 6.145 3.06 6.145 5.2 0 .13.02.25.05.36-.03.12-.044.23-.044.36 0 2.15-2.983 3.63-6.143 5.21z"/></symbol><symbol viewBox="0 0 51.997 51.997" id="heart" xmlns="http://www.w3.org/2000/svg"><path d="M51.911 16.242c-.759-8.354-6.672-14.415-14.072-14.415-4.93 0-9.444 2.653-11.984 6.905-2.517-4.307-6.846-6.906-11.697-6.906C6.759 1.826.845 7.887.087 16.241c-.06.369-.306 2.311.442 5.478 1.078 4.568 3.568 8.723 7.199 12.013l18.115 16.439 18.426-16.438c3.631-3.291 6.121-7.445 7.199-12.014.748-3.166.502-5.108.443-5.477zm-2.39 5.019c-.984 4.172-3.265 7.973-6.59 10.985L25.855 47.481 9.072 32.25c-3.331-3.018-5.611-6.818-6.596-10.99-.708-2.997-.417-4.69-.416-4.701l.015-.101c.65-7.319 5.731-12.632 12.083-12.632 4.687 0 8.813 2.88 10.771 7.515l.921 2.183.921-2.183c1.927-4.564 6.271-7.514 11.069-7.514 6.351 0 11.433 5.313 12.096 12.727.002.016.293 1.71-.415 4.707z"/></symbol><symbol viewBox="0 0 512 512" id="idea" xmlns="http://www.w3.org/2000/svg"><path d="M256 92.3c-74.2 0-127.8 55.3-136.3 114.7-5.3 39.6 7.5 78.2 34.1 107.4 23.4 25 36.2 58.4 36.2 92.8l-.1 54.2c0 21.9 18.1 39.6 40.5 39.6h52.2c22.4 0 40.5-17.7 40.5-39.6l.1-54.2c0-35.4 11.7-67.8 34.1-90.7 24.5-25 37.3-57.3 37.3-90.7-.1-74.1-63-133.5-138.6-133.5zm46.8 369.1c0 10.4-8.5 18.8-19.2 18.8h-52.2c-10.7 0-19.2-8.3-19.2-18.8v-24h90.5v24zm39.6-159.5c-26.6 27.1-40.5 64.6-40.5 105.3v9.4h-90.5v-9.4c0-38.6-16-77.1-42.6-106.3-23.4-25-33-57.3-28.8-90.7 7.5-50 54-97 116.1-97 65 0 117.2 51.1 117.2 112.6 0 28.1-10.7 55.2-30.9 76.1zM245.3 11h21.3v50h-21.3zm139.8 96.4l14.9 14.9 36.5-35.1-15-14.9zm63.7 128.8H501v20.9h-52.2zm-437.8 0h52.2v20.9H11zm79.1-164l-15 14.9 36.5 35.1 14.9-14.9z"/></symbol><symbol viewBox="0 0 97.395 97.395" id="instagram" xmlns="http://www.w3.org/2000/svg"><path d="M12.501 0h72.393c6.875 0 12.5 5.09 12.5 12.5v72.395c0 7.41-5.625 12.5-12.5 12.5H12.501C5.624 97.395 0 92.305 0 84.895V12.5C0 5.09 5.624 0 12.501 0zm58.447 10.821a4.395 4.395 0 0 0-4.383 4.385v10.495a4.396 4.396 0 0 0 4.383 4.385h11.008a4.398 4.398 0 0 0 4.385-4.385V15.206a4.397 4.397 0 0 0-4.385-4.385H70.948zm15.439 30.367h-8.572a28.486 28.486 0 0 1 1.25 8.355c0 16.2-13.556 29.332-30.275 29.332-16.718 0-30.272-13.132-30.272-29.332 0-2.904.438-5.708 1.25-8.355h-8.945v41.141a3.884 3.884 0 0 0 3.872 3.872h67.822a3.883 3.883 0 0 0 3.872-3.872V41.188h-.002zM48.789 29.533c-10.802 0-19.56 8.485-19.56 18.953s8.758 18.953 19.56 18.953c10.803 0 19.562-8.485 19.562-18.953s-8.758-18.953-19.562-18.953z"/></symbol><symbol id="kitchentime_logo" viewBox="0 0 315 65" xmlns="http://www.w3.org/2000/svg"><style>.atst0{fill:#8ac900}</style><path d="M5.4.5h4.9c.4 7.1.1 14.3.2 21.4H5.3c-.6-5.8-1.5-11.5-1.4-17.4-.1-1.5.6-2.8 1.5-4zm14.5 15.1c4.3-.2 8.7-.1 13.1-.1v4.1c-1.3.4-3.2-.4-4.2.9-3.2 4.2-6.1 8.6-9.2 12.9 3.5 4.7 5.9 10.1 9.1 15 .9 1.5 2.9 1 4.2 1.4V54c-2.9-.4-6.9.8-8.7-2.2-3.6-6-6.8-12.3-10.3-18.3 3.2-4.5 6.3-9.1 9.5-13.7-1.2-.1-2.3-.2-3.5-.3v-3.9zm20.5-.1h5.5v5.4h-5.5v-5.4zm52.4.1c3.3-.1 6.5-.1 9.8-.1v16C106 25 117.3 23 121 30c2.1 6.2.7 12.9 1.1 19.4 1.4 0 2.8 0 4.2.1v4h-9.6c0-5.6.1-11.3 0-16.9-.1-2-.4-4.7-2.6-5.6-4.6-1.8-9.7 1.5-10.9 6.1-1 4-.5 8.3-.6 12.4h4.3v4H93.1v-4h4.3V19.8c-1.5 0-3.1-.1-4.6-.2v-4zm-39.3 3.2h5c.1 2.5.1 5 .1 7.5 2 0 4-.1 6 .1.9 1.1.3 2.7.6 4-2.2 0-4.4 0-6.6.1.2 5.1-.5 10.4.4 15.4.8 2.9 4 3.4 6.6 3.6v4.3c-4.4.2-9.9-.9-11.5-5.6-1.5-5.8-.4-11.9-.8-17.8h-4.5v-4.2h4.6c0-2.4.1-4.9.1-7.4zm-53 4.3h10.1c-.2 14.1 0 28.3-.1 42.4h-.7c-2.2-2-4-4.5-5-7.4-3.2-8.6-3.7-17.9-4.3-27v-8z"/><path d="M70.3 29.2c5-4.4 13.1-4.8 18.6-1.1 2.3 1.6 1.8 4.7 2 7.1h-4.5c.3-5.1-6.1-5.8-9.7-4.3-7.4 2.7-7.5 14.8-.3 17.8 4.4 2.1 9.3.2 13-2.5.7 1.3 1.3 2.5 2 3.7-5.5 4.9-14.5 5.8-20.5 1.1-6.7-5-6.9-16.3-.6-21.8zm63-.9c5-3.7 13-3.8 17.2 1.2 2.6 3 2.9 7.1 2.9 10.9-6.7.1-13.5 0-20.2.1.6 3.3 2 6.8 5.3 8.2 4.1 2.1 8.9.4 12.5-2 .7 1.3 1.4 2.6 2.2 3.9-5.4 3.9-13.2 5.1-19 1.3-7.9-5.1-8.3-18.1-.9-23.6zm.2 8.7h14.6c-.5-2.9-1.8-6.3-5-6.9-4.6-1.2-8.8 2.5-9.6 6.9zm32.3-5.5c3.4-6.1 13.7-8.5 18-2.2 2.7 6.3.9 13.5 1.4 20.2h4.3v4.1c-3.2 0-6.4 0-9.6-.1.1-5.6.1-11.2 0-16.8-.1-2.1-.4-4.9-2.7-5.7-3.8-1.4-8.2.8-9.9 4.4-2.2 4.4-1.1 9.4-1.4 14.1 1.4.1 2.9.1 4.3.2v3.9c-4.6.1-9.2.1-13.8.1v-4h4.2c0-6.3.1-12.6-.1-19-1.5 0-2.9-.1-4.4-.1v-4.1c2.7.1 5.6-.3 8.3.4 1.7.6 1 3 1.4 4.6zM35.9 26.3h9.8v23.1c1.4 0 2.8 0 4.3.1v4H36.2v-4h4.3V30.4H36c0-1.4-.1-2.8-.1-4.1z"/><path class="atst0" d="M189.6 15.5c10.9 0 21.7-.1 32.6 0v10.4c-1.6 0-3.2-.1-4.8-.1 0-1.9 0-3.9.1-5.8h-8.9c0 9.7.1 19.4-.1 29.1 1.6.1 3.2.1 4.8.3.1 1.4.1 2.7.2 4.1h-15.1v-4.2h4.8c0-9.8.1-19.5-.1-29.3h-8.8c0 2-.1 4-.1 5.9-1.5 0-3.1-.1-4.6-.1V15.5zm38.8 0h5.5v5.4h-5.5v-5.4zm21.4 16.1c2.6-4.2 7.6-7.2 12.6-5.6 2.7.6 3.8 3.2 5 5.3 2.3-2.8 5.1-5.6 9-5.7 3.9-.5 8.2 1.7 9 5.8 1.1 5.9.4 11.9.5 17.9 1.5.1 2.9.1 4.4.2v4h-9.6v-16c-.1-2.2 0-4.8-1.9-6.3-3-1.9-7.2-.3-8.8 2.7-2.9 4.6-1.7 10.3-1.9 15.5h4.2v4h-9.6c0-5.7.1-11.3 0-17 0-2-.3-4.7-2.5-5.6-3.1-1.3-6.6.4-8.3 3.2-2.9 4.6-1.8 10.3-2 15.4h4.3v4h-13.8v-4.1h4.2c0-6.3.1-12.6 0-19-1.5 0-3-.1-4.4-.1v-4.1c2.7.1 5.4-.3 8.1.4 2 .9 1.3 3.4 1.5 5.1zm43.1-.7c3.8-5.4 12-7 17.6-3.4 3.1 2 4.5 5.6 5 9.2v4.1c-6.7-.6-13.5-.2-20.3-.3.8 2.9 1.7 6.3 4.7 7.8 4.1 2.6 9.2 1 13-1.4.9 1 1.7 2 2.5 3v.5c-5.4 4.1-13.4 5.4-19.3 1.5-6.6-4.5-7.8-14.6-3.2-21zm2.7 6.1c4.9.1 9.8.1 14.7 0-.5-3.2-2.3-6.9-5.9-7.1-4.4-.6-7.9 3.1-8.8 7.1zm-71.7-6.7c.1-1.4.2-2.7.3-4h9.6v23.1c1.4.1 2.9.1 4.4.2 0 1.3 0 2.6.1 3.9-4.6.2-9.3.1-13.9.1v-4.1h4.3v-19c-1.8-.1-3.3-.2-4.8-.2z"/></symbol><symbol viewBox="0 0 512 512" id="location" xmlns="http://www.w3.org/2000/svg"><path d="M256 0C150.125 0 64 86.135 64 192c0 141.646 177.146 310 184.688 317.104C250.75 511.031 253.375 512 256 512s5.25-.969 7.313-2.896C270.854 502 448 333.646 448 192 448 86.135 361.875 0 256 0zm0 486.406C222.479 452.938 85.333 308.833 85.333 192c0-94.104 76.563-170.667 170.667-170.667S426.667 97.896 426.667 192c0 116.833-137.146 260.938-170.667 294.406z"/><path d="M256 85.333c-58.813 0-106.667 47.854-106.667 106.667S197.188 298.667 256 298.667 362.667 250.813 362.667 192 314.813 85.333 256 85.333zm0 192c-47.063 0-85.333-38.281-85.333-85.333s38.271-85.333 85.333-85.333 85.333 38.281 85.333 85.333-38.27 85.333-85.333 85.333z"/></symbol><symbol viewBox="0 0 482.9 482.9" id="login" xmlns="http://www.w3.org/2000/svg"><path d="M239.7 260.2h3.2c29.3-.5 53-10.8 70.5-30.5 38.5-43.4 32.1-117.8 31.4-124.9-2.5-53.3-27.7-78.8-48.5-90.7C280.8 5.2 262.7.4 242.5 0h-1.7c-11.1 0-32.9 1.8-53.8 13.7-21 11.9-46.6 37.4-49.1 91.1-.7 7.1-7.1 81.5 31.4 124.9 17.4 19.7 41.1 30 70.4 30.5zm-75.1-152.9c0-.3.1-.6.1-.8 3.3-71.7 54.2-79.4 76-79.4h1.2c27 .6 72.9 11.6 76 79.4 0 .3 0 .6.1.8.1.7 7.1 68.7-24.7 104.5-12.6 14.2-29.4 21.2-51.5 21.4h-1c-22-.2-38.9-7.2-51.4-21.4-31.7-35.6-24.9-103.9-24.8-104.5z"/><path d="M446.8 383.6v-.3c0-.8-.1-1.6-.1-2.5-.6-19.8-1.9-66.1-45.3-80.9-.3-.1-.7-.2-1-.3-45.1-11.5-82.6-37.5-83-37.8-6.1-4.3-14.5-2.8-18.8 3.3-4.3 6.1-2.8 14.5 3.3 18.8 1.7 1.2 41.5 28.9 91.3 41.7 23.3 8.3 25.9 33.2 26.6 56 0 .9 0 1.7.1 2.5.1 9-.5 22.9-2.1 30.9-16.2 9.2-79.7 41-176.3 41-96.2 0-160.1-31.9-176.4-41.1-1.6-8-2.3-21.9-2.1-30.9 0-.8.1-1.6.1-2.5.7-22.8 3.3-47.7 26.6-56 49.8-12.8 89.6-40.6 91.3-41.7 6.1-4.3 7.6-12.7 3.3-18.8-4.3-6.1-12.7-7.6-18.8-3.3-.4.3-37.7 26.3-83 37.8-.4.1-.7.2-1 .3-43.4 14.9-44.7 61.2-45.3 80.9 0 .9 0 1.7-.1 2.5v.3c-.1 5.2-.2 31.9 5.1 45.3 1 2.6 2.8 4.8 5.2 6.3 3 2 74.9 47.8 195.2 47.8s192.2-45.9 195.2-47.8c2.3-1.5 4.2-3.7 5.2-6.3 5-13.3 4.9-40 4.8-45.2z"/></symbol><symbol viewBox="0 0 511.999 511.999" id="mail" xmlns="http://www.w3.org/2000/svg"><path d="M444.253 47.065H67.747C30.392 47.065.002 77.456.002 114.81v282.379c0 37.355 30.39 67.745 67.745 67.745h376.506c37.355 0 67.745-30.391 67.745-67.745V114.81c0-37.355-30.39-67.745-67.745-67.745zm26.381 350.124c0 14.546-11.835 26.381-26.381 26.381H67.747c-14.546 0-26.381-11.835-26.381-26.381V114.81c0-14.546 11.835-26.381 26.381-26.381h376.506c14.546 0 26.381 11.835 26.381 26.381v282.379z"/><path d="M508.259 102.95c-6.549-9.357-19.443-11.633-28.804-5.083L255.999 254.284 32.544 97.866c-9.357-6.551-22.253-4.274-28.803 5.083s-4.274 22.253 5.083 28.803L244.14 296.474a20.652 20.652 0 0 0 11.86 3.738c4.149 0 8.299-1.246 11.86-3.738l235.316-164.721c9.357-6.55 11.633-19.446 5.083-28.803z"/></symbol><symbol viewBox="0 0 29.731 29.731" id="phone" xmlns="http://www.w3.org/2000/svg"><path d="M23.895 29.731c-1.237 0-2.731-.31-4.374-.93-3.602-1.358-7.521-4.042-11.035-7.556C4.971 17.73 2.287 13.81.928 10.208-.307 6.933-.31 4.245.921 3.015c.177-.177.357-.367.543-.563C2.587 1.271 3.856-.058 5.538.002 6.697.05 7.82.77 8.97 2.201c3.398 4.226 1.866 5.732.093 7.478l-.313.31c-.29.29-.838 1.633 4.26 6.731 1.664 1.664 3.083 2.882 4.217 3.619.714.464 1.991 1.166 2.515.642l.315-.318c1.744-1.769 3.25-3.296 7.473.099 1.431 1.15 2.15 2.272 2.198 3.433.069 1.681-1.27 2.953-2.452 4.075-.195.186-.385.366-.562.542-.611.612-1.588.919-2.819.919zM5.418 1C4.223 1 3.144 2.136 2.189 3.141c-.192.202-.378.398-.561.581-.917.916-.824 3.323.236 6.134 1.31 3.472 3.913 7.266 7.33 10.683 3.416 3.415 7.208 6.018 10.681 7.327 2.811 1.062 5.218 1.152 6.133.237.183-.183.379-.369.581-.56 1.027-.976 2.192-2.082 2.141-3.309-.035-.843-.649-1.75-1.825-2.695-3.519-2.83-4.503-1.831-6.135-.176l-.32.323c-.78.781-2.047.608-3.767-.51-1.193-.776-2.667-2.038-4.379-3.751-4.231-4.23-5.584-6.819-4.26-8.146l.319-.315c1.659-1.632 2.66-2.617-.171-6.138-.947-1.175-1.853-1.789-2.696-1.825L5.418 1z"/></symbol><symbol viewBox="0 0 314.068 314.068" id="play" xmlns="http://www.w3.org/2000/svg"><path d="M293.002 78.53C249.646 3.435 153.618-22.296 78.529 21.068 3.434 64.418-22.298 160.442 21.066 235.534c43.35 75.095 139.375 100.83 214.465 57.47 75.096-43.365 100.84-139.384 57.471-214.474zm-73.168 187.271c-60.067 34.692-136.894 14.106-171.576-45.973C13.568 159.761 34.161 82.935 94.23 48.26c60.071-34.69 136.894-14.106 171.578 45.971 34.685 60.076 14.098 136.886-45.974 171.57zm-6.279-115.149l-82.214-47.949c-7.492-4.374-13.535-.877-13.493 7.789l.421 95.174c.038 8.664 6.155 12.191 13.669 7.851l81.585-47.103c7.506-4.332 7.522-11.388.032-15.762z"/></symbol><symbol viewBox="0 0 482.5 482.5" id="printer" xmlns="http://www.w3.org/2000/svg"><path d="M399.25 98.9h-12.4V71.3c0-39.3-32-71.3-71.3-71.3h-149.7c-39.3 0-71.3 32-71.3 71.3v27.6h-11.3c-39.3 0-71.3 32-71.3 71.3v115c0 39.3 32 71.3 71.3 71.3h11.2v90.4c0 19.6 16 35.6 35.6 35.6h221.1c19.6 0 35.6-16 35.6-35.6v-90.4h12.5c39.3 0 71.3-32 71.3-71.3v-115c0-39.3-32-71.3-71.3-71.3zm-277.8-27.6c0-24.4 19.9-44.3 44.3-44.3h149.6c24.4 0 44.3 19.9 44.3 44.3v27.6h-238.2V71.3zm238.3 375.8c0 4.7-3.9 8.6-8.6 8.6h-221.1c-4.7 0-8.6-3.9-8.6-8.6V298h238.3v149.1zm83.8-161.8c0 24.4-19.9 44.3-44.3 44.3h-12.4V298h17.8c7.5 0 13.5-6 13.5-13.5s-6-13.5-13.5-13.5h-330c-7.5 0-13.5 6-13.5 13.5s6 13.5 13.5 13.5h19.9v31.6h-11.3c-24.4 0-44.3-19.9-44.3-44.3v-115c0-24.4 19.9-44.3 44.3-44.3h316c24.4 0 44.3 19.9 44.3 44.3v115z"/><path d="M154.15 364.4h171.9c7.5 0 13.5-6 13.5-13.5s-6-13.5-13.5-13.5h-171.9c-7.5 0-13.5 6-13.5 13.5s6.1 13.5 13.5 13.5zm173 28.2h-172c-7.5 0-13.5 6-13.5 13.5s6 13.5 13.5 13.5h171.9c7.5 0 13.5-6 13.5-13.5s-6-13.5-13.4-13.5zm71.8-240.7h-27.4c-7.5 0-13.5 6-13.5 13.5s6 13.5 13.5 13.5h27.4c7.5 0 13.5-6 13.5-13.5s-6-13.5-13.5-13.5z"/></symbol><symbol viewBox="0 0 91.28 34.54" id="qiwi" xmlns="http://www.w3.org/2000/svg"><defs><style>.bacls-1{fill:#999}</style></defs><title>qiwi</title><g id="baСлой_2" data-name="Слой 2"><g id="basvg2"><g id="bag10720"><path id="bapath10722" class="bacls-1" d="M57.11 28.37A3 3 0 0 1 55.56 27a4 4 0 0 1 .1-3 2.92 2.92 0 0 1 3.62-1.1 2.54 2.54 0 0 1 1.61 2.39 3 3 0 0 1-1.24 2.8 3.62 3.62 0 0 1-2.54.28zm2-1.28a2 2 0 0 0 .44-1.47c0-1-.53-1.83-1.37-1.83a1.38 1.38 0 0 0-1.35 1.29 2.22 2.22 0 0 0 .63 2.16 1.27 1.27 0 0 0 1.66-.16zm11 .33A3.76 3.76 0 0 1 70 24a2.5 2.5 0 0 1 2.26-1.25 2.32 2.32 0 0 1 2.48 2.49v.79h-3.87c.33 2.11 3.18 1.1 3.18 1.16s.25.85.3 1.05c-.79.41-3.32 1-4.38-.78zM73.56 25a1.13 1.13 0 0 0-1.27-1.18 1.18 1.18 0 0 0-1.2 1.18c.77 0 1.65.06 2.46 0zm1 2.46a4 4 0 0 0 .58-.35c.52-.52.52-.53.52-2.41v-1.93h4.26v5.63h-1.41v-2.22c0-2.33 0-2.26-.77-2.26s-.72 0-.8 1.53c-.1 2.05-.68 2.61-1.78 3a9.71 9.71 0 0 1-.64-1.06zm6.44 0A3.76 3.76 0 0 1 81 24a2.5 2.5 0 0 1 2.26-1.25 2.32 2.32 0 0 1 2.48 2.49v.79h-3.86c.33 2.11 3.18 1.1 3.18 1.16s.25.85.3 1.05c-.79.41-3.32 1-4.38-.78zM84.44 25a1.13 1.13 0 0 0-1.27-1.18A1.18 1.18 0 0 0 82 25c.77 0 1.65.06 2.46 0zm-34 3.38v-5.61h1.51v2.4l1.85-2.4h1.73s-1.23 1.47-2.1 2.47a3.7 3.7 0 0 1 1.71 2.27l.35.89H54a3.25 3.25 0 0 0-2.1-2.5v2.44zm11-5.57H63v4.36h1.46v-4.4h1.4v4.36h1.7v-4.36H69v5.63h-7.5zm24.73 5.57v-5.61h1.53v2.4l1.85-2.4h1.73s-1.23 1.47-2.1 2.47a3.7 3.7 0 0 1 1.71 2.27l.35.89H89.8a3.25 3.25 0 0 0-2.1-2.5v2.44z"/><path id="bapath10724" class="bacls-1" d="M77.08 20.64c-.08-.15-.08-3.36-.08-7.13V6.66h2.82v14.26h-1.3c-1.07 0-1.32 0-1.41-.22zm-16.45 0c-.19-.37-3.95-13.52-3.95-13.82s.35-.21 1.39-.17h1.39s2.41 8.63 2.45 8.59 2.87-8.59 2.87-8.59l.62-.05.6-.04s3 8.82 3.07 8.59 2.33-8.48 2.33-8.48h1.11c1 0 1.1 0 1.06.34s-.9 3.39-1.95 7.12l-1.9 6.78h-1.58l-3-7.93-2.84 7.92h-.75c-.54 0-.8-.08-.91-.3zm-10.08-6.9V6.58h2.73V20.9h-2.73zM41.92 19a5 5 0 0 0 1.69-2.46 16.83 16.83 0 0 0-.11-5.88c-.85-2.21-2.55-3.21-4.25-2.5a4.66 4.66 0 0 0-2.1 2.52 13.41 13.41 0 0 0 0 6 4.83 4.83 0 0 0 2.05 2.62 3.19 3.19 0 0 0 2.72-.3zm2.58 6.26a16.76 16.76 0 0 1-1.95-.78 8.82 8.82 0 0 1-2.84-2.66 1.39 1.39 0 0 0-1-.79c-3.28-.88-5.12-4-4.81-8.07a7.09 7.09 0 0 1 2.24-5.19c1.28-1.18 2.09-1.46 4.18-1.47a4.63 4.63 0 0 1 2.75.47c2.36 1.16 3.73 3.68 3.73 6.86s-1.31 5.7-3.5 6.84c-1.05.55-1.08.73-.27 1.77a6.84 6.84 0 0 0 3.28 2.07c1.1.33 1.18.39 1.13.81s-.12.45-.9.49a6.31 6.31 0 0 1-2-.35z"/><path id="bapath10726" class="bacls-1" d="M26.27 24.61c-.4-.46-.6-1.2-.39-1.41s.79.5.79 1.13c0 .44-.16.56-.4.28zm-3.48 1.15a1.06 1.06 0 0 1-.11-1.35.91.91 0 0 1 1.23.11 1.22 1.22 0 0 1 .15 1.4 1.06 1.06 0 0 1-1.27-.17zM32.41 34a14.36 14.36 0 0 0-2.83-2.78 15.87 15.87 0 0 0-4.11-1.82 9.81 9.81 0 0 0-3-.33 8.91 8.91 0 0 0-3.12.33 17.23 17.23 0 0 1-15-3.4 13.94 13.94 0 0 1-3.7-5.85 15.11 15.11 0 0 1 1-11.26A16.33 16.33 0 0 1 16.82 0a14.31 14.31 0 0 1 13.56 10.9 19.22 19.22 0 0 1 .23 5.54 16.2 16.2 0 0 1-2.49 6.42c-.61.91-.83 1.07-.83.6a6 6 0 0 0-1.59-2.64 6 6 0 0 0-2.53-1.44 1.4 1.4 0 0 1-.49-.12c-.17-.08 0-.1.68-.07a4.18 4.18 0 0 1 1.69.39 2.57 2.57 0 0 0 .83.28 6 6 0 0 0 .26-1 14.5 14.5 0 0 0-.26-5.52A14.34 14.34 0 0 0 16 3.4a11.55 11.55 0 0 0-4.7-.06C7.85 4.26 5.4 7 4.58 11a16.05 16.05 0 0 0 0 4.76 14.17 14.17 0 0 0 1.25 3.63A12.79 12.79 0 0 0 15.18 26c1.51.26 1.69.25 1.59-.09a8.54 8.54 0 0 1-.15-1.2l-.07-.92.55.74a6.13 6.13 0 0 0 2.22 2 9.8 9.8 0 0 0 3.86 1.18 15.85 15.85 0 0 1 4.29 1.1 11.88 11.88 0 0 1 5 4.57 5.48 5.48 0 0 1 .44 1c0 .32-.22.17-.53-.36z"/></g></g></g></symbol><symbol viewBox="0 0 249.425 249.425" id="register" xmlns="http://www.w3.org/2000/svg"><path d="M206.79 81.505a6 6 0 0 0-6 6v149.919H12V48.635h146.792a6 6 0 0 0 0-12H6a6 6 0 0 0-6 6v200.789a6 6 0 0 0 6 6h200.79a6 6 0 0 0 6-6V87.505a6 6 0 0 0-6-6z"/><path d="M247.667 1.758a5.998 5.998 0 0 0-8.485 0L80.416 160.523 41.023 121.13a5.998 5.998 0 0 0-8.485 0 5.999 5.999 0 0 0 0 8.484l43.636 43.636c1.171 1.172 2.707 1.758 4.243 1.758s3.071-.586 4.243-1.758L247.667 10.243a5.998 5.998 0 0 0 0-8.485z"/></symbol><symbol viewBox="0 0 200 50" id="sberbank" xmlns="http://www.w3.org/2000/svg"><path fill-rule="evenodd" clip-rule="evenodd" d="M192 7.2h4.65c-.834.466-1.95 1.35-3.351 2.65l-4.649 4.75 2.55 3.65c2.667 3.8 5 6.7 7 8.7h-6.65c-.833-1.934-1.917-3.9-3.25-5.9l-3-4.5 2.601-3.3C190.233 10.217 191.6 8.2 192 7.2zm-7.05 2.2v15.3l.2 1.15c.133.2.434.367.899.5v.6h-6.45v-.6l.9-.5c.133-.2.2-.583.2-1.15V9.4l-.2-1.1c-.133-.233-.434-.383-.9-.45V7.2h6.45v.65c-.466.066-.767.217-.899.45l-.2 1.1zm-9.6 0v15.3l.2 1.15.9.5v.6h-6.5v-.6c.466-.133.8-.3 1-.5l.149-1.15v-7.95h-7.6v7.95l.2 1.15c.134.2.433.367.899.5v.6h-6.55v-.6c.534-.133.866-.3 1-.5l.2-1.15V9.4l-.2-1.1c-.134-.233-.466-.383-1-.45V7.2h6.55v.65c-.467.066-.766.217-.899.45l-.2 1.1v6.05h7.6V9.4l-.149-1.1c-.2-.233-.534-.383-1-.45V7.2h6.5v.65c-.467.066-.767.217-.9.45l-.2 1.1zM173 40.1h3.15l-1.3 6.6h-.899l.6-3.05H173l-2.15 3.05h-1l2.2-3.101c-.899-.266-1.35-.833-1.35-1.699 0-.467.2-.867.6-1.2.4-.4.967-.6 1.7-.6zm-.2 2.8h1.9l.399-2.051H173c-.467 0-.834.117-1.1.351-.2.2-.301.45-.301.75.001.634.401.95 1.201.95zm-7.7-1.1l-.649 3.3c.5.634 1.066.95 1.7.95.633 0 1.184-.316 1.649-.95.467-.666.7-1.482.7-2.449 0-.634-.133-1.117-.4-1.45-.266-.333-.649-.5-1.149-.5-.734-.001-1.351.365-1.851 1.099zm.25-1.7l-.15.8.85-.7 1.101-.25c.699 0 1.25.233 1.649.7.4.467.601 1.149.601 2.05 0 1.2-.316 2.183-.95 2.95-.601.766-1.351 1.149-2.25 1.149l-1.101-.2-.8-.6-.649 3.35h-.9l1.8-9.25h.799zm15.8 0l.75 5.801h.649l-.399 2.05h-.7l.149-1.25h-4.449l-.351 1.25h-.649l.35-2.05h.6l2.75-5.801h1.3zm-.85.85L178 45.9h2.95l-.45-4.95h-.2zm3.1 3c0-1.134.333-2.083 1-2.851.6-.766 1.333-1.149 2.199-1.149.734 0 1.301.267 1.7.8.434.5.65 1.2.65 2.1 0 1.066-.317 2-.95 2.801-.633.766-1.367 1.149-2.2 1.149-.733 0-1.316-.25-1.75-.75-.432-.5-.649-1.2-.649-2.1zm14.8-10.1H53.5V31.9h144.7v1.95zm-5.6 6.25l.75 5.7 2.75-5.7h1.45l-1.3 6.601h-.85l1.1-5.8-2.9 5.8h-.85l-.85-5.8-1.15 5.8h-.85l1.3-6.601h1.4zm-4.95 1.15a1.422 1.422 0 0 0-1.15-.55c-.566 0-1.066.316-1.5.95-.467.666-.7 1.482-.7 2.449 0 .601.15 1.084.45 1.45.267.333.617.5 1.05.5.601 0 1.134-.316 1.601-.95.434-.666.649-1.467.649-2.399 0-.6-.134-1.083-.4-1.45zM143.9 7.85V7.2h5.699c.066.9.301 1.867.7 2.9l4.2 11.8c.7 2.067 1.383 3.75 2.05 5.05h-5l-2.149-7.1h-6.351l-1.35 4.7-.4 2.4h-3.6l6.399-14.8c.634-1.566.95-2.633.95-3.2.002-.633-.382-1-1.148-1.1zm2.35 2.65l-2.7 7.95h5.4l-2.7-7.95zm-10.1 1h-1.101l-.25-.85c-.267-.967-.667-1.6-1.2-1.9l-2.75-.35H128.2c-.601 0-1 .1-1.2.3-.166.167-.25.466-.25.9v4.7h1.1c3.2 0 5.417.317 6.65.95 1.767.867 2.65 2.567 2.65 5.1 0 2.467-.7 4.233-2.101 5.3-1.233.867-3.149 1.3-5.75 1.3H121.4v-.6l.949-.5.15-1.15V9.4l-.15-1.1c-.133-.233-.449-.383-.949-.45V7.2h14.75v4.3zm-9.4 4.05V24c0 .667.117 1.1.35 1.3.268.267.734.4 1.4.4h.6c1.268 0 2.2-.434 2.801-1.3.533-.8.8-2.083.8-3.85 0-1.733-.284-2.966-.851-3.7-.6-.867-1.717-1.3-3.35-1.3h-1.75zm1.25 22.4c.4.399.6.95.6 1.649 0 .601-.184 1.101-.55 1.5-.333.367-.866.65-1.6.851 1.033.433 1.55 1.116 1.55 2.05 0 .867-.3 1.533-.9 2-.566.467-1.416.7-2.55.7h-3.15l1.75-9.351h2.949c.835.001 1.467.201 1.901.601zm-4.05.25l-.65 3.25h1.851c.8 0 1.416-.167 1.85-.5.434-.366.65-.817.65-1.351 0-.5-.134-.85-.4-1.05-.3-.233-.75-.35-1.35-.35h-1.951zm6.15 5.75c0 .667.167 1.167.5 1.5.3.366.734.55 1.3.55l1.149-.35.65-.9.7.3-1 1.25c-.434.333-.967.5-1.601.5-.767 0-1.384-.267-1.85-.8-.467-.533-.7-1.25-.7-2.15 0-1.066.3-1.982.9-2.75.6-.766 1.35-1.149 2.25-1.149.633 0 1.133.167 1.5.5.366.3.666.767.899 1.399l-.847.15c-.233-.867-.75-1.3-1.55-1.3-.601 0-1.134.3-1.601.899-.465.634-.699 1.418-.699 2.351zm-5.25-1.7h-1.699l-.65 3.6h2.2c.733 0 1.3-.166 1.7-.5.399-.333.6-.783.6-1.35 0-.434-.184-.834-.55-1.2-.434-.366-.968-.55-1.601-.55zm16.25 1.15h-4.649l-.05.55c0 .667.166 1.183.5 1.55.3.367.717.55 1.25.55.467 0 .866-.149 1.199-.45l.851-1.1.75.4-1.25 1.35c-.467.367-1.034.55-1.7.55-.767 0-1.367-.25-1.8-.75-.434-.533-.65-1.233-.65-2.1 0-1.167.3-2.116.9-2.851.634-.766 1.417-1.149 2.35-1.149.767 0 1.351.233 1.75.7.434.434.65 1.066.65 1.899l-.101.851zm-1.15-2.2a1.48 1.48 0 0 0-1.15-.5c-.6 0-1.066.183-1.399.55-.334.3-.601.767-.801 1.4h3.65l.05-.4c0-.4-.116-.75-.35-1.05zm2.15 5.5l1.3-6.6h3.699l-.149.75h-2.85l-1.15 5.85h-.85zm7.45-5.75l-2.3 4.95h2.95l-.45-4.95h-.2zm.85-.85l.75 5.801h.649l-.399 2.05h-.65l.1-1.25h-4.45l-.351 1.25h-.649l.35-2.05h.6l2.75-5.801h1.3zm2.4 4.85c0-.7.3-1.233.9-1.601.634-.399 1.517-.6 2.649-.6h.9L157.3 42c0-.434-.116-.75-.35-.95-.267-.233-.634-.35-1.101-.35-.434 0-.916.25-1.449.75l-.551-.55c.734-.634 1.45-.95 2.15-.95.666 0 1.2.183 1.6.55.4.367.601.834.601 1.4l-.101 1-.449 2.2c-.101.467-.15 1-.15 1.601h-.85l-.051-.75-.899.6-1.05.25c-.533 0-.967-.183-1.301-.55a1.783 1.783 0 0 1-.549-1.301zm3.65-1.5c-1.833 0-2.75.466-2.75 1.399 0 .334.1.617.3.851.233.233.517.35.85.35.5 0 1.134-.283 1.9-.85l.35-1.75h-.65zm-36.8-30.6c0 2.3-.7 3.95-2.101 4.95-1.2.867-3.066 1.3-5.6 1.3h-2v5.6l.2 1.15c.1.2.416.367.949.5v.6h-6.5v-.6l.9-.5.2-1.15V9.4l-.2-1.1c-.133-.233-.434-.383-.9-.45V7.2h8.2c2.233 0 3.866.333 4.9 1 1.302.867 1.952 2.417 1.952 4.65zm-9.4-4.25c-.2.133-.3.433-.3.9v8.35h2c1.233 0 2.1-.467 2.6-1.4.434-.833.65-2.1.65-3.8 0-2.833-1.184-4.25-3.55-4.25h-.5l-.9.2zm-8.65 2.9h-1.05l-.25-.85c-.333-.967-.75-1.6-1.25-1.9l-2.7-.35h-2.2l-.8.2-.2.75v6.1h2.6c1.8 0 2.983-.2 3.55-.6v2.5c-.566-.4-1.75-.6-3.55-.6h-2.6v7.4c0 .6.2 1.017.6 1.25l2.5.3h.55l2.7-.4c.467-.3.834-1.033 1.1-2.2l.2-.75h1.25v4.6H87.8v-.6c.5-.133.817-.3.95-.5l.2-1.15V9.4l-.2-1.1c-.133-.233-.45-.383-.95-.45V7.2h13.8v4.3zm-17.05 0H83.5l-.25-.85c-.3-.967-.717-1.6-1.25-1.9l-2.65-.35H76.6c-.567 0-.967.1-1.2.3-.1.167-.15.466-.15.9v4.7h1.1c3.167 0 5.383.317 6.65.95 1.733.867 2.6 2.567 2.6 5.1 0 2.467-.7 4.233-2.1 5.3-1.2.867-3.117 1.3-5.75 1.3H69.8v-.6c.534-.133.867-.3 1-.5l.2-1.15V9.4l-.2-1.1c-.133-.233-.466-.383-1-.45V7.2h14.75v4.3zm-19.9-2.7c-.6-.433-1.533-.65-2.8-.65-2 0-3.417.733-4.25 2.2-.7 1.267-1.05 3.333-1.05 6.2s.383 4.983 1.15 6.35c.933 1.7 2.533 2.55 4.8 2.55 1.667 0 3.317-.4 4.95-1.2l.6 1.25c-1.9 1.166-4.133 1.75-6.7 1.75-6.267 0-9.4-3.317-9.4-9.95 0-6.966 3.25-10.45 9.75-10.45 2.5 0 4.417.3 5.75.9v4.1H66.2l-.35-1.2c-.267-.833-.667-1.45-1.2-1.85zm10.6 6.75V24c0 .667.1 1.1.3 1.3.267.267.75.4 1.45.4h.55c2.4 0 3.6-1.717 3.6-5.15 0-1.733-.283-2.966-.85-3.7-.633-.867-1.767-1.3-3.4-1.3h-1.65zM34.75 4.05l1.75 1.6-22.1 12.7-10.7-6.2 1-2 9.7 5.55L34.75 4.05zM30.3 1.5l2.35 1.2L14.4 13.2 5.9 8.35 7.35 6.6l7.05 4.05L30.3 1.5zm7.75 5.8l1.3 1.75L14.4 23.4 2.35 16.5l.55-2.2 11.5 6.6L38.05 7.3z"/><path fill-rule="evenodd" clip-rule="evenodd" d="M41.65 13.75c.733 2.067 1.1 4.233 1.1 6.5s-.367 4.467-1.1 6.6l-.5 1.351a20.792 20.792 0 0 1-4.35 6.5 20.1 20.1 0 0 1-6.5 4.3c-2.566 1.1-5.216 1.65-7.95 1.65-2.767 0-5.417-.551-7.95-1.65-2.367-1-4.517-2.434-6.45-4.3a19.72 19.72 0 0 1-4.35-6.5A20.53 20.53 0 0 1 2 20.25V18.9l12.4 7.05 26.15-15 1.1 2.8z"/></symbol><symbol viewBox="0 0 224.726 224.726" id="scales" xmlns="http://www.w3.org/2000/svg"><path d="M223.612 109.586L190.5 35.752l-.003-.006-.043-.096a4.954 4.954 0 0 0-.389-.7c-.039-.06-.086-.114-.127-.171a5.011 5.011 0 0 0-1.141-1.139c-.049-.036-.094-.076-.145-.11a5.067 5.067 0 0 0-.746-.405c-.074-.033-.151-.057-.227-.086a4.97 4.97 0 0 0-.625-.194c-.088-.021-.175-.042-.264-.058a4.931 4.931 0 0 0-.896-.09h-58.428a15.87 15.87 0 0 0-5.485-7.737v-7.262a5 5 0 0 0-5-5h-9.334a5 5 0 0 0-5 5v7.381a15.866 15.866 0 0 0-5.326 7.619H38.734c-.305 0-.602.037-.896.09-.09.016-.176.037-.264.058a4.92 4.92 0 0 0-.625.194c-.076.029-.153.053-.227.086-.26.115-.51.248-.746.405-.051.034-.096.074-.145.11-.188.134-.365.28-.533.44-.064.06-.124.122-.185.185a4.989 4.989 0 0 0-.424.514c-.042.058-.088.112-.127.171a4.954 4.954 0 0 0-.389.7l-.043.096-.003.006-33.23 74.095A4.974 4.974 0 0 0 0 112.696c0 21.358 17.376 38.734 38.734 38.734s38.734-17.376 38.734-38.734c0-1.06-.334-2.038-.897-2.847L46.456 42.696h50.986a15.878 15.878 0 0 0 5.204 7.286v125.381H58.308a5.001 5.001 0 0 0-4.444 2.708L40.11 204.738a5 5 0 0 0 4.444 7.292h135.539a5 5 0 0 0 4.231-7.665l-13.563-26.294a5.001 5.001 0 0 0-4.444-2.708H121.98V50.101a15.878 15.878 0 0 0 5.363-7.405h50.828l-30.475 67.954c-.008.018-.012.036-.02.054-.023.054-.04.11-.062.165-.09.229-.162.463-.217.699-.014.062-.032.122-.044.184a4.956 4.956 0 0 0-.087.866c0 .027-.008.051-.008.078 0 21.358 17.376 38.734 38.734 38.734s38.734-17.376 38.734-38.734a4.954 4.954 0 0 0-1.114-3.11zm-158.966-1.89H12.822l25.912-57.781 25.912 57.781zm53.58-70.166a5.84 5.84 0 0 1-5.833 5.833 5.84 5.84 0 0 1-5.834-5.833 5.84 5.84 0 0 1 5.834-5.833 5.839 5.839 0 0 1 5.833 5.833zm41.754 70.166l25.913-57.781 25.912 57.781H159.98z"/></symbol><symbol viewBox="0 0 56.966 56.966" id="search" xmlns="http://www.w3.org/2000/svg"><path d="M55.146 51.887L41.588 37.786A22.926 22.926 0 0 0 46.984 23c0-12.682-10.318-23-23-23s-23 10.318-23 23 10.318 23 23 23c4.761 0 9.298-1.436 13.177-4.162l13.661 14.208c.571.593 1.339.92 2.162.92.779 0 1.518-.297 2.079-.837a3.004 3.004 0 0 0 .083-4.242zM23.984 6c9.374 0 17 7.626 17 17s-7.626 17-17 17-17-7.626-17-17 7.626-17 17-17z"/></symbol><symbol viewBox="0 0 481.6 481.6" id="share" xmlns="http://www.w3.org/2000/svg"><path d="M381.6 309.4c-27.7 0-52.4 13.2-68.2 33.6l-132.3-73.9c3.1-8.9 4.8-18.5 4.8-28.4 0-10-1.7-19.5-4.9-28.5l132.2-73.8c15.7 20.5 40.5 33.8 68.3 33.8 47.4 0 86.1-38.6 86.1-86.1S429 0 381.5 0s-86.1 38.6-86.1 86.1c0 10 1.7 19.6 4.9 28.5l-132.1 73.8c-15.7-20.6-40.5-33.8-68.3-33.8-47.4 0-86.1 38.6-86.1 86.1s38.7 86.1 86.2 86.1c27.8 0 52.6-13.3 68.4-33.9l132.2 73.9c-3.2 9-5 18.7-5 28.7 0 47.4 38.6 86.1 86.1 86.1s86.1-38.6 86.1-86.1-38.7-86.1-86.2-86.1zm0-282.3c32.6 0 59.1 26.5 59.1 59.1s-26.5 59.1-59.1 59.1-59.1-26.5-59.1-59.1 26.6-59.1 59.1-59.1zM100 299.8c-32.6 0-59.1-26.5-59.1-59.1s26.5-59.1 59.1-59.1 59.1 26.5 59.1 59.1-26.6 59.1-59.1 59.1zm281.6 154.7c-32.6 0-59.1-26.5-59.1-59.1s26.5-59.1 59.1-59.1 59.1 26.5 59.1 59.1-26.5 59.1-59.1 59.1z"/></symbol><symbol viewBox="0 0 512 512" id="shipped" xmlns="http://www.w3.org/2000/svg"><path d="M476.158 231.363l-13.259-53.035c3.625-.77 6.345-3.986 6.345-7.839v-8.551c0-18.566-15.105-33.67-33.67-33.67h-60.392V110.63c0-9.136-7.432-16.568-16.568-16.568H50.772c-9.136 0-16.568 7.432-16.568 16.568V256a8.017 8.017 0 0 0 16.034 0V110.63c0-.295.239-.534.534-.534h307.841c.295 0 .534.239.534.534v145.372a8.017 8.017 0 0 0 16.034 0v-9.088h94.569l.021.002.022-.001c11.637.008 21.518 7.646 24.912 18.171h-24.928a8.017 8.017 0 0 0-8.017 8.017v17.102c0 13.851 11.268 25.119 25.119 25.119h9.086v35.273h-20.962c-6.886-19.883-25.787-34.205-47.982-34.205s-41.097 14.322-47.982 34.205h-3.86v-60.393a8.017 8.017 0 0 0-16.034 0v60.391H192.817c-6.886-19.883-25.787-34.205-47.982-34.205s-41.097 14.322-47.982 34.205H50.772a.534.534 0 0 1-.534-.534v-17.637h34.739a8.017 8.017 0 0 0 0-16.034H8.017a8.017 8.017 0 0 0 0 16.034h26.188v17.637c0 9.136 7.432 16.568 16.568 16.568h43.304c-.002.178-.014.355-.014.534 0 27.996 22.777 50.772 50.772 50.772s50.772-22.776 50.772-50.772c0-.18-.012-.356-.014-.534h180.67c-.002.178-.014.355-.014.534 0 27.996 22.777 50.772 50.772 50.772 27.995 0 50.772-22.776 50.772-50.772 0-.18-.012-.356-.014-.534h26.203a8.017 8.017 0 0 0 8.017-8.017v-85.511c.001-21.112-15.576-38.653-35.841-41.738zm-100.976-87.062h60.392c9.725 0 17.637 7.912 17.637 17.637v.534h-78.029v-18.171zm0 86.58v-52.376h71.235l13.094 52.376h-84.329zM144.835 401.904c-19.155 0-34.739-15.583-34.739-34.739s15.584-34.739 34.739-34.739c19.155 0 34.739 15.583 34.739 34.739s-15.584 34.739-34.739 34.739zm282.188 0c-19.155 0-34.739-15.583-34.739-34.739s15.584-34.739 34.739-34.739c19.155 0 34.739 15.583 34.739 34.739s-15.584 34.739-34.739 34.739zm68.944-102.614h-9.086c-5.01 0-9.086-4.076-9.086-9.086v-9.086h18.171v18.172z"/><path d="M144.835 350.597c-9.136 0-16.568 7.432-16.568 16.568 0 9.136 7.432 16.568 16.568 16.568 9.136 0 16.568-7.432 16.568-16.568 0-9.136-7.432-16.568-16.568-16.568zm282.188 0c-9.136 0-16.568 7.432-16.568 16.568 0 9.136 7.432 16.568 16.568 16.568 9.136 0 16.568-7.432 16.568-16.568 0-9.136-7.432-16.568-16.568-16.568zm-94.063-34.204H213.244a8.017 8.017 0 0 0 0 16.034H332.96a8.017 8.017 0 0 0 0-16.034zm-205.227-34.205H25.119a8.017 8.017 0 0 0 0 16.034h102.614a8.017 8.017 0 0 0 0-16.034zM278.771 173.37a8.017 8.017 0 0 0-11.337.001l-71.292 71.291-37.087-37.087a8.016 8.016 0 0 0-11.337 0 8.016 8.016 0 0 0 0 11.337l42.756 42.756c1.565 1.566 3.617 2.348 5.668 2.348s4.104-.782 5.668-2.348l76.96-76.96a8.018 8.018 0 0 0 .001-11.338z"/></symbol><symbol viewBox="0 0 55.867 55.867" id="star" xmlns="http://www.w3.org/2000/svg"><path d="M11.287 54.548a1.003 1.003 0 0 1-.988-1.17l3.09-18.017L.302 22.606a.998.998 0 0 1 .555-1.704l18.09-2.63 8.09-16.393c.17-.342.517-.558.897-.558s.73.215.896.557l8.09 16.393 18.09 2.63c.38.052.69.315.81.68.118.36.02.76-.252 1.022l-13.09 12.76 3.09 18.018c.063.376-.09.755-.398.98a.997.997 0 0 1-1.055.075l-16.18-8.506-16.182 8.503a1.008 1.008 0 0 1-.465.114zM3.15 22.584l12.015 11.713a1 1 0 0 1 .287.885L12.615 51.72l14.854-7.808a.994.994 0 0 1 .93 0l14.85 7.808-2.837-16.538a1 1 0 0 1 .287-.885l12.02-11.713-16.607-2.414a.994.994 0 0 1-.753-.546L27.935 4.578l-7.427 15.047a1 1 0 0 1-.753.547L3.15 22.584z"/></symbol><symbol viewBox="0 0 612 612" id="tw" xmlns="http://www.w3.org/2000/svg"><path d="M612 116.258a250.714 250.714 0 0 1-72.088 19.772c25.929-15.527 45.777-40.155 55.184-69.411-24.322 14.379-51.169 24.82-79.775 30.48-22.907-24.437-55.49-39.658-91.63-39.658-69.334 0-125.551 56.217-125.551 125.513 0 9.828 1.109 19.427 3.251 28.606-104.326-5.24-196.835-55.223-258.75-131.174-10.823 18.51-16.98 40.078-16.98 63.101 0 43.559 22.181 81.993 55.835 104.479a125.556 125.556 0 0 1-56.867-15.756v1.568c0 60.806 43.291 111.554 100.693 123.104-10.517 2.83-21.607 4.398-33.08 4.398-8.107 0-15.947-.803-23.634-2.333 15.985 49.907 62.336 86.199 117.253 87.194-42.947 33.654-97.099 53.655-155.916 53.655-10.134 0-20.116-.612-29.944-1.721 55.567 35.681 121.536 56.485 192.438 56.485 230.948 0 357.188-191.291 357.188-357.188l-.421-16.253c24.666-17.593 46.005-39.697 62.794-64.861z"/></symbol><symbol viewBox="0 0 548.358 548.358" id="vk" xmlns="http://www.w3.org/2000/svg"><path d="M545.451 400.298c-.664-1.431-1.283-2.618-1.858-3.569-9.514-17.135-27.695-38.167-54.532-63.102l-.567-.571-.284-.28-.287-.287h-.288c-12.18-11.611-19.893-19.418-23.123-23.415-5.91-7.614-7.234-15.321-4.004-23.13 2.282-5.9 10.854-18.36 25.696-37.397 7.807-10.089 13.99-18.175 18.556-24.267 32.931-43.78 47.208-71.756 42.828-83.939l-1.701-2.847c-1.143-1.714-4.093-3.282-8.846-4.712-4.764-1.427-10.853-1.663-18.278-.712l-82.224.568c-1.332-.472-3.234-.428-5.712.144l-3.713.859-1.431.715-1.136.859c-.952.568-1.999 1.567-3.142 2.995-1.137 1.423-2.088 3.093-2.848 4.996-8.952 23.031-19.13 44.444-30.553 64.238-7.043 11.803-13.511 22.032-19.418 30.693-5.899 8.658-10.848 15.037-14.842 19.126-4 4.093-7.61 7.372-10.852 9.849-3.237 2.478-5.708 3.525-7.419 3.142-1.715-.383-3.33-.763-4.859-1.143-2.663-1.714-4.805-4.045-6.42-6.995-1.622-2.95-2.714-6.663-3.285-11.136-.568-4.476-.904-8.326-1-11.563-.089-3.233-.048-7.806.145-13.706.198-5.903.287-9.897.287-11.991 0-7.234.141-15.085.424-23.555.288-8.47.521-15.181.716-20.125.194-4.949.284-10.185.284-15.705s-.336-9.849-1-12.991a44.442 44.442 0 0 0-2.99-9.137c-1.335-2.95-3.289-5.232-5.853-6.852-2.569-1.618-5.763-2.902-9.564-3.856-10.089-2.283-22.936-3.518-38.547-3.71-35.401-.38-58.148 1.906-68.236 6.855-3.997 2.091-7.614 4.948-10.848 8.562-3.427 4.189-3.905 6.475-1.431 6.851 11.422 1.711 19.508 5.804 24.267 12.275l1.715 3.429c1.334 2.474 2.666 6.854 3.999 13.134 1.331 6.28 2.19 13.227 2.568 20.837.95 13.897.95 25.793 0 35.689-.953 9.9-1.853 17.607-2.712 23.127-.859 5.52-2.143 9.993-3.855 13.418-1.715 3.426-2.856 5.52-3.428 6.28-.571.76-1.047 1.239-1.425 1.427a21.387 21.387 0 0 1-7.71 1.431c-2.667 0-5.901-1.334-9.707-4-3.805-2.666-7.754-6.328-11.847-10.992-4.093-4.665-8.709-11.184-13.85-19.558-5.137-8.374-10.467-18.271-15.987-29.691l-4.567-8.282c-2.855-5.328-6.755-13.086-11.704-23.267-4.952-10.185-9.329-20.037-13.134-29.554-1.521-3.997-3.806-7.04-6.851-9.134l-1.429-.859c-.95-.76-2.475-1.567-4.567-2.427a30.301 30.301 0 0 0-6.567-1.854l-78.229.568c-7.994 0-13.418 1.811-16.274 5.428l-1.143 1.711c-.571.953-.859 2.475-.859 4.57 0 2.094.571 4.664 1.714 7.707 11.42 26.84 23.839 52.725 37.257 77.659 13.418 24.934 25.078 45.019 34.973 60.237 9.897 15.229 19.985 29.602 30.264 43.112 10.279 13.515 17.083 22.176 20.412 25.981 3.333 3.812 5.951 6.662 7.854 8.565l7.139 6.851c4.568 4.569 11.276 10.041 20.127 16.416 8.853 6.379 18.654 12.659 29.408 18.85 10.756 6.181 23.269 11.225 37.546 15.126 14.275 3.905 28.169 5.472 41.684 4.716h32.834c6.659-.575 11.704-2.669 15.133-6.283l1.136-1.431c.764-1.136 1.479-2.901 2.139-5.276.668-2.379 1-5 1-7.851-.195-8.183.428-15.558 1.852-22.124 1.423-6.564 3.045-11.513 4.859-14.846 1.813-3.33 3.859-6.14 6.136-8.418 2.282-2.283 3.908-3.666 4.862-4.142.948-.479 1.705-.804 2.276-.999 4.568-1.522 9.944-.048 16.136 4.429 6.187 4.473 11.99 9.996 17.418 16.56 5.425 6.57 11.943 13.941 19.555 22.124 7.617 8.186 14.277 14.271 19.985 18.274l5.708 3.426c3.812 2.286 8.761 4.38 14.853 6.283 6.081 1.902 11.409 2.378 15.984 1.427l73.087-1.14c7.229 0 12.854-1.197 16.844-3.572 3.998-2.379 6.373-5 7.139-7.851.764-2.854.805-6.092.145-9.712-.677-3.611-1.344-6.136-2.008-7.563z"/></symbol><symbol viewBox="0 0 512 512" id="wallet" xmlns="http://www.w3.org/2000/svg"><path d="M490.667 193.965v-87.298C490.667 83.135 471.531 64 448 64H42.667C19.135 64 0 83.135 0 106.667v298.667C0 428.865 19.135 448 42.667 448H448c23.531 0 42.667-19.135 42.667-42.667v-87.298C503.056 313.617 512 301.888 512 288v-64c0-13.888-8.944-25.617-21.333-30.035zm-21.334 211.368c0 11.76-9.573 21.333-21.333 21.333H42.667c-11.76 0-21.333-9.573-21.333-21.333V106.667c0-11.76 9.573-21.333 21.333-21.333H448c11.76 0 21.333 9.573 21.333 21.333V192h-64c-35.292 0-64 28.708-64 64s28.708 64 64 64h64v85.333zM490.667 288c0 5.885-4.781 10.667-10.667 10.667h-74.667c-23.531 0-42.667-19.135-42.667-42.667s19.135-42.667 42.667-42.667H480c5.885 0 10.667 4.781 10.667 10.667v64z"/><path d="M405.333 234.667C393.573 234.667 384 244.24 384 256s9.573 21.333 21.333 21.333c11.76 0 21.333-9.573 21.333-21.333s-9.572-21.333-21.333-21.333z"/></symbol><symbol viewBox="0 0 49.888 49.888" id="webmoney" xmlns="http://www.w3.org/2000/svg"><path d="M8.029 23.715c-1.124 0-1.701.823-1.701 1.963 0 1.185.518 1.964 1.776 1.964.539 0 .989-.15 1.326-.347v-.567c-.412.245-.787.389-1.191.389-.771 0-1.139-.396-1.139-1.297h2.442v-.275c.001-1.224-.576-1.83-1.513-1.83zm-.914 1.602c.082-.748.435-1.101.892-1.101.405 0 .787.313.824 1.101H7.115zm4.901-1.602c-.405 0-.787.157-1.013.277v-2.136l-.779.187v5.231c.45.239 1.064.367 1.462.367 1.087 0 1.761-.683 1.761-2.085 0-1.197-.502-1.841-1.431-1.841zm-.33 3.401c-.188 0-.449-.014-.689-.119v-2.451c.3-.165.518-.247.816-.247.502 0 .848.308.848 1.258 0 1.215-.42 1.559-.975 1.559zm15.843-2.277v2.712h-.779V25.01c0-.592-.291-.697-.676-.697-.299 0-.682.135-.914.27v2.967h-.778v-3.282c.337-.202 1.049-.554 1.911-.554.898.001 1.236.353 1.236 1.125zm-9.03-2.601h.929v5.313h-.809v-3.853h-.067l-1.529 3.853h-.479l-1.529-3.762h-.067v3.762h-.674v-5.313h.906l1.679 4.188h.038l1.602-4.188zm3.462 1.477c-.989 0-1.709.652-1.709 1.963 0 1.281.683 1.964 1.709 1.964 1.027 0 1.709-.683 1.709-1.964 0-1.312-.72-1.963-1.709-1.963zm0 3.401c-.532 0-.922-.41-.922-1.438 0-1.012.428-1.439.922-1.439.51 0 .922.427.922 1.439 0 1.028-.39 1.438-.922 1.438zm24.089 1.455l1.321 1.51a7.157 7.157 0 0 1-.864.574 6.516 6.516 0 0 1-3.237.856c-3.617 0-6.568-2.95-6.568-6.567 0-3.618 2.951-6.568 6.568-6.568a6.539 6.539 0 0 1 3.286.881l-.604.541-.906-.939-1.533 1.368-.908-.994-2.859 2.574 1.832 2.019-.721.632 1.805 2.021-.717.631 2.578 2.869 1.527-1.408zm3.136-4.076l.702.781-.78.703-.703-.781.781-.703zm-14.831-.654h.803l-1.355 3.748c-.375 1.035-.832 1.574-1.693 1.574v-.613c.51 0 .824-.404 1.004-.959l-1.438-3.749h.824l.959 2.759h.045l.851-2.76zm-4.428-.126c-1.125 0-1.701.823-1.701 1.963 0 1.185.517 1.964 1.775 1.964.539 0 .987-.15 1.325-.347v-.567c-.411.245-.786.389-1.19.389-.771 0-1.14-.396-1.14-1.297h2.443v-.275c.002-1.224-.576-1.83-1.512-1.83zm-.916 1.602c.084-.748.437-1.101.894-1.101.403 0 .787.313.824 1.101h-1.718zm19.094 1.93l1.055 1.172-1.172 1.055-1.056-1.172 1.173-1.055zm-3.111-7.197l1.055 1.172-1.172 1.055-1.055-1.172 1.172-1.055zm-2.477.405l1.406 1.562-1.562 1.406-1.406-1.562 1.562-1.406zm3.44 4.177l-1.055-1.171 1.17-1.055 1.057 1.171-1.172 1.055zm1.449-1.753l.779-.703.702.781-.778.703-.703-.781zm-42.173-.641h.877l-1.215 5.313h-.81l-1.019-3.74h-.053l-.989 3.74h-.81L0 22.238h.84l.839 3.964h.053l.974-3.964h.667l1.042 3.964h.053l.765-3.964zm41.726 4.868l-1.057-1.17 1.172-1.056 1.057 1.17-1.172 1.056zm-.551-6.548l.781-.703.702.781-.78.703-.703-.781zM43.48 26.09l-1.406-1.562 1.562-1.408 1.406 1.562-1.562 1.408zm1.111 2.7l-1.405-1.562 1.561-1.406 1.406 1.562-1.562 1.406z"/></symbol><symbol viewBox="0 0 56.48 56.48" id="yandex" xmlns="http://www.w3.org/2000/svg"><path d="M14.072 22.264h.817v2.908h-1.376c.597-.923.516-1.916.559-2.908zm4.28.075c-.193-.283-.554-.292-.771-.021-.25.313-.323.667-.343 1.049h1.348c.008-.366-.018-.713-.234-1.028zM6.268 29.845c-.008 1.063-.006 2.129-.307 3.168-.149.518-.396 1.016-.599 1.521h2.37v-5.197H6.267c.001.18.003.344.001.508zm17.551 1.974c-.069.015-.165.104-.165.159-.012.83-.008 1.662-.008 2.505.938.223 1.716-.138 1.895-.896.066-.281.064-.591.006-.873-.162-.781-.789-1.095-1.728-.895zM7.641 22.855v-2.607c-.971-.121-1.388.081-1.704.808-.017.04-.038.08-.051.122-.157.528-.036 1.011.389 1.428.371.364.879.243 1.366.249zm6.085 6.691c-.143-.242-.354-.429-.71-.445-.364-.018-.581.17-.744.399-.383.539-.495 1.138-.555 1.776h2.375c.003-.605-.049-1.187-.366-1.73zM56.48 11.393v33.695c0 .803-.65 1.454-1.454 1.454H1.454A1.454 1.454 0 0 1 0 45.087V11.393c0-.803.65-1.454 1.454-1.454h53.572c.804 0 1.454.651 1.454 1.454zM23.445 25.121c.397.528 1.088.776 1.797.609.501-.117.557-.17.459-.6-1.062.354-1.793.034-1.985-.89a2.537 2.537 0 0 1 .11-1.428c.236-.639.705-.828 1.485-.617.015.004.032-.003.06-.007l.245-.308c-.644-.423-1.526-.322-2.007.212-.37.412-.516.889-.563 1.39-.052.576.019 1.134.399 1.639zM6.447 23.404l-1.524 2.294c.213 0 .377-.011.537.003.212.019.321-.05.419-.207.374-.607.771-1.205 1.159-1.807.179-.276.201-.284.623-.203v2.195h.716v-5.7c0-.297-.001-.296-.371-.297-.341 0-.68.001-1.02 0a1.741 1.741 0 0 0-1.205.437c-1.123.994-.828 2.881.666 3.285zm3.3 11.139h-.841v-6.062H5.285c-.05 1.029-.074 2.042-.156 3.051-.073.896-.271 1.775-.667 2.622-.131.278-.288.462-.688.396-.021-.004-.047.014-.073.021v2.223h1.081v-1.467h3.915V36.8h1.05v-2.257zm.402-10.601h1.167v1.752h.629v-3.905h-.633v1.579H10.13v-1.584h-.618v3.908h.637v-1.75zm5.078 10.975c-.073-.179-.147-.363-.213-.521-.343.104-.651.226-.978.293-1.059.216-1.751-.076-2.053-.844-.233-.59-.224-1.198-.234-1.842h3.456c-.048-.535-.053-1.056-.15-1.562-.123-.633-.367-1.241-.872-1.751-.447-.45-.985-.581-1.656-.399-.697.189-1.122.627-1.408 1.146-.838 1.523-.91 3.091-.268 4.673.193.478.52.894 1.064 1.161.913.449 2.388.294 3.312-.354zm.767-9.726l-.46-.018v-3.39h-2.043c0 .254.009.482-.001.711-.034.796-.063 1.593-.395 2.355-.082.188-.143.389-.46.347v1.23h.589v-.799h2.213v.795h.557v-1.231zm.516-1.13c.045.359.144.724.297 1.062.224.497.736.751 1.33.688a3.81 3.81 0 0 0 .844-.205c.301-.105.309-.2.101-.422-.183.053-.359.117-.543.154-.513.104-.879-.01-1.074-.333-.229-.378-.218-.784-.204-1.209h1.935c.042-.636-.036-1.232-.439-1.774-.354-.476-.967-.552-1.454-.161a1.851 1.851 0 0 0-.445.523 2.651 2.651 0 0 0-.348 1.677zm4.353 4.633c0-.029.014-.065-.003-.085-.042-.049-.095-.126-.147-.128-.319-.013-.64-.007-.992-.007V31.3h-2.07v-2.822h-1.104v6.902h1.118v-2.683c0-.444 0-.442.53-.442h1.534v3.125h1.122c.005-.076.013-.14.013-.203l-.001-6.483zm1.297-3.092c.182.022.369.008.594.008-.448-.683-.866-1.326-1.294-1.967-.081-.12-.087-.207.017-.326.386-.443.755-.896 1.13-1.346.046-.056.086-.113.15-.197-.121 0-.191.008-.259-.001-.273-.037-.44.052-.59.248-.329.432-.694.844-1.046 1.263-.04.047-.09.088-.186.181v-1.68h-.611V25.6h.62c0-.453-.01-.896.006-1.339.006-.152.076-.304.116-.456.119.073.17.138.215.206.319.479.634.958.956 1.434.042.064.114.149.182.157zm4.873 6.942c-.187-.929-.893-1.494-2.02-1.585-.444-.034-.896-.006-1.375-.006V28.48h-.964v6.872c.713 0 1.402.041 2.082-.01 1.019-.074 1.796-.48 2.16-1.312.213-.48.217-.982.117-1.486zm5.17-4.072h-4.137v6.908h1.023v-6.212h3.112c.002-.247.002-.466.002-.696zm5.016-.008c-.361 0-.709.01-1.055-.005-.18-.007-.261.044-.322.181-.436.953-.879 1.902-1.319 2.854-.193.417-.392.832-.587 1.249l-.053-.009v-4.259h-1.119v6.912h1.098l2.097-4.543v4.537h1.261l-.001-6.917zm15.56 5.897c.001-1.682.001-3.361-.001-5.042 0-.106-.002-.218-.021-.322-.067-.375-.381-.6-.84-.606-.14-.002-.279.013-.418-.002-.269-.028-.34.061-.338.276.014 1.048.01 2.097.004 3.146-.002.55-.539 1.113-1.182 1.256-2 .441-3.998.886-5.999 1.32a3.215 3.215 0 0 1-.692.073.396.396 0 0 1-.281-.149c-.028-.049.06-.17.129-.229.091-.073.209-.132.326-.174.369-.13.741-.25 1.112-.373 1.485-.493 2.972-.981 4.456-1.479.669-.224 1.03-.672 1.041-1.235.034-1.823.016-3.648.01-5.473-.002-.289-.15-.53-.494-.655-.396-.142-.746-.029-1.09.135a7273.446 7273.446 0 0 1-6.305 3.005c-.619.296-.964.722-.961 1.33.007 1.724.002 3.447.004 5.171 0 .085.009.174.036.254.207.586.743.922 1.485.924 1.481.002 2.963 0 4.445 0 1.473 0 2.945.002 4.42 0 .32 0 .615-.067.855-.264.313-.252.299-.571.299-.887zm-5.601-5.153c.562.001 1.133-.528 1.062-.985-.047-.295-.333-.499-.661-.457-.496.063-.82.306-.97.692-.163.418.099.749.569.75z"/></symbol></svg>