<svg xmlns="http://www.w3.org/2000/svg" width="21" height="19" viewBox="0 0 21 19"><defs><mask id="q3lib" width="2" height="2" x="-1" y="-1"><path fill="#fff" d="M-1 0h17v13H-1z"/><path d="M15.638 1.636c-.265.147-1.061.44-1.802.512.476-.257 1.18-1.098 1.354-1.767-.458.293-1.508.72-2.027.72A3.24 3.24 0 0 0 10.815.097a3.252 3.252 0 0 0-3.167 3.98C5.214 4.013 2.552 2.79.95.7-.036 2.407.817 4.307 1.935 5c-.383.028-1.087-.045-1.419-.37-.022 1.135.522 2.636 2.507 3.182-.383.206-1.06.147-1.353.103.103.957 1.441 2.208 2.904 2.208-.521.604-2.483 1.7-4.685 1.351a9.747 9.747 0 0 0 5.083 1.44c5.241 0 9.312-4.256 9.093-9.505l-.001-.018.001-.041-.002-.048a5.601 5.601 0 0 0 1.575-1.666z"/></mask><filter id="q3lia" width="46.5" height="42.5" x="-14" y="-13" filterUnits="userSpaceOnUse"><feOffset dx="3.5" dy="3.5" in="SourceGraphic" result="FeOffset1033Out"/><feGaussianBlur in="FeOffset1033Out" result="FeGaussianBlur1034Out" stdDeviation="1.2 1.2"/></filter><filter id="q3lic" width="200%" height="200%" x="-50%" y="-50%"><feGaussianBlur in="SourceGraphic" result="FeGaussianBlur1039Out" stdDeviation="0.5 0.5"/></filter><mask id="q3lid"><path fill="#fff" d="M15.638 1.636c-.265.147-1.061.44-1.802.512.476-.257 1.18-1.098 1.354-1.767-.458.293-1.508.72-2.027.72A3.24 3.24 0 0 0 10.815.097a3.252 3.252 0 0 0-3.167 3.98C5.214 4.013 2.552 2.79.95.7-.036 2.407.817 4.307 1.935 5c-.383.028-1.087-.045-1.419-.37-.022 1.135.522 2.636 2.507 3.182-.383.206-1.06.147-1.353.103.103.957 1.441 2.208 2.904 2.208-.521.604-2.483 1.7-4.685 1.351a9.747 9.747 0 0 0 5.083 1.44c5.241 0 9.312-4.256 9.093-9.505l-.001-.018.001-.041-.002-.048a5.601 5.601 0 0 0 1.575-1.666z"/></mask></defs><g><g><g filter="url(#q3lia)"><path fill="none" d="M15.638 1.636c-.265.147-1.061.44-1.802.512.476-.257 1.18-1.098 1.354-1.767-.458.293-1.508.72-2.027.72A3.24 3.24 0 0 0 10.815.097a3.252 3.252 0 0 0-3.167 3.98C5.214 4.013 2.552 2.79.95.7-.036 2.407.817 4.307 1.935 5c-.383.028-1.087-.045-1.419-.37-.022 1.135.522 2.636 2.507 3.182-.383.206-1.06.147-1.353.103.103.957 1.441 2.208 2.904 2.208-.521.604-2.483 1.7-4.685 1.351a9.747 9.747 0 0 0 5.083 1.44c5.241 0 9.312-4.256 9.093-9.505l-.001-.018.001-.041-.002-.048a5.601 5.601 0 0 0 1.575-1.666z" mask="url(&quot;#q3lib&quot;)"/><path fill="#020303" fill-opacity=".15" d="M15.638 1.636c-.265.147-1.061.44-1.802.512.476-.257 1.18-1.098 1.354-1.767-.458.293-1.508.72-2.027.72A3.24 3.24 0 0 0 10.815.097a3.252 3.252 0 0 0-3.167 3.98C5.214 4.013 2.552 2.79.95.7-.036 2.407.817 4.307 1.935 5c-.383.028-1.087-.045-1.419-.37-.022 1.135.522 2.636 2.507 3.182-.383.206-1.06.147-1.353.103.103.957 1.441 2.208 2.904 2.208-.521.604-2.483 1.7-4.685 1.351a9.747 9.747 0 0 0 5.083 1.44c5.241 0 9.312-4.256 9.093-9.505l-.001-.018.001-.041-.002-.048a5.601 5.601 0 0 0 1.575-1.666z"/></g><path fill="#eaf9fe" d="M15.638 1.636c-.265.147-1.061.44-1.802.512.476-.257 1.18-1.098 1.354-1.767-.458.293-1.508.72-2.027.72A3.24 3.24 0 0 0 10.815.097a3.252 3.252 0 0 0-3.167 3.98C5.214 4.013 2.552 2.79.95.7-.036 2.407.817 4.307 1.935 5c-.383.028-1.087-.045-1.419-.37-.022 1.135.522 2.636 2.507 3.182-.383.206-1.06.147-1.353.103.103.957 1.441 2.208 2.904 2.208-.521.604-2.483 1.7-4.685 1.351a9.747 9.747 0 0 0 5.083 1.44c5.241 0 9.312-4.256 9.093-9.505l-.001-.018.001-.041-.002-.048a5.601 5.601 0 0 0 1.575-1.666z"/><path fill="#fff" d="M-2 15V-2h19v17zM15.638 2.636zm-1.802.512c.476-.257 1.18-1.098 1.354-1.767-.458.293-1.508.72-2.027.72a3.24 3.24 0 0 0-2.348-1.005 3.252 3.252 0 0 0-3.167 3.98C5.214 5.013 2.552 3.79.95 1.7-.036 3.407.817 5.307 1.935 6c-.383.028-1.087-.045-1.419-.37-.022 1.135.522 2.636 2.507 3.182-.383.206-1.06.147-1.353.103.103.957 1.441 2.208 2.904 2.208-.521.604-2.483 1.7-4.685 1.351a9.747 9.747 0 0 0 5.083 1.44c5.241 0 9.312-4.256 9.093-9.505l-.001-.018.001-.041-.002-.048a5.601 5.601 0 0 0 1.575-1.666c-.265.147-1.061.44-1.802.512z" filter="url(#q3lic)" mask="url(&quot;#q3lid&quot;)"/></g></g></svg>