<?xml version="1.0" standalone="no"?>
<!DOCTYPE svg PUBLIC "-//W3C//DTD SVG 1.1//EN" "http://www.w3.org/Graphics/SVG/1.1/DTD/svg11.dtd" >
<svg xmlns="http://www.w3.org/2000/svg" xmlns:xlink="http://www.w3.org/1999/xlink" version="1.1">
<metadata>
Created by FontForge 20170731 at Mon Feb  4 14:48:15 2019
 By Aleksey,,,
Copyright (c) 2019 by Misti's Fonts. All rights reserved.
</metadata>
<defs>
<font id="BringingontheHeartbreak-Reg" horiz-adv-x="389" >
  <font-face 
    font-family="Bringing on the Heartbreak"
    font-weight="400"
    font-stretch="normal"
    units-per-em="1000"
    panose-1="0 0 0 0 0 0 0 0 0 0"
    ascent="800"
    descent="-200"
    x-height="394"
    cap-height="700"
    bbox="-249 -251 1015 906"
    underline-thickness="50"
    underline-position="-175"
    unicode-range="U+000D-20AC"
  />
<missing-glyph horiz-adv-x="250" 
 />
    <glyph glyph-name="f_j" unicode="fj" horiz-adv-x="247" 
d="M147 -44q-9 -30 -20.5 -65.5t-26.5 -67t-35.5 -52.5t-47.5 -21q-24 0 -36 15.5t-17 36.5t-5 42v31q0 50 4.5 112.5t12 129t17 132.5t18.5 124q11 66 22 123t22 99q12 44 21 69q6 15 12.5 24.5t17.5 9.5q7 0 12 -5.5t3 -12.5q0 -1 -6.5 -38t-16 -97.5t-22 -138
t-24.5 -158.5q-7 -46 -13 -91.5t-12 -91.5q17 9 33 28.5t30.5 42.5t26 47t18.5 43q7 67 9.5 111.5t2.5 45.5q0 7 4.5 11t10.5 4q4 0 9.5 -2.5t10.5 -13.5q8 -15 9.5 -39.5t1.5 -44.5q0 -86 -10.5 -173t-35.5 -169zM123 132q-18 -34 -42 -59t-59 -45q-2 -23 -5 -45.5
t-5 -45.5q-3 -35 -5.5 -63t-2.5 -48t1.5 -33t13.5 -13q14 0 27 21t23.5 54t19.5 74t16 80t11.5 72t6.5 51zM165 428q-11 0 -18.5 8t-7.5 19t7.5 18.5t18.5 7.5t19 -7.5t8 -18.5t-8 -19t-19 -8z" />
    <glyph glyph-name="g_j" unicode="gj" horiz-adv-x="469" 
d="M208 -250q-8 0 -12.5 4.5t-4.5 10.5q0 5 4.5 10t12.5 5q33 0 58.5 38t45 96.5t33 130t21.5 138.5t12 121t4 79q0 7 4.5 11t10.5 4q4 0 9.5 -2.5t10.5 -13.5q8 -15 9.5 -39.5t1.5 -44.5q0 -86 -10.5 -173t-35.5 -169q-9 -30 -23.5 -65.5t-35.5 -67t-49 -52.5t-66 -21z
M428 455q0 11 -8 18.5t-19 7.5t-18.5 -7.5t-7.5 -18.5t7.5 -19t18.5 -8t19 8t8 19zM239 161q-11 -21 -25 -43.5t-32 -41.5t-39.5 -31t-48.5 -12t-47 9.5t-33 26t-19.5 39t-6.5 47.5q0 35 12 77.5t34.5 79t54 61t69.5 24.5q35 0 59 -24.5t24 -59.5q0 -14 -14 -16q-6 -1 -11 3
t-5 11q-2 19 -12.5 37.5t-33.5 18.5q-28 0 -50 -27t-37.5 -64t-23.5 -75t-8 -59q0 -13 2 -27t7 -25.5t14 -19t23 -7.5q29 0 55 21.5t46 52.5t34 64.5t20 57.5q3 32 3 51q1 11 1 19q0 6 4.5 10.5t10.5 4.5q15 0 20.5 -15t7.5 -26q2 -14 3.5 -33.5t1.5 -42.5q0 -37 -5 -94
t-17 -119q5 -1 12 -3.5t13.5 -6.5t11.5 -9t5 -11q0 -5 -5 -10t-10 -5q-4 0 -9 3q-1 1 -7 4.5t-18 8.5q-11 -46 -27 -88.5t-38.5 -75t-51.5 -52t-66 -19.5q-42 0 -64.5 24.5t-22.5 64.5q0 25 8.5 49t22.5 45.5t33 39t41 28.5q32 15 62 19.5t53 4.5q2 7 2.5 13t1.5 11
q5 29 8.5 57t6.5 55zM215 -5q-34 0 -67 -11t-59 -31t-42.5 -49.5t-16.5 -66.5q0 -27 14 -42t43 -15q26 0 46.5 21.5t36.5 53.5t27 69.5t18 70.5z" />
    <glyph glyph-name="j_j" unicode="jj" horiz-adv-x="220" 
d="M-50 -250q-8 0 -12.5 4.5t-4.5 10.5q0 5 4.5 10t12.5 5q33 0 58.5 38t45 96.5t33 130t21.5 138.5t12 121t4 79q0 7 4.5 11t10.5 4q4 0 9.5 -2.5t10.5 -13.5q8 -15 9.5 -39.5t1.5 -44.5q0 -86 -10.5 -173t-35.5 -169q-9 -30 -23.5 -65.5t-35.5 -67t-49.5 -52.5t-65.5 -21z
M170 455q0 11 -8 18.5t-19 7.5t-18.5 -7.5t-7.5 -18.5t7.5 -19t18.5 -8t19 8t8 19zM-144 1q32 15 62 19.5t53 4.5q3 15 5 28t4 23q10 57 16 112t9.5 98t5 70l1.5 27q0 7 4.5 11t10.5 4q4 0 9.5 -2.5t10.5 -13.5q5 -9 7 -21.5t3 -26t1 -26.5v-22q0 -60 -8 -132.5t-23 -138.5
q25 -8 36 -18q7 -5 7 -13q0 -5 -5 -10t-10 -5q-4 0 -9 3q-1 1 -7 4.5t-19 8.5q-6 -32 -20.5 -72.5t-37.5 -76.5t-54 -61t-70 -25q-42 0 -64.5 24.5t-22.5 64.5q0 25 8 49t22.5 45.5t33.5 39t41 28.5zM-162 -220q24 0 43.5 20.5t35 52t27.5 69.5t20 73q-33 0 -66 -11
t-59 -31.5t-42 -49.5t-16 -66q0 -27 14 -42t43 -15zM31 428q-11 0 -18.5 8t-7.5 19t7.5 18.5t18.5 7.5t19 -7.5t8 -18.5t-8 -19t-19 -8z" />
    <glyph glyph-name="y_j" unicode="yj" horiz-adv-x="431" 
d="M160 -250q-8 0 -12.5 4.5t-4.5 10.5q0 5 4.5 10t12.5 5q33 0 58.5 38t45 96.5t33 130t21.5 138.5t12 121t4 79q0 7 4.5 11t10.5 4q4 0 9.5 -2.5t10.5 -13.5q8 -15 9.5 -39.5t1.5 -44.5q0 -86 -10.5 -173t-35.5 -169q-9 -30 -23.5 -65.5t-35.5 -67t-49 -52.5t-66 -21z
M380 455q0 11 -8 18.5t-19 7.5t-18.5 -7.5t-7.5 -18.5t7.5 -19t18.5 -8t19 8t8 19zM67 1q32 15 61.5 19.5t52.5 4.5q7 26 11 52.5t7 52.5q-25 -46 -51 -68t-61 -22q-28 0 -46 13t-28 32.5t-14 44t-4 46.5q0 18 5.5 54t16.5 72.5t29 64t42 27.5q6 0 10.5 -4.5t4.5 -10.5
q0 -3 -1 -5q-9 -23 -19 -52t-17.5 -59.5t-12.5 -60t-5 -55.5q0 -11 1 -24.5t5.5 -25t13 -19.5t24.5 -8q21 0 39.5 19t34.5 45.5t27.5 54t18.5 45.5q6 64 8.5 106t2.5 43q0 7 4.5 11t10.5 4q4 0 9.5 -2.5t10.5 -13.5q4 -9 6.5 -21.5t3.5 -26t1 -26.5v-22q0 -60 -8 -132.5
t-23 -138.5q25 -8 36 -18q7 -5 7 -13q0 -5 -5 -10t-10 -5q-4 0 -9 3q-1 1 -7 4.5t-19 8.5q-6 -32 -20.5 -72.5t-37.5 -76.5t-54 -61t-70 -25q-42 0 -64.5 24.5t-22.5 64.5q0 25 8 49t22.5 45.5t33.5 39t41 28.5zM49 -220q24 0 43.5 20.5t35 52t27.5 69.5t20 73
q-33 0 -66 -11t-59 -31.5t-42 -49.5t-16 -66q0 -27 14 -42t43 -15z" />
    <glyph glyph-name="z_j" unicode="zj" horiz-adv-x="434" 
d="M162 -250q-8 0 -12.5 4.5t-4.5 10.5q0 5 4.5 10t12.5 5q33 0 58.5 38t45 96.5t33 130t21.5 138.5t12 121t4 79q0 7 4.5 11t10.5 4q4 0 9.5 -2.5t10.5 -13.5q8 -15 9.5 -39.5t1.5 -44.5q0 -86 -10.5 -173t-35.5 -169q-9 -30 -23.5 -65.5t-35.5 -67t-49 -52.5t-66 -21z
M382 455q0 11 -8 18.5t-19 7.5t-18.5 -7.5t-7.5 -18.5t7.5 -19t18.5 -8t19 8t8 19zM281 288q-4 -26 -17 -53t-32.5 -51.5t-44 -44.5t-51.5 -32q50 -27 72 -86q6 -1 17 -4t22 -7.5t19.5 -11t8.5 -14.5q0 -5 -5 -10t-10 -5q-4 0 -9 3q-1 1 -9 5.5t-24 9.5q4 -17 4 -42
q0 -39 -12.5 -74.5t-35.5 -62.5t-56.5 -42.5t-74.5 -15.5q-42 0 -64.5 24.5t-22.5 64.5q0 25 8 49t22.5 45.5t33.5 39t41 28.5q24 11 48 16t44 7q-11 29 -29.5 48t-46.5 21q-8 0 -12 3q-6 4 -6 12q0 6 4.5 10.5t10.5 4.5q23 0 48 21t47 50t37.5 59.5t19.5 49.5q4 16 5 26.5
t1 16.5q-12 -10 -34.5 -19.5t-59.5 -9.5q-40 0 -68 33q-9 -32 -20 -64l-22 -64q-3 -10 -14 -10q-6 0 -10.5 4.5t-4.5 10.5q0 3 1 5l3 9t8.5 24t12 34.5t12.5 40.5q4 14 7.5 25.5t5.5 21.5q-10 28 -10 53q0 28 10 39t22 11q13 0 17.5 -9.5t4.5 -20.5q0 -7 -1.5 -16.5
t-3.5 -23.5q-2 -7 -3.5 -14.5t-3.5 -16.5q6 -13 19.5 -27.5t37.5 -14.5q39 0 58 12t23 17q3 12 14 12q25 0 40 -23q11 -17 11 -38.5t-3 -38.5zM-14 -163q0 -27 14 -42t43 -15q32 0 54.5 18t37.5 44.5t22 57t7 56.5q0 22 -4 39q-32 0 -63.5 -12t-56 -33t-39.5 -50t-15 -63z
" />
    <glyph glyph-name="G_j" unicode="Gj" horiz-adv-x="632" 
d="M358 -250q-8 0 -12.5 4.5t-4.5 10.5q0 5 4.5 10t12.5 5q33 0 58.5 38t45 96.5t33 130t21.5 138.5t12 121t4 79q0 7 4.5 11t10.5 4q4 0 9.5 -2.5t10.5 -13.5q8 -15 9.5 -39.5t1.5 -44.5q0 -86 -10.5 -173t-35.5 -169q-9 -30 -23.5 -65.5t-35.5 -67t-49 -52.5t-66 -21z
M578 455q0 11 -8 18.5t-19 7.5t-18.5 -7.5t-7.5 -18.5t7.5 -19t18.5 -8t19 8t8 19zM249 1q32 15 61.5 19.5t52.5 4.5q4 15 6 28t4 23q4 25 7.5 49t6.5 47q-19 -25 -40.5 -48.5t-46 -42t-53 -30t-62.5 -11.5q-52 0 -87.5 27t-57 68t-31 90t-9.5 93t8.5 93.5t26 98t43.5 92.5
t60.5 77.5t77.5 53.5t94 20q43 0 75.5 -14t54 -38t32 -55t10.5 -65q0 -29 -7.5 -57.5t-23.5 -51.5t-39.5 -37t-55.5 -14q-7 0 -11 4.5t-4 10.5t4 10.5t11 4.5q25 0 43 12t30 31t17.5 42.5t5.5 45.5q0 28 -8 53.5t-24.5 45t-41.5 31t-58 11.5q-45 0 -81.5 -22t-64 -57.5
t-47.5 -81.5t-32.5 -93.5t-18.5 -93t-6 -80.5q0 -26 4.5 -64.5t17.5 -74t38 -61t65 -25.5q31 0 61.5 17.5t57.5 44t48 57t33 56.5q5 60 7.5 98.5t2.5 39.5q0 7 4.5 11t10.5 4q12 0 19 -14.5t10 -33.5t3.5 -37.5t0.5 -26.5q0 -69 -7.5 -137t-23.5 -135q11 -4 20 -8t14 -9
q7 -5 7 -13q0 -5 -5 -10t-10 -5q-4 0 -9 3q-1 1 -7 4.5t-17 7.5q-9 -32 -23.5 -72.5t-37 -76.5t-53 -60.5t-70.5 -24.5q-42 0 -64.5 24.5t-22.5 64.5q0 25 8.5 49t22.5 45.5t33 39t41 28.5zM231 -220q24 0 43.5 20.5t35 52t27.5 69.5t20 73q-33 0 -66 -11t-59 -31.5
t-42 -49.5t-16 -66q0 -27 14 -42t43 -15z" />
    <glyph glyph-name="Y_j" unicode="Yj" horiz-adv-x="841" 
d="M566 -250q-8 0 -12.5 4.5t-4.5 10.5q0 5 4.5 10t12.5 5q33 0 58.5 38t45 96.5t33 130t21.5 138.5t12 121t4 79q0 7 4.5 11t10.5 4q4 0 9.5 -2.5t10.5 -13.5q8 -15 9.5 -39.5t1.5 -44.5q0 -86 -10.5 -173t-35.5 -169q-9 -30 -23.5 -65.5t-35.5 -67t-49 -52.5t-66 -21z
M786 455q0 11 -8 18.5t-19 7.5t-18.5 -7.5t-7.5 -18.5t7.5 -19t18.5 -8t19 8t8 19zM464 1q29 14 56 18.5t49 5.5q17 86 28 182.5t18 187.5q-7 -30 -19 -71t-28 -85t-37 -87t-47.5 -76.5t-58.5 -54.5t-70 -21q-36 0 -58 19t-34 47t-16 60.5t-4 59.5q0 55 10.5 127.5t28 147
t41 143.5t50.5 117q-27 -1 -63 -6.5t-74 -16.5t-75 -27.5t-66 -39.5t-47 -52.5t-18 -66.5q0 -29 17.5 -45t48.5 -16q6 0 10.5 -4.5t4.5 -10.5t-4.5 -10.5t-10.5 -4.5q-42 0 -69 24t-27 67q0 45 20.5 80t54.5 61.5t77 45.5t88 30.5t88.5 17t77.5 5.5q8 0 11.5 -5.5t3.5 -12.5
q0 -2 -7.5 -28t-19.5 -68t-26 -96.5t-26 -113.5q-14 -67 -25.5 -139t-11.5 -163q1 -27 8 -48q5 -18 17 -33t35 -15t43.5 12.5t39 35t36 53.5t34.5 67q21 45 41 108.5t35.5 131t25 133.5t9.5 117q3 12 16 12q4 0 10 -2t10 -14q6 -18 9.5 -57.5t5 -93.5t0 -118t-6.5 -132
t-14.5 -137t-24.5 -131q11 -4 21 -8.5t16 -9.5q7 -5 7 -13q0 -5 -5 -10t-10 -5q-4 0 -9 3q-1 1 -7.5 5t-20.5 9q-13 -51 -31 -94.5t-40 -75t-49 -49t-60 -17.5q-42 0 -64.5 24.5t-22.5 64.5q0 25 8.5 49t22.5 45.5t33 39t41 28.5zM446 -220q20 0 36.5 16t31 45t27 68
t22.5 86q-32 -1 -63.5 -13t-56 -32.5t-39.5 -49t-15 -63.5q0 -27 14 -42t43 -15z" />
    <glyph glyph-name="Z_j" unicode="Zj" horiz-adv-x="608" 
d="M335 -250q-8 0 -12.5 4.5t-4.5 10.5q0 5 4.5 10t12.5 5q33 0 58.5 38t45 96.5t33 130t21.5 138.5t12 121t4 79q0 7 4.5 11t10.5 4q4 0 9.5 -2.5t10.5 -13.5q8 -15 9.5 -39.5t1.5 -44.5q0 -86 -10.5 -173t-35.5 -169q-9 -30 -23.5 -65.5t-35.5 -67t-49 -52.5t-66 -21z
M555 455q0 11 -8 18.5t-19 7.5t-18.5 -7.5t-7.5 -18.5t7.5 -19t18.5 -8t19 8t8 19zM253 753q51 0 92.5 -15.5t71 -45.5t45.5 -73.5t16 -98.5q0 -52 -14.5 -103t-40.5 -94.5t-63.5 -76.5t-84.5 -49q49 -23 76.5 -70.5t32.5 -109.5q5 -1 14 -4t18 -7.5t15.5 -10t6.5 -12.5
q0 -5 -5 -10t-10 -5q-4 0 -9 3q-1 1 -8 5t-21 9q0 -47 -13 -90t-36 -75.5t-56 -51.5t-74 -19q-42 0 -64.5 24.5t-22.5 64.5q0 25 8.5 49t22.5 45.5t33 39t41 28.5q28 14 54 18.5t49 5.5q-2 30 -10 58.5t-23.5 51t-40 36t-59.5 13.5q-6 0 -10.5 4.5t-4.5 10.5q0 10 7.5 12.5
t15.5 2.5q43 4 81 37.5t66 82t44.5 104.5t16.5 104q0 83 -47 132.5t-127 49.5q-42 0 -79.5 -14.5t-65.5 -39.5t-44.5 -59.5t-16.5 -74.5t16 -61.5t42 -21.5q6 0 10.5 -4.5t4.5 -10.5t-4.5 -10.5t-10.5 -4.5q-40 0 -64 29.5t-24 82.5q0 47 19.5 87.5t53.5 69.5t80.5 45.5
t99.5 16.5zM149 -164q0 -27 14 -42t43 -15q30 0 52 21t37 53t22.5 69.5t8.5 71.5q-33 0 -64.5 -11.5t-56.5 -32.5t-40.5 -50t-15.5 -64z" />
    <glyph glyph-name="b_r" unicode="br" horiz-adv-x="689" 
d="M42 106q36 1 79.5 5t85.5 15q8 21 14.5 43.5t11 43.5t6.5 38.5t2 28.5q0 12 -1.5 27t-6.5 28.5t-14 22.5t-24 9q-30 0 -54.5 -26t-43 -62t-32 -74.5t-20.5 -64.5v-4q-1 -16 -3 -30zM123 30q21 0 38.5 18t31.5 46q-31 -7 -62.5 -10.5t-60.5 -5.5q2 -5 4.5 -10.5t6.5 -10.5
q6 -10 16.5 -18.5t25.5 -8.5zM579 31q3 1 8 5.5t13.5 15t19.5 29t25 47.5q10 20 18 38.5t13 32.5q7 17 13 33q3 10 14 10q6 0 10.5 -4t4.5 -11q0 -4 -6.5 -20.5t-14.5 -35.5t-15.5 -35.5t-9.5 -20.5q-25 -50 -43 -75q-28 -40 -53 -40q-18 0 -29 13t-16.5 31.5t-7 38.5
t-1.5 33q0 22 2 50t6 56.5t10.5 55.5t14.5 48q-11 -4 -25.5 -6.5t-32.5 -2.5q-40 0 -68 33q-10 -38 -23 -73.5t-32 -66t-46 -55.5t-66 -42q-11 -23 -25 -43.5t-31 -36t-36.5 -24.5t-41.5 -9q-34 0 -56.5 21.5t-31.5 52.5q-1 -7 -1 -13v-11q0 -15 1 -22t2 -10q9 -4 9 -13
q0 -6 -4.5 -10.5t-10.5 -4.5q-17 0 -26 14.5t-13 34.5t-4.5 40t-0.5 31q0 53 6 120.5t16.5 138t25 138t30.5 119.5q9 30 18 49q4 8 11 16.5t18 8.5q6 0 10 -4.5t4 -10.5v-3l-5 -27.5l-13 -71.5t-18 -101t-19 -117q-4 -25 -7.5 -47.5t-6.5 -44.5q8 20 21 41.5t29.5 40
t37 30.5t43.5 12q29 0 49 -11t33 -29.5t18.5 -42t5.5 -49.5q0 -50 -22 -114q30 20 51 46.5t36.5 58t26 65t17.5 66.5q-10 28 -10 53q0 28 10 39t22 11q13 0 17.5 -9.5t4.5 -20.5q0 -7 -1.5 -16.5t-3.5 -23.5q-2 -7 -3.5 -14.5t-3.5 -16.5q6 -13 19.5 -27.5t37.5 -14.5
q35 0 53.5 9.5t25.5 16.5q5 8 12 14.5t18 6.5q14 0 14 -14v-4l-3 -14t-7.5 -37t-9.5 -52.5t-10 -60.5q-5 -32 -10.5 -70.5t-5.5 -70.5q0 -19 1.5 -28t3.5 -12z" />
    <glyph glyph-name=".notdef" horiz-adv-x="250" 
 />
    <glyph glyph-name="uni0000" horiz-adv-x="0" 
 />
    <glyph glyph-name="uni0000" horiz-adv-x="0" 
 />
    <glyph glyph-name="uni000D" unicode="&#xd;" horiz-adv-x="250" 
 />
    <glyph glyph-name="space" unicode=" " horiz-adv-x="211" 
 />
    <glyph glyph-name="exclam" unicode="!" horiz-adv-x="259" 
d="M89 108q-5 0 -11.5 4t-8.5 18q-1 5 -1.5 11.5t0.5 16.5q5 58 12.5 127t16.5 139.5t20 138.5t22 124q4 8 8 10.5t9 2.5q2 0 7.5 -2t8.5 -11q1 -3 3 -11q3 -23 1.5 -62.5t-5.5 -87.5t-10.5 -99.5t-13.5 -99.5t-13.5 -88t-11.5 -64q-1 -6 -3.5 -17.5t-6 -22.5t-9.5 -19
t-14 -8zM104 27q0 -11 -8 -19t-19 -8t-18.5 8t-7.5 19t7.5 18.5t18.5 7.5t19 -7.5t8 -18.5z" />
    <glyph glyph-name="quotedbl" unicode="&#x22;" horiz-adv-x="273" 
d="M83 394q-8 0 -12 2t-6 10v5l23 115q2 9 13 11q14 0 20 -6t8 -20q2 -11 0 -30t-7.5 -37.5t-15 -33t-23.5 -16.5zM153 394q-8 0 -12 2t-6 10v5l23 115q2 9 13 11q14 0 20 -6t8 -20q2 -11 0 -30t-7.5 -37.5t-15 -33t-23.5 -16.5z" />
    <glyph glyph-name="numbersign" unicode="#" horiz-adv-x="475" 
d="M57 60q0 3 1 5l49 187h-41q-6 0 -10.5 4.5t-4.5 10.5t4.5 10.5t10.5 4.5h49l16 60h-65q-6 0 -10.5 4.5t-4.5 10.5t4.5 10.5t10.5 4.5h73l72 272q1 4 5 6.5t9 2.5q11 1 15 -8.5t4 -20.5q0 -5 -4.5 -27.5t-12.5 -57t-18.5 -77.5t-22.5 -90h113l72 272q1 4 5 6.5t9 2.5
q11 1 15 -8.5t4 -20.5q0 -5 -4.5 -27.5t-12.5 -57t-18.5 -77.5t-22.5 -90h49q7 0 11 -4.5t4 -10.5t-4 -10.5t-11 -4.5h-57q-5 -15 -8.5 -30t-8.5 -30h74q7 0 11 -4.5t4 -10.5t-4 -10.5t-11 -4.5h-82q-12 -42 -23.5 -79.5t-22 -65.5t-19 -44.5t-14.5 -16.5q-17 0 -17 14
q0 3 1 5l49 187h-114q-12 -42 -23.5 -79.5t-22 -65.5t-19 -44.5t-14.5 -16.5q-17 0 -17 14zM275 282l16 60h-113q-5 -15 -8.5 -30t-8.5 -30h114z" />
    <glyph glyph-name="dollar" unicode="$" horiz-adv-x="579" 
d="M218 -38q-10 0 -13 13v5l4 24q-78 13 -123.5 63.5t-45.5 128.5q0 6 4.5 10.5t10.5 4.5q7 0 11 -4.5t4 -10.5q0 -68 39 -111.5t105 -52.5l52 298q-27 20 -52 42t-44.5 48t-31 57.5t-11.5 70.5q0 45 16 82.5t44.5 64.5t67.5 42.5t85 15.5l3 20q1 4 4.5 8t8.5 3
q12 -1 16.5 -12t4.5 -22q68 -11 107 -58t39 -119q0 -34 -9 -62.5t-26 -48.5t-40 -31.5t-52 -11.5q-6 0 -10.5 4.5t-4.5 10.5t4.5 10.5t10.5 4.5q44 0 70.5 34.5t26.5 91.5q0 61 -32 100.5t-86 46.5q-3 -24 -8.5 -62t-13 -85t-17 -101t-19.5 -110q3 -2 5.5 -4t5.5 -4
q26 -19 50.5 -38.5t44 -42.5t31.5 -50t12 -60q0 -37 -16 -67.5t-43.5 -52t-66 -33.5t-83.5 -12h-18q-9 -35 -16 -37q-2 0 -2.5 -0.5t-2.5 -0.5zM196 554q0 -55 23.5 -92t57.5 -66l57 327q-63 -6 -100.5 -52.5t-37.5 -116.5zM248 30q67 1 107 35.5t40 92.5q0 49 -26 81.5
t-64 61.5q-15 -81 -30 -152t-27 -119z" />
    <glyph glyph-name="percent" unicode="%" horiz-adv-x="287" 
d="M34 0q-17 0 -17 14q0 3 1 5l213 670q4 9 14 9q11 1 15 -8.5t4 -20.5q0 -6 -8.5 -37.5t-22.5 -79.5t-32 -107.5t-38 -121t-40 -119.5t-37.5 -103t-31 -73t-20.5 -28zM217 27q0 -11 -8 -19t-19 -8t-18.5 8t-7.5 19t7.5 18.5t18.5 7.5t19 -7.5t8 -18.5zM123 674
q0 -11 -8 -19t-19 -8t-18.5 8t-7.5 19t7.5 18.5t18.5 7.5t19 -7.5t8 -18.5z" />
    <glyph glyph-name="ampersand" unicode="&#x26;" horiz-adv-x="433" 
d="M382 296q5 0 9.5 -5t4.5 -10q0 -2 -1 -5q-30 -89 -72 -145q14 -35 29 -53.5t28 -18.5q6 0 10.5 -4t4.5 -11q0 -6 -4.5 -10.5t-10.5 -4.5q-43 0 -78 76q-29 -32 -66 -53.5t-79 -21.5q-27 0 -49 9.5t-38 27t-24.5 41t-8.5 50.5q0 45 21 98.5t51 107t62 102.5t53 85
q2 30 6 49q3 14 10 26.5t24 12.5q11 0 17 -8.5t6 -18.5q0 -13 -8 -33t-25 -53q0 -88 14.5 -183t41.5 -178q35 51 57 120q3 11 15 11zM169 60q31 0 62 22.5t58 53.5q-30 80 -44.5 166t-19.5 171q-14 -34 -35.5 -71.5t-41.5 -77.5t-34.5 -81t-14.5 -83q0 -47 19 -73.5
t51 -26.5z" />
    <glyph glyph-name="quotesingle" unicode="'" horiz-adv-x="127" 
d="M48 394q-8 0 -12 2t-6 10v5l23 115q2 9 13 11q14 0 20 -6t8 -20q2 -11 0 -30t-7.5 -37.5t-15 -33t-23.5 -16.5z" />
    <glyph glyph-name="parenleft" unicode="(" horiz-adv-x="350" 
d="M210 -114q-48 0 -79 23.5t-49 59t-25 78t-7 81.5q0 81 21 167.5t58 158.5q42 84 95.5 128t110.5 44q6 0 10.5 -4t4.5 -11q0 -6 -4.5 -10.5t-10.5 -4.5q-27 0 -51 -18t-44.5 -44t-36.5 -54.5t-25 -49.5q-17 -38 -31 -79.5t-23.5 -84t-14.5 -84t-5 -79.5q0 -26 3.5 -58.5
t15 -61t32.5 -48t55 -19.5q6 1 10.5 -3.5t4.5 -11.5q0 -6 -4.5 -10.5t-10.5 -4.5z" />
    <glyph glyph-name="parenright" unicode=")" horiz-adv-x="349" 
d="M140 626q48 0 79 -23.5t49 -59t25 -78t7 -81.5q0 -81 -21 -167.5t-58 -158.5q-42 -84 -95.5 -128t-110.5 -44q-6 0 -10.5 4t-4.5 11q0 6 4.5 10.5t10.5 4.5q27 0 51 18t44.5 44t36.5 54.5t25 49.5q17 38 31 79.5t23.5 84t14.5 84.5t5 79q0 26 -3.5 58.5t-15 61t-32 48
t-55.5 19.5q-6 -1 -10.5 3.5t-4.5 11.5q0 6 4.5 10.5t10.5 4.5z" />
    <glyph glyph-name="asterisk" unicode="*" horiz-adv-x="673" 
d="M511 660q32 0 54.5 -13.5t37 -35t21.5 -49t7 -55.5q0 -57 -15.5 -102.5t-43 -83.5t-64.5 -70.5t-81 -64.5q-27 -19 -51 -38t-43.5 -39.5t-32.5 -44t-18 -52.5q-4 -12 -18 -12q-12 4 -12 18q3 14 3 27q0 44 -25.5 76.5t-59.5 65.5q-20 20 -40 41t-36.5 46.5t-26.5 56.5
t-10 70t12 84.5t36 84t59.5 64.5t81.5 26q26 0 45 -8.5t32.5 -23.5t22.5 -35t15 -42q11 21 26 41t34.5 35t42 24t47.5 9zM279 87q2 5 5 8.5t6 8.5l-29 52q-1 2 -1 5q0 5 4 8l52 37l-56 46q-4 5 -3 9q0 5 5 8l77 39l-41 30q-4 3 -4 8q0 4 4 8l76 52l-36 32q-9 4 -9 17
q3 14 4 27.5t1 26.5q0 21 -4.5 43t-15 39t-27.5 28t-42 11q-39 0 -68.5 -23.5t-49.5 -58t-30 -74.5t-10 -72q0 -34 9 -61.5t23.5 -50.5t33.5 -42.5t38 -38.5q20 -20 38.5 -40t32.5 -43q5 -10 9.5 -19.5t7.5 -19.5zM409 210q40 29 75 59t61.5 65t41.5 77t15 95q0 22 -5 44
t-15.5 39.5t-28 28.5t-43.5 11q-33 0 -59 -18t-44.5 -45t-30.5 -58.5t-17 -58.5q-1 -1 -1 -2l39 -35q3 -3 3 -8t-4 -7l-75 -51l43 -32q4 -3 4 -9q-2 -5 -6 -8l-77 -39l54 -45q4 -3 4 -8q0 -4 -4 -8l-56 -39l20 -37q22 25 49.5 46.5t56.5 42.5z" />
    <glyph glyph-name="plus" unicode="+" horiz-adv-x="236" 
d="M78 127l14 85h-63q-6 0 -10.5 4.5t-4.5 10.5t4.5 10.5t10.5 4.5h68l14 90q2 9 13 11q14 0 20 -6t8 -20q2 -8 0.5 -28.5t-5.5 -46.5h61q7 0 11 -4.5t4 -10.5t-4 -10.5t-11 -4.5h-67q-4 -19 -8.5 -36.5t-10.5 -32t-12.5 -23.5t-13.5 -10q-8 0 -12 2t-6 10v5z" />
    <glyph glyph-name="comma" unicode="," horiz-adv-x="167" 
d="M61 -76q-2 0 -2.5 -0.5t-2.5 -0.5q-10 0 -13 13v5l23 115q2 9 13 11q14 0 20 -6t8 -20q2 -11 0 -30t-7.5 -37.5t-15 -33t-23.5 -16.5z" />
    <glyph glyph-name="hyphen" unicode="-" horiz-adv-x="385" 
d="M103 212q-6 0 -10.5 4.5t-4.5 10.5t4.5 10.5t10.5 4.5h179q7 0 11 -4.5t4 -10.5t-4 -10.5t-11 -4.5h-179z" />
    <glyph glyph-name="period" unicode="." horiz-adv-x="191" 
d="M115 27q0 -11 -8 -19t-19 -8t-18.5 8t-7.5 19t7.5 18.5t18.5 7.5t19 -7.5t8 -18.5z" />
    <glyph glyph-name="slash" unicode="/" horiz-adv-x="265" 
d="M24 0q-17 0 -17 14q0 3 1 5l213 670q4 9 14 9q11 1 15 -8.5t4 -20.5q0 -6 -8.5 -37.5t-22.5 -79.5t-32 -107.5t-38 -121t-40 -119.5t-37.5 -103t-31 -73t-20.5 -28z" />
    <glyph glyph-name="zero" unicode="0" horiz-adv-x="552" 
d="M344 700q50 0 86 -21t59.5 -56t34.5 -82t11 -100q0 -50 -9.5 -102t-28 -101t-45.5 -92.5t-61 -75.5t-75.5 -51t-89.5 -19q-54 0 -93.5 21.5t-65 58.5t-38 85t-12.5 102q0 74 22.5 151t64.5 139.5t103 102.5t137 40zM226 30q64 0 115.5 38.5t88 99t56 133.5t19.5 142
q0 47 -9.5 88t-29 72t-50 49t-72.5 18q-40 0 -75 -18.5t-64 -49.5t-52.5 -73t-39.5 -89t-24.5 -96.5t-8.5 -95.5q0 -45 8.5 -84.5t26.5 -69t45.5 -47t65.5 -17.5z" />
    <glyph glyph-name="one" unicode="1" horiz-adv-x="288" 
d="M259 30q6 0 10.5 -4t4.5 -11q0 -6 -4.5 -10.5t-10.5 -4.5h-242q-7 0 -11 4.5t-4 10.5q0 15 15 15h107q0 21 3.5 61.5t9 91.5t13 108t16.5 112q10 60 19.5 112t18.5 88q3 11 5.5 20.5t5.5 17.5l-157 -104q-4 -2 -8 -2q-6 0 -10.5 4t-4.5 11q0 9 7 13l197 130q5 3 8 5t8 2
q8 0 11 -5t3 -12q0 -1 -4.5 -30.5t-11.5 -77t-16 -107.5t-19 -122q-11 -72 -20.5 -129t-17.5 -99l-8 -44t-9 -44h96z" />
    <glyph glyph-name="two" unicode="2" horiz-adv-x="511" 
d="M299 671q-35 0 -64.5 -11t-50.5 -31t-33 -48.5t-12 -63.5q0 -54 26.5 -87.5t70.5 -33.5q6 0 10.5 -4.5t4.5 -10.5t-4.5 -10.5t-10.5 -4.5q-57 0 -92 41t-35 107q0 42 15 76.5t42 58.5t64.5 37.5t82.5 13.5q86 0 136.5 -45.5t50.5 -123.5q0 -50 -21 -98.5t-54.5 -95
t-76 -89.5t-86.5 -82.5t-85.5 -73.5t-71.5 -62h365q6 0 10.5 -4.5t4.5 -10.5t-4.5 -10.5t-10.5 -4.5h-444q-15 0 -15 16q0 5 5 10q34 34 78.5 71.5t91.5 78t92.5 84t81.5 89t58 92.5t22 95q0 63 -37.5 99t-103.5 36z" />
    <glyph glyph-name="three" unicode="3" horiz-adv-x="513" 
d="M202 29q45 0 83.5 16t66 44.5t43 68t15.5 85.5q0 84 -48.5 128.5t-129.5 44.5h-41q-6 0 -10.5 4.5t-4.5 10.5t4 10l227 229h-252q-6 0 -10.5 4.5t-4.5 10.5t4.5 10.5t10.5 4.5h327q6 0 10.5 -4.5t4.5 -10.5t-4 -10l-228 -230q46 -4 83.5 -21t64.5 -44.5t41.5 -65
t14.5 -82.5q0 -51 -18.5 -93.5t-51.5 -73.5t-79 -48t-100 -17q-48 0 -87.5 13.5t-67 38t-43 59t-15.5 76.5q0 66 35 106.5t92 40.5q6 0 10.5 -4.5t4.5 -10.5t-4.5 -10.5t-10.5 -4.5q-44 0 -70.5 -33t-26.5 -87q0 -35 12 -63.5t33.5 -49t52 -31.5t67.5 -11z" />
    <glyph glyph-name="four" unicode="4" horiz-adv-x="540" 
d="M509 695q8 0 11 -5t3 -12q0 -1 -4.5 -30t-11.5 -75.5t-16 -106t-19 -121.5q-11 -72 -20.5 -129t-17.5 -99q-5 -25 -8.5 -44t-6.5 -32q-1 -5 -2.5 -12t-4 -13.5t-6.5 -11t-10 -4.5q-14 0 -16 12.5t-2 22.5q0 27 5 82t14 122h-381q-4 0 -10 4q-1 0 -1 0.5t-1 0.5q-3 5 -3 9
q0 7 4 11q0 1 11.5 13t29.5 32.5t40.5 47t45.5 56.5q62 80 93.5 138.5t31.5 93.5q0 6 4.5 10.5t10.5 4.5q8 0 12 -6.5t6 -15t2.5 -17t0.5 -13.5q0 -39 -19 -83t-47.5 -86.5t-61.5 -79.5t-61 -62q-8 -8 -16 -15t-16 -13h329q9 83 23 165.5t34 163.5q10 42 20 64q5 12 12 22.5
t19 10.5z" />
    <glyph glyph-name="five" unicode="5" horiz-adv-x="516" 
d="M205 29q42 0 78 15t62 41t40.5 62.5t14.5 78.5q0 48 -19 81.5t-54 54.5t-83.5 30t-108.5 9q-8 0 -11.5 5.5t-1.5 12.5l49 269q3 12 15 12h307q6 0 10.5 -4.5t4.5 -10.5t-4.5 -10.5t-10.5 -4.5h-264l-43 -241q62 -2 113 -18.5t87 -44.5t56 -67.5t20 -87.5q0 -46 -17.5 -85
t-49 -67t-75.5 -43.5t-96 -15.5q-48 0 -87 13.5t-66.5 38t-42.5 59t-15 76.5q0 66 35 106.5t92 40.5q6 0 10.5 -4.5t4.5 -10.5t-4.5 -10.5t-10.5 -4.5q-44 0 -70.5 -33t-26.5 -87q0 -70 44.5 -112.5t117.5 -42.5z" />
    <glyph glyph-name="six" unicode="6" horiz-adv-x="418" 
d="M384 700q8 0 15 -2.5t7 -12.5q0 -6 -4.5 -10.5t-10.5 -4.5q-61 0 -113 -36.5t-91.5 -91t-66.5 -117t-39 -114.5q30 35 75.5 59.5t93.5 24.5q34 0 60 -13t44 -35t27 -51.5t9 -61.5q0 -40 -14 -82t-41 -75.5t-65 -55t-86 -21.5q-45 0 -77.5 19t-53 50t-30.5 72t-10 84
q0 77 26 160.5t74.5 153.5t117 115.5t153.5 45.5zM360 234q0 26 -7 49.5t-20.5 41.5t-34.5 29t-48 11q-26 0 -54.5 -10t-53.5 -28.5t-45 -43.5t-29 -55q0 -7 -0.5 -14t-0.5 -14q0 -24 4.5 -53.5t17.5 -55.5t37 -43.5t63 -17.5q41 0 72.5 19.5t53.5 49.5t33.5 66t11.5 69z
" />
    <glyph glyph-name="seven" unicode="7" 
d="M373 700q6 0 11.5 -6.5t1.5 -14.5q0 -1 -13.5 -30.5t-35.5 -77.5t-50 -108t-57 -122q-35 -72 -62.5 -129t-47.5 -99q-13 -25 -22.5 -44t-16.5 -32q-8 -15 -13 -22q-3 -5 -7 -10t-11 -5q-8 0 -12 5.5t-4 12.5q0 2 0.5 6.5t5 18t13.5 37.5t26 65q48 114 100 225t111 220
q13 23 25.5 45t20.5 35h-316q-6 0 -10.5 4.5t-4.5 10.5t4.5 10.5t10.5 4.5h353z" />
    <glyph glyph-name="eight" unicode="8" horiz-adv-x="532" 
d="M480 217q0 -39 -17 -78t-51 -69.5t-83.5 -50t-114.5 -19.5q-51 0 -89 13.5t-63 36.5t-37 53t-12 62t11.5 64.5t34.5 60.5t57 50t78 33q-44 22 -65 63.5t-21 89.5q0 41 15 81.5t44 72.5t71.5 52.5t98.5 20.5q45 0 78.5 -14.5t55.5 -38.5t33 -55t11 -65q0 -32 -9.5 -64
t-27.5 -60.5t-45.5 -51t-63.5 -35.5q57 -20 84 -62t27 -90zM447 217q0 27 -9.5 51t-29 43t-49.5 30t-71 11q-52 0 -91.5 -17t-66.5 -44t-41 -60.5t-14 -66.5q0 -27 9.5 -51t28 -43t47.5 -30t68 -11q53 0 94 17t68.5 44t42 60.5t14.5 66.5zM482 581q0 28 -8 53.5t-24.5 45
t-41.5 31t-59 11.5q-43 0 -76.5 -17.5t-56 -46t-34.5 -63.5t-12 -70q0 -28 8 -53.5t23.5 -45t39.5 -31t57 -11.5q44 0 78.5 17.5t58 46t35.5 63.5t12 70z" />
    <glyph glyph-name="nine" unicode="9" horiz-adv-x="418" 
d="M34 0q-8 0 -15 2.5t-7 12.5q0 6 4.5 10.5t10.5 4.5q62 0 113.5 36.5t91 91t66.5 117t39 114.5q-30 -35 -75.5 -59.5t-93.5 -24.5q-34 0 -60 13t-44 35t-27 51.5t-9 61.5q0 41 14 82.5t41 75t65 55t86 21.5q45 0 77.5 -19t53 -50t30.5 -71.5t10 -84.5q0 -51 -12 -106
t-34 -108t-54.5 -100t-74 -83t-90.5 -57t-106 -21zM58 466q0 -26 7 -49.5t20.5 -41.5t34.5 -29t48 -11q26 0 54.5 10t53.5 28.5t45 43.5t29 55q0 7 0.5 14t0.5 14q0 24 -4.5 53.5t-17.5 55.5t-37 43.5t-63 17.5q-40 0 -72 -19.5t-54 -49.5t-33.5 -66t-11.5 -69z" />
    <glyph glyph-name="colon" unicode=":" horiz-adv-x="97" 
d="M54 27q0 -11 -8 -19t-19 -8t-18.5 8t-7.5 19t7.5 18.5t18.5 7.5t19 -7.5t8 -18.5zM94 257q0 -11 -8 -19t-19 -8t-18.5 8t-7.5 19t7.5 18.5t18.5 7.5t19 -7.5t8 -18.5z" />
    <glyph glyph-name="semicolon" unicode=";" horiz-adv-x="116" 
d="M27 -76q-2 0 -2.5 -0.5t-2.5 -0.5q-10 0 -13 13v5l23 115q2 9 13 11q14 0 20 -6t8 -20q2 -11 0 -30t-7.5 -37.5t-15 -33t-23.5 -16.5zM109 257q0 -11 -8 -19t-19 -8t-18.5 8t-7.5 19t7.5 18.5t18.5 7.5t19 -7.5t8 -18.5z" />
    <glyph glyph-name="less" unicode="&#x3c;" horiz-adv-x="235" 
d="M28 245q0 13 10.5 21.5t24.5 13.5t29 7t24 2q7 0 15.5 -1t16 -4.5t12.5 -9.5t5 -15q0 -13 -13 -15l-72 -10l71 -52q6 -4 6 -12q0 -6 -3 -9q-4 -6 -12 -6q-4 0 -9 3q-15 11 -27 19.5t-23 17t-23 17.5t-26 20q-6 5 -6 13z" />
    <glyph glyph-name="equal" unicode="=" horiz-adv-x="382" 
d="M102 192q-6 0 -10.5 4.5t-4.5 10.5t4.5 10.5t10.5 4.5h179q7 0 11 -4.5t4 -10.5t-4 -10.5t-11 -4.5h-179zM102 252q-6 0 -10.5 4.5t-4.5 10.5t4.5 10.5t10.5 4.5h179q7 0 11 -4.5t4 -10.5t-4 -10.5t-11 -4.5h-179z" />
    <glyph glyph-name="greater" unicode="&#x3e;" horiz-adv-x="236" 
d="M118 289q9 0 24 -2t29 -7t24.5 -13.5t10.5 -21.5q0 -8 -6 -13q-14 -11 -26 -20t-23 -17.5t-23 -17t-27 -19.5q-4 -3 -9 -3q-7 0 -12 6q-3 3 -3 9q0 8 6 12l71 52l-72 10q-13 2 -13 15q0 9 5 15t12.5 9.5t16 4.5t15.5 1z" />
    <glyph glyph-name="question" unicode="?" horiz-adv-x="305" 
d="M85 136q-7 0 -11 4.5t-4 10.5q0 5 2 7l9.5 17.5t23.5 46.5t31.5 67t34.5 79q62 153 62 234q0 28 -10 48t-39 20q-28 0 -50 -18.5t-38.5 -45t-26.5 -56t-15 -50.5q-2 -6 -7 -9t-11 -3q-6 1 -9.5 6.5t-2.5 11.5q0 2 4 17t12 36.5t21 46.5t31 45.5t42.5 34.5t55.5 14
q49 0 72.5 -34.5t23.5 -88.5q0 -42 -13 -94.5t-34 -105.5t-47 -102.5t-51 -87.5q-23 -34 -35.5 -42.5t-20.5 -8.5zM98 27q0 -11 -8 -19t-19 -8t-18.5 8t-7.5 19t7.5 18.5t18.5 7.5t19 -7.5t8 -18.5z" />
    <glyph glyph-name="at" unicode="@" horiz-adv-x="664" 
d="M65 218q0 74 23.5 150.5t68 139t108 102.5t144.5 40q50 0 86 -21t59.5 -56t34.5 -82t11 -100q0 -50 -9.5 -102t-28 -101t-45.5 -92.5t-61 -75.5t-75.5 -51t-89.5 -19q-58 0 -101 21.5t-70.5 58.5t-41 85.5t-13.5 102.5zM145 198q0 -45 8.5 -84.5t26.5 -69t45.5 -47
t65.5 -17.5q56 0 102 29.5t81 77.5q-14 6 -22 20t-12.5 31t-6 34.5t-1.5 30.5q-9 -19 -21.5 -40t-29 -38.5t-36 -29t-42.5 -11.5q-29 0 -49 11t-33 29.5t-18.5 42.5t-5.5 49q0 35 11.5 81t33.5 87t54 69t72 28q26 0 44 -12t31 -33q9 -15 12.5 -27t3.5 -13q1 -7 -2.5 -12.5
t-11.5 -5.5q-12 0 -15 12q-1 2 -4 12.5t-11 21.5q-6 10 -16.5 18.5t-25.5 8.5q-19 0 -35 -14.5t-29 -37.5t-23 -51.5t-17 -56.5t-10.5 -52t-3.5 -38q0 -12 1.5 -27t6.5 -28.5t14 -22.5t24 -9q31 0 55.5 26.5t43.5 63.5t31.5 76.5t19.5 64.5q22 80 54 80q14 0 14 -14v-4
q0 -3 -2.5 -15t-6 -31t-7.5 -43t-7 -51q-4 -31 -6.5 -56.5t-2.5 -45.5q0 -24 2 -35t4 -14q37 61 57 134t20 143q0 47 -9.5 88t-29 72t-50 49t-72.5 18q-60 0 -108.5 -40t-83 -102t-53.5 -136.5t-19 -143.5z" />
    <glyph glyph-name="A" unicode="A" horiz-adv-x="648" 
d="M498 252q2 12 4.5 24.5t4.5 25.5h-272q-15 -94 -21 -157q-3 -32 -4.5 -53t-1.5 -34t1 -19.5t2 -9.5q9 -4 9 -14q0 -6 -4.5 -10.5t-10.5 -4.5q-19 0 -29.5 16t-15.5 37.5t-6.5 44t-1.5 34.5q0 35 3.5 78.5t9.5 91.5h-36q-7 0 -11 4.5t-4 10.5q0 15 15 15h40q11 74 25 149
t39 146q13 37 25.5 53t26.5 16q7 0 12 -5.5t3 -12.5l-5 -26.5t-13 -70t-18 -99t-19 -114.5l-6 -36h273q8 51 14 101t6 93q0 36 -7 71.5t-29.5 63.5t-63.5 45t-110 17q-60 0 -113.5 -14t-93 -39.5t-62.5 -60.5t-23 -78q0 -38 18 -58.5t47 -20.5q7 0 11 -4.5t4 -10.5t-4 -10.5
t-11 -4.5q-43 0 -69 29t-26 80q0 50 26 90.5t71 70t106 45.5t132 16q79 0 130.5 -20t82 -54t42.5 -80t12 -99q0 -41 -5.5 -83t-14.5 -85h32q6 0 10.5 -4t4.5 -11q0 -6 -4.5 -10.5t-10.5 -4.5h-38q-7 -32 -14 -62.5t-14 -61.5q-8 -38 -17 -79.5t-9 -79.5q0 -9 0.5 -12.5
t0.5 -5.5q6 -1 10.5 -5t4.5 -10t-4.5 -10.5t-10.5 -4.5q-16 0 -26 8.5t-15.5 21.5t-7 29t-1.5 31q0 45 8 93.5t17 97.5z" />
    <glyph glyph-name="B" unicode="B" horiz-adv-x="634" 
d="M589 113q0 -6 -5 -10t-10 -4q-11 0 -15 10l-2 4q-2 2 -3.5 5t-4.5 6q-16 -35 -45 -61t-65 -43.5t-76 -26t-78 -8.5q-37 0 -68.5 8t-54 22t-35.5 34t-13 45q0 33 20 60t56 45q0 102 15 204q2 11 6 36.5t10.5 57.5t15 66t19.5 62.5t24 46.5t27 18q7 0 12 -5.5t3 -12.5
q-11 -63 -23.5 -132t-23.5 -141q-7 -45 -12.5 -88t-10.5 -85q0 -4 -1 -5q23 5 47.5 7.5t52.5 2.5q34 0 72 -6.5t73 -20.5q-1 29 -11 56t-29 47.5t-45.5 33t-59.5 12.5q-7 0 -11 4.5t-4 10.5q0 15 15 15q47 0 86 18.5t67.5 47.5t44 64t15.5 69q0 65 -59 103t-171 38
q-67 0 -122.5 -14t-96 -39.5t-63 -61t-22.5 -77.5q0 -38 18 -60t48 -22q6 0 10.5 -4.5t4.5 -10.5t-4.5 -10.5t-10.5 -4.5q-44 0 -70 30t-26 81q0 49 25.5 90t71 70.5t109.5 46t141 16.5q136 0 211.5 -49.5t75.5 -136.5q0 -40 -15.5 -71.5t-41 -56t-57.5 -42.5t-66 -31
q51 -20 81.5 -63t30.5 -101q0 -11 -1 -21t-3 -20q18 -21 26 -43q1 -2 1 -5zM359 201q-32 0 -59.5 -3.5t-51.5 -9.5q-3 -42 -2 -57.5t3 -20.5q9 -4 9 -14q0 -6 -4.5 -10.5t-10.5 -4.5q-13 0 -21.5 7.5t-14.5 20t-9.5 27.5t-5.5 30q-48 -29 -48 -72q0 -18 11 -32.5t30 -25
t45.5 -16t56.5 -5.5q48 0 84.5 13.5t62 35.5t40.5 50t20 57q-23 13 -56.5 21.5t-78.5 8.5z" />
    <glyph glyph-name="C" unicode="C" horiz-adv-x="482" 
d="M356 451q25 0 43 12t30 31t17.5 42.5t5.5 45.5q0 28 -8 53.5t-24.5 45t-41 31t-56.5 11.5q-46 0 -82.5 -23.5t-64.5 -61t-48 -86t-32.5 -98.5t-18.5 -97.5t-6 -84.5q0 -29 5 -70.5t19 -79.5t41 -65t70 -27q76 0 151 86q14 17 25 32.5t18 28.5q9 14 15 27q5 9 14 9
q6 0 10.5 -4t4.5 -11q0 -4 -1 -6q-17 -35 -42 -69.5t-56.5 -61.5t-68.5 -44t-78 -17q-56 0 -93.5 28.5t-60.5 72t-33 95.5t-10 99q0 46 8.5 98t26 103t43.5 97.5t60.5 82t78 56.5t95.5 21q42 0 74 -14t53.5 -38t32 -55t10.5 -65q0 -29 -7.5 -57.5t-23.5 -51.5t-39.5 -37
t-55.5 -14q-7 0 -11 4.5t-4 10.5t4 10.5t11 4.5z" />
    <glyph glyph-name="D" unicode="D" horiz-adv-x="635" 
d="M534 419q0 144 -61.5 224t-193.5 80q-54 0 -100 -13.5t-79 -38t-51.5 -59t-18.5 -75.5q0 -42 18 -65t48 -23q6 0 10.5 -4.5t4.5 -10.5t-4.5 -10.5t-10.5 -4.5q-44 0 -70 31.5t-26 85.5q0 48 21.5 88t60 68.5t92.5 44.5t118 16q77 0 135.5 -23t97.5 -66.5t59 -106
t20 -141.5q0 -75 -16.5 -140.5t-48.5 -119.5q15 -18 22 -38q1 -2 1 -5q0 -6 -5 -10t-10 -4q-11 0 -15 10q-1 2 -3 5q-3 5 -9 12q-47 -66 -114 -103.5t-152 -37.5q-31 0 -61 6t-53.5 18.5t-38 33.5t-14.5 51q0 40 25.5 66.5t63.5 42.5q0 103 16.5 212t48.5 206q12 37 25 53
t27 16q7 0 12 -5.5t3 -12.5q-11 -63 -23.5 -132t-23.5 -141q-7 -45 -12.5 -88t-10.5 -85v-4q23 5 45 7t41 2q38 0 83.5 -8.5t83.5 -29.5q43 98 43 226zM250 15q74 0 131 39.5t95 108.5q-24 15 -59.5 26.5t-84.5 11.5q-20 0 -45.5 -2.5t-51.5 -8.5q-4 -42 -3 -58.5t3 -21.5
q9 -4 9 -14q0 -6 -4.5 -10.5t-10.5 -4.5q-13 0 -22 8.5t-15 21.5t-9 29t-5 31q-26 -13 -43.5 -31.5t-17.5 -45.5q0 -22 12.5 -37t31.5 -24.5t43 -13.5t46 -4z" />
    <glyph glyph-name="E" unicode="E" horiz-adv-x="500" 
d="M373 450q25 0 43.5 12t30.5 30.5t17.5 42t5.5 46.5q0 63 -39.5 102.5t-106.5 39.5q-41 0 -76 -16t-60.5 -44.5t-40 -67.5t-14.5 -85q0 -59 22.5 -94t59.5 -35q6 0 10.5 -4t4.5 -11q0 -6 -4.5 -10.5t-10.5 -4.5q-33 0 -59.5 -12t-45.5 -34.5t-29.5 -53t-10.5 -68.5
q0 -74 38.5 -113.5t102.5 -39.5q54 0 92.5 25t70.5 60q14 17 24.5 32.5t18.5 28.5q9 14 15 27q3 9 14 9q6 0 10.5 -4.5t4.5 -10.5q0 -2 -2 -6q-20 -39 -45 -73.5t-57 -61t-70.5 -41.5t-85.5 -15q-44 0 -81 12.5t-63.5 35.5t-41.5 55t-15 71q0 32 10 61.5t27 55t41.5 45
t52.5 31.5q-30 17 -49 58t-19 93q0 51 19 94t52 74.5t78 49t97 17.5q44 0 79 -12.5t60 -35.5t38.5 -54.5t13.5 -70.5q0 -29 -8 -57.5t-23.5 -51.5t-39.5 -37t-56 -14q-6 0 -10.5 4.5t-4.5 10.5t4.5 10.5t10.5 4.5z" />
    <glyph glyph-name="F" unicode="F" horiz-adv-x="567" 
d="M148 317q0 7 4.5 11t10.5 4h43q11 74 25 149t39 146q13 37 25.5 53t26.5 16q7 0 12 -5.5t3 -12.5l-5 -26.5t-13 -70t-18 -99t-19 -114.5l-6 -36h262q15 0 15 -15q0 -6 -4 -10.5t-11 -4.5h-266q-15 -94 -21 -157q-3 -32 -4.5 -53t-1.5 -34t1 -19.5t2 -9.5q9 -4 9 -14
q0 -6 -4.5 -10.5t-10.5 -4.5q-19 0 -29.5 16t-15.5 37.5t-6.5 44t-1.5 34.5q0 35 3.5 78.5t9.5 91.5h-39q-6 0 -10.5 4.5t-4.5 10.5zM0 525q0 51 32 93t89 72t134.5 46.5t167.5 16.5q60 0 102.5 -6.5t69.5 -14t40 -14t14 -6.5q5 -4 5.5 -10t-3.5 -11q-4 -6 -12 -6q-4 0 -9 3
q-18 10 -47 18q-25 6 -63.5 11.5t-95.5 5.5q-83 0 -155 -14t-125 -40t-83.5 -62t-30.5 -81q0 -35 18 -54.5t47 -19.5q7 0 11 -4.5t4 -10.5t-4 -10.5t-11 -4.5q-43 0 -69 27.5t-26 75.5z" />
    <glyph glyph-name="G" unicode="G" horiz-adv-x="522" 
d="M249 1q32 15 61.5 19.5t52.5 4.5q4 15 6 28t4 23q4 25 7.5 49t6.5 47q-19 -25 -40.5 -48.5t-46 -42t-53 -30t-62.5 -11.5q-52 0 -87.5 27t-57 68t-31 90t-9.5 93t8.5 93.5t26 98t43.5 92.5t60.5 77.5t77.5 53.5t94 20q43 0 75.5 -14t54 -38t32 -55t10.5 -65
q0 -29 -7.5 -57.5t-23.5 -51.5t-39.5 -37t-55.5 -14q-7 0 -11 4.5t-4 10.5t4 10.5t11 4.5q25 0 43 12t30 31t17.5 42.5t5.5 45.5q0 28 -8 53.5t-24.5 45t-41.5 31t-58 11.5q-45 0 -81.5 -22t-64 -57.5t-47.5 -81.5t-32.5 -93.5t-18.5 -93t-6 -80.5q0 -26 4.5 -64.5t17.5 -74
t38 -61t65 -25.5q31 0 61.5 17.5t57.5 44t48 57t33 56.5q5 60 7.5 98.5t2.5 39.5q0 7 4.5 11t10.5 4q12 0 19 -14.5t10 -33.5t3.5 -37.5t0.5 -26.5q0 -69 -7.5 -137t-23.5 -135q11 -4 20 -8t14 -9q7 -5 7 -13q0 -5 -5 -10t-10 -5q-4 0 -9 3q-1 1 -7 4.5t-17 7.5
q-9 -32 -23.5 -72.5t-37 -76.5t-53 -60.5t-70.5 -24.5q-42 0 -64.5 24.5t-22.5 64.5q0 25 8.5 49t22.5 45.5t33 39t41 28.5zM231 -220q24 0 43.5 20.5t35 52t27.5 69.5t20 73q-33 0 -66 -11t-59 -31.5t-42 -49.5t-16 -66q0 -27 14 -42t43 -15z" />
    <glyph glyph-name="H" unicode="H" horiz-adv-x="797" 
d="M233 316q0 7 4.5 11t10.5 4h41q5 34 12 80t17 93t23 91t29 74q-31 -2 -68 -9t-75 -18t-73.5 -27.5t-63 -39t-44 -51t-16.5 -64.5q0 -29 17 -45t48 -16q7 0 11 -4.5t4 -10.5t-4 -10.5t-11 -4.5q-42 0 -68.5 24t-26.5 67q0 45 21 80t55 61.5t77 45.5t88 30.5t88 17t76 5.5
q10 0 12.5 -6t2.5 -14l-5 -27t-13 -70.5t-18 -99.5t-19 -115q-2 -10 -3 -19t-3 -18h268q4 25 12 63t20.5 80.5t29.5 84.5t38.5 76t47.5 55.5t57 21.5q6 0 10.5 -4.5t4.5 -10.5t-4.5 -10.5t-10.5 -4.5q-17 0 -33 -21.5t-30 -55t-26 -74t-21 -79.5t-15.5 -71.5t-8.5 -49.5h45
q6 0 10.5 -4t4.5 -11q0 -6 -4.5 -10.5t-10.5 -4.5h-49q-7 -47 -10.5 -91.5t-3.5 -83.5q0 -6 0.5 -26t3.5 -42.5t8.5 -40t14.5 -17.5q6 0 10.5 -4.5t4.5 -10.5t-4.5 -10.5t-10.5 -4.5q-32 0 -50.5 23t-28.5 55.5t-12.5 66.5t-2.5 56q0 63 9 130h-268q-7 -47 -12 -85.5
t-8 -70.5t-4.5 -53t-1.5 -34t1 -19.5t2 -9.5q9 -4 9 -14q0 -6 -4.5 -10.5t-10.5 -4.5q-19 0 -29.5 16t-15.5 37.5t-6.5 44t-1.5 34.5q0 35 3.5 78t9.5 91h-37q-6 0 -10.5 4.5t-4.5 10.5z" />
    <glyph glyph-name="I" unicode="I" horiz-adv-x="434" 
d="M0 460q0 45 21 80t55 61.5t77 45.5t88 30.5t88 17t76 5.5q10 0 12.5 -6t2.5 -14l-5 -26.5t-13 -70t-18 -99t-19 -114.5q-11 -69 -18.5 -125.5t-12.5 -99.5q-3 -32 -4.5 -53t-1.5 -34t1 -19.5t2 -9.5q9 -4 9 -14q0 -6 -4.5 -10.5t-10.5 -4.5q-19 0 -29.5 16t-15.5 37.5
t-6.5 44t-1.5 34.5q0 30 3 74.5t9.5 95t15 104.5t19.5 103.5t24 91.5t27 68q-31 -2 -68 -9t-75 -18t-73.5 -27.5t-63 -39t-44 -51t-16.5 -64.5q0 -29 17 -45t48 -16q7 0 11 -4.5t4 -10.5t-4 -10.5t-11 -4.5q-42 0 -68.5 24t-26.5 67z" />
    <glyph glyph-name="J" unicode="J" horiz-adv-x="542" 
d="M110 382q0 -6 -4 -10.5t-11 -4.5q-42 0 -68.5 24t-26.5 67q0 46 25.5 81.5t66.5 62.5t92.5 45t104.5 29.5t101 16.5t83 5q15 0 17 -13q0 -1 0.5 -1.5t0.5 -1.5q6 -19 9 -56t2.5 -84t-5.5 -101.5t-14 -109.5q-3 -17 -6 -33.5t-7 -33.5q4 -1 11 -4t13.5 -7t11.5 -8.5
t5 -10.5q0 -5 -5 -10t-10 -5q-4 0 -9 3q-1 1 -7 4.5t-18 8.5q-13 -48 -30.5 -91t-40 -75t-50.5 -50.5t-62 -18.5q-42 0 -64.5 24.5t-22.5 64.5q0 25 8.5 49t22.5 45.5t33 39t41 28.5q29 14 56 18.5t50 5.5q3 15 5 28t4 23q8 48 15 100t12 99.5l9 85.5l6 57q-35 -1 -80 -6.5
t-92.5 -16.5t-92.5 -27.5t-80.5 -39t-57 -52.5t-21.5 -68q0 -29 17 -45t48 -16q7 0 11 -4.5t4 -10.5zM279 30q24 0 42.5 20.5t33 52t25 69.5t17.5 73q-32 0 -63.5 -12t-56 -33t-40 -50t-15.5 -63q0 -27 14 -42t43 -15z" />
    <glyph glyph-name="K" unicode="K" horiz-adv-x="749" 
d="M625 150q7 -29 13.5 -56t15.5 -48t22.5 -33.5t34.5 -12.5q7 0 11 -4.5t4 -10.5t-4 -10.5t-11 -4.5q-39 0 -63 13t-39 35t-23.5 50.5t-16.5 59.5q-13 51 -27 87t-36.5 59t-57 35t-90.5 15q-16 -108 -24 -180q-3 -32 -4.5 -53t-1.5 -34t1 -19.5t2 -9.5q9 -4 9 -14
q0 -6 -4.5 -10.5t-10.5 -4.5q-18 0 -28.5 16t-15 37.5t-5.5 44t-1 34.5q0 32 3 76t9 94t14.5 102.5t19.5 101.5t24 91t27 71q-31 -2 -68.5 -8.5t-75.5 -17.5t-73.5 -27.5t-63.5 -39t-44.5 -51.5t-16.5 -65q0 -29 17 -45t48 -16q7 0 11 -4.5t4 -10.5t-4 -10.5t-11 -4.5
q-42 0 -68.5 24t-26.5 67q0 45 21 80t55 61.5t77 45.5t88 30.5t88 17t76 5.5q13 0 15 -13q0 -2 0.5 -3.5t-0.5 -3.5l-5 -26.5t-13 -70t-18 -99t-19 -114.5q-2 -10 -2 -15h20q41 0 82 12.5t79 35t71.5 53.5t58 67.5t38.5 77t14 82.5q0 6 4 10.5t10 4.5q13 0 15 -13t3 -26
t1 -26q0 -52 -18.5 -99t-51 -85.5t-75.5 -67t-92 -45.5q-8 -2 -13 -4q32 -12 52 -31.5t32 -43.5t19 -51t13 -54z" />
    <glyph glyph-name="L" unicode="L" horiz-adv-x="704" 
d="M679 15q0 -6 -4.5 -10.5t-10.5 -4.5h-339q-19 0 -29.5 16t-15.5 37.5t-6.5 44t-1.5 34.5q0 30 3 74.5t9.5 95t15 104.5t19.5 103.5t24 91.5t27 68q-31 -2 -68 -9t-75 -18t-73.5 -27.5t-63 -39t-44 -51t-16.5 -64.5q0 -29 17 -45t48 -16q7 0 11 -4.5t4 -10.5t-4 -10.5
t-11 -4.5q-42 0 -68.5 24t-26.5 67q0 45 21 80t55 61.5t77 45.5t88 30.5t88 17t76 5.5q10 0 12.5 -6t2.5 -14l-5 -26.5t-13 -70t-18 -99t-19 -114.5q-11 -69 -18.5 -125.5t-12.5 -99.5q-3 -30 -4.5 -51t-1.5 -34t1 -20t2 -10h333q6 0 10.5 -4t4.5 -11z" />
    <glyph glyph-name="M" unicode="M" horiz-adv-x="849" 
d="M510 463q-9 50 -24.5 97t-44 83t-73 58t-110.5 22q-50 0 -92 -13t-72 -36t-47 -55.5t-17 -71.5q0 -45 21 -70t56 -25q6 0 10.5 -4.5t4.5 -10.5t-4.5 -10.5t-10.5 -4.5q-48 0 -77.5 33.5t-29.5 91.5q0 46 19.5 84t55.5 65t85.5 42t109.5 15q74 0 126 -22t86.5 -59.5
t54.5 -86t31 -101.5q2 -6 2.5 -12t1.5 -12q37 50 79.5 96t86.5 80.5t86.5 55t79.5 20.5q6 0 10.5 -4.5t4.5 -10.5t-4.5 -10.5t-11.5 -4.5q-12 0 -23.5 -12.5t-22 -31.5t-20 -42t-16.5 -44.5t-12 -39t-7 -26.5q-11 -43 -20.5 -90t-16 -94t-10 -92t-3.5 -84q0 -6 0.5 -26
t3.5 -42.5t8.5 -40t14.5 -17.5q6 0 10.5 -4.5t4.5 -10.5t-4.5 -10.5t-10.5 -4.5q-32 0 -50.5 23t-28.5 55.5t-12.5 66.5t-2.5 56q0 50 7.5 115t23 131.5t39 128t54.5 103.5q-29 -18 -59 -43.5t-60 -56t-58.5 -65.5t-53.5 -71q4 -57 -2 -111.5t-19.5 -96.5t-33 -67.5
t-42.5 -25.5t-32.5 16t-9.5 36q0 42 22 98.5t58 117.5q-2 43 -9 83zM225 132q0 51 6 116t17 132.5t26 132.5t32 114q13 37 25.5 53t26.5 16q7 0 12 -5.5t3 -12.5l-5 -26.5t-13 -70t-18 -99t-19 -114.5q-11 -69 -18.5 -124.5t-12.5 -98.5q-3 -32 -4.5 -53t-1.5 -34t1 -19.5
t2 -9.5q9 -4 9 -14q0 -6 -4.5 -10.5t-10.5 -4.5q-19 0 -29.5 16t-15.5 37.5t-6.5 44t-1.5 34.5zM480 142q7 0 13.5 14t12.5 38t9.5 56.5t4.5 69.5q-23 -45 -37 -85t-14 -71q0 -15 4 -18.5t7 -3.5z" />
    <glyph glyph-name="N" unicode="N" horiz-adv-x="781" 
d="M272 132q0 31 3 75t9.5 94.5t15 104.5t19.5 103.5t24 91t27 68.5q-31 -2 -68 -9t-75 -18t-73.5 -27.5t-63 -39t-44 -51t-16.5 -64.5q0 -29 17 -45t48 -16q7 0 11 -4.5t4 -10.5t-4 -10.5t-11 -4.5q-42 0 -68.5 24t-26.5 67q0 45 21 80t55 61.5t77 45.5t88 30.5t88 17
t76 5.5q9 0 12 -6q3 -2 4 -7l7.5 -27.5t20 -72.5t29.5 -102t35 -117q22 -71 40.5 -127.5t34.5 -99.5q20 -53 31 -75.5t16 -30.5q4 7 10 24.5t14 52.5q12 51 21.5 107t16.5 112.5t10.5 113t3.5 108.5q0 24 -1 44.5t-4 37.5q-2 12 -4 18.5t-4 10.5t-4 6q-8 0 -11.5 5t-3.5 10
q0 6 3.5 10.5t11.5 4.5q6 0 14 -3.5t15 -15.5q18 -30 18 -121q0 -29 -2.5 -75t-7.5 -99.5t-12.5 -110t-16.5 -107t-19.5 -90.5t-22.5 -61q-2 -3 -7.5 -10t-15.5 -7q-20 0 -42.5 28.5t-45.5 76t-45.5 107.5t-42.5 123t-36 123.5t-26 108.5q-19 -106 -36.5 -211t-28.5 -211
q-3 -32 -4.5 -53t-1.5 -34t1 -19.5t2 -9.5q9 -4 9 -14q0 -6 -4.5 -10.5t-10.5 -4.5q-19 0 -29.5 16t-15.5 37.5t-6.5 44t-1.5 34.5z" />
    <glyph glyph-name="O" unicode="O" horiz-adv-x="532" 
d="M296 753q61 0 102.5 -24.5t66.5 -65.5t36 -95t11 -113q0 -81 -19 -162t-57 -146.5t-95 -106t-134 -40.5q-45 0 -83 15t-65.5 42t-43 65.5t-15.5 85.5q0 41 11.5 87t34.5 86q-11 44 -11 89q0 63 20 115t55.5 89.5t83 58t102.5 20.5zM186 479q6 0 10.5 -4.5t4.5 -10.5
t-4.5 -10.5t-10.5 -4.5q-25 0 -43.5 -18.5t-32.5 -47.5q6 -35 18.5 -65t32 -51.5t46.5 -34t60 -12.5q7 0 11 -4.5t4 -10.5t-4 -10.5t-11 -4.5q-60 0 -107 29t-78 79q-6 -27 -9 -52t-3 -44q0 -30 7.5 -60.5t25 -55.5t45.5 -40.5t69 -15.5q65 0 114 38.5t83 99.5t51 136.5
t17 148.5q0 55 -10 104t-30.5 86t-52.5 58.5t-76 21.5q-41 0 -78.5 -19.5t-66 -55.5t-45.5 -86t-18 -111q17 13 37.5 20.5t43.5 7.5z" />
    <glyph glyph-name="P" unicode="P" horiz-adv-x="615" 
d="M342 201q-31 0 -53.5 7.5t-37.5 16.5t-23 17t-10 9q-4 -30 -7.5 -56.5t-5.5 -49.5q-3 -32 -4.5 -53t-1.5 -34t1 -19.5t2 -9.5q9 -4 9 -14q0 -6 -4.5 -10.5t-10.5 -4.5q-19 0 -29.5 16t-15.5 37.5t-6.5 44t-1.5 34.5q0 51 6 116t17 132.5t26 132.5t32 114q13 37 25.5 53
t26.5 16q7 0 12 -5.5t3 -12.5l-5 -26.5t-13 -70t-18 -99t-19 -114.5q-5 -26 -8 -49.5t-7 -45.5q3 1 5 1.5t4 0.5q8 0 12 -6q10 -11 23 -19q11 -7 28 -13t39 -6q40 0 73 21.5t57 57.5t37 83.5t13 99.5q0 112 -59 169.5t-171 57.5q-55 0 -101.5 -14t-80 -39t-52 -60t-18.5 -77
t17.5 -60t48.5 -18q6 0 10.5 -4.5t4.5 -10.5t-4.5 -10.5t-10.5 -4.5q-44 0 -70 29.5t-26 83.5q0 48 21.5 87.5t60.5 68t93 44t118 15.5q137 0 213 -68.5t76 -191.5q0 -60 -18 -112.5t-50 -91.5t-76 -62t-96 -23z" />
    <glyph glyph-name="Q" unicode="Q" horiz-adv-x="560" 
d="M324 753q61 0 102.5 -24.5t66.5 -65.5t36 -95t11 -113q0 -81 -19 -162t-57 -146.5t-95 -106t-134 -40.5q-45 0 -83 15t-65.5 42t-43 65.5t-15.5 85.5q0 41 11.5 87t34.5 86q-11 44 -11 89q0 63 20 115t55.5 89.5t83 58t102.5 20.5zM214 479q6 0 10.5 -4.5t4.5 -10.5
t-4.5 -10.5t-10.5 -4.5q-25 0 -43.5 -18.5t-32.5 -47.5q6 -35 18.5 -65t32 -51.5t46.5 -34t60 -12.5q7 0 11 -4.5t4 -10.5t-4 -10.5t-11 -4.5q-60 0 -107 29t-78 79q-6 -27 -9 -52t-3 -44q0 -30 7.5 -60.5t25 -55.5t45.5 -40.5t69 -15.5q65 0 114 38.5t83 99.5t51 136.5
t17 148.5q0 55 -10 104t-30.5 86t-52.5 58.5t-76 21.5q-41 0 -78.5 -19.5t-66 -55.5t-45.5 -86t-18 -111q17 13 37.5 20.5t43.5 7.5zM325 -167q-52 0 -102 28.5t-93 70t-76.5 89t-52.5 84.5q-1 2 -1 6q0 9 8 13q6 2 8 2q8 0 12 -8q16 -33 46.5 -77.5t70.5 -84t86 -67.5
t93 -28q42 0 68 18t26 48q0 16 -9 34q-2 4 -2 7q0 10 9 14q4 2 7 2q7 0 12 -7t8 -17t4 -19.5t1 -14.5q0 -42 -33.5 -67.5t-89.5 -25.5z" />
    <glyph glyph-name="R" unicode="R" horiz-adv-x="620" 
d="M344 723q-66 0 -123.5 -14.5t-99.5 -40.5t-66.5 -62t-24.5 -79q0 -38 18 -58t48 -20q6 0 10.5 -4.5t4.5 -10.5t-4.5 -10.5t-10.5 -4.5q-44 0 -70 28.5t-26 79.5q0 50 27 91.5t74 71.5t112 46.5t140 16.5q53 0 101 -9t84 -29.5t57.5 -53.5t21.5 -81q0 -41 -16 -79
t-42.5 -68.5t-60.5 -53t-71 -33.5q20 -6 33 -22t22 -38t14.5 -48.5t11.5 -54.5q7 -34 11.5 -66.5t10 -58.5t15 -42t26.5 -16q7 0 11 -4.5t4 -10.5t-4.5 -10.5t-10.5 -4.5q-31 0 -49.5 16.5t-30.5 43t-20 60.5t-17 69q-9 33 -17 65t-21 56.5t-32.5 39.5t-50.5 15
q-7 0 -11 4.5t-4 10.5q0 15 15 15q47 0 86 21.5t67.5 55t44 73.5t15.5 76q0 69 -54 100.5t-148 31.5zM212 0q-19 0 -29.5 16t-15.5 37.5t-6.5 44t-1.5 34.5q0 50 6 115t17 133.5t26 133t32 113.5q13 37 25.5 53t26.5 16q7 0 12 -5.5t3 -12.5l-5 -26.5t-13 -70t-18 -99
t-19 -114.5q-11 -69 -18.5 -124.5t-12.5 -98.5q-3 -32 -4.5 -53t-1.5 -34t1 -19.5t2 -9.5q9 -4 9 -14q0 -6 -4.5 -10.5t-10.5 -4.5z" />
    <glyph glyph-name="S" unicode="S" horiz-adv-x="483" 
d="M87 548q0 45 16 82.5t44.5 64.5t67.5 42.5t85 15.5q42 0 75.5 -13t57.5 -36.5t37 -56.5t13 -74q0 -34 -9 -62.5t-26 -48.5t-40 -31.5t-52 -11.5q-6 0 -10.5 4.5t-4.5 10.5t4.5 10.5t10.5 4.5q44 0 70.5 34.5t26.5 91.5q0 67 -38.5 108t-102.5 41q-35 0 -63.5 -12.5
t-49 -35t-32 -54t-11.5 -68.5t11 -65.5t29.5 -51.5t42.5 -42.5t49 -38.5q26 -19 50.5 -38.5t44 -42.5t31.5 -50t12 -60q0 -37 -16 -67.5t-43.5 -52t-66 -33.5t-83.5 -12q-49 0 -89 14t-68.5 39.5t-44 62t-15.5 80.5q0 6 4.5 10.5t10.5 4.5q7 0 11 -4.5t4 -10.5
q0 -37 12.5 -68t35.5 -52.5t55.5 -33.5t71.5 -12q69 0 109.5 34.5t40.5 93.5q0 30 -10.5 53.5t-28.5 43.5t-41 37.5t-47 35.5q-27 20 -52.5 42t-45 48.5t-31.5 58.5t-12 71z" />
    <glyph glyph-name="T" unicode="T" horiz-adv-x="378" 
d="M95 422q-43 0 -69 27.5t-26 75.5q0 51 32 93t89 72t134.5 46.5t167.5 16.5q60 0 102.5 -6.5t69.5 -14t40 -14t14 -6.5q5 -4 5.5 -10t-3.5 -11q-4 -6 -12 -6q-4 0 -9 3q-18 10 -47 18q-25 6 -63.5 11.5t-95.5 5.5q-83 0 -155 -14t-125 -40t-83.5 -62t-30.5 -81
q0 -35 18 -54.5t47 -19.5q7 0 11 -4.5t4 -10.5t-4 -10.5t-11 -4.5zM242 0q-19 0 -29.5 16t-15.5 37.5t-6.5 44t-1.5 34.5q0 50 6 115t17 133.5t26 133t32 113.5q13 37 25.5 53t26.5 16q7 0 12 -5.5t3 -12.5l-5 -26.5t-13 -70t-18 -99t-19 -114.5q-11 -69 -18.5 -124.5
t-12.5 -98.5q-3 -32 -4.5 -53t-1.5 -34t1 -19.5t2 -9.5q9 -4 9 -14q0 -6 -4.5 -10.5t-10.5 -4.5z" />
    <glyph glyph-name="U" unicode="U" horiz-adv-x="735" 
d="M606 425q5 20 13 48.5t20 60.5t27 64t34 57t41.5 41t48.5 16q6 0 10.5 -4.5t4.5 -10.5t-4.5 -10.5t-10.5 -4.5q-18 0 -35 -26t-31 -59.5t-23.5 -65.5t-12.5 -45q-11 -43 -20.5 -90t-16 -94t-10 -92t-3.5 -84q0 -5 0.5 -25.5t3.5 -43t8.5 -40t14.5 -17.5q6 0 10.5 -4.5
t4.5 -10.5t-4.5 -10.5t-10.5 -4.5q-32 0 -50.5 23t-27.5 55.5t-11.5 66.5t-2.5 56q0 20 1 41.5t3 43.5q-1 -3 -2 -5.5t-2 -4.5q-52 -123 -103.5 -184.5t-114.5 -61.5q-36 0 -58 19t-34 47t-16 60.5t-4 59.5q0 55 10.5 127.5t28 147t41 143.5t50.5 117q-27 -1 -63 -6.5
t-74 -16.5t-75 -27.5t-66 -39.5t-47 -52.5t-18 -66.5q0 -29 17.5 -45t48.5 -16q6 0 10.5 -4.5t4.5 -10.5t-4.5 -10.5t-10.5 -4.5q-42 0 -69 24t-27 67q0 45 20.5 80t54.5 61.5t77 45.5t88 30.5t88.5 17t77.5 5.5q8 0 11.5 -5.5t3.5 -12.5q0 -2 -7.5 -28t-19.5 -68t-26 -96.5
t-26 -113.5q-14 -67 -25.5 -139t-11.5 -163q1 -27 8 -48q5 -18 17 -33t35 -15q27 0 53.5 22.5t50.5 58t45.5 80t39.5 88.5t31 83z" />
    <glyph glyph-name="V" unicode="V" horiz-adv-x="702" 
d="M359 0q-38 0 -61 19t-35 47t-16 60.5t-4 59.5q0 55 10.5 127.5t28 147t41 143.5t50.5 117q-27 -1 -63 -6.5t-74 -16.5t-75 -27.5t-66 -39.5t-47 -52.5t-18 -66.5q0 -29 17.5 -45t48.5 -16q6 0 10.5 -4.5t4.5 -10.5t-4.5 -10.5t-10.5 -4.5q-42 0 -69 24t-27 67
q0 45 20.5 80t54.5 61.5t77 45.5t88 30.5t88.5 17t77.5 5.5q8 0 11.5 -5.5t3.5 -12.5q0 -2 -7.5 -28t-19.5 -68t-26 -96.5t-26 -113.5q-14 -67 -25.5 -139t-11.5 -163q1 -27 8 -48q7 -18 20 -33t38 -15q47 0 104 60q47 50 83.5 124.5t62 157.5t38.5 165.5t13 147.5
q0 6 4.5 10.5t10.5 4.5t10.5 -4.5t4.5 -10.5q0 -69 -14 -154t-40 -170.5t-64.5 -162.5t-88.5 -130q-28 -30 -63 -49t-73 -19z" />
    <glyph glyph-name="W" unicode="W" horiz-adv-x="1015" 
d="M788 90q47 50 83.5 124.5t62 157.5t38.5 165.5t13 147.5q0 6 4.5 10.5t10.5 4.5t10.5 -4.5t4.5 -10.5q0 -69 -14 -154t-40 -170.5t-64.5 -162.5t-88.5 -130q-28 -30 -63 -49t-74 -19q-50 0 -79.5 29.5t-45.5 71.5q-42 -46 -86 -73.5t-93 -27.5q-41 0 -65.5 19t-37.5 47
t-17 60.5t-4 59.5q0 55 10.5 127.5t28 147t41 143.5t50.5 117q-27 -1 -63 -6.5t-74 -16.5t-75 -27.5t-66 -39.5t-47 -52.5t-18 -66.5q0 -29 17.5 -45t48.5 -16q6 0 10.5 -4.5t4.5 -10.5t-4.5 -10.5t-10.5 -4.5q-42 0 -69 24t-27 67q0 45 20.5 80t54.5 61.5t77 45.5t88 30.5
t88.5 17t77.5 5.5q8 0 11.5 -5.5t3.5 -12.5q0 -2 -7.5 -28t-19.5 -68t-26 -96.5t-26 -113.5q-14 -67 -25.5 -139t-11.5 -163q1 -27 9 -48q7 -18 21 -33t40 -15q35 0 77.5 29t83.5 75q-6 23 -8.5 46t-2.5 44q0 22 3.5 52.5t11 63.5t19 65.5t29 58t40 41.5t51.5 16
q24 0 33 -15.5t9 -37.5q0 -27 -9 -63.5t-26 -78t-40.5 -85t-52.5 -82.5q3 -27 9.5 -50.5t18 -41t27 -27.5t35.5 -10q48 0 105 60zM691 468q0 5 -1 14t-9 9q-11 0 -26.5 -19.5t-32.5 -69.5q-4 -11 -8.5 -31t-9 -45.5t-8 -54.5t-4.5 -59q22 35 40.5 71t31.5 70t20 63.5t7 51.5
z" />
    <glyph glyph-name="X" unicode="X" horiz-adv-x="762" 
d="M464 294q-36 -36 -68.5 -72.5t-56.5 -71.5t-38.5 -69t-14.5 -66q0 -6 -4.5 -10.5t-10.5 -4.5q-7 0 -11 4.5t-4 10.5q0 52 25.5 99t56.5 87q24 30 53 61t60 63q-14 33 -32 83.5t-34 105t-27 106.5t-11 87q0 11 1 15q-57 -4 -107.5 -23.5t-89.5 -54.5q-35 -31 -56 -68.5
t-21 -69.5q0 -9 2.5 -20t11.5 -19q14 -15 44 -15q6 0 10.5 -4.5t4.5 -10.5t-4.5 -10.5t-10.5 -4.5q-39 0 -63.5 21.5t-24.5 62.5q0 39 23.5 82t63.5 78q48 44 110 64.5t126 22.5q3 1 7 1q11 0 15 -11q0 -3 8.5 -34.5t23 -82t35 -114t44.5 -130.5q2 -4 2 -6q4 3 7 6l6 6
q46 45 91 91t80 90.5t57 87t22 82.5q0 6 4 10.5t11 4.5q6 0 10.5 -4.5t4.5 -10.5q0 -25 -7.5 -50t-19 -48.5t-26.5 -45.5t-30 -41q-36 -47 -82 -94t-94 -94q-5 -5 -11 -10.5t-11 -11.5q39 -103 72 -169.5t59 -105.5t45.5 -54t32.5 -15q6 0 10.5 -4t4.5 -11q0 -6 -4.5 -10.5
t-10.5 -4.5q-33 0 -62 17t-54.5 44.5t-46.5 62t-39 70.5t-32 70t-25 60z" />
    <glyph glyph-name="Y" unicode="Y" horiz-adv-x="719" 
d="M464 1q29 14 56 18.5t49 5.5q17 86 28 182.5t18 187.5q-7 -30 -19 -71t-28 -85t-37 -87t-47.5 -76.5t-58.5 -54.5t-70 -21q-36 0 -58 19t-34 47t-16 60.5t-4 59.5q0 55 10.5 127.5t28 147t41 143.5t50.5 117q-27 -1 -63 -6.5t-74 -16.5t-75 -27.5t-66 -39.5t-47 -52.5
t-18 -66.5q0 -29 17.5 -45t48.5 -16q6 0 10.5 -4.5t4.5 -10.5t-4.5 -10.5t-10.5 -4.5q-42 0 -69 24t-27 67q0 45 20.5 80t54.5 61.5t77 45.5t88 30.5t88.5 17t77.5 5.5q8 0 11.5 -5.5t3.5 -12.5q0 -2 -7.5 -28t-19.5 -68t-26 -96.5t-26 -113.5q-14 -67 -25.5 -139
t-11.5 -163q1 -27 8 -48q5 -18 17 -33t35 -15t43.5 12.5t39 35t36 53.5t34.5 67q21 45 41 108.5t35.5 131t25 133.5t9.5 117q3 12 16 12q4 0 10 -2t10 -14q6 -18 9.5 -57.5t5 -93.5t0 -118t-6.5 -132t-14.5 -137t-24.5 -131q11 -4 21 -8.5t16 -9.5q7 -5 7 -13q0 -5 -5 -10
t-10 -5q-4 0 -9 3q-1 1 -7.5 5t-20.5 9q-13 -51 -31 -94.5t-40 -75t-49 -49t-60 -17.5q-42 0 -64.5 24.5t-22.5 64.5q0 25 8.5 49t22.5 45.5t33 39t41 28.5zM446 -220q20 0 36.5 16t31 45t27 68t22.5 86q-32 -1 -63.5 -13t-56 -32.5t-39.5 -49t-15 -63.5q0 -27 14 -42
t43 -15z" />
    <glyph glyph-name="Z" unicode="Z" horiz-adv-x="498" 
d="M253 753q51 0 92.5 -15.5t71 -45.5t45.5 -73.5t16 -98.5q0 -52 -14.5 -103t-40.5 -94.5t-63.5 -76.5t-84.5 -49q49 -23 76.5 -70.5t32.5 -109.5q5 -1 14 -4t18 -7.5t15.5 -10t6.5 -12.5q0 -5 -5 -10t-10 -5q-4 0 -9 3q-1 1 -8 5t-21 9q0 -47 -13 -90t-36 -75.5t-56 -51.5
t-74 -19q-42 0 -64.5 24.5t-22.5 64.5q0 25 8.5 49t22.5 45.5t33 39t41 28.5q28 14 54 18.5t49 5.5q-2 30 -10 58.5t-23.5 51t-40 36t-59.5 13.5q-6 0 -10.5 4.5t-4.5 10.5q0 10 7.5 12.5t15.5 2.5q43 4 81 37.5t66 82t44.5 104.5t16.5 104q0 83 -47 132.5t-127 49.5
q-42 0 -79.5 -14.5t-65.5 -39.5t-44.5 -59.5t-16.5 -74.5t16 -61.5t42 -21.5q6 0 10.5 -4.5t4.5 -10.5t-4.5 -10.5t-10.5 -4.5q-40 0 -64 29.5t-24 82.5q0 47 19.5 87.5t53.5 69.5t80.5 45.5t99.5 16.5zM149 -164q0 -27 14 -42t43 -15q30 0 52 21t37 53t22.5 69.5t8.5 71.5
q-33 0 -64.5 -11.5t-56.5 -32.5t-40.5 -50t-15.5 -64z" />
    <glyph glyph-name="bracketleft" unicode="[" horiz-adv-x="330" 
d="M314 619q6 0 10.5 -4t4.5 -11q0 -6 -4.5 -10.5t-10.5 -4.5h-96l-119 -667h93q6 0 10.5 -4t4.5 -11q0 -6 -4.5 -10.5t-10.5 -4.5h-141q-8 0 -11 6q-6 6 -4 12l124 697q3 12 15 12h139z" />
    <glyph glyph-name="backslash" unicode="\" horiz-adv-x="265" 
d="M240 699q17 0 17 -14q0 -3 -1 -5l-213 -670q-4 -9 -14 -9q-11 -1 -15 8.5t-4 20.5q0 6 8.5 37.5t22.5 79.5t32 107.5t38 121t40 119.5t37.5 103t31 73t20.5 28z" />
    <glyph glyph-name="bracketright" unicode="]" horiz-adv-x="331" 
d="M16 -108q-6 0 -10.5 4t-4.5 11q0 6 4.5 10.5t10.5 4.5h96l119 667h-93q-6 0 -10.5 4t-4.5 11q0 6 4.5 10.5t10.5 4.5h141q7 0 11 -6q2 -2 3.5 -5.5t0.5 -6.5l-124 -697q-3 -12 -15 -12h-139z" />
    <glyph glyph-name="asciicircum" unicode="^" horiz-adv-x="261" 
d="M169 527q5 -9 9.5 -29t6.5 -42t1 -42t-7 -29q-8 -14 -23 -14q-13 0 -15 13l-11 111l-80 -117q-4 -6 -12 -6q-6 0 -9 3q-5 4 -5.5 10.5t2.5 10.5q11 15 24 34t26.5 39t27 39t24.5 33q5 6 13 6q5 0 12.5 -3.5t15.5 -16.5z" />
    <glyph glyph-name="underscore" unicode="_" horiz-adv-x="413" 
d="M102 -88q-6 0 -10.5 4.5t-4.5 10.5t4.5 10.5t10.5 4.5h209q7 0 11 -4.5t4 -10.5t-4 -10.5t-11 -4.5h-209z" />
    <glyph glyph-name="grave" unicode="`" horiz-adv-x="161" 
d="M110 397q-14 0 -26 12.5t-20.5 30t-13.5 36t-5 29.5t5 20.5t19 9.5q10 0 14 -9l41 -109q1 -2 1 -5q0 -15 -15 -15z" />
    <glyph glyph-name="a" unicode="a" 
d="M276 0q-20 0 -31.5 13.5t-17.5 32t-8 39t-2 34.5q-9 -19 -21.5 -40t-29 -38.5t-36 -29t-42.5 -11.5q-29 0 -49 11t-33 29.5t-18.5 42.5t-5.5 49q0 35 11.5 81t33.5 87t54 69t72 28q26 0 44 -12t31 -33q9 -15 12.5 -27t3.5 -13q1 -7 -2.5 -12.5t-11.5 -5.5q-12 0 -15 12
q-1 2 -4 12.5t-11 21.5q-6 10 -16.5 18.5t-25.5 8.5q-19 0 -35 -14.5t-29 -37.5t-23 -51.5t-17 -56.5t-10.5 -52t-3.5 -38q0 -12 1.5 -27t6.5 -28.5t14 -22.5t24 -9q31 0 55.5 26.5t43 63.5t31.5 76.5t20 64.5q21 80 54 80q14 0 14 -14v-4q0 -3 -2.5 -15t-6 -31t-7.5 -43
t-7 -51q-4 -31 -6.5 -56.5t-2.5 -45.5q0 -26 2.5 -37t4.5 -13q3 1 8 5.5t13.5 15t19.5 29t25 47.5q10 20 18 38.5t13 32.5q7 17 13 33q3 10 14 10q6 0 10.5 -4t4.5 -11q0 -4 -6.5 -20.5t-14.5 -35.5t-15.5 -35.5t-9.5 -20.5q-25 -50 -43 -75q-28 -40 -53 -40z" />
    <glyph glyph-name="b" unicode="b" horiz-adv-x="358" 
d="M-9 110q0 53 6 120.5t16.5 138t25 138t30.5 119.5q9 30 18 49q4 8 11 16.5t18 8.5q6 0 10 -4.5t4 -10.5v-3l-5 -27.5l-13 -71.5t-18 -101t-19 -117q-4 -25 -7.5 -47.5t-6.5 -44.5q8 20 21 41.5t29.5 40t37 30.5t43.5 12q29 0 49 -11t33 -29.5t18.5 -42t5.5 -49.5
q0 -50 -22 -114q27 14 49 33t33 48q3 10 14 10q6 0 10.5 -4t4.5 -11q0 -3 -1 -5q-17 -42 -50.5 -68t-74.5 -41q-11 -23 -25 -43.5t-31 -36t-36.5 -24.5t-41.5 -9q-34 0 -56.5 21.5t-31.5 52.5q-1 -7 -1 -13v-11q0 -15 1 -22t2 -10q9 -4 9 -13q0 -6 -4.5 -10.5t-10.5 -4.5
q-17 0 -26 14.5t-13 34.5t-4.5 40t-0.5 31zM44 136q-1 -16 -3 -30q36 1 79.5 5t85.5 15q8 21 14.5 43.5t11 43.5t6.5 38.5t2 28.5q0 12 -1.5 27t-6.5 28.5t-14 22.5t-24 9q-30 0 -54.5 -26t-43 -62t-32 -74.5t-20.5 -64.5v-4zM80 57q6 -10 16.5 -18.5t25.5 -8.5
q21 0 38.5 18t31.5 46q-31 -7 -62.5 -10.5t-60.5 -5.5q2 -5 4.5 -10.5t6.5 -10.5z" />
    <glyph glyph-name="c" unicode="c" horiz-adv-x="295" 
d="M219 331q0 22 -15 30t-28 8q-28 0 -52.5 -28t-43 -67t-29 -82t-10.5 -73q0 -13 2.5 -28.5t9.5 -29t20 -22.5t33 -9q39 0 69.5 20t53.5 50t39.5 65.5t27.5 66.5q3 10 14 10q6 0 10.5 -4t4.5 -11q0 -3 -1 -5q-14 -36 -32.5 -75.5t-44.5 -72t-60.5 -53.5t-80.5 -21
q-31 0 -54.5 10.5t-39 28.5t-23 42.5t-7.5 52.5q0 38 13.5 84t38 85.5t59 66.5t77.5 27q31 0 55 -16t24 -50q0 -8 -4.5 -11.5t-10.5 -3.5q-5 0 -10 3.5t-5 11.5z" />
    <glyph glyph-name="d" unicode="d" horiz-adv-x="386" 
d="M273 0q-16 0 -25 15t-13 35t-5 40t-1 31v27q-9 -22 -22 -48t-30.5 -48t-39.5 -37t-49 -15q-29 0 -49 11t-33 29.5t-18.5 42.5t-5.5 49q0 35 11.5 81t33.5 87t54 69t72 28q38 0 60.5 -25t30.5 -59q2 13 6.5 46.5t11.5 76t16.5 89t21 84.5t24.5 63t28 25q6 0 10 -5t4 -10
v-3l-5 -26.5t-12.5 -70t-17.5 -99t-19 -114.5q-21 -137 -30 -224q-3 -30 -4 -50t-1 -33q0 -12 0.5 -19t1.5 -10q13 7 29.5 33t31.5 57.5t27.5 62t18.5 46.5q3 10 14 10q6 0 10.5 -4.5t4.5 -10.5q0 -4 -1 -5q0 -1 -3.5 -10t-9.5 -24t-14.5 -34t-17.5 -39q-6 -12 -16 -31
t-22.5 -38t-27.5 -32.5t-30 -13.5zM238 264q1 10 2 19l2 18q-3 -7 -12 -7q-12 0 -15 12q-1 2 -4 12.5t-11 21.5q-6 10 -16.5 18.5t-25.5 8.5q-19 0 -35 -14.5t-29 -37.5t-23 -51.5t-17 -56.5t-10.5 -52t-3.5 -38q0 -12 1.5 -27t6.5 -28.5t14 -22.5t24 -9q20 0 38 12.5
t33.5 33t28 46.5t22.5 51.5t17.5 49t11.5 39.5z" />
    <glyph glyph-name="e" unicode="e" horiz-adv-x="296" 
d="M219 329q0 22 -15.5 30t-29.5 8q-24 0 -45 -18t-36.5 -43.5t-26 -53t-15.5 -47.5q34 2 64.5 13.5t55.5 31.5q22 18 35 39.5t13 39.5zM296 232q3 10 14 10q6 0 10.5 -4t4.5 -11q0 -3 -1 -5q-14 -36 -32.5 -75.5t-44.5 -72t-60.5 -53.5t-80.5 -21q-31 0 -54.5 10.5
t-39 28.5t-23 42.5t-7.5 52.5q0 38 13.5 84t38 85.5t59 66.5t77.5 27q31 0 55 -16t24 -50q0 -26 -16 -53.5t-43 -50.5q-29 -24 -66.5 -37.5t-78.5 -14.5q-2 -12 -3 -23.5t-1 -21.5q0 -17 2.5 -34.5t9.5 -32t20 -24t33 -9.5q39 0 69.5 20t53.5 50t39.5 65.5t27.5 66.5z" />
    <glyph glyph-name="f" unicode="f" horiz-adv-x="142" 
d="M126 680q0 -1 -6.5 -38t-16 -97.5t-22 -138t-24.5 -158.5q-7 -46 -13 -91.5t-12 -91.5q18 9 34.5 29.5t31 45t26 49.5t18.5 43q3 10 14 10q6 0 10.5 -4t4.5 -11q0 -5 -5.5 -19t-13 -29l-14 -28t-9.5 -18q-4 -7 -11.5 -19t-17.5 -25t-22 -25t-24 -21q9 -11 15 -26t9 -31
t4 -32.5t1 -29.5q0 -21 -3.5 -51t-12 -57t-24 -46.5t-39.5 -19.5q-16 0 -24.5 15.5t-12 36.5t-3.5 42v31q0 50 4.5 112.5t12 129t17 132.5t18.5 124q11 66 22 123t22 99q12 44 21 69q6 15 12.5 24.5t17.5 9.5q7 0 12 -5.5t3 -12.5zM53 -76q0 10 -0.5 25t-2.5 30t-7.5 28.5
t-15.5 20.5q-2 -23 -5 -45.5t-5 -45.5q-3 -35 -5.5 -63t-2.5 -48v-32.5t2 -12.5q6 0 13.5 12t14 32t10.5 45.5t4 53.5z" />
    <glyph glyph-name="g" unicode="g" horiz-adv-x="359" 
d="M239 161q-11 -21 -25 -43.5t-32 -41.5t-39.5 -31t-48.5 -12t-47 9.5t-33 26t-19.5 39t-6.5 47.5q0 35 12 77.5t34.5 79t54 61t69.5 24.5q35 0 59 -24.5t24 -59.5q0 -14 -14 -16q-6 -1 -11 3t-5 11q-2 19 -12.5 37.5t-33.5 18.5q-28 0 -50 -27t-37.5 -64t-23.5 -75t-8 -59
q0 -13 2 -27t7 -25.5t14 -19t23 -7.5q29 0 55 21.5t46 52.5t34 64.5t20 57.5q3 32 3 51q1 11 1 19q0 6 4.5 10.5t10.5 4.5q15 0 20.5 -15t7.5 -26q2 -14 3.5 -33.5t1.5 -42.5q0 -37 -5 -94t-17 -119q5 -1 12 -3.5t13.5 -6.5t11.5 -9t5 -11q0 -5 -5 -10t-10 -5q-4 0 -9 3
q-1 1 -7 4.5t-18 8.5q-11 -46 -27 -88.5t-38.5 -75t-51.5 -52t-66 -19.5q-42 0 -64.5 24.5t-22.5 64.5q0 25 8.5 49t22.5 45.5t33 39t41 28.5q32 15 62 19.5t53 4.5q2 7 2.5 13t1.5 11q5 29 8.5 57t6.5 55zM215 -5q-34 0 -67 -11t-59 -31t-42.5 -49.5t-16.5 -66.5
q0 -27 14 -42t43 -15q26 0 46.5 21.5t36.5 53.5t27 69.5t18 70.5z" />
    <glyph glyph-name="h" unicode="h" horiz-adv-x="365" 
d="M42 80q8 23 18.5 52t22.5 58q15 38 29 67t27 51q19 31 37 45.5t43 14.5q20 0 34 -9t22.5 -24t12.5 -35t4 -42q0 -35 -7 -75t-15 -76q-4 -19 -8.5 -39t-6.5 -37q13 6 30 32t32.5 58.5t28.5 63.5t19 47q3 10 14 10q6 0 10.5 -4t4.5 -11q0 -9 -11 -35.5t-25.5 -56.5
t-29.5 -57t-23 -38q-28 -40 -53 -40t-34 20t-9 41q0 20 4 46.5t9 59.5q5 29 9.5 59.5t4.5 55.5q0 8 -0.5 17.5t-2.5 18t-7 14.5t-13 6q-13 0 -29 -19.5t-32.5 -50.5t-32 -68.5t-29 -73.5t-23.5 -66.5t-14 -45.5q0 -8 -6 -11t-13 -3q-15 3 -23 18t-11.5 34t-4.5 38.5t-1 30.5
q0 52 6 118t16 134.5t24.5 134t30.5 117.5q9 31 18 47q5 9 11 17t17 8q6 0 10 -5t4 -10v-3l-5 -26.5t-12.5 -70t-17.5 -99t-19 -114.5q-11 -72 -20.5 -144t-14.5 -145z" />
    <glyph glyph-name="i" unicode="i" horiz-adv-x="156" 
d="M43 0q-18 0 -29 13t-16.5 31.5t-7 38.5t-1.5 33q0 11 2 35.5t6 55.5t10.5 64t16 60.5t21.5 45t28 17.5q8 0 11 -5.5t3 -12.5l-3 -14t-7.5 -37t-9.5 -52.5t-10 -60.5q-5 -32 -10.5 -70.5t-5.5 -70.5q0 -19 1.5 -28t3.5 -12q3 1 8 5.5t13.5 15t19.5 29t25 47.5
q10 20 18 38.5t13 32.5q7 17 13 33q3 10 14 10q6 0 10.5 -4t4.5 -11q0 -4 -6.5 -20.5t-14.5 -35.5t-15.5 -35.5t-9.5 -20.5q-25 -50 -43 -75q-28 -40 -53 -40zM106 455q0 -11 -8 -19t-19 -8t-18.5 8t-7.5 19t7.5 18.5t18.5 7.5t19 -7.5t8 -18.5z" />
    <glyph glyph-name="j" unicode="j" horiz-adv-x="110" 
d="M-144 1q32 15 62 19.5t53 4.5q3 15 5 28t4 23q10 57 16 112t9.5 98t5 70l1.5 27q0 7 4.5 11t10.5 4q4 0 9.5 -2.5t10.5 -13.5q5 -9 7 -21.5t3 -26t1 -26.5v-22q0 -60 -8 -132.5t-23 -138.5q25 -8 36 -18q7 -5 7 -13q0 -5 -5 -10t-10 -5q-4 0 -9 3q-1 1 -7 4.5t-19 8.5
q-6 -32 -20.5 -72.5t-37.5 -76.5t-54 -61t-70 -25q-42 0 -64.5 24.5t-22.5 64.5q0 25 8 49t22.5 45.5t33.5 39t41 28.5zM-162 -220q24 0 43.5 20.5t35 52t27.5 69.5t20 73q-33 0 -66 -11t-59 -31.5t-42 -49.5t-16 -66q0 -27 14 -42t43 -15zM31 428q-11 0 -18.5 8t-7.5 19
t7.5 18.5t18.5 7.5t19 -7.5t8 -18.5t-8 -19t-19 -8z" />
    <glyph glyph-name="k" unicode="k" horiz-adv-x="373" 
d="M37 0q-16 0 -25 15t-13.5 35t-5 40.5t-0.5 31.5q0 39 4 84.5t10 92.5t13.5 92.5t14.5 84.5q9 46 18 84.5t18 67.5q5 15 9.5 27t8.5 20q5 9 11.5 17t17.5 8q6 0 10 -4.5t4 -10.5v-3l-5 -26.5t-13 -70t-18 -99t-19 -114.5q-11 -69 -21 -138t-15 -138q8 24 16.5 52.5
t19.5 57.5q9 24 23.5 57t34.5 62.5t45.5 50.5t56.5 21q39 0 63 -29t24 -68q0 -30 -12.5 -54t-32.5 -41.5t-45 -29.5t-51 -20q22 -11 38 -30q20 -22 27 -45t15 -49q13 6 30 32t32.5 58.5t28.5 63.5t19 47q3 10 14 10q6 0 10.5 -4t4.5 -11q0 -9 -11 -35.5t-25.5 -56.5
t-29.5 -57t-23 -38q-28 -40 -53 -40q-12 0 -22 6t-18.5 15t-14.5 19.5t-11 19.5q-8 15 -16.5 30t-20.5 27.5t-28.5 20t-39.5 7.5h-1q-15 -46 -24 -82.5t-12 -47.5q0 -6 -4.5 -10.5t-10.5 -4.5zM98 175q30 1 60 9t53.5 24.5t38.5 41.5t15 59q0 24 -9.5 41t-25.5 17
q-20 0 -41 -23t-39.5 -54t-32 -63.5t-19.5 -51.5z" />
    <glyph glyph-name="l" unicode="l" horiz-adv-x="151" 
d="M38 0q-16 0 -25 15t-13 35t-5 40t-1 31q0 39 3.5 84.5t9.5 92.5t13.5 92.5t14.5 84.5q9 45 18 83t18 67q9 31 18 47q5 9 11 17t17 8q8 0 11 -5.5t3 -12.5l-5 -26.5t-12.5 -70t-17.5 -99t-19 -114.5q-21 -137 -30 -224q-3 -30 -4 -50t-1 -33q0 -12 0.5 -19t1.5 -10
q3 2 8.5 7t13.5 16t18 28.5t23 43.5q10 20 18 38.5t13 32.5q7 17 13 33q3 10 14 10q6 0 10.5 -4.5t4.5 -10.5q0 -4 -1 -5q0 -1 -3.5 -10t-9.5 -24t-14.5 -34t-17.5 -39q-6 -12 -16 -31t-22.5 -38t-27.5 -32.5t-30 -13.5z" />
    <glyph glyph-name="m" unicode="m" horiz-adv-x="526" 
d="M379 369q21 0 35 -9t22.5 -24.5t12.5 -35.5t4 -42q0 -35 -7 -74.5t-15 -75.5q-4 -19 -8.5 -39t-6.5 -37q13 6 30 32t32.5 58.5t28.5 63.5t19 47q3 10 14 10q6 0 10.5 -4t4.5 -11q0 -9 -11 -35.5t-25.5 -56.5t-29.5 -57t-23 -38q-28 -40 -53 -40t-34 20t-9 41q0 20 4 46.5
t9 59.5q5 29 9.5 59.5t4.5 55.5q0 8 -0.5 17.5t-3 18t-7.5 14.5t-14 6q-5 0 -15 -5.5t-24 -31.5q-9 -16 -19 -40t-22 -61q-8 -24 -14.5 -47.5t-12 -43t-8.5 -34t-5 -20.5q0 -7 -6 -12q-3 -3 -9 -3q-13 0 -21.5 6t-13.5 15t-6.5 20.5t-1.5 22.5q0 18 2.5 39.5t6.5 45.5
q3 23 6 47.5t3 46.5q0 8 -0.5 18t-3 18t-7.5 13.5t-15 5.5q-14 0 -28 -20.5t-27 -52.5t-25.5 -70.5t-22 -74t-16 -64t-9.5 -40.5q0 -7 -3.5 -12t-11.5 -5q-18 0 -29 13t-16.5 31.5t-7 38.5t-1.5 33q0 11 2 35.5t6 55.5t10 64t15.5 60.5t22 45t28.5 17.5q14 0 14 -14v-4
l-3 -14t-7.5 -37t-9.5 -52.5t-10 -60.5q-5 -29 -10 -65t-6 -68q6 23 14 52t17 59q12 37 23.5 66.5t22.5 51.5q17 32 33.5 46.5t42.5 14.5q41 0 58 -31.5t17 -75.5q0 -21 -3 -44q10 30 20 54.5t20 42.5q15 27 32 40.5t41 13.5z" />
    <glyph glyph-name="n" unicode="n" horiz-adv-x="370" 
d="M326 128q10 20 18 38.5t13 32.5q7 17 13 33q3 10 14 10q6 0 10.5 -4t4.5 -11q0 -4 -6.5 -20.5t-14.5 -35.5t-15.5 -35.5t-9.5 -20.5q-25 -50 -43 -75q-28 -40 -53 -40t-34 20t-9 41q0 20 4 46.5t9 59.5q5 29 9.5 59.5t4.5 55.5q0 8 -0.5 17.5t-2.5 18t-7 14.5t-13 6
q-13 0 -29 -19.5t-32.5 -50.5t-32 -68.5t-29 -73.5t-23.5 -66.5t-14 -45.5q0 -8 -6 -11t-12 -3q-17 2 -27 15.5t-15.5 31.5t-7 37t-1.5 32q0 11 2 35.5t6 55.5t10.5 64t16 60.5t21.5 45t28 17.5q14 0 14 -14v-4l-3 -14t-7.5 -37t-9.5 -52.5t-10 -60.5q-6 -38 -11 -75t-5 -75
q22 63 45.5 126t57.5 120q19 31 37 45.5t43 14.5q20 0 34 -9t22.5 -24t12.5 -35t4 -42q0 -35 -7 -75t-15 -76q-4 -19 -8.5 -39t-6.5 -37q3 1 8 5.5t13.5 15t19.5 29t25 47.5z" />
    <glyph glyph-name="o" unicode="o" horiz-adv-x="343" 
d="M371 222q-16 -41 -47 -66.5t-69 -42.5q-10 -23 -24.5 -43.5t-33 -36t-41 -24.5t-49.5 -9q-25 0 -47.5 8.5t-39 24t-26.5 37.5t-10 49q0 20 5 40.5t15 38.5q-4 15 -4 35q0 29 11 58.5t32 53t50.5 38t66.5 14.5q36 0 60 -14t38.5 -36t20 -49.5t5.5 -53.5q0 -42 -14 -90
q24 13 43 32.5t30 45.5q3 10 14 10q6 0 10.5 -4t4.5 -11q0 -3 -1 -5zM100 268q6 0 10.5 -4.5t4.5 -10.5t-4.5 -10.5t-10.5 -4.5q-11 0 -20.5 -10t-16.5 -25q5 -32 25.5 -55t65.5 -23q15 0 36 3t43 11q11 27 16 55t5 50q0 19 -3.5 40.5t-13 40t-25.5 30.5t-40 12
q-21 0 -38 -9t-30.5 -23.5t-22.5 -33.5t-14 -40q14 7 33 7zM153 95q-32 0 -60 10t-48 28q-1 -6 -1 -10.5v-9.5q0 -15 4 -29.5t12.5 -26.5t22 -19.5t33.5 -7.5q33 0 58 20.5t42 51.5q-17 -4 -33.5 -5.5t-29.5 -1.5z" />
    <glyph glyph-name="p" unicode="p" horiz-adv-x="355" 
d="M-51 -221q-3 11 -4 24.5t-1 31.5q0 34 4 76.5t10.5 88.5t15 92t16.5 87q9 45 18.5 85t18.5 70q9 31 17 49q5 11 10.5 18.5t15.5 7.5q6 0 11.5 -5t3.5 -12q0 -1 -4.5 -27.5t-12.5 -70.5q9 17 21 35t27 33t33.5 25t39.5 10q29 0 49 -11t33 -29.5t18.5 -42t5.5 -49.5
q0 -24 -5.5 -54t-16.5 -60q27 13 49 32.5t33 48.5q3 10 14 10q6 0 10.5 -4t4.5 -11q0 -3 -1 -5q-17 -42 -51 -68.5t-75 -40.5q-22 -47 -55.5 -80t-77.5 -33q-34 0 -57 22.5t-32 53.5h-4q-10 -60 -17.5 -107t-12.5 -85q-8 -60 -9 -83t-1 -28q3 -5 3 -9q0 -6 -4.5 -10.5
t-10.5 -4.5q-8 0 -16.5 5.5t-13.5 24.5zM36 106q36 1 80 5t87 15q8 21 14.5 43.5t11 43.5t6.5 38.5t2 28.5q0 12 -1.5 27t-6.5 28.5t-14 22.5t-24 9q-30 0 -54.5 -26t-43 -62.5t-32 -75t-20.5 -63.5q-2 -8 -2.5 -16.5t-2.5 -17.5zM77 57q6 -10 16.5 -18.5t25.5 -8.5
q21 0 38.5 18t31.5 46q-31 -7 -62.5 -10.5t-60.5 -5.5q2 -5 4.5 -10.5t6.5 -10.5z" />
    <glyph glyph-name="q" unicode="q" horiz-adv-x="351" 
d="M200 -250q-13 0 -20.5 10t-11.5 24.5t-4.5 29.5t-0.5 24q0 26 3 56h-87q-6 0 -10.5 4.5t-4.5 10.5t4.5 10.5t10.5 4.5h89q4 35 10 73t13 73q-47 -70 -102 -70q-29 0 -49 11t-33 29.5t-18.5 42.5t-5.5 49q0 35 11.5 81t33.5 87t54 69t72 28q26 0 44 -12t31 -33
q9 -15 12.5 -27t3.5 -13q1 -7 -2.5 -12.5t-11.5 -5.5q-12 0 -15 12q-1 2 -4 12.5t-11 21.5q-6 10 -16.5 18.5t-25.5 8.5q-19 0 -35 -14.5t-29 -37.5t-23 -51.5t-17 -56.5t-10.5 -52t-3.5 -38q0 -12 1.5 -27t6.5 -28.5t14 -22.5t24 -9q23 0 43 16t36.5 41t29.5 54.5t23 57.5
q4 15 7.5 29t7.5 25q11 35 20 48.5t21 13.5q6 0 11 -5t3 -12l-3.5 -19.5t-9 -51.5t-12.5 -73.5t-14 -86.5q8 6 22.5 23t34.5 53q10 17 18 32.5t13 28.5q7 15 13 28q3 10 14 10q6 0 10.5 -4t4.5 -11q0 -4 -6 -18t-13.5 -29.5t-14.5 -29t-10 -17.5q-5 -9 -15.5 -25t-23 -32
t-26.5 -29t-27 -16q-5 -32 -9 -58.5t-7 -48.5h30q7 0 11 -4.5t4 -10.5t-4 -10.5t-11 -4.5h-34q-4 -33 -7 -54.5t-4 -35t-1 -20.5v-10q3 -3 3 -9t-4.5 -10.5t-10.5 -4.5z" />
    <glyph glyph-name="r" unicode="r" horiz-adv-x="330" 
d="M-1 227q0 3 1 5l3 9t8.5 24t12 34.5t12.5 40.5q4 14 7.5 25.5t5.5 21.5q-10 28 -10 53q0 28 10 39t22 11q13 0 17.5 -9.5t4.5 -20.5q0 -7 -1.5 -16.5t-3.5 -23.5q-2 -7 -3.5 -14.5t-3.5 -16.5q6 -13 19.5 -27.5t37.5 -14.5q35 0 53.5 9.5t25.5 16.5q5 8 12 14.5t18 6.5
q14 0 14 -14v-4l-3 -14t-7.5 -37t-9.5 -52.5t-10 -60.5q-5 -32 -10.5 -70.5t-5.5 -70.5q0 -19 1.5 -28t3.5 -12q3 1 8 5.5t13.5 15t19.5 29t25 47.5q10 20 18 38.5t13 32.5q7 17 13 33q3 10 14 10q6 0 10.5 -4t4.5 -11q0 -4 -6.5 -20.5t-14.5 -35.5t-15.5 -35.5t-9.5 -20.5
q-25 -50 -43 -75q-28 -40 -53 -40q-18 0 -29 13t-16.5 31.5t-7 38.5t-1.5 33q0 22 2 50t6 56.5t10.5 55.5t14.5 48q-11 -4 -25.5 -6.5t-32.5 -2.5q-40 0 -68 33q-9 -32 -20 -64l-22 -64q-3 -10 -14 -10q-6 0 -10.5 4.5t-4.5 10.5z" />
    <glyph glyph-name="s" unicode="s" horiz-adv-x="301" 
d="M170 132q5 17 7.5 35.5t2.5 35.5q0 26 -6 52.5t-18.5 49t-32 40t-46.5 24.5q-4 -16 -10.5 -35t-13.5 -38.5t-14 -38.5t-13 -35q-3 -10 -14 -10q-6 0 -10.5 4.5t-4.5 10.5q0 3 1 5l4 10.5t10 27t13.5 37.5t13.5 42q4 14 8 25.5t6 21.5q-10 28 -10 53q0 28 10 39t22 11
q13 0 17.5 -9.5t4.5 -20.5q0 -7 -1.5 -16.5t-3.5 -23.5q-2 -7 -3.5 -14.5t-3.5 -16.5q27 -8 55 -23t50 -38.5t36 -57.5t14 -80q0 -20 -3 -38q21 12 38 29.5t26 41.5q3 10 14 10q6 0 10.5 -4t4.5 -11q0 -3 -1 -5q-14 -36 -41 -60t-59 -39q-19 -57 -59.5 -90t-91.5 -33
q-34 0 -53.5 12t-32.5 33q-9 15 -12.5 27t-3.5 13q-1 7 3 13q4 8 13 8q42 0 84 4.5t94 21.5zM68 30q32 0 54 20t36 49q-42 -11 -77.5 -16t-70.5 -7q2 -5 4 -9.5t6 -9.5q6 -10 17 -18.5t31 -8.5z" />
    <glyph glyph-name="t" unicode="t" horiz-adv-x="151" 
d="M38 0q-16 0 -25 15t-13 35t-5 40t-1 31q0 102 16 212.5t40 210.5h-58q-6 0 -10.5 4.5t-4.5 10.5t4.5 10.5t10.5 4.5h65q4 14 7 27t7 24q9 31 18 47q5 9 11 17t17 8q6 0 10 -5t4 -10v-3q0 -1 -5.5 -29.5t-13.5 -75.5h59q7 0 11 -4.5t4 -10.5t-4 -10.5t-11 -4.5h-64
q-19 -100 -34 -199.5t-26 -199.5q-3 -30 -4 -50t-1 -33q0 -12 0.5 -19t1.5 -10q3 2 8.5 7t13.5 16t18 28.5t23 43.5q10 20 18 38.5t13 32.5q7 17 13 33q3 10 14 10q6 0 10.5 -4.5t4.5 -10.5q0 -4 -1 -5q0 -1 -3.5 -10t-9.5 -24t-14.5 -34t-17.5 -39q-6 -12 -16 -31
t-22.5 -38t-27.5 -32.5t-30 -13.5z" />
    <glyph glyph-name="u" unicode="u" horiz-adv-x="367" 
d="M-7 151q0 12 2 34.5t7 49.5t12.5 55t17.5 51.5t23.5 38t30.5 14.5q6 0 10.5 -4.5t4.5 -10.5q0 -3 -1 -5q-10 -27 -19.5 -59.5t-17 -66.5t-12.5 -67.5t-5 -63.5q0 -12 1 -27.5t5 -28.5t13 -22t24 -9t29 12t26.5 31.5t23.5 43.5t20 47.5t15 44.5t10 34v2l8 40t14 49t21 42
t28 18q14 0 14 -14v-4l-3 -14t-7.5 -37t-9.5 -52.5t-10 -60.5q-5 -32 -10.5 -70.5t-5.5 -70.5q0 -19 1.5 -28t3.5 -12q3 1 8 5.5t13.5 15t19.5 29t25 47.5q10 20 18 38.5t13 32.5q7 17 13 33q3 10 14 10q6 0 10.5 -4t4.5 -11q0 -4 -6.5 -20.5t-14.5 -35.5t-15.5 -35.5
t-9.5 -20.5q-25 -50 -43 -75q-28 -40 -53 -40q-18 0 -29 13t-16.5 31.5t-7 38t-1.5 32.5q-26 -58 -52.5 -86.5t-63.5 -28.5q-28 0 -45.5 14.5t-27.5 36.5t-14 48.5t-4 51.5z" />
    <glyph glyph-name="v" unicode="v" horiz-adv-x="313" 
d="M212 110q-23 -46 -54 -78t-71 -32q-26 0 -44 14.5t-29 36.5t-16 48.5t-5 51.5q0 12 2 34.5t7 49.5t12.5 55t17.5 51.5t23.5 38t30.5 14.5q6 0 10.5 -4.5t4.5 -10.5q0 -3 -1 -5q-10 -27 -19.5 -59.5t-17 -66.5t-12.5 -67.5t-5 -63.5q0 -12 0.5 -27.5t4.5 -28.5t13 -22
t25 -9q22 0 41 16t35 41.5t29 57t22 62.5t14 58.5t5 44.5q0 3 -0.5 9.5t-1.5 14t-3.5 13t-6.5 5.5q-6 0 -10.5 4.5t-4.5 10.5t4.5 10.5t10.5 4.5q13 0 21.5 -7.5t13 -18.5t6 -23.5t1.5 -22.5q0 -28 -9 -71.5t-26 -88.5q17 7 28 15q18 12 32.5 28.5t22.5 38.5q3 10 14 10
q6 0 10.5 -4t4.5 -11q0 -3 -1 -5q-17 -44 -51.5 -71t-77.5 -41z" />
    <glyph glyph-name="w" unicode="w" horiz-adv-x="463" 
d="M385 309q0 2 -0.5 9t-1.5 14.5t-3.5 13t-6.5 5.5q-6 0 -10.5 4.5t-4.5 10.5t4.5 10.5t10.5 4.5q14 0 22 -7.5t12.5 -18.5t6 -23.5t1.5 -22.5q0 -29 -9 -71.5t-26 -87.5q17 7 28 15q18 12 32.5 28.5t22.5 38.5q3 10 14 10q6 0 10.5 -4t4.5 -11q0 -3 -1 -5q-17 -44 -51 -71
t-77 -41q-23 -46 -54 -78t-70 -32q-26 0 -44.5 9t-29.5 25q-18 -15 -38 -24.5t-40 -9.5q-26 0 -44 14.5t-29 36.5t-16 48.5t-5 51.5q0 12 2 34.5t7 49.5t12.5 55t17.5 51.5t23.5 38t30.5 14.5q6 0 10.5 -4.5t4.5 -10.5q0 -3 -1 -5q-10 -27 -19.5 -59.5t-17 -66.5
t-12.5 -67.5t-5 -63.5q0 -12 0.5 -27.5t4.5 -28.5t13 -22t25 -9t31.5 8.5t30.5 23.5q-8 26 -8 54q0 30 7.5 60t21 54.5t31 40t36.5 15.5q3 0 8.5 -1t11 -5.5t9.5 -13t4 -23.5q0 -19 -7 -43t-17.5 -47.5t-23.5 -45.5t-25 -38q5 -17 14 -28t26 -11q22 0 41.5 16t35.5 41
t29 56.5t22 62.5t13.5 58.5t4.5 44.5zM242 244q0 10 -2 12q-7 -3 -15 -17t-14 -33.5t-10.5 -42.5t-5.5 -45q21 34 34 69t13 57z" />
    <glyph glyph-name="x" unicode="x" horiz-adv-x="334" 
d="M146 165q15 -42 28 -68.5t23 -41t17 -19.5t10 -5q7 0 17 12.5t21.5 32t22.5 43.5t21 46.5t17.5 40.5t10.5 26q3 10 14 10q6 0 10.5 -4t4.5 -11q0 -9 -11 -35.5t-25.5 -56.5t-29.5 -57t-23 -38q-28 -40 -53 -40q-19 0 -36.5 11.5t-32.5 28.5t-27.5 38.5t-21.5 40.5
q-24 -28 -39.5 -54t-15.5 -50q0 -6 -4.5 -10.5t-10.5 -4.5t-10.5 4.5t-4.5 10.5q0 18 7 36.5t17.5 36t23 33t24.5 28.5q-14 32 -24.5 67t-16.5 67q-5 -17 -10.5 -32.5t-10.5 -28.5q-3 -10 -14 -10q-6 0 -10.5 4.5t-4.5 10.5q0 3 1 5q0 1 6.5 20.5t14.5 44.5t15.5 48t9.5 30
q5 14 12.5 16.5t11.5 2.5q12 0 15 -12q6 -27 13 -57q7 -25 15.5 -57t19.5 -66q1 -2 1 -2.5t1 -2.5q2 3 5 5.5t5 5.5q22 23 43.5 45.5t38 44t27 42t10.5 39.5q0 7 4.5 11t10.5 4t10.5 -4t4.5 -11q0 -43 -41 -97q-18 -24 -40.5 -48t-45.5 -47q-5 -5 -10.5 -11t-10.5 -11z" />
    <glyph glyph-name="y" unicode="y" horiz-adv-x="321" 
d="M67 1q32 15 61.5 19.5t52.5 4.5q7 26 11 52.5t7 52.5q-25 -46 -51 -68t-61 -22q-28 0 -46 13t-28 32.5t-14 44t-4 46.5q0 18 5.5 54t16.5 72.5t29 64t42 27.5q6 0 10.5 -4.5t4.5 -10.5q0 -3 -1 -5q-9 -23 -19 -52t-17.5 -59.5t-12.5 -60t-5 -55.5q0 -11 1 -24.5t5.5 -25
t13 -19.5t24.5 -8q21 0 39.5 19t34.5 45.5t27.5 54t18.5 45.5q6 64 8.5 106t2.5 43q0 7 4.5 11t10.5 4q4 0 9.5 -2.5t10.5 -13.5q4 -9 6.5 -21.5t3.5 -26t1 -26.5v-22q0 -60 -8 -132.5t-23 -138.5q25 -8 36 -18q7 -5 7 -13q0 -5 -5 -10t-10 -5q-4 0 -9 3q-1 1 -7 4.5
t-19 8.5q-6 -32 -20.5 -72.5t-37.5 -76.5t-54 -61t-70 -25q-42 0 -64.5 24.5t-22.5 64.5q0 25 8 49t22.5 45.5t33.5 39t41 28.5zM49 -220q24 0 43.5 20.5t35 52t27.5 69.5t20 73q-33 0 -66 -11t-59 -31.5t-42 -49.5t-16 -66q0 -27 14 -42t43 -15z" />
    <glyph glyph-name="z" unicode="z" horiz-adv-x="311" 
d="M281 288q-4 -26 -17 -53t-32.5 -51.5t-44 -44.5t-51.5 -32q50 -27 72 -86q6 -1 17 -4t22 -7.5t19.5 -11t8.5 -14.5q0 -5 -5 -10t-10 -5q-4 0 -9 3q-1 1 -9 5.5t-24 9.5q4 -17 4 -42q0 -39 -12.5 -74.5t-35.5 -62.5t-56.5 -42.5t-74.5 -15.5q-42 0 -64.5 24.5t-22.5 64.5
q0 25 8 49t22.5 45.5t33.5 39t41 28.5q24 11 48 16t44 7q-11 29 -29.5 48t-46.5 21q-8 0 -12 3q-6 4 -6 12q0 6 4.5 10.5t10.5 4.5q23 0 48 21t47 50t37.5 59.5t19.5 49.5q4 16 5 26.5t1 16.5q-12 -10 -34.5 -19.5t-59.5 -9.5q-40 0 -68 33q-9 -32 -20 -64l-22 -64
q-3 -10 -14 -10q-6 0 -10.5 4.5t-4.5 10.5q0 3 1 5l3 9t8.5 24t12 34.5t12.5 40.5q4 14 7.5 25.5t5.5 21.5q-10 28 -10 53q0 28 10 39t22 11q13 0 17.5 -9.5t4.5 -20.5q0 -7 -1.5 -16.5t-3.5 -23.5q-2 -7 -3.5 -14.5t-3.5 -16.5q6 -13 19.5 -27.5t37.5 -14.5q39 0 58 12
t23 17q3 12 14 12q25 0 40 -23q11 -17 11 -38.5t-3 -38.5zM-14 -163q0 -27 14 -42t43 -15q32 0 54.5 18t37.5 44.5t22 57t7 56.5q0 22 -4 39q-32 0 -63.5 -12t-56 -33t-39.5 -50t-15 -63z" />
    <glyph glyph-name="braceleft" unicode="{" horiz-adv-x="673" 
d="M264 0q-12 4 -12 18q3 14 3 27q0 44 -25.5 76.5t-59.5 65.5q-20 20 -40 41t-36.5 46.5t-26.5 56.5t-10 70t12 84.5t36 84t59.5 64.5t81.5 26q26 0 45 -8.5t32.5 -23.5t22.5 -35t15 -42q11 21 26 41t34.5 35t42 24t47.5 9q32 0 54.5 -13.5t37 -35.5t21.5 -49.5t7 -54.5
q0 -57 -15.5 -102.5t-43 -83.5t-64.5 -70.5t-81 -64.5q-27 -19 -51 -38t-43.5 -39.5t-32.5 -44t-18 -52.5q-4 -12 -18 -12zM245 630q-39 0 -68.5 -23.5t-49.5 -58t-30 -74.5t-10 -72q0 -34 9 -61.5t23.5 -50.5t33.5 -42.5t38 -38.5q20 -20 38.5 -40t32.5 -43
q5 -10 9.5 -19.5t7.5 -19.5q23 38 57.5 66.5t72.5 56.5q40 29 75 59t61.5 65t41.5 77t15 95q0 22 -5 44t-16 39.5t-28.5 28.5t-42.5 11q-33 0 -59 -18t-44.5 -45t-30.5 -58.5t-17 -58.5q-4 -12 -18 -12q-12 4 -12 18q3 14 4 27.5t1 26.5q0 21 -4.5 43t-15 39t-27.5 28
t-42 11z" />
    <glyph glyph-name="bar" unicode="|" horiz-adv-x="143" 
d="M36 -78q-2 0 -2.5 -0.5t-2.5 -0.5q-10 0 -13 13v5l64 617q1 4 4.5 8t8.5 3q12 -1 16.5 -12t4.5 -22q0 -13 -2 -46t-6 -78.5t-9.5 -98.5t-11.5 -107t-13 -104t-13.5 -89t-13 -63t-11.5 -25z" />
    <glyph glyph-name="braceright" unicode="}" horiz-adv-x="673" 
d="M264 0q-12 4 -12 18q3 14 3 27q0 44 -25.5 76.5t-59.5 65.5q-20 20 -40 41t-36.5 46.5t-26.5 56.5t-10 70t12 84.5t36 84t59.5 64.5t81.5 26q26 0 45 -8.5t32.5 -23.5t22.5 -35t15 -42q11 21 26 41t34.5 35t42 24t47.5 9q32 0 54.5 -13.5t37 -35.5t21.5 -49.5t7 -54.5
q0 -57 -15.5 -102.5t-43 -83.5t-64.5 -70.5t-81 -64.5q-27 -19 -51 -38t-43.5 -39.5t-32.5 -44t-18 -52.5q-4 -12 -18 -12z" />
    <glyph glyph-name="asciitilde" unicode="~" horiz-adv-x="639" 
d="M334 482q11 41 28.5 71t39.5 50.5t45.5 30.5t46.5 10q43 0 74.5 -35t31.5 -104q0 -12 -1.5 -25.5t-3.5 -28.5q-8 -48 -27.5 -85t-45.5 -67t-56.5 -54t-61 -46t-59 -44t-50.5 -48l-29 50l56 39q4 4 4 8q0 5 -4 8l-54 45l77 39q4 3 6 8q0 6 -4 9l-43 32l75 51q4 3 4 9
q0 3 -1 4zM247 168q-4 -4 -4 -8q0 -1 2 -5l37 -65q-25 -34 -32 -76q3 15 3 29q0 35 -14.5 62.5t-36.5 52t-48 48.5t-48 52t-36.5 62.5t-14.5 79.5q0 35 10.5 76.5t31 78t51 61t70.5 24.5q41 0 70.5 -34.5t29.5 -103.5v-12t-1 -12l42 -71l-78 -54q-4 -4 -4 -8q0 -5 4 -8
l41 -30l-77 -39q-5 -3 -5 -8q-1 -4 3 -9l56 -46z" />
    <glyph glyph-name="exclamdown" unicode="&#xa1;" horiz-adv-x="158" 
d="M103 342q5 0 11.5 -4t8.5 -18q1 -5 1.5 -11.5t-0.5 -16.5q-5 -58 -12.5 -127t-16.5 -139.5t-20 -138.5t-22 -124q-4 -8 -8 -10.5t-9 -2.5q-2 0 -7.5 2t-8.5 11q-1 3 -3 11q-3 23 -1.5 62.5t5.5 87.5t10.5 99.5t13.5 99.5t13.5 88t11.5 64q1 6 3.5 17.5t6 22.5t9.5 19
t14 8zM88 423q0 11 8 19t19 8t18.5 -8t7.5 -19t-7.5 -18.5t-18.5 -7.5t-19 7.5t-8 18.5z" />
    <glyph glyph-name="sterling" unicode="&#xa3;" horiz-adv-x="515" 
d="M499 15q0 -6 -4.5 -10.5t-10.5 -4.5h-339q-19 0 -29.5 16t-15.5 37.5t-6.5 44t-1.5 34.5q0 21 1.5 45t3.5 50h-36q-6 0 -10.5 4.5t-4.5 10.5t4.5 10.5t10.5 4.5h39q5 44 11 92t15 96t20.5 95t26.5 89q25 69 48 69q46 0 88.5 -16.5t75.5 -46t52.5 -70t19.5 -88.5
q0 -46 -24 -78t-74 -32q-7 0 -11 4.5t-4 10.5t4 10.5t11 4.5q35 0 51.5 23t16.5 57q0 29 -12 61t-36 60t-59 47t-82 22q-21 -103 -38 -205t-32 -205h172q7 0 11 -4.5t4 -10.5t-4 -10.5t-11 -4.5h-176q-3 -23 -5.5 -43.5t-4.5 -38.5q-3 -31 -4.5 -51t-1.5 -34t1 -20.5t2 -9.5
h333q6 0 10.5 -4t4.5 -11z" />
    <glyph glyph-name="dieresis" unicode="&#xa8;" horiz-adv-x="284" 
d="M204 424q0 -11 -8 -19t-19 -8t-18.5 8t-7.5 19t7.5 18.5t18.5 7.5t19 -7.5t8 -18.5zM124 424q0 -11 -8 -19t-19 -8t-18.5 8t-7.5 19t7.5 18.5t18.5 7.5t19 -7.5t8 -18.5z" />
    <glyph glyph-name="acute" unicode="&#xb4;" horiz-adv-x="87" 
d="M16 397q-15 0 -15 15q0 3 1 5l41 109q4 9 14 9q14 0 19 -9.5t5 -20.5t-5 -29.5t-13.5 -36t-20.5 -30t-26 -12.5z" />
    <glyph glyph-name="cedilla" unicode="&#xb8;" horiz-adv-x="256" 
d="M121 -64q19 -1 36.5 -6.5t31.5 -15.5t22.5 -25t8.5 -34q0 -21 -9.5 -36.5t-24.5 -25.5t-33 -15t-35 -5q-30 0 -55.5 16t-25.5 48q0 6 4.5 10.5t10.5 4.5q7 0 11 -4.5t4 -10.5q0 -17 15.5 -25.5t33.5 -8.5q23 0 34 13t11 34q0 28 -16 42t-42 14q-8 0 -13.5 4t-5.5 12
q0 3 1 5l36 84q3 8 13 8q6 0 10.5 -4t4.5 -11q0 -3 -1 -5z" />
    <glyph glyph-name="questiondown" unicode="&#xbf;" horiz-adv-x="305" 
d="M219 313q7 0 11 -4.5t4 -10.5q0 -5 -2 -7l-9.5 -17.5t-23.5 -46.5t-31.5 -67t-34.5 -79q-62 -153 -62 -234q0 -28 10 -48t39 -20q28 0 50 18.5t38.5 45t27 56t14.5 50.5q2 6 7 9t11 3q6 -1 9.5 -6.5t2.5 -11.5q0 -2 -4 -17t-12 -36.5t-21 -46.5t-31 -45.5t-42.5 -34.5
t-55.5 -14q-49 0 -72.5 34.5t-23.5 88.5q0 42 13 94.5t34 105.5t47 103t51 87q23 34 35.5 42.5t20.5 8.5zM206 422q0 11 8 19t19 8t18.5 -8t7.5 -19t-7.5 -18.5t-18.5 -7.5t-19 7.5t-8 18.5z" />
    <glyph glyph-name="Agrave" unicode="&#xc0;" horiz-adv-x="648" 
d="M498 252q2 12 4.5 24.5t4.5 25.5h-272q-15 -94 -21 -157q-3 -32 -4.5 -53t-1.5 -34t1 -19.5t2 -9.5q9 -4 9 -14q0 -6 -4.5 -10.5t-10.5 -4.5q-19 0 -29.5 16t-15.5 37.5t-6.5 44t-1.5 34.5q0 35 3.5 78.5t9.5 91.5h-36q-7 0 -11 4.5t-4 10.5q0 15 15 15h40q11 74 25 149
t39 146q13 37 25.5 53t26.5 16q7 0 12 -5.5t3 -12.5l-5 -26.5t-13 -70t-18 -99t-19 -114.5l-6 -36h273q8 51 14 101t6 93q0 36 -7 71.5t-29.5 63.5t-63.5 45t-110 17q-60 0 -113.5 -14t-93 -39.5t-62.5 -60.5t-23 -78q0 -38 18 -58.5t47 -20.5q7 0 11 -4.5t4 -10.5t-4 -10.5
t-11 -4.5q-43 0 -69 29t-26 80q0 50 26 90.5t71 70t106 45.5t132 16q79 0 130.5 -20t82 -54t42.5 -80t12 -99q0 -41 -5.5 -83t-14.5 -85h32q6 0 10.5 -4t4.5 -11q0 -6 -4.5 -10.5t-10.5 -4.5h-38q-7 -32 -14 -62.5t-14 -61.5q-8 -38 -17 -79.5t-9 -79.5q0 -9 0.5 -12.5
t0.5 -5.5q6 -1 10.5 -5t4.5 -10t-4.5 -10.5t-10.5 -4.5q-16 0 -26 8.5t-15.5 21.5t-7 29t-1.5 31q0 45 8 93.5t17 97.5zM407 768q-14 0 -26 12.5t-20.5 30t-13.5 36t-5 29.5t5 20.5t19 9.5q10 0 14 -9l41 -109q1 -2 1 -5q0 -15 -15 -15z" />
    <glyph glyph-name="Aacute" unicode="&#xc1;" horiz-adv-x="648" 
d="M498 252q2 12 4.5 24.5t4.5 25.5h-272q-15 -94 -21 -157q-3 -32 -4.5 -53t-1.5 -34t1 -19.5t2 -9.5q9 -4 9 -14q0 -6 -4.5 -10.5t-10.5 -4.5q-19 0 -29.5 16t-15.5 37.5t-6.5 44t-1.5 34.5q0 35 3.5 78.5t9.5 91.5h-36q-7 0 -11 4.5t-4 10.5q0 15 15 15h40q11 74 25 149
t39 146q13 37 25.5 53t26.5 16q7 0 12 -5.5t3 -12.5l-5 -26.5t-13 -70t-18 -99t-19 -114.5l-6 -36h273q8 51 14 101t6 93q0 36 -7 71.5t-29.5 63.5t-63.5 45t-110 17q-60 0 -113.5 -14t-93 -39.5t-62.5 -60.5t-23 -78q0 -38 18 -58.5t47 -20.5q7 0 11 -4.5t4 -10.5t-4 -10.5
t-11 -4.5q-43 0 -69 29t-26 80q0 50 26 90.5t71 70t106 45.5t132 16q79 0 130.5 -20t82 -54t42.5 -80t12 -99q0 -41 -5.5 -83t-14.5 -85h32q6 0 10.5 -4t4.5 -11q0 -6 -4.5 -10.5t-10.5 -4.5h-38q-7 -32 -14 -62.5t-14 -61.5q-8 -38 -17 -79.5t-9 -79.5q0 -9 0.5 -12.5
t0.5 -5.5q6 -1 10.5 -5t4.5 -10t-4.5 -10.5t-10.5 -4.5q-16 0 -26 8.5t-15.5 21.5t-7 29t-1.5 31q0 45 8 93.5t17 97.5zM407 768q-15 0 -15 15q0 3 1 5l41 109q4 9 14 9q14 0 19 -9.5t5 -20.5t-5 -29.5t-13.5 -36t-20.5 -30t-26 -12.5z" />
    <glyph glyph-name="Acircumflex" unicode="&#xc2;" horiz-adv-x="648" 
d="M498 252q2 12 4.5 24.5t4.5 25.5h-272q-15 -94 -21 -157q-3 -32 -4.5 -53t-1.5 -34t1 -19.5t2 -9.5q9 -4 9 -14q0 -6 -4.5 -10.5t-10.5 -4.5q-19 0 -29.5 16t-15.5 37.5t-6.5 44t-1.5 34.5q0 35 3.5 78.5t9.5 91.5h-36q-7 0 -11 4.5t-4 10.5q0 15 15 15h40q11 74 25 149
t39 146q13 37 25.5 53t26.5 16q7 0 12 -5.5t3 -12.5l-5 -26.5t-13 -70t-18 -99t-19 -114.5l-6 -36h273q8 51 14 101t6 93q0 36 -7 71.5t-29.5 63.5t-63.5 45t-110 17q-60 0 -113.5 -14t-93 -39.5t-62.5 -60.5t-23 -78q0 -38 18 -58.5t47 -20.5q7 0 11 -4.5t4 -10.5t-4 -10.5
t-11 -4.5q-43 0 -69 29t-26 80q0 50 26 90.5t71 70t106 45.5t132 16q79 0 130.5 -20t82 -54t42.5 -80t12 -99q0 -41 -5.5 -83t-14.5 -85h32q6 0 10.5 -4t4.5 -11q0 -6 -4.5 -10.5t-10.5 -4.5h-38q-7 -32 -14 -62.5t-14 -61.5q-8 -38 -17 -79.5t-9 -79.5q0 -9 0.5 -12.5
t0.5 -5.5q6 -1 10.5 -5t4.5 -10t-4.5 -10.5t-10.5 -4.5q-16 0 -26 8.5t-15.5 21.5t-7 29t-1.5 31q0 45 8 93.5t17 97.5zM469 886q5 -9 9.5 -23t6 -29t0.5 -29t-7 -23q-8 -14 -23 -14q-13 0 -15 13l-10 72l-52 -71q-4 -6 -12 -6q-6 0 -9 3q-5 4 -5.5 10t2.5 11q11 15 19.5 27
t17 23t17.5 23t20 27q5 6 12 6q5 0 13 -3.5t16 -16.5z" />
    <glyph glyph-name="Atilde" unicode="&#xc3;" horiz-adv-x="648" 
d="M498 252q2 12 4.5 24.5t4.5 25.5h-272q-15 -94 -21 -157q-3 -32 -4.5 -53t-1.5 -34t1 -19.5t2 -9.5q9 -4 9 -14q0 -6 -4.5 -10.5t-10.5 -4.5q-19 0 -29.5 16t-15.5 37.5t-6.5 44t-1.5 34.5q0 35 3.5 78.5t9.5 91.5h-36q-7 0 -11 4.5t-4 10.5q0 15 15 15h40q11 74 25 149
t39 146q13 37 25.5 53t26.5 16q7 0 12 -5.5t3 -12.5l-5 -26.5t-13 -70t-18 -99t-19 -114.5l-6 -36h273q8 51 14 101t6 93q0 36 -7 71.5t-29.5 63.5t-63.5 45t-110 17q-60 0 -113.5 -14t-93 -39.5t-62.5 -60.5t-23 -78q0 -38 18 -58.5t47 -20.5q7 0 11 -4.5t4 -10.5t-4 -10.5
t-11 -4.5q-43 0 -69 29t-26 80q0 50 26 90.5t71 70t106 45.5t132 16q79 0 130.5 -20t82 -54t42.5 -80t12 -99q0 -41 -5.5 -83t-14.5 -85h32q6 0 10.5 -4t4.5 -11q0 -6 -4.5 -10.5t-10.5 -4.5h-38q-7 -32 -14 -62.5t-14 -61.5q-8 -38 -17 -79.5t-9 -79.5q0 -9 0.5 -12.5
t0.5 -5.5q6 -1 10.5 -5t4.5 -10t-4.5 -10.5t-10.5 -4.5q-16 0 -26 8.5t-15.5 21.5t-7 29t-1.5 31q0 45 8 93.5t17 97.5zM451 768q-13 0 -26.5 3t-27.5 6q-9 2 -19.5 5.5t-17.5 3.5q-5 0 -5 -3q0 -6 -4.5 -10.5t-10.5 -4.5t-10.5 4.5t-4.5 10.5q0 23 14 34.5t36 11.5
q12 0 25 -2.5t27 -5.5q3 -1 16 -4.5t22 -3.5q7 0 7 4q0 6 4.5 10.5t10.5 4.5t10.5 -4.5t4.5 -10.5q0 -25 -13.5 -37t-37.5 -12z" />
    <glyph glyph-name="Adieresis" unicode="&#xc4;" horiz-adv-x="648" 
d="M498 252q2 12 4.5 24.5t4.5 25.5h-272q-15 -94 -21 -157q-3 -32 -4.5 -53t-1.5 -34t1 -19.5t2 -9.5q9 -4 9 -14q0 -6 -4.5 -10.5t-10.5 -4.5q-19 0 -29.5 16t-15.5 37.5t-6.5 44t-1.5 34.5q0 35 3.5 78.5t9.5 91.5h-36q-7 0 -11 4.5t-4 10.5q0 15 15 15h40q11 74 25 149
t39 146q13 37 25.5 53t26.5 16q7 0 12 -5.5t3 -12.5l-5 -26.5t-13 -70t-18 -99t-19 -114.5l-6 -36h273q8 51 14 101t6 93q0 36 -7 71.5t-29.5 63.5t-63.5 45t-110 17q-60 0 -113.5 -14t-93 -39.5t-62.5 -60.5t-23 -78q0 -38 18 -58.5t47 -20.5q7 0 11 -4.5t4 -10.5t-4 -10.5
t-11 -4.5q-43 0 -69 29t-26 80q0 50 26 90.5t71 70t106 45.5t132 16q79 0 130.5 -20t82 -54t42.5 -80t12 -99q0 -41 -5.5 -83t-14.5 -85h32q6 0 10.5 -4t4.5 -11q0 -6 -4.5 -10.5t-10.5 -4.5h-38q-7 -32 -14 -62.5t-14 -61.5q-8 -38 -17 -79.5t-9 -79.5q0 -9 0.5 -12.5
t0.5 -5.5q6 -1 10.5 -5t4.5 -10t-4.5 -10.5t-10.5 -4.5q-16 0 -26 8.5t-15.5 21.5t-7 29t-1.5 31q0 45 8 93.5t17 97.5zM473 795q0 -11 -8 -19t-19 -8t-18.5 8t-7.5 19t7.5 18.5t18.5 7.5t19 -7.5t8 -18.5zM393 795q0 -11 -8 -19t-19 -8t-18.5 8t-7.5 19t7.5 18.5t18.5 7.5
t19 -7.5t8 -18.5z" />
    <glyph glyph-name="Aring" unicode="&#xc5;" horiz-adv-x="649" 
d="M498 252q2 12 4.5 24.5t4.5 25.5h-272q-15 -94 -21 -157q-3 -32 -4.5 -53t-1.5 -34t1 -19.5t2 -9.5q9 -4 9 -14q0 -6 -4.5 -10.5t-10.5 -4.5q-19 0 -29.5 16t-15.5 37.5t-6.5 44t-1.5 34.5q0 35 3.5 78.5t9.5 91.5h-36q-7 0 -11 4.5t-4 10.5q0 15 15 15h40q11 74 25 149
t39 146q13 37 25.5 53t26.5 16q7 0 12 -5.5t3 -12.5l-5 -26.5t-13 -70t-18 -99t-19 -114.5l-6 -36h273q8 51 14 101t6 93q0 36 -7 71.5t-29.5 63.5t-63.5 45t-110 17q-60 0 -113.5 -14t-93 -39.5t-62.5 -60.5t-23 -78q0 -38 18 -58.5t47 -20.5q7 0 11 -4.5t4 -10.5t-4 -10.5
t-11 -4.5q-43 0 -69 29t-26 80q0 50 26 90.5t71 70t106 45.5t132 16q79 0 130.5 -20t82 -54t42.5 -80t12 -99q0 -41 -5.5 -83t-14.5 -85h32q6 0 10.5 -4t4.5 -11q0 -6 -4.5 -10.5t-10.5 -4.5h-38q-7 -32 -14 -62.5t-14 -61.5q-8 -38 -17 -79.5t-9 -79.5q0 -9 0.5 -12.5
t0.5 -5.5q6 -1 10.5 -5t4.5 -10t-4.5 -10.5t-10.5 -4.5q-16 0 -26 8.5t-15.5 21.5t-7 29t-1.5 31q0 45 8 93.5t17 97.5zM407 766q-29 0 -48.5 15.5t-19.5 41.5q0 16 7 29.5t19 24t28 16.5t34 6q29 0 48 -16t19 -41q0 -15 -7 -28.5t-19 -24t-28 -17t-33 -6.5zM436 869
q-18 0 -32.5 -14.5t-14.5 -32.5q0 -13 8.5 -19.5t20.5 -6.5q17 0 31.5 13.5t14.5 30.5q0 29 -28 29z" />
    <glyph glyph-name="AE" unicode="&#xc6;" horiz-adv-x="985" 
d="M498 252q2 12 4.5 24.5t4.5 25.5h-272q-15 -94 -21 -157q-3 -32 -4.5 -53t-1.5 -34t1 -19.5t2 -9.5q9 -4 9 -14q0 -6 -4.5 -10.5t-10.5 -4.5q-19 0 -29.5 16t-15.5 37.5t-6.5 44t-1.5 34.5q0 35 3.5 78.5t9.5 91.5h-36q-7 0 -11 4.5t-4 10.5q0 15 15 15h40q11 74 25 149
t39 146q13 37 25.5 53t26.5 16q7 0 12 -5.5t3 -12.5l-5 -26.5t-13 -70t-18 -99t-19 -114.5l-6 -36h273q8 51 14 101t6 93q0 36 -7 71.5t-29.5 63.5t-63.5 45t-110 17q-60 0 -113.5 -14t-93 -39.5t-62.5 -60.5t-23 -78q0 -38 18 -58.5t47 -20.5q7 0 11 -4.5t4 -10.5t-4 -10.5
t-11 -4.5q-43 0 -69 29t-26 80q0 50 26 90.5t71 70t106 45.5t132 16q103 0 160 -33t82 -87q31 55 88 87.5t129 32.5q44 0 79 -12.5t60 -35.5t38.5 -54.5t13.5 -70.5q0 -29 -8 -57.5t-23.5 -51.5t-39.5 -37t-56 -14q-6 0 -10.5 4.5t-4.5 10.5t4.5 10.5t10.5 4.5q25 0 43.5 12
t30.5 30.5t17.5 42t5.5 46.5q0 63 -39.5 102.5t-106.5 39.5q-41 0 -76 -16t-60.5 -44.5t-40 -67.5t-14.5 -85q0 -59 22.5 -94t59.5 -35q6 0 10.5 -4t4.5 -11q0 -6 -4.5 -10.5t-10.5 -4.5q-51 0 -87 -28.5t-50 -78.5l-2 -10t-3 -10q-3 -19 -3 -41q0 -74 38.5 -113.5
t102.5 -39.5q38 0 71.5 15t61.5 39.5t50.5 55.5t37.5 63q3 9 14 9q6 0 10.5 -4.5t4.5 -10.5q0 -2 -2 -6q-20 -39 -45 -73.5t-57 -61t-70.5 -41.5t-85.5 -15q-44 0 -81 12.5t-63.5 35.5t-41.5 55t-15 71q0 33 11 64zM592 387q-2 -9 -3 -18t-3 -17q15 9 30 15q-13 7 -24 20z
" />
    <glyph glyph-name="Ccedilla" unicode="&#xc7;" horiz-adv-x="482" 
d="M341 436q0 6 4 10.5t11 4.5q25 0 43 12t30 31t17.5 42.5t5.5 45.5q0 28 -8 53.5t-24.5 45t-41 31t-56.5 11.5q-46 0 -82.5 -23.5t-64.5 -61t-48 -86t-32.5 -98.5t-18.5 -97.5t-6 -84.5q0 -29 5 -70.5t19 -79.5t41 -65t70 -27q33 0 65 16.5t60 42t49.5 56.5t34.5 59
q5 9 14 9q6 0 10.5 -4t4.5 -11t-9 -23t-20.5 -32.5t-23 -31.5t-17.5 -21q-32 -36 -72.5 -61t-89.5 -29l-27 -62q19 -1 36.5 -6.5t31.5 -15.5t22.5 -25t8.5 -34q0 -21 -9.5 -36.5t-24.5 -25.5t-33 -15t-35 -5q-30 0 -55.5 16t-25.5 48q0 6 4.5 10.5t10.5 4.5q7 0 11 -4.5
t4 -10.5q0 -17 15.5 -25.5t33.5 -8.5q23 0 34 13t11 34q0 28 -16 42t-42 14q-8 0 -13.5 4t-5.5 12q0 3 1 5l31 72q-51 5 -85 34.5t-55 72t-30 92.5t-9 95q0 46 8.5 98t26 103t43.5 97.5t60.5 82t78 56.5t95.5 21q42 0 74 -14t53.5 -38t32 -55t10.5 -65q0 -29 -7.5 -57.5
t-23.5 -51.5t-39.5 -37t-55.5 -14q-7 0 -11 4.5t-4 10.5z" />
    <glyph glyph-name="Egrave" unicode="&#xc8;" horiz-adv-x="500" 
d="M373 450q25 0 43.5 12t30.5 30.5t17.5 42t5.5 46.5q0 63 -39.5 102.5t-106.5 39.5q-41 0 -76 -16t-60.5 -44.5t-40 -67.5t-14.5 -85q0 -59 22.5 -94t59.5 -35q6 0 10.5 -4t4.5 -11q0 -6 -4.5 -10.5t-10.5 -4.5q-33 0 -59.5 -12t-45.5 -34.5t-29.5 -53t-10.5 -68.5
q0 -74 38.5 -113.5t102.5 -39.5q54 0 92.5 25t70.5 60q14 17 24.5 32.5t18.5 28.5q9 14 15 27q3 9 14 9q6 0 10.5 -4.5t4.5 -10.5q0 -2 -2 -6q-20 -39 -45 -73.5t-57 -61t-70.5 -41.5t-85.5 -15q-44 0 -81 12.5t-63.5 35.5t-41.5 55t-15 71q0 32 10 61.5t27 55t41.5 45
t52.5 31.5q-30 17 -49 58t-19 93q0 51 19 94t52 74.5t78 49t97 17.5q44 0 79 -12.5t60 -35.5t38.5 -54.5t13.5 -70.5q0 -29 -8 -57.5t-23.5 -51.5t-39.5 -37t-56 -14q-6 0 -10.5 4.5t-4.5 10.5t4.5 10.5t10.5 4.5zM310 768q-14 0 -26 12.5t-20.5 30t-13.5 36t-5 29.5t5 20.5
t19 9.5q10 0 14 -9l41 -109q1 -2 1 -5q0 -15 -15 -15z" />
    <glyph glyph-name="Eacute" unicode="&#xc9;" horiz-adv-x="500" 
d="M373 450q25 0 43.5 12t30.5 30.5t17.5 42t5.5 46.5q0 63 -39.5 102.5t-106.5 39.5q-41 0 -76 -16t-60.5 -44.5t-40 -67.5t-14.5 -85q0 -59 22.5 -94t59.5 -35q6 0 10.5 -4t4.5 -11q0 -6 -4.5 -10.5t-10.5 -4.5q-33 0 -59.5 -12t-45.5 -34.5t-29.5 -53t-10.5 -68.5
q0 -74 38.5 -113.5t102.5 -39.5q54 0 92.5 25t70.5 60q14 17 24.5 32.5t18.5 28.5q9 14 15 27q3 9 14 9q6 0 10.5 -4.5t4.5 -10.5q0 -2 -2 -6q-20 -39 -45 -73.5t-57 -61t-70.5 -41.5t-85.5 -15q-44 0 -81 12.5t-63.5 35.5t-41.5 55t-15 71q0 32 10 61.5t27 55t41.5 45
t52.5 31.5q-30 17 -49 58t-19 93q0 51 19 94t52 74.5t78 49t97 17.5q44 0 79 -12.5t60 -35.5t38.5 -54.5t13.5 -70.5q0 -29 -8 -57.5t-23.5 -51.5t-39.5 -37t-56 -14q-6 0 -10.5 4.5t-4.5 10.5t4.5 10.5t10.5 4.5zM310 768q-15 0 -15 15q0 3 1 5l41 109q4 9 14 9
q14 0 19 -9.5t5 -20.5t-5 -29.5t-13.5 -36t-20.5 -30t-26 -12.5z" />
    <glyph glyph-name="Ecircumflex" unicode="&#xca;" horiz-adv-x="500" 
d="M373 450q25 0 43.5 12t30.5 30.5t17.5 42t5.5 46.5q0 63 -39.5 102.5t-106.5 39.5q-41 0 -76 -16t-60.5 -44.5t-40 -67.5t-14.5 -85q0 -59 22.5 -94t59.5 -35q6 0 10.5 -4t4.5 -11q0 -6 -4.5 -10.5t-10.5 -4.5q-33 0 -59.5 -12t-45.5 -34.5t-29.5 -53t-10.5 -68.5
q0 -74 38.5 -113.5t102.5 -39.5q54 0 92.5 25t70.5 60q14 17 24.5 32.5t18.5 28.5q9 14 15 27q3 9 14 9q6 0 10.5 -4.5t4.5 -10.5q0 -2 -2 -6q-20 -39 -45 -73.5t-57 -61t-70.5 -41.5t-85.5 -15q-44 0 -81 12.5t-63.5 35.5t-41.5 55t-15 71q0 32 10 61.5t27 55t41.5 45
t52.5 31.5q-30 17 -49 58t-19 93q0 51 19 94t52 74.5t78 49t97 17.5q44 0 79 -12.5t60 -35.5t38.5 -54.5t13.5 -70.5q0 -29 -8 -57.5t-23.5 -51.5t-39.5 -37t-56 -14q-6 0 -10.5 4.5t-4.5 10.5t4.5 10.5t10.5 4.5zM372 886q5 -9 9.5 -23t6 -29t0.5 -29t-7 -23
q-8 -14 -23 -14q-13 0 -15 13l-10 72l-52 -71q-4 -6 -12 -6q-6 0 -9 3q-5 4 -5.5 10t2.5 11q11 15 19.5 27t17 23t17.5 23t20 27q5 6 12 6q5 0 13 -3.5t16 -16.5z" />
    <glyph glyph-name="Edieresis" unicode="&#xcb;" horiz-adv-x="500" 
d="M373 450q25 0 43.5 12t30.5 30.5t17.5 42t5.5 46.5q0 63 -39.5 102.5t-106.5 39.5q-41 0 -76 -16t-60.5 -44.5t-40 -67.5t-14.5 -85q0 -59 22.5 -94t59.5 -35q6 0 10.5 -4t4.5 -11q0 -6 -4.5 -10.5t-10.5 -4.5q-33 0 -59.5 -12t-45.5 -34.5t-29.5 -53t-10.5 -68.5
q0 -74 38.5 -113.5t102.5 -39.5q54 0 92.5 25t70.5 60q14 17 24.5 32.5t18.5 28.5q9 14 15 27q3 9 14 9q6 0 10.5 -4.5t4.5 -10.5q0 -2 -2 -6q-20 -39 -45 -73.5t-57 -61t-70.5 -41.5t-85.5 -15q-44 0 -81 12.5t-63.5 35.5t-41.5 55t-15 71q0 32 10 61.5t27 55t41.5 45
t52.5 31.5q-30 17 -49 58t-19 93q0 51 19 94t52 74.5t78 49t97 17.5q44 0 79 -12.5t60 -35.5t38.5 -54.5t13.5 -70.5q0 -29 -8 -57.5t-23.5 -51.5t-39.5 -37t-56 -14q-6 0 -10.5 4.5t-4.5 10.5t4.5 10.5t10.5 4.5zM376 795q0 -11 -8 -19t-19 -8t-18.5 8t-7.5 19t7.5 18.5
t18.5 7.5t19 -7.5t8 -18.5zM296 795q0 -11 -8 -19t-19 -8t-18.5 8t-7.5 19t7.5 18.5t18.5 7.5t19 -7.5t8 -18.5z" />
    <glyph glyph-name="Igrave" unicode="&#xcc;" horiz-adv-x="434" 
d="M0 460q0 45 21 80t55 61.5t77 45.5t88 30.5t88 17t76 5.5q10 0 12.5 -6t2.5 -14l-5 -26.5t-13 -70t-18 -99t-19 -114.5q-11 -69 -18.5 -125.5t-12.5 -99.5q-3 -32 -4.5 -53t-1.5 -34t1 -19.5t2 -9.5q9 -4 9 -14q0 -6 -4.5 -10.5t-10.5 -4.5q-19 0 -29.5 16t-15.5 37.5
t-6.5 44t-1.5 34.5q0 30 3 74.5t9.5 95t15 104.5t19.5 103.5t24 91.5t27 68q-31 -2 -68 -9t-75 -18t-73.5 -27.5t-63 -39t-44 -51t-16.5 -64.5q0 -29 17 -45t48 -16q7 0 11 -4.5t4 -10.5t-4 -10.5t-11 -4.5q-42 0 -68.5 24t-26.5 67zM392 730q-14 0 -26 12.5t-20.5 30
t-13.5 36t-5 29.5t5 20.5t19 9.5q10 0 14 -9l41 -109q1 -2 1 -5q0 -15 -15 -15z" />
    <glyph glyph-name="Iacute" unicode="&#xcd;" horiz-adv-x="435" 
d="M0 460q0 45 21 80t55 61.5t77 45.5t88 30.5t88 17t76 5.5q10 0 12.5 -6t2.5 -14l-5 -26.5t-13 -70t-18 -99t-19 -114.5q-11 -69 -18.5 -125.5t-12.5 -99.5q-3 -32 -4.5 -53t-1.5 -34t1 -19.5t2 -9.5q9 -4 9 -14q0 -6 -4.5 -10.5t-10.5 -4.5q-19 0 -29.5 16t-15.5 37.5
t-6.5 44t-1.5 34.5q0 30 3 74.5t9.5 95t15 104.5t19.5 103.5t24 91.5t27 68q-31 -2 -68 -9t-75 -18t-73.5 -27.5t-63 -39t-44 -51t-16.5 -64.5q0 -29 17 -45t48 -16q7 0 11 -4.5t4 -10.5t-4 -10.5t-11 -4.5q-42 0 -68.5 24t-26.5 67zM392 730q-15 0 -15 15q0 3 1 5l41 109
q4 9 14 9q14 0 19 -9.5t5 -20.5t-5 -29.5t-13.5 -36t-20.5 -30t-26 -12.5z" />
    <glyph glyph-name="Icircumflex" unicode="&#xce;" horiz-adv-x="426" 
d="M0 460q0 45 21 80t55 61.5t77 45.5t88 30.5t88 17t76 5.5q10 0 12.5 -6t2.5 -14l-5 -26.5t-13 -70t-18 -99t-19 -114.5q-11 -69 -18.5 -125.5t-12.5 -99.5q-3 -32 -4.5 -53t-1.5 -34t1 -19.5t2 -9.5q9 -4 9 -14q0 -6 -4.5 -10.5t-10.5 -4.5q-19 0 -29.5 16t-15.5 37.5
t-6.5 44t-1.5 34.5q0 30 3 74.5t9.5 95t15 104.5t19.5 103.5t24 91.5t27 68q-31 -2 -68 -9t-75 -18t-73.5 -27.5t-63 -39t-44 -51t-16.5 -64.5q0 -29 17 -45t48 -16q7 0 11 -4.5t4 -10.5t-4 -10.5t-11 -4.5q-42 0 -68.5 24t-26.5 67zM454 848q5 -9 9.5 -23t6 -29t0.5 -29
t-7 -23q-8 -14 -23 -14q-13 0 -15 13l-10 72l-52 -71q-4 -6 -12 -6q-6 0 -9 3q-5 4 -5.5 10t2.5 11q11 15 19.5 27t17 23t17.5 23t20 27q5 6 12 6q5 0 13 -3.5t16 -16.5z" />
    <glyph glyph-name="Idieresis" unicode="&#xcf;" horiz-adv-x="435" 
d="M0 460q0 45 21 80t55 61.5t77 45.5t88 30.5t88 17t76 5.5q10 0 12.5 -6t2.5 -14l-5 -26.5t-13 -70t-18 -99t-19 -114.5q-11 -69 -18.5 -125.5t-12.5 -99.5q-3 -32 -4.5 -53t-1.5 -34t1 -19.5t2 -9.5q9 -4 9 -14q0 -6 -4.5 -10.5t-10.5 -4.5q-19 0 -29.5 16t-15.5 37.5
t-6.5 44t-1.5 34.5q0 30 3 74.5t9.5 95t15 104.5t19.5 103.5t24 91.5t27 68q-31 -2 -68 -9t-75 -18t-73.5 -27.5t-63 -39t-44 -51t-16.5 -64.5q0 -29 17 -45t48 -16q7 0 11 -4.5t4 -10.5t-4 -10.5t-11 -4.5q-42 0 -68.5 24t-26.5 67zM458 757q0 -11 -8 -19t-19 -8t-18.5 8
t-7.5 19t7.5 18.5t18.5 7.5t19 -7.5t8 -18.5zM378 757q0 -11 -8 -19t-19 -8t-18.5 8t-7.5 19t7.5 18.5t18.5 7.5t19 -7.5t8 -18.5z" />
    <glyph glyph-name="Eth" unicode="&#xd0;" horiz-adv-x="635" 
d="M491 193q43 98 43 226q0 144 -61.5 224t-193.5 80q-54 0 -100 -13.5t-79 -38t-51.5 -59t-18.5 -75.5q0 -42 18 -65t48 -23q6 0 10.5 -4.5t4.5 -10.5t-4.5 -10.5t-10.5 -4.5q-44 0 -70 31.5t-26 85.5q0 48 21.5 88t60 68.5t92.5 44.5t118 16q77 0 135.5 -23t97.5 -66.5
t59 -106t20 -141.5q0 -75 -16.5 -140.5t-48.5 -119.5q15 -18 22 -38q1 -2 1 -5q0 -6 -5 -10t-10 -4q-11 0 -15 10q-1 2 -3 5q-3 5 -9 12q-47 -66 -114 -103.5t-152 -37.5q-31 0 -61 6t-53.5 18.5t-38 33.5t-14.5 51q0 40 25.5 66.5t63.5 42.5q0 33 1.5 67t5.5 69h-54
q-6 0 -10.5 4.5t-4.5 10.5t4.5 10.5t10.5 4.5h57q2 12 6 40t10.5 63.5t16 74t20.5 70.5t25 52.5t29 20.5q7 0 12 -5.5t3 -12.5q-11 -63 -23.5 -132t-23.5 -141q-2 -8 -2.5 -15t-1.5 -15h51q7 0 11 -4.5t4 -10.5t-4 -10.5t-11 -4.5h-56q-4 -29 -7.5 -57.5t-6.5 -55.5v-4
q23 5 45 7t41 2q38 0 83.5 -8.5t83.5 -29.5zM117 94q0 -22 12.5 -37t31.5 -24.5t43 -13.5t46 -4q74 0 131 39.5t95 108.5q-24 15 -59.5 26.5t-84.5 11.5q-20 0 -45.5 -2.5t-51.5 -8.5q-4 -42 -3 -58.5t3 -21.5q9 -4 9 -14q0 -6 -4.5 -10.5t-10.5 -4.5q-13 0 -22 8.5
t-15 21.5t-9 29t-5 31q-26 -13 -43.5 -31.5t-17.5 -45.5z" />
    <glyph glyph-name="Ntilde" unicode="&#xd1;" horiz-adv-x="781" 
d="M272 132q0 31 3 75t9.5 94.5t15 104.5t19.5 103.5t24 91t27 68.5q-31 -2 -68 -9t-75 -18t-73.5 -27.5t-63 -39t-44 -51t-16.5 -64.5q0 -29 17 -45t48 -16q7 0 11 -4.5t4 -10.5t-4 -10.5t-11 -4.5q-42 0 -68.5 24t-26.5 67q0 45 21 80t55 61.5t77 45.5t88 30.5t88 17
t76 5.5q9 0 12 -6q3 -2 4 -7l7.5 -27.5t20 -72.5t29.5 -102t35 -117q22 -71 40.5 -127.5t34.5 -99.5q20 -53 31 -75.5t16 -30.5q4 7 10 24.5t14 52.5q12 51 21.5 107t16.5 112.5t10.5 113t3.5 108.5q0 24 -1 44.5t-4 37.5q-2 12 -4 18.5t-4 10.5t-4 6q-8 0 -11.5 5t-3.5 10
q0 6 3.5 10.5t11.5 4.5q6 0 14 -3.5t15 -15.5q18 -30 18 -121q0 -29 -2.5 -75t-7.5 -99.5t-12.5 -110t-16.5 -107t-19.5 -90.5t-22.5 -61q-2 -3 -7.5 -10t-15.5 -7q-20 0 -42.5 28.5t-45.5 76t-45.5 107.5t-42.5 123t-36 123.5t-26 108.5q-19 -106 -36.5 -211t-28.5 -211
q-3 -32 -4.5 -53t-1.5 -34t1 -19.5t2 -9.5q9 -4 9 -14q0 -6 -4.5 -10.5t-10.5 -4.5q-19 0 -29.5 16t-15.5 37.5t-6.5 44t-1.5 34.5zM564 740q-9 2 -19.5 5.5t-17.5 3.5q-5 0 -5 -3q0 -6 -4.5 -10.5t-10.5 -4.5t-10.5 4.5t-4.5 10.5q0 23 14 34.5t36 11.5q12 0 25 -2.5
t27 -5.5q3 -1 16 -4.5t22 -3.5q7 0 7 4q0 6 4.5 10.5t10.5 4.5t10.5 -4.5t4.5 -10.5q0 -25 -13.5 -37t-37.5 -12q-13 0 -26.5 3t-27.5 6z" />
    <glyph glyph-name="Ograve" unicode="&#xd2;" horiz-adv-x="532" 
d="M296 753q61 0 102.5 -24.5t66.5 -65.5t36 -95t11 -113q0 -81 -19 -162t-57 -146.5t-95 -106t-134 -40.5q-45 0 -83 15t-65.5 42t-43 65.5t-15.5 85.5q0 41 11.5 87t34.5 86q-11 44 -11 89q0 63 20 115t55.5 89.5t83 58t102.5 20.5zM186 479q6 0 10.5 -4.5t4.5 -10.5
t-4.5 -10.5t-10.5 -4.5q-25 0 -43.5 -18.5t-32.5 -47.5q6 -35 18.5 -65t32 -51.5t46.5 -34t60 -12.5q7 0 11 -4.5t4 -10.5t-4 -10.5t-11 -4.5q-60 0 -107 29t-78 79q-6 -27 -9 -52t-3 -44q0 -30 7.5 -60.5t25 -55.5t45.5 -40.5t69 -15.5q65 0 114 38.5t83 99.5t51 136.5
t17 148.5q0 55 -10 104t-30.5 86t-52.5 58.5t-76 21.5q-41 0 -78.5 -19.5t-66 -55.5t-45.5 -86t-18 -111q17 13 37.5 20.5t43.5 7.5zM306 768q-14 0 -26 12.5t-20.5 30t-13.5 36t-5 29.5t5 20.5t19 9.5q10 0 14 -9l41 -109q1 -2 1 -5q0 -15 -15 -15z" />
    <glyph glyph-name="Oacute" unicode="&#xd3;" horiz-adv-x="532" 
d="M296 753q61 0 102.5 -24.5t66.5 -65.5t36 -95t11 -113q0 -81 -19 -162t-57 -146.5t-95 -106t-134 -40.5q-45 0 -83 15t-65.5 42t-43 65.5t-15.5 85.5q0 41 11.5 87t34.5 86q-11 44 -11 89q0 63 20 115t55.5 89.5t83 58t102.5 20.5zM186 479q6 0 10.5 -4.5t4.5 -10.5
t-4.5 -10.5t-10.5 -4.5q-25 0 -43.5 -18.5t-32.5 -47.5q6 -35 18.5 -65t32 -51.5t46.5 -34t60 -12.5q7 0 11 -4.5t4 -10.5t-4 -10.5t-11 -4.5q-60 0 -107 29t-78 79q-6 -27 -9 -52t-3 -44q0 -30 7.5 -60.5t25 -55.5t45.5 -40.5t69 -15.5q65 0 114 38.5t83 99.5t51 136.5
t17 148.5q0 55 -10 104t-30.5 86t-52.5 58.5t-76 21.5q-41 0 -78.5 -19.5t-66 -55.5t-45.5 -86t-18 -111q17 13 37.5 20.5t43.5 7.5zM306 768q-15 0 -15 15q0 3 1 5l41 109q4 9 14 9q14 0 19 -9.5t5 -20.5t-5 -29.5t-13.5 -36t-20.5 -30t-26 -12.5z" />
    <glyph glyph-name="Ocircumflex" unicode="&#xd4;" horiz-adv-x="532" 
d="M296 753q61 0 102.5 -24.5t66.5 -65.5t36 -95t11 -113q0 -81 -19 -162t-57 -146.5t-95 -106t-134 -40.5q-45 0 -83 15t-65.5 42t-43 65.5t-15.5 85.5q0 41 11.5 87t34.5 86q-11 44 -11 89q0 63 20 115t55.5 89.5t83 58t102.5 20.5zM186 479q6 0 10.5 -4.5t4.5 -10.5
t-4.5 -10.5t-10.5 -4.5q-25 0 -43.5 -18.5t-32.5 -47.5q6 -35 18.5 -65t32 -51.5t46.5 -34t60 -12.5q7 0 11 -4.5t4 -10.5t-4 -10.5t-11 -4.5q-60 0 -107 29t-78 79q-6 -27 -9 -52t-3 -44q0 -30 7.5 -60.5t25 -55.5t45.5 -40.5t69 -15.5q65 0 114 38.5t83 99.5t51 136.5
t17 148.5q0 55 -10 104t-30.5 86t-52.5 58.5t-76 21.5q-41 0 -78.5 -19.5t-66 -55.5t-45.5 -86t-18 -111q17 13 37.5 20.5t43.5 7.5zM368 886q5 -9 9.5 -23t6 -29t0.5 -29t-7 -23q-8 -14 -23 -14q-13 0 -15 13l-10 72l-52 -71q-4 -6 -12 -6q-6 0 -9 3q-5 4 -5.5 10t2.5 11
q11 15 19.5 27t17 23t17.5 23t20 27q5 6 12 6q5 0 13 -3.5t16 -16.5z" />
    <glyph glyph-name="Otilde" unicode="&#xd5;" horiz-adv-x="532" 
d="M296 753q61 0 102.5 -24.5t66.5 -65.5t36 -95t11 -113q0 -81 -19 -162t-57 -146.5t-95 -106t-134 -40.5q-45 0 -83 15t-65.5 42t-43 65.5t-15.5 85.5q0 41 11.5 87t34.5 86q-11 44 -11 89q0 63 20 115t55.5 89.5t83 58t102.5 20.5zM186 479q6 0 10.5 -4.5t4.5 -10.5
t-4.5 -10.5t-10.5 -4.5q-25 0 -43.5 -18.5t-32.5 -47.5q6 -35 18.5 -65t32 -51.5t46.5 -34t60 -12.5q7 0 11 -4.5t4 -10.5t-4 -10.5t-11 -4.5q-60 0 -107 29t-78 79q-6 -27 -9 -52t-3 -44q0 -30 7.5 -60.5t25 -55.5t45.5 -40.5t69 -15.5q65 0 114 38.5t83 99.5t51 136.5
t17 148.5q0 55 -10 104t-30.5 86t-52.5 58.5t-76 21.5q-41 0 -78.5 -19.5t-66 -55.5t-45.5 -86t-18 -111q17 13 37.5 20.5t43.5 7.5zM350 768q-13 0 -26.5 3t-27.5 6q-9 2 -19.5 5.5t-17.5 3.5q-5 0 -5 -3q0 -6 -4.5 -10.5t-10.5 -4.5t-10.5 4.5t-4.5 10.5q0 23 14 34.5
t36 11.5q12 0 25 -2.5t27 -5.5q3 -1 16 -4.5t22 -3.5q7 0 7 4q0 6 4.5 10.5t10.5 4.5t10.5 -4.5t4.5 -10.5q0 -25 -13.5 -37t-37.5 -12z" />
    <glyph glyph-name="Odieresis" unicode="&#xd6;" horiz-adv-x="532" 
d="M296 753q61 0 102.5 -24.5t66.5 -65.5t36 -95t11 -113q0 -81 -19 -162t-57 -146.5t-95 -106t-134 -40.5q-45 0 -83 15t-65.5 42t-43 65.5t-15.5 85.5q0 41 11.5 87t34.5 86q-11 44 -11 89q0 63 20 115t55.5 89.5t83 58t102.5 20.5zM186 479q6 0 10.5 -4.5t4.5 -10.5
t-4.5 -10.5t-10.5 -4.5q-25 0 -43.5 -18.5t-32.5 -47.5q6 -35 18.5 -65t32 -51.5t46.5 -34t60 -12.5q7 0 11 -4.5t4 -10.5t-4 -10.5t-11 -4.5q-60 0 -107 29t-78 79q-6 -27 -9 -52t-3 -44q0 -30 7.5 -60.5t25 -55.5t45.5 -40.5t69 -15.5q65 0 114 38.5t83 99.5t51 136.5
t17 148.5q0 55 -10 104t-30.5 86t-52.5 58.5t-76 21.5q-41 0 -78.5 -19.5t-66 -55.5t-45.5 -86t-18 -111q17 13 37.5 20.5t43.5 7.5zM372 795q0 -11 -8 -19t-19 -8t-18.5 8t-7.5 19t7.5 18.5t18.5 7.5t19 -7.5t8 -18.5zM292 795q0 -11 -8 -19t-19 -8t-18.5 8t-7.5 19
t7.5 18.5t18.5 7.5t19 -7.5t8 -18.5z" />
    <glyph glyph-name="Oslash" unicode="&#xd8;" horiz-adv-x="532" 
d="M512 455q0 -81 -19 -162t-57 -146.5t-95 -106t-134 -40.5q-45 0 -83 15t-65.5 42t-43 65.5t-15.5 85.5q0 41 11.5 87t34.5 86q-11 44 -11 89q0 63 20 115t55.5 89.5t83 58t102.5 20.5q61 0 102.5 -24.5t66.5 -65.5t36 -95t11 -113zM262 220q8 0 14 -2.5t6 -12.5
q0 -6 -4 -10.5t-11 -4.5h-8t-8 1q-20 -56 -37 -97.5t-28 -60.5q15 -3 31 -3q65 0 114 38.5t83 99.5t51 136.5t17 148.5q0 75 -19 138.5t-59 98.5q0 -5 -6 -29t-16.5 -60t-24.5 -82.5t-29.5 -97t-32.5 -102.5t-33 -99zM201 464q0 -6 -4.5 -10.5t-10.5 -4.5q-25 0 -43.5 -18.5
t-32.5 -47.5q9 -56 36 -97.5t72 -57.5l153 481q0 1 0.5 1t0.5 1q-27 12 -59 12q-41 0 -78.5 -19.5t-66 -55.5t-45.5 -86t-18 -111q17 13 37.5 20.5t43.5 7.5q6 0 10.5 -4.5t4.5 -10.5zM82 298q-6 -27 -9 -52t-3 -44q0 -24 5 -48.5t15.5 -46t27.5 -39t41 -27.5l50 157
q-40 11 -72 37t-55 63z" />
    <glyph glyph-name="Ugrave" unicode="&#xd9;" horiz-adv-x="735" 
d="M606 425q5 20 13 48.5t20 60.5t27 64t34 57t41.5 41t48.5 16q6 0 10.5 -4.5t4.5 -10.5t-4.5 -10.5t-10.5 -4.5q-18 0 -35 -26t-31 -59.5t-23.5 -65.5t-12.5 -45q-11 -43 -20.5 -90t-16 -94t-10 -92t-3.5 -84q0 -5 0.5 -25.5t3.5 -43t8.5 -40t14.5 -17.5q6 0 10.5 -4.5
t4.5 -10.5t-4.5 -10.5t-10.5 -4.5q-32 0 -50.5 23t-27.5 55.5t-11.5 66.5t-2.5 56q0 20 1 41.5t3 43.5q-1 -3 -2 -5.5t-2 -4.5q-52 -123 -103.5 -184.5t-114.5 -61.5q-36 0 -58 19t-34 47t-16 60.5t-4 59.5q0 55 10.5 127.5t28 147t41 143.5t50.5 117q-27 -1 -63 -6.5
t-74 -16.5t-75 -27.5t-66 -39.5t-47 -52.5t-18 -66.5q0 -29 17.5 -45t48.5 -16q6 0 10.5 -4.5t4.5 -10.5t-4.5 -10.5t-10.5 -4.5q-42 0 -69 24t-27 67q0 45 20.5 80t54.5 61.5t77 45.5t88 30.5t88.5 17t77.5 5.5q8 0 11.5 -5.5t3.5 -12.5q0 -2 -7.5 -28t-19.5 -68t-26 -96.5
t-26 -113.5q-14 -67 -25.5 -139t-11.5 -163q1 -27 8 -48q5 -18 17 -33t35 -15q27 0 53.5 22.5t50.5 58t45.5 80t39.5 88.5t31 83zM565 768q-14 0 -26 12.5t-20.5 30t-13.5 36t-5 29.5t5 20.5t19 9.5q10 0 14 -9l41 -109q1 -2 1 -5q0 -15 -15 -15z" />
    <glyph glyph-name="Uacute" unicode="&#xda;" horiz-adv-x="735" 
d="M606 425q5 20 13 48.5t20 60.5t27 64t34 57t41.5 41t48.5 16q6 0 10.5 -4.5t4.5 -10.5t-4.5 -10.5t-10.5 -4.5q-18 0 -35 -26t-31 -59.5t-23.5 -65.5t-12.5 -45q-11 -43 -20.5 -90t-16 -94t-10 -92t-3.5 -84q0 -5 0.5 -25.5t3.5 -43t8.5 -40t14.5 -17.5q6 0 10.5 -4.5
t4.5 -10.5t-4.5 -10.5t-10.5 -4.5q-32 0 -50.5 23t-27.5 55.5t-11.5 66.5t-2.5 56q0 20 1 41.5t3 43.5q-1 -3 -2 -5.5t-2 -4.5q-52 -123 -103.5 -184.5t-114.5 -61.5q-36 0 -58 19t-34 47t-16 60.5t-4 59.5q0 55 10.5 127.5t28 147t41 143.5t50.5 117q-27 -1 -63 -6.5
t-74 -16.5t-75 -27.5t-66 -39.5t-47 -52.5t-18 -66.5q0 -29 17.5 -45t48.5 -16q6 0 10.5 -4.5t4.5 -10.5t-4.5 -10.5t-10.5 -4.5q-42 0 -69 24t-27 67q0 45 20.5 80t54.5 61.5t77 45.5t88 30.5t88.5 17t77.5 5.5q8 0 11.5 -5.5t3.5 -12.5q0 -2 -7.5 -28t-19.5 -68t-26 -96.5
t-26 -113.5q-14 -67 -25.5 -139t-11.5 -163q1 -27 8 -48q5 -18 17 -33t35 -15q27 0 53.5 22.5t50.5 58t45.5 80t39.5 88.5t31 83zM565 768q-15 0 -15 15q0 3 1 5l41 109q4 9 14 9q14 0 19 -9.5t5 -20.5t-5 -29.5t-13.5 -36t-20.5 -30t-26 -12.5z" />
    <glyph glyph-name="Ucircumflex" unicode="&#xdb;" horiz-adv-x="735" 
d="M606 425q5 20 13 48.5t20 60.5t27 64t34 57t41.5 41t48.5 16q6 0 10.5 -4.5t4.5 -10.5t-4.5 -10.5t-10.5 -4.5q-18 0 -35 -26t-31 -59.5t-23.5 -65.5t-12.5 -45q-11 -43 -20.5 -90t-16 -94t-10 -92t-3.5 -84q0 -5 0.5 -25.5t3.5 -43t8.5 -40t14.5 -17.5q6 0 10.5 -4.5
t4.5 -10.5t-4.5 -10.5t-10.5 -4.5q-32 0 -50.5 23t-27.5 55.5t-11.5 66.5t-2.5 56q0 20 1 41.5t3 43.5q-1 -3 -2 -5.5t-2 -4.5q-52 -123 -103.5 -184.5t-114.5 -61.5q-36 0 -58 19t-34 47t-16 60.5t-4 59.5q0 55 10.5 127.5t28 147t41 143.5t50.5 117q-27 -1 -63 -6.5
t-74 -16.5t-75 -27.5t-66 -39.5t-47 -52.5t-18 -66.5q0 -29 17.5 -45t48.5 -16q6 0 10.5 -4.5t4.5 -10.5t-4.5 -10.5t-10.5 -4.5q-42 0 -69 24t-27 67q0 45 20.5 80t54.5 61.5t77 45.5t88 30.5t88.5 17t77.5 5.5q8 0 11.5 -5.5t3.5 -12.5q0 -2 -7.5 -28t-19.5 -68t-26 -96.5
t-26 -113.5q-14 -67 -25.5 -139t-11.5 -163q1 -27 8 -48q5 -18 17 -33t35 -15q27 0 53.5 22.5t50.5 58t45.5 80t39.5 88.5t31 83zM627 886q5 -9 9.5 -23t6 -29t0.5 -29t-7 -23q-8 -14 -23 -14q-13 0 -15 13l-10 72l-52 -71q-4 -6 -12 -6q-6 0 -9 3q-5 4 -5.5 10t2.5 11
q11 15 19.5 27t17 23t17.5 23t20 27q5 6 12 6q5 0 13 -3.5t16 -16.5z" />
    <glyph glyph-name="Udieresis" unicode="&#xdc;" horiz-adv-x="735" 
d="M606 425q5 20 13 48.5t20 60.5t27 64t34 57t41.5 41t48.5 16q6 0 10.5 -4.5t4.5 -10.5t-4.5 -10.5t-10.5 -4.5q-18 0 -35 -26t-31 -59.5t-23.5 -65.5t-12.5 -45q-11 -43 -20.5 -90t-16 -94t-10 -92t-3.5 -84q0 -5 0.5 -25.5t3.5 -43t8.5 -40t14.5 -17.5q6 0 10.5 -4.5
t4.5 -10.5t-4.5 -10.5t-10.5 -4.5q-32 0 -50.5 23t-27.5 55.5t-11.5 66.5t-2.5 56q0 20 1 41.5t3 43.5q-1 -3 -2 -5.5t-2 -4.5q-52 -123 -103.5 -184.5t-114.5 -61.5q-36 0 -58 19t-34 47t-16 60.5t-4 59.5q0 55 10.5 127.5t28 147t41 143.5t50.5 117q-27 -1 -63 -6.5
t-74 -16.5t-75 -27.5t-66 -39.5t-47 -52.5t-18 -66.5q0 -29 17.5 -45t48.5 -16q6 0 10.5 -4.5t4.5 -10.5t-4.5 -10.5t-10.5 -4.5q-42 0 -69 24t-27 67q0 45 20.5 80t54.5 61.5t77 45.5t88 30.5t88.5 17t77.5 5.5q8 0 11.5 -5.5t3.5 -12.5q0 -2 -7.5 -28t-19.5 -68t-26 -96.5
t-26 -113.5q-14 -67 -25.5 -139t-11.5 -163q1 -27 8 -48q5 -18 17 -33t35 -15q27 0 53.5 22.5t50.5 58t45.5 80t39.5 88.5t31 83zM631 795q0 -11 -8 -19t-19 -8t-18.5 8t-7.5 19t7.5 18.5t18.5 7.5t19 -7.5t8 -18.5zM551 795q0 -11 -8 -19t-19 -8t-18.5 8t-7.5 19t7.5 18.5
t18.5 7.5t19 -7.5t8 -18.5z" />
    <glyph glyph-name="Yacute" unicode="&#xdd;" horiz-adv-x="719" 
d="M464 1q29 14 56 18.5t49 5.5q17 86 28 182.5t18 187.5q-7 -30 -19 -71t-28 -85t-37 -87t-47.5 -76.5t-58.5 -54.5t-70 -21q-36 0 -58 19t-34 47t-16 60.5t-4 59.5q0 55 10.5 127.5t28 147t41 143.5t50.5 117q-27 -1 -63 -6.5t-74 -16.5t-75 -27.5t-66 -39.5t-47 -52.5
t-18 -66.5q0 -29 17.5 -45t48.5 -16q6 0 10.5 -4.5t4.5 -10.5t-4.5 -10.5t-10.5 -4.5q-42 0 -69 24t-27 67q0 45 20.5 80t54.5 61.5t77 45.5t88 30.5t88.5 17t77.5 5.5q8 0 11.5 -5.5t3.5 -12.5q0 -2 -7.5 -28t-19.5 -68t-26 -96.5t-26 -113.5q-14 -67 -25.5 -139
t-11.5 -163q1 -27 8 -48q5 -18 17 -33t35 -15t43.5 12.5t39 35t36 53.5t34.5 67q21 45 41 108.5t35.5 131t25 133.5t9.5 117q3 12 16 12q4 0 10 -2t10 -14q6 -18 9.5 -57.5t5 -93.5t0 -118t-6.5 -132t-14.5 -137t-24.5 -131q11 -4 21 -8.5t16 -9.5q7 -5 7 -13q0 -5 -5 -10
t-10 -5q-4 0 -9 3q-1 1 -7.5 5t-20.5 9q-13 -51 -31 -94.5t-40 -75t-49 -49t-60 -17.5q-42 0 -64.5 24.5t-22.5 64.5q0 25 8.5 49t22.5 45.5t33 39t41 28.5zM446 -220q20 0 36.5 16t31 45t27 68t22.5 86q-32 -1 -63.5 -13t-56 -32.5t-39.5 -49t-15 -63.5q0 -27 14 -42
t43 -15zM547 768q-15 0 -15 15q0 3 1 5l41 109q4 9 14 9q14 0 19 -9.5t5 -20.5t-5 -29.5t-13.5 -36t-20.5 -30t-26 -12.5z" />
    <glyph glyph-name="Thorn" unicode="&#xde;" horiz-adv-x="605" 
d="M348 135q-24 0 -45.5 5t-39.5 12.5t-31.5 16t-22.5 15.5q-1 -11 -2 -20.5t-2 -18.5q-3 -32 -4.5 -53t-1.5 -34t1 -19.5t2 -9.5q9 -4 9 -14q0 -6 -4.5 -10.5t-10.5 -4.5q-19 0 -29.5 16t-15.5 37.5t-6.5 44t-1.5 34.5q0 50 6.5 120t18.5 143.5t28.5 141.5t36.5 114
q-45 -6 -82.5 -21.5t-64.5 -40t-41.5 -56t-14.5 -69.5q0 -42 17.5 -60t48.5 -18q6 0 10.5 -4.5t4.5 -10.5t-4.5 -10.5t-10.5 -4.5q-44 0 -70 29.5t-26 83.5q0 44 18.5 81t51.5 64.5t79.5 45t102.5 22.5q11 14 24 14q12 0 15 -12q63 0 116 -15.5t92 -47.5t61 -81t22 -116
q0 -60 -18 -112.5t-49.5 -91.5t-74 -62t-92.5 -23zM512 427q0 112 -58 168.5t-168 58.5q-3 -18 -8.5 -48.5t-12.5 -68t-14.5 -81t-14.5 -88.5q-7 -43 -12.5 -80t-9.5 -70q4 -2 5 -4q16 -14 35 -24q17 -10 38 -17.5t45 -7.5q38 0 70.5 21.5t55.5 57.5t36 83.5t13 99.5z" />
    <glyph glyph-name="germandbls" unicode="&#xdf;" horiz-adv-x="480" 
d="M303 332q54 -14 82 -58t28 -97q0 -42 -15.5 -75t-42 -56t-61.5 -35.5t-75 -12.5q-54 0 -83.5 10t-30.5 10q-9 5 -9 14q0 6 4 10.5t11 4.5q4 0 6 -1q1 -1 27.5 -9.5t74.5 -8.5q32 0 56 13t40.5 34t25 48.5t8.5 56.5q0 23 -5.5 45.5t-17.5 40.5t-30 29.5t-43 11.5
q-9 0 -14 9q-1 2 -1 6q0 6 4 10q20 21 45.5 52t48.5 65.5t39 70t16 65.5q0 29 -16 45.5t-39.5 24.5t-50.5 10.5t-48 2.5q-40 0 -69 -7t-41 -12q-26 -125 -48.5 -258.5t-36.5 -261.5q-6 -60 -6 -84q0 -14 1 -21t2 -10q9 -4 9 -13q0 -6 -4.5 -10.5t-10.5 -4.5q-9 0 -19.5 7.5
t-17.5 31.5q-3 14 -5 33.5t-2 44.5q0 34 3 79.5t9 95.5t14.5 103t19 102t23.5 92.5t27 74.5q9 16 28 25.5t41.5 14.5t44.5 6.5t38 1.5q31 0 68 -4t69.5 -17.5t54 -37.5t21.5 -65q0 -32 -14 -66.5t-36 -66.5t-47.5 -60.5t-49.5 -48.5z" />
    <glyph glyph-name="agrave" unicode="&#xe0;" 
d="M276 0q-20 0 -31.5 13.5t-17.5 32t-8 39t-2 34.5q-9 -19 -21.5 -40t-29 -38.5t-36 -29t-42.5 -11.5q-29 0 -49 11t-33 29.5t-18.5 42.5t-5.5 49q0 35 11.5 81t33.5 87t54 69t72 28q26 0 44 -12t31 -33q9 -15 12.5 -27t3.5 -13q1 -7 -2.5 -12.5t-11.5 -5.5q-12 0 -15 12
q-1 2 -4 12.5t-11 21.5q-6 10 -16.5 18.5t-25.5 8.5q-19 0 -35 -14.5t-29 -37.5t-23 -51.5t-17 -56.5t-10.5 -52t-3.5 -38q0 -12 1.5 -27t6.5 -28.5t14 -22.5t24 -9q31 0 55.5 26.5t43 63.5t31.5 76.5t20 64.5q21 80 54 80q14 0 14 -14v-4q0 -3 -2.5 -15t-6 -31t-7.5 -43
t-7 -51q-4 -31 -6.5 -56.5t-2.5 -45.5q0 -26 2.5 -37t4.5 -13q3 1 8 5.5t13.5 15t19.5 29t25 47.5q10 20 18 38.5t13 32.5q7 17 13 33q3 10 14 10q6 0 10.5 -4t4.5 -11q0 -4 -6.5 -20.5t-14.5 -35.5t-15.5 -35.5t-9.5 -20.5q-25 -50 -43 -75q-28 -40 -53 -40zM154 426
q-14 0 -26 12.5t-20.5 30t-13.5 36t-5 29.5t5 20.5t19 9.5q10 0 14 -9l41 -109q1 -2 1 -5q0 -15 -15 -15z" />
    <glyph glyph-name="aacute" unicode="&#xe1;" 
d="M276 0q-20 0 -31.5 13.5t-17.5 32t-8 39t-2 34.5q-9 -19 -21.5 -40t-29 -38.5t-36 -29t-42.5 -11.5q-29 0 -49 11t-33 29.5t-18.5 42.5t-5.5 49q0 35 11.5 81t33.5 87t54 69t72 28q26 0 44 -12t31 -33q9 -15 12.5 -27t3.5 -13q1 -7 -2.5 -12.5t-11.5 -5.5q-12 0 -15 12
q-1 2 -4 12.5t-11 21.5q-6 10 -16.5 18.5t-25.5 8.5q-19 0 -35 -14.5t-29 -37.5t-23 -51.5t-17 -56.5t-10.5 -52t-3.5 -38q0 -12 1.5 -27t6.5 -28.5t14 -22.5t24 -9q31 0 55.5 26.5t43 63.5t31.5 76.5t20 64.5q21 80 54 80q14 0 14 -14v-4q0 -3 -2.5 -15t-6 -31t-7.5 -43
t-7 -51q-4 -31 -6.5 -56.5t-2.5 -45.5q0 -26 2.5 -37t4.5 -13q3 1 8 5.5t13.5 15t19.5 29t25 47.5q10 20 18 38.5t13 32.5q7 17 13 33q3 10 14 10q6 0 10.5 -4t4.5 -11q0 -4 -6.5 -20.5t-14.5 -35.5t-15.5 -35.5t-9.5 -20.5q-25 -50 -43 -75q-28 -40 -53 -40zM154 426
q-15 0 -15 15q0 3 1 5l41 109q4 9 14 9q14 0 19 -9.5t5 -20.5t-5 -29.5t-13.5 -36t-20.5 -30t-26 -12.5z" />
    <glyph glyph-name="acircumflex" unicode="&#xe2;" 
d="M276 0q-20 0 -31.5 13.5t-17.5 32t-8 39t-2 34.5q-9 -19 -21.5 -40t-29 -38.5t-36 -29t-42.5 -11.5q-29 0 -49 11t-33 29.5t-18.5 42.5t-5.5 49q0 35 11.5 81t33.5 87t54 69t72 28q26 0 44 -12t31 -33q9 -15 12.5 -27t3.5 -13q1 -7 -2.5 -12.5t-11.5 -5.5q-12 0 -15 12
q-1 2 -4 12.5t-11 21.5q-6 10 -16.5 18.5t-25.5 8.5q-19 0 -35 -14.5t-29 -37.5t-23 -51.5t-17 -56.5t-10.5 -52t-3.5 -38q0 -12 1.5 -27t6.5 -28.5t14 -22.5t24 -9q31 0 55.5 26.5t43 63.5t31.5 76.5t20 64.5q21 80 54 80q14 0 14 -14v-4q0 -3 -2.5 -15t-6 -31t-7.5 -43
t-7 -51q-4 -31 -6.5 -56.5t-2.5 -45.5q0 -26 2.5 -37t4.5 -13q3 1 8 5.5t13.5 15t19.5 29t25 47.5q10 20 18 38.5t13 32.5q7 17 13 33q3 10 14 10q6 0 10.5 -4t4.5 -11q0 -4 -6.5 -20.5t-14.5 -35.5t-15.5 -35.5t-9.5 -20.5q-25 -50 -43 -75q-28 -40 -53 -40zM216 544
q5 -9 9.5 -23t6 -29t0.5 -29t-7 -23q-8 -14 -23 -14q-13 0 -15 13l-10 72l-52 -71q-4 -6 -12 -6q-6 0 -9 3q-5 4 -5.5 10t2.5 11q11 15 19.5 27t17 23t17.5 23t20 27q5 6 12 6q5 0 13 -3.5t16 -16.5z" />
    <glyph glyph-name="atilde" unicode="&#xe3;" 
d="M276 0q-20 0 -31.5 13.5t-17.5 32t-8 39t-2 34.5q-9 -19 -21.5 -40t-29 -38.5t-36 -29t-42.5 -11.5q-29 0 -49 11t-33 29.5t-18.5 42.5t-5.5 49q0 35 11.5 81t33.5 87t54 69t72 28q26 0 44 -12t31 -33q9 -15 12.5 -27t3.5 -13q1 -7 -2.5 -12.5t-11.5 -5.5q-12 0 -15 12
q-1 2 -4 12.5t-11 21.5q-6 10 -16.5 18.5t-25.5 8.5q-19 0 -35 -14.5t-29 -37.5t-23 -51.5t-17 -56.5t-10.5 -52t-3.5 -38q0 -12 1.5 -27t6.5 -28.5t14 -22.5t24 -9q31 0 55.5 26.5t43 63.5t31.5 76.5t20 64.5q21 80 54 80q14 0 14 -14v-4q0 -3 -2.5 -15t-6 -31t-7.5 -43
t-7 -51q-4 -31 -6.5 -56.5t-2.5 -45.5q0 -26 2.5 -37t4.5 -13q3 1 8 5.5t13.5 15t19.5 29t25 47.5q10 20 18 38.5t13 32.5q7 17 13 33q3 10 14 10q6 0 10.5 -4t4.5 -11q0 -4 -6.5 -20.5t-14.5 -35.5t-15.5 -35.5t-9.5 -20.5q-25 -50 -43 -75q-28 -40 -53 -40zM198 426
q-13 0 -26.5 3t-27.5 6q-9 2 -19.5 5.5t-17.5 3.5q-5 0 -5 -3q0 -6 -4.5 -10.5t-10.5 -4.5t-10.5 4.5t-4.5 10.5q0 23 14 34.5t36 11.5q12 0 25 -2.5t27 -5.5q3 -1 16 -4.5t22 -3.5q7 0 7 4q0 6 4.5 10.5t10.5 4.5t10.5 -4.5t4.5 -10.5q0 -25 -13.5 -37t-37.5 -12z" />
    <glyph glyph-name="adieresis" unicode="&#xe4;" 
d="M276 0q-20 0 -31.5 13.5t-17.5 32t-8 39t-2 34.5q-9 -19 -21.5 -40t-29 -38.5t-36 -29t-42.5 -11.5q-29 0 -49 11t-33 29.5t-18.5 42.5t-5.5 49q0 35 11.5 81t33.5 87t54 69t72 28q26 0 44 -12t31 -33q9 -15 12.5 -27t3.5 -13q1 -7 -2.5 -12.5t-11.5 -5.5q-12 0 -15 12
q-1 2 -4 12.5t-11 21.5q-6 10 -16.5 18.5t-25.5 8.5q-19 0 -35 -14.5t-29 -37.5t-23 -51.5t-17 -56.5t-10.5 -52t-3.5 -38q0 -12 1.5 -27t6.5 -28.5t14 -22.5t24 -9q31 0 55.5 26.5t43 63.5t31.5 76.5t20 64.5q21 80 54 80q14 0 14 -14v-4q0 -3 -2.5 -15t-6 -31t-7.5 -43
t-7 -51q-4 -31 -6.5 -56.5t-2.5 -45.5q0 -26 2.5 -37t4.5 -13q3 1 8 5.5t13.5 15t19.5 29t25 47.5q10 20 18 38.5t13 32.5q7 17 13 33q3 10 14 10q6 0 10.5 -4t4.5 -11q0 -4 -6.5 -20.5t-14.5 -35.5t-15.5 -35.5t-9.5 -20.5q-25 -50 -43 -75q-28 -40 -53 -40zM220 453
q0 -11 -8 -19t-19 -8t-18.5 8t-7.5 19t7.5 18.5t18.5 7.5t19 -7.5t8 -18.5zM140 453q0 -11 -8 -19t-19 -8t-18.5 8t-7.5 19t7.5 18.5t18.5 7.5t19 -7.5t8 -18.5z" />
    <glyph glyph-name="aring" unicode="&#xe5;" 
d="M276 0q-20 0 -31.5 13.5t-17.5 32t-8 39t-2 34.5q-9 -19 -21.5 -40t-29 -38.5t-36 -29t-42.5 -11.5q-29 0 -49 11t-33 29.5t-18.5 42.5t-5.5 49q0 35 11.5 81t33.5 87t54 69t72 28q26 0 44 -12t31 -33q9 -15 12.5 -27t3.5 -13q1 -7 -2.5 -12.5t-11.5 -5.5q-12 0 -15 12
q-1 2 -4 12.5t-11 21.5q-6 10 -16.5 18.5t-25.5 8.5q-19 0 -35 -14.5t-29 -37.5t-23 -51.5t-17 -56.5t-10.5 -52t-3.5 -38q0 -12 1.5 -27t6.5 -28.5t14 -22.5t24 -9q31 0 55.5 26.5t43 63.5t31.5 76.5t20 64.5q21 80 54 80q14 0 14 -14v-4q0 -3 -2.5 -15t-6 -31t-7.5 -43
t-7 -51q-4 -31 -6.5 -56.5t-2.5 -45.5q0 -26 2.5 -37t4.5 -13q3 1 8 5.5t13.5 15t19.5 29t25 47.5q10 20 18 38.5t13 32.5q7 17 13 33q3 10 14 10q6 0 10.5 -4t4.5 -11q0 -4 -6.5 -20.5t-14.5 -35.5t-15.5 -35.5t-9.5 -20.5q-25 -50 -43 -75q-28 -40 -53 -40zM154 424
q-29 0 -48.5 15.5t-19.5 41.5q0 16 7 29.5t19 24t28 16.5t34 6q29 0 48 -16t19 -41q0 -15 -7 -28.5t-19 -24t-28 -17t-33 -6.5zM183 527q-18 0 -32.5 -14.5t-14.5 -32.5q0 -13 8.5 -19.5t20.5 -6.5q17 0 31.5 13.5t14.5 30.5q0 29 -28 29z" />
    <glyph glyph-name="ae" unicode="&#xe6;" horiz-adv-x="520" 
d="M86 30q21 0 39 13.5t33.5 34.5t28.5 47.5t23 52.5q6 37 22 75.5t39.5 70.5t54.5 52.5t68 20.5q31 0 55 -16t24 -50q0 -35 -20 -63.5t-50.5 -48.5t-66.5 -31.5t-67 -12.5q-2 -12 -3 -23.5t-1 -21.5q0 -17 2.5 -34.5t9.5 -32t20 -24t33 -9.5q39 0 69.5 20t53.5 50
t39.5 65.5t27.5 66.5q3 10 14 10q6 0 10.5 -4t4.5 -11q0 -3 -1 -5q-14 -36 -32.5 -75.5t-44.5 -72t-60.5 -53.5t-80.5 -21q-54 0 -83.5 28.5t-37.5 73.5q-2 -4 -3 -5q-53 -97 -118 -97q-29 0 -49 11t-33 29.5t-18.5 42.5t-5.5 49q0 35 11.5 81t33.5 87t54 69t72 28
q26 0 44 -12t31 -33q9 -15 12.5 -27t3.5 -13q1 -7 -2.5 -12.5t-11.5 -5.5q-12 0 -15 12q-1 2 -4 12.5t-11 21.5q-6 10 -16.5 18.5t-25.5 8.5q-19 0 -35 -14.5t-29 -37.5t-23 -51.5t-17 -56.5t-10.5 -52t-3.5 -38q0 -12 1.5 -27t6.5 -28.5t14 -22.5t24 -9zM395 250
q22 18 35 39.5t13 39.5q0 22 -15.5 30t-29.5 8q-24 0 -45 -18t-36.5 -43.5t-26 -53t-15.5 -47.5q34 2 64.5 13.5t55.5 31.5z" />
    <glyph glyph-name="ccedilla" unicode="&#xe7;" horiz-adv-x="295" 
d="M234 316q-5 0 -10 3.5t-5 11.5q0 22 -15 30t-28 8q-28 0 -52.5 -28t-43 -67t-29 -82t-10.5 -73q0 -13 2.5 -28.5t9.5 -29t20 -22.5t33 -9q39 0 69.5 20t53.5 50t39.5 65.5t27.5 66.5q3 10 14 10q6 0 10.5 -4t4.5 -11q0 -3 -1 -5q-13 -35 -31 -73t-43 -70t-57.5 -54
t-75.5 -25l-27 -62q19 -1 36.5 -6.5t31.5 -15.5t22.5 -25t8.5 -34q0 -21 -9.5 -36.5t-24.5 -25.5t-33 -15t-35 -5q-30 0 -55.5 16t-25.5 48q0 6 4.5 10.5t10.5 4.5q7 0 11 -4.5t4 -10.5q0 -17 15.5 -25.5t33.5 -8.5q23 0 34 13t11 34q0 28 -16 42t-42 14q-8 0 -13.5 4
t-5.5 12q0 3 1 5l31 72q-52 8 -77.5 45t-25.5 88q0 38 13.5 84t38 85.5t59 66.5t77.5 27q31 0 55 -16t24 -50q0 -8 -4.5 -11.5t-10.5 -3.5z" />
    <glyph glyph-name="egrave" unicode="&#xe8;" horiz-adv-x="296" 
d="M219 329q0 22 -15.5 30t-29.5 8q-24 0 -45 -18t-36.5 -43.5t-26 -53t-15.5 -47.5q34 2 64.5 13.5t55.5 31.5q22 18 35 39.5t13 39.5zM296 232q3 10 14 10q6 0 10.5 -4t4.5 -11q0 -3 -1 -5q-14 -36 -32.5 -75.5t-44.5 -72t-60.5 -53.5t-80.5 -21q-31 0 -54.5 10.5
t-39 28.5t-23 42.5t-7.5 52.5q0 38 13.5 84t38 85.5t59 66.5t77.5 27q31 0 55 -16t24 -50q0 -26 -16 -53.5t-43 -50.5q-29 -24 -66.5 -37.5t-78.5 -14.5q-2 -12 -3 -23.5t-1 -21.5q0 -17 2.5 -34.5t9.5 -32t20 -24t33 -9.5q39 0 69.5 20t53.5 50t39.5 65.5t27.5 66.5z
M169 426q-14 0 -26 12.5t-20.5 30t-13.5 36t-5 29.5t5 20.5t19 9.5q10 0 14 -9l41 -109q1 -2 1 -5q0 -15 -15 -15z" />
    <glyph glyph-name="eacute" unicode="&#xe9;" horiz-adv-x="296" 
d="M219 329q0 22 -15.5 30t-29.5 8q-24 0 -45 -18t-36.5 -43.5t-26 -53t-15.5 -47.5q34 2 64.5 13.5t55.5 31.5q22 18 35 39.5t13 39.5zM296 232q3 10 14 10q6 0 10.5 -4t4.5 -11q0 -3 -1 -5q-14 -36 -32.5 -75.5t-44.5 -72t-60.5 -53.5t-80.5 -21q-31 0 -54.5 10.5
t-39 28.5t-23 42.5t-7.5 52.5q0 38 13.5 84t38 85.5t59 66.5t77.5 27q31 0 55 -16t24 -50q0 -26 -16 -53.5t-43 -50.5q-29 -24 -66.5 -37.5t-78.5 -14.5q-2 -12 -3 -23.5t-1 -21.5q0 -17 2.5 -34.5t9.5 -32t20 -24t33 -9.5q39 0 69.5 20t53.5 50t39.5 65.5t27.5 66.5z
M169 426q-15 0 -15 15q0 3 1 5l41 109q4 9 14 9q14 0 19 -9.5t5 -20.5t-5 -29.5t-13.5 -36t-20.5 -30t-26 -12.5z" />
    <glyph glyph-name="ecircumflex" unicode="&#xea;" horiz-adv-x="296" 
d="M219 329q0 22 -15.5 30t-29.5 8q-24 0 -45 -18t-36.5 -43.5t-26 -53t-15.5 -47.5q34 2 64.5 13.5t55.5 31.5q22 18 35 39.5t13 39.5zM296 232q3 10 14 10q6 0 10.5 -4t4.5 -11q0 -3 -1 -5q-14 -36 -32.5 -75.5t-44.5 -72t-60.5 -53.5t-80.5 -21q-31 0 -54.5 10.5
t-39 28.5t-23 42.5t-7.5 52.5q0 38 13.5 84t38 85.5t59 66.5t77.5 27q31 0 55 -16t24 -50q0 -26 -16 -53.5t-43 -50.5q-29 -24 -66.5 -37.5t-78.5 -14.5q-2 -12 -3 -23.5t-1 -21.5q0 -17 2.5 -34.5t9.5 -32t20 -24t33 -9.5q39 0 69.5 20t53.5 50t39.5 65.5t27.5 66.5z
M231 544q5 -9 9.5 -23t6 -29t0.5 -29t-7 -23q-8 -14 -23 -14q-13 0 -15 13l-10 72l-52 -71q-4 -6 -12 -6q-6 0 -9 3q-5 4 -5.5 10t2.5 11q11 15 19.5 27t17 23t17.5 23t20 27q5 6 12 6q5 0 13 -3.5t16 -16.5z" />
    <glyph glyph-name="edieresis" unicode="&#xeb;" horiz-adv-x="296" 
d="M219 329q0 22 -15.5 30t-29.5 8q-24 0 -45 -18t-36.5 -43.5t-26 -53t-15.5 -47.5q34 2 64.5 13.5t55.5 31.5q22 18 35 39.5t13 39.5zM296 232q3 10 14 10q6 0 10.5 -4t4.5 -11q0 -3 -1 -5q-14 -36 -32.5 -75.5t-44.5 -72t-60.5 -53.5t-80.5 -21q-31 0 -54.5 10.5
t-39 28.5t-23 42.5t-7.5 52.5q0 38 13.5 84t38 85.5t59 66.5t77.5 27q31 0 55 -16t24 -50q0 -26 -16 -53.5t-43 -50.5q-29 -24 -66.5 -37.5t-78.5 -14.5q-2 -12 -3 -23.5t-1 -21.5q0 -17 2.5 -34.5t9.5 -32t20 -24t33 -9.5q39 0 69.5 20t53.5 50t39.5 65.5t27.5 66.5z
M235 453q0 -11 -8 -19t-19 -8t-18.5 8t-7.5 19t7.5 18.5t18.5 7.5t19 -7.5t8 -18.5zM155 453q0 -11 -8 -19t-19 -8t-18.5 8t-7.5 19t7.5 18.5t18.5 7.5t19 -7.5t8 -18.5z" />
    <glyph glyph-name="igrave" unicode="&#xec;" horiz-adv-x="156" 
d="M43 0q-18 0 -29 13t-16.5 31.5t-7 38.5t-1.5 33q0 11 2 35.5t6 55.5t10.5 64t16 60.5t21.5 45t28 17.5q8 0 11 -5.5t3 -12.5l-3 -14t-7.5 -37t-9.5 -52.5t-10 -60.5q-5 -32 -10.5 -70.5t-5.5 -70.5q0 -19 1.5 -28t3.5 -12q3 1 8 5.5t13.5 15t19.5 29t25 47.5
q10 20 18 38.5t13 32.5q7 17 13 33q3 10 14 10q6 0 10.5 -4t4.5 -11q0 -4 -6.5 -20.5t-14.5 -35.5t-15.5 -35.5t-9.5 -20.5q-25 -50 -43 -75q-28 -40 -53 -40zM72 426q-14 0 -26 12.5t-20.5 30t-13.5 36t-5 29.5t5 20.5t19 9.5q10 0 14 -9l41 -109q1 -2 1 -5q0 -15 -15 -15z
" />
    <glyph glyph-name="iacute" unicode="&#xed;" horiz-adv-x="156" 
d="M43 0q-18 0 -29 13t-16.5 31.5t-7 38.5t-1.5 33q0 11 2 35.5t6 55.5t10.5 64t16 60.5t21.5 45t28 17.5q8 0 11 -5.5t3 -12.5l-3 -14t-7.5 -37t-9.5 -52.5t-10 -60.5q-5 -32 -10.5 -70.5t-5.5 -70.5q0 -19 1.5 -28t3.5 -12q3 1 8 5.5t13.5 15t19.5 29t25 47.5
q10 20 18 38.5t13 32.5q7 17 13 33q3 10 14 10q6 0 10.5 -4t4.5 -11q0 -4 -6.5 -20.5t-14.5 -35.5t-15.5 -35.5t-9.5 -20.5q-25 -50 -43 -75q-28 -40 -53 -40zM72 426q-15 0 -15 15q0 3 1 5l41 109q4 9 14 9q14 0 19 -9.5t5 -20.5t-5 -29.5t-13.5 -36t-20.5 -30t-26 -12.5z
" />
    <glyph glyph-name="icircumflex" unicode="&#xee;" horiz-adv-x="156" 
d="M43 0q-18 0 -29 13t-16.5 31.5t-7 38.5t-1.5 33q0 11 2 35.5t6 55.5t10.5 64t16 60.5t21.5 45t28 17.5q8 0 11 -5.5t3 -12.5l-3 -14t-7.5 -37t-9.5 -52.5t-10 -60.5q-5 -32 -10.5 -70.5t-5.5 -70.5q0 -19 1.5 -28t3.5 -12q3 1 8 5.5t13.5 15t19.5 29t25 47.5
q10 20 18 38.5t13 32.5q7 17 13 33q3 10 14 10q6 0 10.5 -4t4.5 -11q0 -4 -6.5 -20.5t-14.5 -35.5t-15.5 -35.5t-9.5 -20.5q-25 -50 -43 -75q-28 -40 -53 -40zM134 544q5 -9 9.5 -23t6 -29t0.5 -29t-7 -23q-8 -14 -23 -14q-13 0 -15 13l-10 72l-52 -71q-4 -6 -12 -6
q-6 0 -9 3q-5 4 -5.5 10t2.5 11q11 15 19.5 27t17 23t17.5 23t20 27q5 6 12 6q5 0 13 -3.5t16 -16.5z" />
    <glyph glyph-name="idieresis" unicode="&#xef;" horiz-adv-x="156" 
d="M43 0q-18 0 -29 13t-16.5 31.5t-7 38.5t-1.5 33q0 11 2 35.5t6 55.5t10.5 64t16 60.5t21.5 45t28 17.5q8 0 11 -5.5t3 -12.5l-3 -14t-7.5 -37t-9.5 -52.5t-10 -60.5q-5 -32 -10.5 -70.5t-5.5 -70.5q0 -19 1.5 -28t3.5 -12q3 1 8 5.5t13.5 15t19.5 29t25 47.5
q10 20 18 38.5t13 32.5q7 17 13 33q3 10 14 10q6 0 10.5 -4t4.5 -11q0 -4 -6.5 -20.5t-14.5 -35.5t-15.5 -35.5t-9.5 -20.5q-25 -50 -43 -75q-28 -40 -53 -40zM138 453q0 -11 -8 -19t-19 -8t-18.5 8t-7.5 19t7.5 18.5t18.5 7.5t19 -7.5t8 -18.5zM58 453q0 -11 -8 -19t-19 -8
t-18.5 8t-7.5 19t7.5 18.5t18.5 7.5t19 -7.5t8 -18.5z" />
    <glyph glyph-name="eth" unicode="&#xf0;" horiz-adv-x="408" 
d="M368 683q3 2 8 2q9 0 13 -7q3 -5 2 -11t-7 -9l-58 -37q20 -36 27 -79.5t7 -83.5q0 -32 -3.5 -71.5t-11 -82.5t-20 -85.5t-30.5 -80.5q35 12 67 34.5t46 59.5q3 10 14 10q6 0 10.5 -4t4.5 -11q0 -3 -1 -5q-10 -25 -26.5 -44t-37 -33.5t-44.5 -24.5t-48 -17q-2 -1 -5 -1
q-28 -45 -67.5 -73.5t-93.5 -28.5q-55 0 -92.5 30.5t-37.5 88.5q0 20 5 40.5t15 38.5q-4 15 -4 35q0 29 11 58.5t32 53t50.5 38t66.5 14.5q30 0 52 -10t36.5 -26.5t22.5 -38t11 -44.5q13 62 18.5 117.5t5.5 87.5q0 25 -3 56t-14 59l-56 -36q-3 -3 -8 -3q-8 0 -13 7
q-3 5 -1.5 11.5t6.5 9.5l60 38q-12 20 -31 32.5t-46 12.5q-6 -1 -10.5 3.5t-4.5 11.5q0 6 4.5 10.5t10.5 4.5q38 0 65 -14.5t46 -39.5zM44 113q0 -34 17.5 -58.5t54.5 -24.5q35 0 61 23t43 56t25.5 70t8.5 65q0 19 -3.5 40.5t-13 40t-25.5 30.5t-40 12q-21 0 -38 -9
t-30.5 -23.5t-22.5 -33.5t-14 -40q14 7 33 7q6 0 10.5 -4.5t4.5 -10.5t-4.5 -10.5t-10.5 -4.5q-15 0 -25.5 -15.5t-17 -36t-10 -41.5t-3.5 -32z" />
    <glyph glyph-name="ntilde" unicode="&#xf1;" horiz-adv-x="370" 
d="M326 128q10 20 18 38.5t13 32.5q7 17 13 33q3 10 14 10q6 0 10.5 -4t4.5 -11q0 -4 -6.5 -20.5t-14.5 -35.5t-15.5 -35.5t-9.5 -20.5q-25 -50 -43 -75q-28 -40 -53 -40t-34 20t-9 41q0 20 4 46.5t9 59.5q5 29 9.5 59.5t4.5 55.5q0 8 -0.5 17.5t-2.5 18t-7 14.5t-13 6
q-13 0 -29 -19.5t-32.5 -50.5t-32 -68.5t-29 -73.5t-23.5 -66.5t-14 -45.5q0 -8 -6 -11t-12 -3q-17 2 -27 15.5t-15.5 31.5t-7 37t-1.5 32q0 11 2 35.5t6 55.5t10.5 64t16 60.5t21.5 45t28 17.5q14 0 14 -14v-4l-3 -14t-7.5 -37t-9.5 -52.5t-10 -60.5q-6 -38 -11 -75t-5 -75
q22 63 45.5 126t57.5 120q19 31 37 45.5t43 14.5q20 0 34 -9t22.5 -24t12.5 -35t4 -42q0 -35 -7 -75t-15 -76q-4 -19 -8.5 -39t-6.5 -37q3 1 8 5.5t13.5 15t19.5 29t25 47.5zM270 400q-13 0 -26.5 3t-27.5 6q-9 2 -19.5 5.5t-17.5 3.5q-5 0 -5 -3q0 -6 -4.5 -10.5
t-10.5 -4.5t-10.5 4.5t-4.5 10.5q0 23 14 34.5t36 11.5q12 0 25 -2.5t27 -5.5q3 -1 16 -4.5t22 -3.5q7 0 7 4q0 6 4.5 10.5t10.5 4.5t10.5 -4.5t4.5 -10.5q0 -25 -13.5 -37t-37.5 -12z" />
    <glyph glyph-name="ograve" unicode="&#xf2;" horiz-adv-x="343" 
d="M371 222q-16 -41 -47 -66.5t-69 -42.5q-10 -23 -24.5 -43.5t-33 -36t-41 -24.5t-49.5 -9q-25 0 -47.5 8.5t-39 24t-26.5 37.5t-10 49q0 20 5 40.5t15 38.5q-4 15 -4 35q0 29 11 58.5t32 53t50.5 38t66.5 14.5q36 0 60 -14t38.5 -36t20 -49.5t5.5 -53.5q0 -42 -14 -90
q24 13 43 32.5t30 45.5q3 10 14 10q6 0 10.5 -4t4.5 -11q0 -3 -1 -5zM100 268q6 0 10.5 -4.5t4.5 -10.5t-4.5 -10.5t-10.5 -4.5q-11 0 -20.5 -10t-16.5 -25q5 -32 25.5 -55t65.5 -23q15 0 36 3t43 11q11 27 16 55t5 50q0 19 -3.5 40.5t-13 40t-25.5 30.5t-40 12
q-21 0 -38 -9t-30.5 -23.5t-22.5 -33.5t-14 -40q14 7 33 7zM153 95q-32 0 -60 10t-48 28q-1 -6 -1 -10.5v-9.5q0 -15 4 -29.5t12.5 -26.5t22 -19.5t33.5 -7.5q33 0 58 20.5t42 51.5q-17 -4 -33.5 -5.5t-29.5 -1.5zM178 426q-14 0 -26 12.5t-20.5 30t-13.5 36t-5 29.5t5 20.5
t19 9.5q10 0 14 -9l41 -109q1 -2 1 -5q0 -15 -15 -15z" />
    <glyph glyph-name="oacute" unicode="&#xf3;" horiz-adv-x="343" 
d="M371 222q-16 -41 -47 -66.5t-69 -42.5q-10 -23 -24.5 -43.5t-33 -36t-41 -24.5t-49.5 -9q-25 0 -47.5 8.5t-39 24t-26.5 37.5t-10 49q0 20 5 40.5t15 38.5q-4 15 -4 35q0 29 11 58.5t32 53t50.5 38t66.5 14.5q36 0 60 -14t38.5 -36t20 -49.5t5.5 -53.5q0 -42 -14 -90
q24 13 43 32.5t30 45.5q3 10 14 10q6 0 10.5 -4t4.5 -11q0 -3 -1 -5zM100 268q6 0 10.5 -4.5t4.5 -10.5t-4.5 -10.5t-10.5 -4.5q-11 0 -20.5 -10t-16.5 -25q5 -32 25.5 -55t65.5 -23q15 0 36 3t43 11q11 27 16 55t5 50q0 19 -3.5 40.5t-13 40t-25.5 30.5t-40 12
q-21 0 -38 -9t-30.5 -23.5t-22.5 -33.5t-14 -40q14 7 33 7zM153 95q-32 0 -60 10t-48 28q-1 -6 -1 -10.5v-9.5q0 -15 4 -29.5t12.5 -26.5t22 -19.5t33.5 -7.5q33 0 58 20.5t42 51.5q-17 -4 -33.5 -5.5t-29.5 -1.5zM178 426q-15 0 -15 15q0 3 1 5l41 109q4 9 14 9
q14 0 19 -9.5t5 -20.5t-5 -29.5t-13.5 -36t-20.5 -30t-26 -12.5z" />
    <glyph glyph-name="ocircumflex" unicode="&#xf4;" horiz-adv-x="343" 
d="M371 222q-16 -41 -47 -66.5t-69 -42.5q-10 -23 -24.5 -43.5t-33 -36t-41 -24.5t-49.5 -9q-25 0 -47.5 8.5t-39 24t-26.5 37.5t-10 49q0 20 5 40.5t15 38.5q-4 15 -4 35q0 29 11 58.5t32 53t50.5 38t66.5 14.5q36 0 60 -14t38.5 -36t20 -49.5t5.5 -53.5q0 -42 -14 -90
q24 13 43 32.5t30 45.5q3 10 14 10q6 0 10.5 -4t4.5 -11q0 -3 -1 -5zM100 268q6 0 10.5 -4.5t4.5 -10.5t-4.5 -10.5t-10.5 -4.5q-11 0 -20.5 -10t-16.5 -25q5 -32 25.5 -55t65.5 -23q15 0 36 3t43 11q11 27 16 55t5 50q0 19 -3.5 40.5t-13 40t-25.5 30.5t-40 12
q-21 0 -38 -9t-30.5 -23.5t-22.5 -33.5t-14 -40q14 7 33 7zM153 95q-32 0 -60 10t-48 28q-1 -6 -1 -10.5v-9.5q0 -15 4 -29.5t12.5 -26.5t22 -19.5t33.5 -7.5q33 0 58 20.5t42 51.5q-17 -4 -33.5 -5.5t-29.5 -1.5zM240 544q5 -9 9.5 -23t6 -29t0.5 -29t-7 -23
q-8 -14 -23 -14q-13 0 -15 13l-10 72l-52 -71q-4 -6 -12 -6q-6 0 -9 3q-5 4 -5.5 10t2.5 11q11 15 19.5 27t17 23t17.5 23t20 27q5 6 12 6q5 0 13 -3.5t16 -16.5z" />
    <glyph glyph-name="otilde" unicode="&#xf5;" horiz-adv-x="343" 
d="M371 222q-16 -41 -47 -66.5t-69 -42.5q-10 -23 -24.5 -43.5t-33 -36t-41 -24.5t-49.5 -9q-25 0 -47.5 8.5t-39 24t-26.5 37.5t-10 49q0 20 5 40.5t15 38.5q-4 15 -4 35q0 29 11 58.5t32 53t50.5 38t66.5 14.5q36 0 60 -14t38.5 -36t20 -49.5t5.5 -53.5q0 -42 -14 -90
q24 13 43 32.5t30 45.5q3 10 14 10q6 0 10.5 -4t4.5 -11q0 -3 -1 -5zM100 268q6 0 10.5 -4.5t4.5 -10.5t-4.5 -10.5t-10.5 -4.5q-11 0 -20.5 -10t-16.5 -25q5 -32 25.5 -55t65.5 -23q15 0 36 3t43 11q11 27 16 55t5 50q0 19 -3.5 40.5t-13 40t-25.5 30.5t-40 12
q-21 0 -38 -9t-30.5 -23.5t-22.5 -33.5t-14 -40q14 7 33 7zM153 95q-32 0 -60 10t-48 28q-1 -6 -1 -10.5v-9.5q0 -15 4 -29.5t12.5 -26.5t22 -19.5t33.5 -7.5q33 0 58 20.5t42 51.5q-17 -4 -33.5 -5.5t-29.5 -1.5zM222 426q-13 0 -26.5 3t-27.5 6q-9 2 -19.5 5.5t-17.5 3.5
q-5 0 -5 -3q0 -6 -4.5 -10.5t-10.5 -4.5t-10.5 4.5t-4.5 10.5q0 23 14 34.5t36 11.5q12 0 25 -2.5t27 -5.5q3 -1 16 -4.5t22 -3.5q7 0 7 4q0 6 4.5 10.5t10.5 4.5t10.5 -4.5t4.5 -10.5q0 -25 -13.5 -37t-37.5 -12z" />
    <glyph glyph-name="odieresis" unicode="&#xf6;" horiz-adv-x="343" 
d="M371 222q-16 -41 -47 -66.5t-69 -42.5q-10 -23 -24.5 -43.5t-33 -36t-41 -24.5t-49.5 -9q-25 0 -47.5 8.5t-39 24t-26.5 37.5t-10 49q0 20 5 40.5t15 38.5q-4 15 -4 35q0 29 11 58.5t32 53t50.5 38t66.5 14.5q36 0 60 -14t38.5 -36t20 -49.5t5.5 -53.5q0 -42 -14 -90
q24 13 43 32.5t30 45.5q3 10 14 10q6 0 10.5 -4t4.5 -11q0 -3 -1 -5zM100 268q6 0 10.5 -4.5t4.5 -10.5t-4.5 -10.5t-10.5 -4.5q-11 0 -20.5 -10t-16.5 -25q5 -32 25.5 -55t65.5 -23q15 0 36 3t43 11q11 27 16 55t5 50q0 19 -3.5 40.5t-13 40t-25.5 30.5t-40 12
q-21 0 -38 -9t-30.5 -23.5t-22.5 -33.5t-14 -40q14 7 33 7zM153 95q-32 0 -60 10t-48 28q-1 -6 -1 -10.5v-9.5q0 -15 4 -29.5t12.5 -26.5t22 -19.5t33.5 -7.5q33 0 58 20.5t42 51.5q-17 -4 -33.5 -5.5t-29.5 -1.5zM244 453q0 -11 -8 -19t-19 -8t-18.5 8t-7.5 19t7.5 18.5
t18.5 7.5t19 -7.5t8 -18.5zM164 453q0 -11 -8 -19t-19 -8t-18.5 8t-7.5 19t7.5 18.5t18.5 7.5t19 -7.5t8 -18.5z" />
    <glyph glyph-name="oslash" unicode="&#xf8;" horiz-adv-x="343" 
d="M67 -30q0 3 1 5l8 28q-40 9 -66 39.5t-26 76.5q0 20 5 40.5t15 38.5q-4 15 -4 35q0 29 11 58.5t32 53t50.5 38t66.5 14.5q6 0 11.5 -0.5t10.5 -1.5l8 30q1 4 5 6.5t9 2.5q11 1 15 -8.5t4 -20.5q0 -5 -3 -22q37 -20 50.5 -59.5t13.5 -79.5q0 -42 -14 -90q24 13 43 32.5
t30 45.5q3 10 14 10q6 0 10.5 -4t4.5 -11q0 -3 -1 -5q-16 -41 -47 -66.5t-69 -42.5q-20 -44 -55.5 -77.5t-86.5 -35.5q-9 -20 -16.5 -32t-12.5 -12q-17 0 -17 14zM115 253q0 -6 -4.5 -10.5t-10.5 -4.5q-11 0 -20.5 -10t-16.5 -25q3 -23 14.5 -41.5t33.5 -28.5l63 234
q-22 0 -40 -9t-31.5 -24t-22 -34t-13.5 -39q14 7 33 7q6 0 10.5 -4.5t4.5 -10.5zM155 125q15 0 35.5 3t42.5 11q11 27 16 55t5 50q0 14 -2 30t-6.5 31t-12 27.5t-19.5 21.5q-5 -21 -11.5 -48t-14 -57t-16 -62t-17.5 -62zM124 30q30 3 52.5 23t39.5 49q-32 -7 -70 -7
q-6 -17 -11.5 -33.5zM45 133q-1 -6 -1 -10.5v-9.5q0 -23 9 -44.5t32 -32.5l17 66q-31 9 -57 31z" />
    <glyph glyph-name="ugrave" unicode="&#xf9;" horiz-adv-x="367" 
d="M-7 151q0 12 2 34.5t7 49.5t12.5 55t17.5 51.5t23.5 38t30.5 14.5q6 0 10.5 -4.5t4.5 -10.5q0 -3 -1 -5q-10 -27 -19.5 -59.5t-17 -66.5t-12.5 -67.5t-5 -63.5q0 -12 1 -27.5t5 -28.5t13 -22t24 -9t29 12t26.5 31.5t23.5 43.5t20 47.5t15 44.5t10 34v2l8 40t14 49t21 42
t28 18q14 0 14 -14v-4l-3 -14t-7.5 -37t-9.5 -52.5t-10 -60.5q-5 -32 -10.5 -70.5t-5.5 -70.5q0 -19 1.5 -28t3.5 -12q3 1 8 5.5t13.5 15t19.5 29t25 47.5q10 20 18 38.5t13 32.5q7 17 13 33q3 10 14 10q6 0 10.5 -4t4.5 -11q0 -4 -6.5 -20.5t-14.5 -35.5t-15.5 -35.5
t-9.5 -20.5q-25 -50 -43 -75q-28 -40 -53 -40q-18 0 -29 13t-16.5 31.5t-7 38t-1.5 32.5q-26 -58 -52.5 -86.5t-63.5 -28.5q-28 0 -45.5 14.5t-27.5 36.5t-14 48.5t-4 51.5zM175 426q-14 0 -26 12.5t-20.5 30t-13.5 36t-5 29.5t5 20.5t19 9.5q10 0 14 -9l41 -109q1 -2 1 -5
q0 -15 -15 -15z" />
    <glyph glyph-name="uacute" unicode="&#xfa;" horiz-adv-x="367" 
d="M-7 151q0 12 2 34.5t7 49.5t12.5 55t17.5 51.5t23.5 38t30.5 14.5q6 0 10.5 -4.5t4.5 -10.5q0 -3 -1 -5q-10 -27 -19.5 -59.5t-17 -66.5t-12.5 -67.5t-5 -63.5q0 -12 1 -27.5t5 -28.5t13 -22t24 -9t29 12t26.5 31.5t23.5 43.5t20 47.5t15 44.5t10 34v2l8 40t14 49t21 42
t28 18q14 0 14 -14v-4l-3 -14t-7.5 -37t-9.5 -52.5t-10 -60.5q-5 -32 -10.5 -70.5t-5.5 -70.5q0 -19 1.5 -28t3.5 -12q3 1 8 5.5t13.5 15t19.5 29t25 47.5q10 20 18 38.5t13 32.5q7 17 13 33q3 10 14 10q6 0 10.5 -4t4.5 -11q0 -4 -6.5 -20.5t-14.5 -35.5t-15.5 -35.5
t-9.5 -20.5q-25 -50 -43 -75q-28 -40 -53 -40q-18 0 -29 13t-16.5 31.5t-7 38t-1.5 32.5q-26 -58 -52.5 -86.5t-63.5 -28.5q-28 0 -45.5 14.5t-27.5 36.5t-14 48.5t-4 51.5zM175 426q-15 0 -15 15q0 3 1 5l41 109q4 9 14 9q14 0 19 -9.5t5 -20.5t-5 -29.5t-13.5 -36
t-20.5 -30t-26 -12.5z" />
    <glyph glyph-name="ucircumflex" unicode="&#xfb;" horiz-adv-x="367" 
d="M-7 151q0 12 2 34.5t7 49.5t12.5 55t17.5 51.5t23.5 38t30.5 14.5q6 0 10.5 -4.5t4.5 -10.5q0 -3 -1 -5q-10 -27 -19.5 -59.5t-17 -66.5t-12.5 -67.5t-5 -63.5q0 -12 1 -27.5t5 -28.5t13 -22t24 -9t29 12t26.5 31.5t23.5 43.5t20 47.5t15 44.5t10 34v2l8 40t14 49t21 42
t28 18q14 0 14 -14v-4l-3 -14t-7.5 -37t-9.5 -52.5t-10 -60.5q-5 -32 -10.5 -70.5t-5.5 -70.5q0 -19 1.5 -28t3.5 -12q3 1 8 5.5t13.5 15t19.5 29t25 47.5q10 20 18 38.5t13 32.5q7 17 13 33q3 10 14 10q6 0 10.5 -4t4.5 -11q0 -4 -6.5 -20.5t-14.5 -35.5t-15.5 -35.5
t-9.5 -20.5q-25 -50 -43 -75q-28 -40 -53 -40q-18 0 -29 13t-16.5 31.5t-7 38t-1.5 32.5q-26 -58 -52.5 -86.5t-63.5 -28.5q-28 0 -45.5 14.5t-27.5 36.5t-14 48.5t-4 51.5zM237 544q5 -9 9.5 -23t6 -29t0.5 -29t-7 -23q-8 -14 -23 -14q-13 0 -15 13l-10 72l-52 -71
q-4 -6 -12 -6q-6 0 -9 3q-5 4 -5.5 10t2.5 11q11 15 19.5 27t17 23t17.5 23t20 27q5 6 12 6q5 0 13 -3.5t16 -16.5z" />
    <glyph glyph-name="udieresis" unicode="&#xfc;" horiz-adv-x="367" 
d="M-7 151q0 12 2 34.5t7 49.5t12.5 55t17.5 51.5t23.5 38t30.5 14.5q6 0 10.5 -4.5t4.5 -10.5q0 -3 -1 -5q-10 -27 -19.5 -59.5t-17 -66.5t-12.5 -67.5t-5 -63.5q0 -12 1 -27.5t5 -28.5t13 -22t24 -9t29 12t26.5 31.5t23.5 43.5t20 47.5t15 44.5t10 34v2l8 40t14 49t21 42
t28 18q14 0 14 -14v-4l-3 -14t-7.5 -37t-9.5 -52.5t-10 -60.5q-5 -32 -10.5 -70.5t-5.5 -70.5q0 -19 1.5 -28t3.5 -12q3 1 8 5.5t13.5 15t19.5 29t25 47.5q10 20 18 38.5t13 32.5q7 17 13 33q3 10 14 10q6 0 10.5 -4t4.5 -11q0 -4 -6.5 -20.5t-14.5 -35.5t-15.5 -35.5
t-9.5 -20.5q-25 -50 -43 -75q-28 -40 -53 -40q-18 0 -29 13t-16.5 31.5t-7 38t-1.5 32.5q-26 -58 -52.5 -86.5t-63.5 -28.5q-28 0 -45.5 14.5t-27.5 36.5t-14 48.5t-4 51.5zM241 453q0 -11 -8 -19t-19 -8t-18.5 8t-7.5 19t7.5 18.5t18.5 7.5t19 -7.5t8 -18.5zM161 453
q0 -11 -8 -19t-19 -8t-18.5 8t-7.5 19t7.5 18.5t18.5 7.5t19 -7.5t8 -18.5z" />
    <glyph glyph-name="yacute" unicode="&#xfd;" horiz-adv-x="321" 
d="M67 1q32 15 61.5 19.5t52.5 4.5q7 26 11 52.5t7 52.5q-25 -46 -51 -68t-61 -22q-28 0 -46 13t-28 32.5t-14 44t-4 46.5q0 18 5.5 54t16.5 72.5t29 64t42 27.5q6 0 10.5 -4.5t4.5 -10.5q0 -3 -1 -5q-9 -23 -19 -52t-17.5 -59.5t-12.5 -60t-5 -55.5q0 -11 1 -24.5t5.5 -25
t13 -19.5t24.5 -8q21 0 39.5 19t34.5 45.5t27.5 54t18.5 45.5q6 64 8.5 106t2.5 43q0 7 4.5 11t10.5 4q4 0 9.5 -2.5t10.5 -13.5q4 -9 6.5 -21.5t3.5 -26t1 -26.5v-22q0 -60 -8 -132.5t-23 -138.5q25 -8 36 -18q7 -5 7 -13q0 -5 -5 -10t-10 -5q-4 0 -9 3q-1 1 -7 4.5
t-19 8.5q-6 -32 -20.5 -72.5t-37.5 -76.5t-54 -61t-70 -25q-42 0 -64.5 24.5t-22.5 64.5q0 25 8 49t22.5 45.5t33.5 39t41 28.5zM49 -220q24 0 43.5 20.5t35 52t27.5 69.5t20 73q-33 0 -66 -11t-59 -31.5t-42 -49.5t-16 -66q0 -27 14 -42t43 -15zM162 426q-15 0 -15 15
q0 3 1 5l41 109q4 9 14 9q14 0 19 -9.5t5 -20.5t-5 -29.5t-13.5 -36t-20.5 -30t-26 -12.5z" />
    <glyph glyph-name="thorn" unicode="&#xfe;" horiz-adv-x="296" 
d="M7 626q9 30 18 49q4 8 11 16.5t18 8.5q6 0 10 -4.5t4 -10.5v-3l-5 -27.5l-13 -71.5t-18 -101t-19 -117q-4 -25 -7.5 -47.5t-6.5 -44.5q8 20 21 41.5t29.5 40t37 30.5t43.5 12q29 0 49 -11t33 -29.5t18.5 -42t5.5 -49.5q0 -50 -22 -114q27 14 49 33t33 48q3 10 14 10
q6 0 10.5 -4t4.5 -11q0 -3 -1 -5q-17 -42 -50.5 -68t-74.5 -41q-11 -23 -25 -43.5t-31 -36t-36.5 -24.5t-41.5 -9q-34 0 -56.5 21.5t-31.5 52.5q0 -2 -1.5 -22t-3 -49t-3.5 -62t-4 -62t-3 -48.5t-1 -21.5q0 -15 1 -22t2 -10q9 -4 9 -13q0 -6 -4.5 -10.5t-10.5 -4.5
q-20 0 -30 32t-12.5 85.5t1 123t11 145.5t18 152t21.5 142.5t21.5 118.5t18.5 78zM-18 136q-2 -16 -3 -30q36 1 79.5 5t85.5 15q8 21 14.5 43.5t11 43.5t6.5 38.5t2 28.5q0 12 -1.5 27t-6.5 28.5t-14 22.5t-24 9q-30 0 -54.5 -26t-43 -62t-32 -74.5t-20.5 -64.5v-4zM18 57
q6 -10 16.5 -18.5t25.5 -8.5q21 0 38.5 18t31.5 46q-31 -7 -62.5 -10.5t-60.5 -5.5q2 -5 4.5 -10.5t6.5 -10.5z" />
    <glyph glyph-name="ydieresis" unicode="&#xff;" horiz-adv-x="321" 
d="M67 1q32 15 61.5 19.5t52.5 4.5q7 26 11 52.5t7 52.5q-25 -46 -51 -68t-61 -22q-28 0 -46 13t-28 32.5t-14 44t-4 46.5q0 18 5.5 54t16.5 72.5t29 64t42 27.5q6 0 10.5 -4.5t4.5 -10.5q0 -3 -1 -5q-9 -23 -19 -52t-17.5 -59.5t-12.5 -60t-5 -55.5q0 -11 1 -24.5t5.5 -25
t13 -19.5t24.5 -8q21 0 39.5 19t34.5 45.5t27.5 54t18.5 45.5q6 64 8.5 106t2.5 43q0 7 4.5 11t10.5 4q4 0 9.5 -2.5t10.5 -13.5q4 -9 6.5 -21.5t3.5 -26t1 -26.5v-22q0 -60 -8 -132.5t-23 -138.5q25 -8 36 -18q7 -5 7 -13q0 -5 -5 -10t-10 -5q-4 0 -9 3q-1 1 -7 4.5
t-19 8.5q-6 -32 -20.5 -72.5t-37.5 -76.5t-54 -61t-70 -25q-42 0 -64.5 24.5t-22.5 64.5q0 25 8 49t22.5 45.5t33.5 39t41 28.5zM49 -220q24 0 43.5 20.5t35 52t27.5 69.5t20 73q-33 0 -66 -11t-59 -31.5t-42 -49.5t-16 -66q0 -27 14 -42t43 -15zM228 453q0 -11 -8 -19
t-19 -8t-18.5 8t-7.5 19t7.5 18.5t18.5 7.5t19 -7.5t8 -18.5zM148 453q0 -11 -8 -19t-19 -8t-18.5 8t-7.5 19t7.5 18.5t18.5 7.5t19 -7.5t8 -18.5z" />
    <glyph glyph-name="Abreve" unicode="&#x102;" horiz-adv-x="648" 
d="M498 252q2 12 4.5 24.5t4.5 25.5h-272q-15 -94 -21 -157q-3 -32 -4.5 -53t-1.5 -34t1 -19.5t2 -9.5q9 -4 9 -14q0 -6 -4.5 -10.5t-10.5 -4.5q-19 0 -29.5 16t-15.5 37.5t-6.5 44t-1.5 34.5q0 35 3.5 78.5t9.5 91.5h-36q-7 0 -11 4.5t-4 10.5q0 15 15 15h40q11 74 25 149
t39 146q13 37 25.5 53t26.5 16q7 0 12 -5.5t3 -12.5l-5 -26.5t-13 -70t-18 -99t-19 -114.5l-6 -36h273q8 51 14 101t6 93q0 36 -7 71.5t-29.5 63.5t-63.5 45t-110 17q-60 0 -113.5 -14t-93 -39.5t-62.5 -60.5t-23 -78q0 -38 18 -58.5t47 -20.5q7 0 11 -4.5t4 -10.5t-4 -10.5
t-11 -4.5q-43 0 -69 29t-26 80q0 50 26 90.5t71 70t106 45.5t132 16q79 0 130.5 -20t82 -54t42.5 -80t12 -99q0 -41 -5.5 -83t-14.5 -85h32q6 0 10.5 -4t4.5 -11q0 -6 -4.5 -10.5t-10.5 -4.5h-38q-7 -32 -14 -62.5t-14 -61.5q-8 -38 -17 -79.5t-9 -79.5q0 -9 0.5 -12.5
t0.5 -5.5q6 -1 10.5 -5t4.5 -10t-4.5 -10.5t-10.5 -4.5q-16 0 -26 8.5t-15.5 21.5t-7 29t-1.5 31q0 45 8 93.5t17 97.5zM403 769q-23 0 -43.5 12t-20.5 40q0 18 10 34.5t25 16.5t18.5 -10.5t3.5 -23.5q0 -14 1 -26.5t15 -12.5q17 0 24 19t7 38q0 6 4 11t10 5t11 -4t5 -10
q0 -16 -3.5 -32t-12 -29t-21.5 -20.5t-33 -7.5z" />
    <glyph glyph-name="abreve" unicode="&#x103;" 
d="M276 0q-20 0 -31.5 13.5t-17.5 32t-8 39t-2 34.5q-9 -19 -21.5 -40t-29 -38.5t-36 -29t-42.5 -11.5q-29 0 -49 11t-33 29.5t-18.5 42.5t-5.5 49q0 35 11.5 81t33.5 87t54 69t72 28q26 0 44 -12t31 -33q9 -15 12.5 -27t3.5 -13q1 -7 -2.5 -12.5t-11.5 -5.5q-12 0 -15 12
q-1 2 -4 12.5t-11 21.5q-6 10 -16.5 18.5t-25.5 8.5q-19 0 -35 -14.5t-29 -37.5t-23 -51.5t-17 -56.5t-10.5 -52t-3.5 -38q0 -12 1.5 -27t6.5 -28.5t14 -22.5t24 -9q31 0 55.5 26.5t43 63.5t31.5 76.5t20 64.5q21 80 54 80q14 0 14 -14v-4q0 -3 -2.5 -15t-6 -31t-7.5 -43
t-7 -51q-4 -31 -6.5 -56.5t-2.5 -45.5q0 -26 2.5 -37t4.5 -13q3 1 8 5.5t13.5 15t19.5 29t25 47.5q10 20 18 38.5t13 32.5q7 17 13 33q3 10 14 10q6 0 10.5 -4t4.5 -11q0 -4 -6.5 -20.5t-14.5 -35.5t-15.5 -35.5t-9.5 -20.5q-25 -50 -43 -75q-28 -40 -53 -40zM150 427
q-23 0 -43.5 12t-20.5 40q0 18 10 34.5t25 16.5t18.5 -10.5t3.5 -23.5q0 -14 1 -26.5t15 -12.5q17 0 24 19t7 38q0 6 4 11t10 5t11 -4t5 -10q0 -16 -3.5 -32t-12 -29t-21.5 -20.5t-33 -7.5z" />
    <glyph glyph-name="Aogonek" unicode="&#x104;" horiz-adv-x="649" 
d="M235 302q-15 -94 -21 -157q-3 -32 -4.5 -53t-1.5 -34t1 -19.5t2 -9.5q9 -4 9 -14q0 -6 -4.5 -10.5t-10.5 -4.5q-19 0 -29.5 16t-15.5 37.5t-6.5 44t-1.5 34.5q0 35 3.5 78.5t9.5 91.5h-36q-7 0 -11 4.5t-4 10.5q0 15 15 15h40q11 74 25 149t39 146q13 37 25.5 53t26.5 16
q7 0 12 -5.5t3 -12.5l-5 -26.5t-13 -70t-18 -99t-19 -114.5l-6 -36h273q8 51 14 101t6 93q0 36 -7 71.5t-29.5 63.5t-63.5 45t-110 17q-60 0 -113.5 -14t-93 -39.5t-62.5 -60.5t-23 -78q0 -38 18 -58.5t47 -20.5q7 0 11 -4.5t4 -10.5t-4 -10.5t-11 -4.5q-43 0 -69 29t-26 80
q0 50 26 90.5t71 70t106 45.5t132 16q79 0 130.5 -20t82 -54t42.5 -80t12 -99q0 -41 -5.5 -83t-14.5 -85h32q6 0 10.5 -4t4.5 -11q0 -6 -4.5 -10.5t-10.5 -4.5h-38q-7 -32 -14 -62.5t-14 -61.5q-8 -38 -17 -79.5t-9 -79.5q0 -9 0.5 -12.5t0.5 -5.5q6 -1 10.5 -5t4.5 -10
t-4.5 -10.5t-10.5 -4.5q-20 0 -31 13q-13 -13 -24.5 -32t-20.5 -40t-14.5 -41t-5.5 -35q0 -31 26 -31q14 0 24.5 7.5t17.5 16.5t10 16.5l3 7.5q3 10 16 10q14 0 14 -16q0 -3 -2.5 -8.5t-6.5 -11.5t-7 -11t-5 -7q-29 -34 -71 -34q-34 0 -54 22t-20 58q0 23 8.5 46t23 43.5
t33.5 38.5t40 31q-2 11 -3 23.5t-1 23.5q0 45 8 93.5t17 97.5q2 12 4.5 24.5t4.5 25.5h-272z" />
    <glyph glyph-name="aogonek" unicode="&#x105;" 
d="M264 2q-14 -12 -27 -31.5t-23 -42t-16 -44t-6 -37.5q0 -31 26 -31q14 0 24.5 7.5t17.5 16.5t10 16.5l3 7.5q3 10 16 10q14 0 14 -16q0 -3 -2.5 -8.5t-6.5 -11.5t-7 -11t-5 -7q-29 -34 -71 -34q-34 0 -54 22t-20 58q0 22 8 44.5t21.5 42.5t32 38t38.5 31q-6 10 -10 23
t-6.5 26.5t-3 26t-0.5 21.5q-9 -19 -21.5 -40t-29 -38.5t-36 -29t-42.5 -11.5q-29 0 -49 11t-33 29.5t-18.5 42.5t-5.5 49q0 35 11.5 81t33.5 87t54 69t72 28q26 0 44 -12t31 -33q9 -15 12.5 -27t3.5 -13q1 -7 -2.5 -12.5t-11.5 -5.5q-12 0 -15 12q-1 2 -4 12.5t-11 21.5
q-6 10 -16.5 18.5t-25.5 8.5q-19 0 -35 -14.5t-29 -37.5t-23 -51.5t-17 -56.5t-10.5 -52t-3.5 -38q0 -12 1.5 -27t6.5 -28.5t14 -22.5t24 -9q31 0 55.5 26.5t43 63.5t31.5 76.5t20 64.5q21 80 54 80q14 0 14 -14v-4q0 -3 -2.5 -15t-6 -31t-7.5 -43t-7 -51q-4 -31 -6.5 -56.5
t-2.5 -45.5q0 -21 1.5 -31.5t3.5 -15.5q2 -1 3 -2q3 2 8.5 6.5t13.5 15t19 28.5t24 46q10 20 18 38.5t13 32.5q7 17 13 33q3 10 14 10q6 0 10.5 -4t4.5 -11q0 -4 -6.5 -20.5t-14.5 -35.5t-15.5 -35.5t-9.5 -20.5q-25 -50 -43 -75q-28 -40 -53 -40q-6 0 -12 2z" />
    <glyph glyph-name="Cacute" unicode="&#x106;" horiz-adv-x="482" 
d="M356 451q25 0 43 12t30 31t17.5 42.5t5.5 45.5q0 28 -8 53.5t-24.5 45t-41 31t-56.5 11.5q-46 0 -82.5 -23.5t-64.5 -61t-48 -86t-32.5 -98.5t-18.5 -97.5t-6 -84.5q0 -29 5 -70.5t19 -79.5t41 -65t70 -27q76 0 151 86q14 17 25 32.5t18 28.5q9 14 15 27q5 9 14 9
q6 0 10.5 -4t4.5 -11q0 -4 -1 -6q-17 -35 -42 -69.5t-56.5 -61.5t-68.5 -44t-78 -17q-56 0 -93.5 28.5t-60.5 72t-33 95.5t-10 99q0 46 8.5 98t26 103t43.5 97.5t60.5 82t78 56.5t95.5 21q42 0 74 -14t53.5 -38t32 -55t10.5 -65q0 -29 -7.5 -57.5t-23.5 -51.5t-39.5 -37
t-55.5 -14q-7 0 -11 4.5t-4 10.5t4 10.5t11 4.5zM312 768q-15 0 -15 15q0 3 1 5l41 109q4 9 14 9q14 0 19 -9.5t5 -20.5t-5 -29.5t-13.5 -36t-20.5 -30t-26 -12.5z" />
    <glyph glyph-name="cacute" unicode="&#x107;" horiz-adv-x="295" 
d="M219 331q0 22 -15 30t-28 8q-28 0 -52.5 -28t-43 -67t-29 -82t-10.5 -73q0 -13 2.5 -28.5t9.5 -29t20 -22.5t33 -9q39 0 69.5 20t53.5 50t39.5 65.5t27.5 66.5q3 10 14 10q6 0 10.5 -4t4.5 -11q0 -3 -1 -5q-14 -36 -32.5 -75.5t-44.5 -72t-60.5 -53.5t-80.5 -21
q-31 0 -54.5 10.5t-39 28.5t-23 42.5t-7.5 52.5q0 38 13.5 84t38 85.5t59 66.5t77.5 27q31 0 55 -16t24 -50q0 -8 -4.5 -11.5t-10.5 -3.5q-5 0 -10 3.5t-5 11.5zM170 426q-15 0 -15 15q0 3 1 5l41 109q4 9 14 9q14 0 19 -9.5t5 -20.5t-5 -29.5t-13.5 -36t-20.5 -30
t-26 -12.5z" />
    <glyph glyph-name="Ccaron" unicode="&#x10c;" horiz-adv-x="482" 
d="M356 451q25 0 43 12t30 31t17.5 42.5t5.5 45.5q0 28 -8 53.5t-24.5 45t-41 31t-56.5 11.5q-46 0 -82.5 -23.5t-64.5 -61t-48 -86t-32.5 -98.5t-18.5 -97.5t-6 -84.5q0 -29 5 -70.5t19 -79.5t41 -65t70 -27q76 0 151 86q14 17 25 32.5t18 28.5q9 14 15 27q5 9 14 9
q6 0 10.5 -4t4.5 -11q0 -4 -1 -6q-17 -35 -42 -69.5t-56.5 -61.5t-68.5 -44t-78 -17q-56 0 -93.5 28.5t-60.5 72t-33 95.5t-10 99q0 46 8.5 98t26 103t43.5 97.5t60.5 82t78 56.5t95.5 21q42 0 74 -14t53.5 -38t32 -55t10.5 -65q0 -29 -7.5 -57.5t-23.5 -51.5t-39.5 -37
t-55.5 -14q-7 0 -11 4.5t-4 10.5t4 10.5t11 4.5zM282 788q-5 9 -9.5 23t-6 29t-0.5 29t7 23q8 14 23 14q13 0 15 -13l10 -72l52 71q5 6 12 6q6 0 9 -3q5 -4 5.5 -10t-2.5 -11q-11 -15 -19.5 -27t-17 -23t-17.5 -23t-20 -27q-4 -6 -12 -6q-5 0 -13 3.5t-16 16.5z" />
    <glyph glyph-name="ccaron" unicode="&#x10d;" horiz-adv-x="295" 
d="M219 331q0 22 -15 30t-28 8q-28 0 -52.5 -28t-43 -67t-29 -82t-10.5 -73q0 -13 2.5 -28.5t9.5 -29t20 -22.5t33 -9q39 0 69.5 20t53.5 50t39.5 65.5t27.5 66.5q3 10 14 10q6 0 10.5 -4t4.5 -11q0 -3 -1 -5q-14 -36 -32.5 -75.5t-44.5 -72t-60.5 -53.5t-80.5 -21
q-31 0 -54.5 10.5t-39 28.5t-23 42.5t-7.5 52.5q0 38 13.5 84t38 85.5t59 66.5t77.5 27q31 0 55 -16t24 -50q0 -8 -4.5 -11.5t-10.5 -3.5q-5 0 -10 3.5t-5 11.5zM140 446q-5 9 -9.5 23t-6 29t-0.5 29t7 23q8 14 23 14q13 0 15 -13l10 -72l52 71q5 6 12 6q6 0 9 -3
q5 -4 5.5 -10t-2.5 -11q-11 -15 -19.5 -27t-17 -23t-17.5 -23t-20 -27q-4 -6 -12 -6q-5 0 -13 3.5t-16 16.5z" />
    <glyph glyph-name="Dcaron" unicode="&#x10e;" horiz-adv-x="635" 
d="M534 419q0 144 -61.5 224t-193.5 80q-54 0 -100 -13.5t-79 -38t-51.5 -59t-18.5 -75.5q0 -42 18 -65t48 -23q6 0 10.5 -4.5t4.5 -10.5t-4.5 -10.5t-10.5 -4.5q-44 0 -70 31.5t-26 85.5q0 48 21.5 88t60 68.5t92.5 44.5t118 16q77 0 135.5 -23t97.5 -66.5t59 -106
t20 -141.5q0 -75 -16.5 -140.5t-48.5 -119.5q15 -18 22 -38q1 -2 1 -5q0 -6 -5 -10t-10 -4q-11 0 -15 10q-1 2 -3 5q-3 5 -9 12q-47 -66 -114 -103.5t-152 -37.5q-31 0 -61 6t-53.5 18.5t-38 33.5t-14.5 51q0 40 25.5 66.5t63.5 42.5q0 103 16.5 212t48.5 206q12 37 25 53
t27 16q7 0 12 -5.5t3 -12.5q-11 -63 -23.5 -132t-23.5 -141q-7 -45 -12.5 -88t-10.5 -85v-4q23 5 45 7t41 2q38 0 83.5 -8.5t83.5 -29.5q43 98 43 226zM250 15q74 0 131 39.5t95 108.5q-24 15 -59.5 26.5t-84.5 11.5q-20 0 -45.5 -2.5t-51.5 -8.5q-4 -42 -3 -58.5t3 -21.5
q9 -4 9 -14q0 -6 -4.5 -10.5t-10.5 -4.5q-13 0 -22 8.5t-15 21.5t-9 29t-5 31q-26 -13 -43.5 -31.5t-17.5 -45.5q0 -22 12.5 -37t31.5 -24.5t43 -13.5t46 -4zM382 788q-5 9 -9.5 23t-6 29t-0.5 29t7 23q8 14 23 14q13 0 15 -13l10 -72l52 71q5 6 12 6q6 0 9 -3q5 -4 5.5 -10
t-2.5 -11q-11 -15 -19.5 -27t-17 -23t-17.5 -23t-20 -27q-4 -6 -12 -6q-5 0 -13 3.5t-16 16.5z" />
    <glyph glyph-name="dcaron" unicode="&#x10f;" horiz-adv-x="489" 
d="M273 0q-16 0 -25 15t-13 35t-5 40t-1 31v27q-9 -22 -22 -48t-30.5 -48t-39.5 -37t-49 -15q-29 0 -49 11t-33 29.5t-18.5 42.5t-5.5 49q0 35 11.5 81t33.5 87t54 69t72 28q38 0 60.5 -25t30.5 -59q2 13 6.5 46.5t11.5 76t16.5 89t21 84.5t24.5 63t28 25q6 0 10 -5t4 -10
v-3l-5 -26.5t-12.5 -70t-17.5 -99t-19 -114.5q-21 -137 -30 -224q-3 -30 -4 -50t-1 -33q0 -12 0.5 -19t1.5 -10q13 7 29.5 33t31.5 57.5t27.5 62t18.5 46.5q3 10 14 10q6 0 10.5 -4.5t4.5 -10.5q0 -4 -1 -5q0 -1 -3.5 -10t-9.5 -24t-14.5 -34t-17.5 -39q-6 -12 -16 -31
t-22.5 -38t-27.5 -32.5t-30 -13.5zM238 264q1 10 2 19l2 18q-3 -7 -12 -7q-12 0 -15 12q-1 2 -4 12.5t-11 21.5q-6 10 -16.5 18.5t-25.5 8.5q-19 0 -35 -14.5t-29 -37.5t-23 -51.5t-17 -56.5t-10.5 -52t-3.5 -38q0 -12 1.5 -27t6.5 -28.5t14 -22.5t24 -9q20 0 38 12.5
t33.5 33t28 46.5t22.5 51.5t17.5 49t11.5 39.5zM447 473q-8 0 -12 2t-6 10v5l23 115q2 9 13 11q14 0 20 -6t8 -20q2 -11 0 -30t-7.5 -37.5t-15 -33t-23.5 -16.5z" />
    <glyph glyph-name="Dcroat" unicode="&#x110;" horiz-adv-x="635" 
d="M491 193q43 98 43 226q0 144 -61.5 224t-193.5 80q-54 0 -100 -13.5t-79 -38t-51.5 -59t-18.5 -75.5q0 -42 18 -65t48 -23q6 0 10.5 -4.5t4.5 -10.5t-4.5 -10.5t-10.5 -4.5q-44 0 -70 31.5t-26 85.5q0 48 21.5 88t60 68.5t92.5 44.5t118 16q77 0 135.5 -23t97.5 -66.5
t59 -106t20 -141.5q0 -75 -16.5 -140.5t-48.5 -119.5q15 -18 22 -38q1 -2 1 -5q0 -6 -5 -10t-10 -4q-11 0 -15 10q-1 2 -3 5q-3 5 -9 12q-47 -66 -114 -103.5t-152 -37.5q-31 0 -61 6t-53.5 18.5t-38 33.5t-14.5 51q0 40 25.5 66.5t63.5 42.5q0 33 1.5 67t5.5 69h-54
q-6 0 -10.5 4.5t-4.5 10.5t4.5 10.5t10.5 4.5h57q2 12 6 40t10.5 63.5t16 74t20.5 70.5t25 52.5t29 20.5q7 0 12 -5.5t3 -12.5q-11 -63 -23.5 -132t-23.5 -141q-2 -8 -2.5 -15t-1.5 -15h51q7 0 11 -4.5t4 -10.5t-4 -10.5t-11 -4.5h-56q-4 -29 -7.5 -57.5t-6.5 -55.5v-4
q23 5 45 7t41 2q38 0 83.5 -8.5t83.5 -29.5zM117 94q0 -22 12.5 -37t31.5 -24.5t43 -13.5t46 -4q74 0 131 39.5t95 108.5q-24 15 -59.5 26.5t-84.5 11.5q-20 0 -45.5 -2.5t-51.5 -8.5q-4 -42 -3 -58.5t3 -21.5q9 -4 9 -14q0 -6 -4.5 -10.5t-10.5 -4.5q-13 0 -22 8.5
t-15 21.5t-9 29t-5 31q-26 -13 -43.5 -31.5t-17.5 -45.5z" />
    <glyph glyph-name="dcroat" unicode="&#x111;" horiz-adv-x="386" 
d="M369 115q-6 -12 -16 -31t-22.5 -38t-27.5 -32.5t-30 -13.5q-16 0 -25 15t-13 35t-5 40t-1 31v27q-9 -22 -22 -48t-30.5 -48t-39.5 -37t-49 -15q-29 0 -49 11t-33 29.5t-18.5 42.5t-5.5 49q0 35 11.5 81t33.5 87t54 69t72 28q38 0 60.5 -25t30.5 -59q1 10 4 32.5t7.5 52.5
t11 65t13.5 69h-89q-6 0 -10.5 4.5t-4.5 10.5t4.5 10.5t10.5 4.5h96q7 28 14.5 52.5t15.5 43t17 29t18 10.5q6 0 10 -5t4 -10v-3q0 -1 -6 -33t-15 -84h25q7 0 11 -4.5t4 -10.5t-4 -10.5t-11 -4.5h-31q-6 -37 -13 -78.5t-14 -84.5q-21 -137 -30 -224q-3 -30 -4 -50t-1 -33
q0 -12 0.5 -19t1.5 -10q13 7 29.5 33t31.5 57.5t27.5 62t18.5 46.5q3 10 14 10q6 0 10.5 -4.5t4.5 -10.5q0 -4 -1 -5q0 -1 -3.5 -10t-9.5 -24t-14.5 -34t-17.5 -39zM237 262l1 2q1 10 2 19l2 18q-3 -7 -12 -7q-12 0 -15 12q-1 2 -4 12.5t-11 21.5q-6 10 -16.5 18.5
t-25.5 8.5q-19 0 -35 -14.5t-29 -37.5t-23 -51.5t-17 -56.5t-10.5 -52t-3.5 -38q0 -12 1.5 -27t6.5 -28.5t14 -22.5t24 -9q20 0 38 12.5t33.5 33t28 46.5t22.5 51.5t17.5 49t11.5 39.5z" />
    <glyph glyph-name="Eogonek" unicode="&#x118;" horiz-adv-x="500" 
d="M358 435q0 6 4.5 10.5t10.5 4.5q25 0 43.5 12t30.5 30.5t17.5 42t5.5 46.5q0 63 -39.5 102.5t-106.5 39.5q-41 0 -76 -16t-60.5 -44.5t-40 -67.5t-14.5 -85q0 -59 22.5 -94t59.5 -35q6 0 10.5 -4t4.5 -11q0 -6 -4.5 -10.5t-10.5 -4.5q-33 0 -59.5 -12t-45.5 -34.5
t-29.5 -53t-10.5 -68.5q0 -74 38.5 -113.5t102.5 -39.5q44 0 80 19q5 2 10 5q1 0 1 0.5t1 0.5q42 25 75.5 65t53.5 83q3 9 14 9q6 0 10.5 -4.5t4.5 -10.5q0 -2 -2 -6q-25 -48 -61.5 -93.5t-85.5 -71.5q-15 -10 -29 -30t-25 -43t-18 -46.5t-7 -40.5q0 -31 26 -31
q14 0 24.5 7.5t17.5 16.5t10 16.5l3 7.5q3 10 16 10q14 0 14 -16q0 -3 -2.5 -8.5t-6.5 -11.5t-7 -11t-5 -7q-29 -34 -71 -34q-34 0 -54 22t-20 58q0 31 15 61t39 56q-8 -1 -15.5 -1.5t-15.5 -0.5q-44 0 -81 12.5t-63.5 35.5t-41.5 55t-15 71q0 32 10 61.5t27 55t41.5 45
t52.5 31.5q-30 17 -49 58t-19 93q0 51 19 94t52 74.5t78 49t97 17.5q44 0 79 -12.5t60 -35.5t38.5 -54.5t13.5 -70.5q0 -29 -8 -57.5t-23.5 -51.5t-39.5 -37t-56 -14q-6 0 -10.5 4.5t-4.5 10.5z" />
    <glyph glyph-name="eogonek" unicode="&#x119;" horiz-adv-x="296" 
d="M310 242q6 0 10.5 -4t4.5 -11q0 -3 -1 -5q-9 -24 -21 -51.5t-27.5 -54t-34 -49t-41.5 -37.5q-2 -2 -5 -3.5t-5 -3.5q-14 -11 -27.5 -30.5t-24 -42t-16.5 -45t-6 -38.5q0 -31 26 -31q14 0 24.5 7.5t17.5 16.5t10 16.5l3 7.5q3 10 16 10q14 0 14 -16q0 -3 -2.5 -8.5
t-6.5 -11.5t-7 -11t-5 -7q-29 -34 -71 -34q-34 0 -54 22t-20 58q0 30 14 59.5t37 54.5q-63 0 -96.5 35.5t-33.5 98.5q0 38 13.5 84t38 85.5t59 66.5t77.5 27q31 0 55 -16t24 -50q0 -35 -20 -63.5t-50.5 -48.5t-66.5 -31.5t-67 -12.5q-2 -12 -3 -23.5t-1 -21.5
q0 -17 2.5 -34.5t9.5 -32t20 -24t33 -9.5q35 0 64 17q1 1 2 1.5t2 1.5q24 15 42.5 35.5t33 45t26 50.5t20.5 51q3 10 14 10zM174 367q-24 0 -45 -18t-36.5 -43.5t-26 -53t-15.5 -47.5q34 2 64.5 13.5t55.5 31.5q22 18 35 39.5t13 39.5q0 22 -15.5 30t-29.5 8z" />
    <glyph glyph-name="Ecaron" unicode="&#x11a;" horiz-adv-x="500" 
d="M373 450q25 0 43.5 12t30.5 30.5t17.5 42t5.5 46.5q0 63 -39.5 102.5t-106.5 39.5q-41 0 -76 -16t-60.5 -44.5t-40 -67.5t-14.5 -85q0 -59 22.5 -94t59.5 -35q6 0 10.5 -4t4.5 -11q0 -6 -4.5 -10.5t-10.5 -4.5q-33 0 -59.5 -12t-45.5 -34.5t-29.5 -53t-10.5 -68.5
q0 -74 38.5 -113.5t102.5 -39.5q54 0 92.5 25t70.5 60q14 17 24.5 32.5t18.5 28.5q9 14 15 27q3 9 14 9q6 0 10.5 -4.5t4.5 -10.5q0 -2 -2 -6q-20 -39 -45 -73.5t-57 -61t-70.5 -41.5t-85.5 -15q-44 0 -81 12.5t-63.5 35.5t-41.5 55t-15 71q0 32 10 61.5t27 55t41.5 45
t52.5 31.5q-30 17 -49 58t-19 93q0 51 19 94t52 74.5t78 49t97 17.5q44 0 79 -12.5t60 -35.5t38.5 -54.5t13.5 -70.5q0 -29 -8 -57.5t-23.5 -51.5t-39.5 -37t-56 -14q-6 0 -10.5 4.5t-4.5 10.5t4.5 10.5t10.5 4.5zM280 788q-5 9 -9.5 23t-6 29t-0.5 29t7 23q8 14 23 14
q13 0 15 -13l10 -72l52 71q5 6 12 6q6 0 9 -3q5 -4 5.5 -10t-2.5 -11q-11 -15 -19.5 -27t-17 -23t-17.5 -23t-20 -27q-4 -6 -12 -6q-5 0 -13 3.5t-16 16.5z" />
    <glyph glyph-name="ecaron" unicode="&#x11b;" horiz-adv-x="296" 
d="M219 329q0 22 -15.5 30t-29.5 8q-24 0 -45 -18t-36.5 -43.5t-26 -53t-15.5 -47.5q34 2 64.5 13.5t55.5 31.5q22 18 35 39.5t13 39.5zM296 232q3 10 14 10q6 0 10.5 -4t4.5 -11q0 -3 -1 -5q-14 -36 -32.5 -75.5t-44.5 -72t-60.5 -53.5t-80.5 -21q-31 0 -54.5 10.5
t-39 28.5t-23 42.5t-7.5 52.5q0 38 13.5 84t38 85.5t59 66.5t77.5 27q31 0 55 -16t24 -50q0 -26 -16 -53.5t-43 -50.5q-29 -24 -66.5 -37.5t-78.5 -14.5q-2 -12 -3 -23.5t-1 -21.5q0 -17 2.5 -34.5t9.5 -32t20 -24t33 -9.5q39 0 69.5 20t53.5 50t39.5 65.5t27.5 66.5z
M139 446q-5 9 -9.5 23t-6 29t-0.5 29t7 23q8 14 23 14q13 0 15 -13l10 -72l52 71q5 6 12 6q6 0 9 -3q5 -4 5.5 -10t-2.5 -11q-11 -15 -19.5 -27t-17 -23t-17.5 -23t-20 -27q-4 -6 -12 -6q-5 0 -13 3.5t-16 16.5z" />
    <glyph glyph-name="dotlessi" unicode="&#x131;" horiz-adv-x="156" 
d="M43 0q-18 0 -29 13t-16.5 31.5t-7 38.5t-1.5 33q0 11 2 35.5t6 55.5t10.5 64t16 60.5t21.5 45t28 17.5q8 0 11 -5.5t3 -12.5l-3 -14t-7.5 -37t-9.5 -52.5t-10 -60.5q-5 -32 -10.5 -70.5t-5.5 -70.5q0 -19 1.5 -28t3.5 -12q3 1 8 5.5t13.5 15t19.5 29t25 47.5
q10 20 18 38.5t13 32.5q7 17 13 33q3 10 14 10q6 0 10.5 -4t4.5 -11q0 -4 -6.5 -20.5t-14.5 -35.5t-15.5 -35.5t-9.5 -20.5q-25 -50 -43 -75q-28 -40 -53 -40z" />
    <glyph glyph-name="Lacute" unicode="&#x139;" horiz-adv-x="704" 
d="M679 15q0 -6 -4.5 -10.5t-10.5 -4.5h-339q-19 0 -29.5 16t-15.5 37.5t-6.5 44t-1.5 34.5q0 30 3 74.5t9.5 95t15 104.5t19.5 103.5t24 91.5t27 68q-31 -2 -68 -9t-75 -18t-73.5 -27.5t-63 -39t-44 -51t-16.5 -64.5q0 -29 17 -45t48 -16q7 0 11 -4.5t4 -10.5t-4 -10.5
t-11 -4.5q-42 0 -68.5 24t-26.5 67q0 45 21 80t55 61.5t77 45.5t88 30.5t88 17t76 5.5q10 0 12.5 -6t2.5 -14l-5 -26.5t-13 -70t-18 -99t-19 -114.5q-11 -69 -18.5 -125.5t-12.5 -99.5q-3 -30 -4.5 -51t-1.5 -34t1 -20t2 -10h333q6 0 10.5 -4t4.5 -11zM405 726q-15 0 -15 15
q0 3 1 5l41 109q4 9 14 9q14 0 19 -9.5t5 -20.5t-5 -29.5t-13.5 -36t-20.5 -30t-26 -12.5z" />
    <glyph glyph-name="lacute" unicode="&#x13a;" horiz-adv-x="151" 
d="M38 0q-16 0 -25 15t-13 35t-5 40t-1 31q0 39 3.5 84.5t9.5 92.5t13.5 92.5t14.5 84.5q9 45 18 83t18 67q9 31 18 47q5 9 11 17t17 8q8 0 11 -5.5t3 -12.5l-5 -26.5t-12.5 -70t-17.5 -99t-19 -114.5q-21 -137 -30 -224q-3 -30 -4 -50t-1 -33q0 -12 0.5 -19t1.5 -10
q3 2 8.5 7t13.5 16t18 28.5t23 43.5q10 20 18 38.5t13 32.5q7 17 13 33q3 10 14 10q6 0 10.5 -4.5t4.5 -10.5q0 -4 -1 -5q0 -1 -3.5 -10t-9.5 -24t-14.5 -34t-17.5 -39q-6 -12 -16 -31t-22.5 -38t-27.5 -32.5t-30 -13.5zM117 707q-15 0 -15 15q0 3 1 5l41 109q4 9 14 9
q14 0 19 -9.5t5 -20.5t-5 -29.5t-13.5 -36t-20.5 -30t-26 -12.5z" />
    <glyph glyph-name="Lcaron" unicode="&#x13d;" horiz-adv-x="704" 
d="M679 15q0 -6 -4.5 -10.5t-10.5 -4.5h-339q-19 0 -29.5 16t-15.5 37.5t-6.5 44t-1.5 34.5q0 30 3 74.5t9.5 95t15 104.5t19.5 103.5t24 91.5t27 68q-31 -2 -68 -9t-75 -18t-73.5 -27.5t-63 -39t-44 -51t-16.5 -64.5q0 -29 17 -45t48 -16q7 0 11 -4.5t4 -10.5t-4 -10.5
t-11 -4.5q-42 0 -68.5 24t-26.5 67q0 45 21 80t55 61.5t77 45.5t88 30.5t88 17t76 5.5q10 0 12.5 -6t2.5 -14l-5 -26.5t-13 -70t-18 -99t-19 -114.5q-11 -69 -18.5 -125.5t-12.5 -99.5q-3 -30 -4.5 -51t-1.5 -34t1 -20t2 -10h333q6 0 10.5 -4t4.5 -11zM514 472q-8 0 -12 2
t-6 10v5l23 115q2 9 13 11q14 0 20 -6t8 -20q2 -11 0 -30t-7.5 -37.5t-15 -33t-23.5 -16.5z" />
    <glyph glyph-name="lcaron" unicode="&#x13e;" horiz-adv-x="257" 
d="M38 0q-16 0 -25 15t-13 35t-5 40t-1 31q0 39 3.5 84.5t9.5 92.5t13.5 92.5t14.5 84.5q9 45 18 83t18 67q9 31 18 47q5 9 11 17t17 8q8 0 11 -5.5t3 -12.5l-5 -26.5t-12.5 -70t-17.5 -99t-19 -114.5q-21 -137 -30 -224q-3 -30 -4 -50t-1 -33q0 -12 0.5 -19t1.5 -10
q3 2 8.5 7t13.5 16t18 28.5t23 43.5q10 20 18 38.5t13 32.5q7 17 13 33q3 10 14 10q6 0 10.5 -4.5t4.5 -10.5q0 -4 -1 -5q0 -1 -3.5 -10t-9.5 -24t-14.5 -34t-17.5 -39q-6 -12 -16 -31t-22.5 -38t-27.5 -32.5t-30 -13.5zM212 474q-8 0 -12 2t-6 10v5l23 115q2 9 13 11
q14 0 20 -6t8 -20q2 -11 0 -30t-7.5 -37.5t-15 -33t-23.5 -16.5z" />
    <glyph glyph-name="Lslash" unicode="&#x141;" horiz-adv-x="704" 
d="M245 303q-9 12 2 21l45 34q4 30 11.5 72.5t17 86.5t22 84.5t27.5 67.5q-31 -2 -68 -9t-75 -18t-73.5 -27.5t-63 -39t-44 -51t-16.5 -64.5q0 -29 17 -45t48 -16q7 0 11 -4.5t4 -10.5t-4 -10.5t-11 -4.5q-42 0 -68.5 24t-26.5 67q0 45 21 80t55 61.5t77 45.5t88 30.5t88 17
t76 5.5q10 0 12.5 -6t2.5 -14l-4 -21.5t-11 -57t-15 -82.5t-17 -98l16 12q4 4 9 4q6 0 12 -6q4 -5 3.5 -11t-5.5 -10l-42 -32q0 -2 -0.5 -4t-0.5 -4q-11 -69 -18.5 -125.5t-12.5 -99.5q-3 -30 -4.5 -51t-1.5 -34t1 -20t2 -10h333q6 0 10.5 -4t4.5 -11q0 -6 -4.5 -10.5
t-10.5 -4.5h-339q-19 0 -29.5 16t-15.5 37.5t-6.5 44t-1.5 34.5q0 38 3.5 85.5t10.5 98.5l-20 -15q-4 -3 -10 -3t-11 5z" />
    <glyph glyph-name="lslash" unicode="&#x142;" horiz-adv-x="149" 
d="M-37 298q-9 12 2 21l48 37q4 28 11 71.5t17 90t21.5 88.5t24.5 66q5 9 11 17t17 8q6 0 10 -5t4 -10v-3l-4 -22.5t-11 -60t-15.5 -86.5t-17.5 -102l26 20q4 4 9 4q6 0 12 -6q4 -5 3.5 -11t-5.5 -10l-52 -40q-10 -68 -17 -123t-12 -97q-3 -30 -4 -50t-1 -33q0 -12 0.5 -19
t1.5 -10q3 2 8.5 7t13.5 16t18 28.5t23 43.5q10 20 18 38.5t13 32.5q7 17 13 33q3 10 14 10q6 0 10.5 -4.5t4.5 -10.5q0 -4 -1 -5q0 -1 -3.5 -10t-9.5 -24t-14.5 -34t-17.5 -39q-6 -12 -16 -31t-22.5 -38t-27.5 -32.5t-30 -13.5q-16 0 -25 15t-13 35t-5 40t-1 31q0 42 4 92
t11 101l-23 -18q-5 -3 -10 -3q-6 0 -11 5z" />
    <glyph glyph-name="Nacute" unicode="&#x143;" horiz-adv-x="781" 
d="M272 132q0 31 3 75t9.5 94.5t15 104.5t19.5 103.5t24 91t27 68.5q-31 -2 -68 -9t-75 -18t-73.5 -27.5t-63 -39t-44 -51t-16.5 -64.5q0 -29 17 -45t48 -16q7 0 11 -4.5t4 -10.5t-4 -10.5t-11 -4.5q-42 0 -68.5 24t-26.5 67q0 45 21 80t55 61.5t77 45.5t88 30.5t88 17
t76 5.5q9 0 12 -6q3 -2 4 -7l7.5 -27.5t20 -72.5t29.5 -102t35 -117q22 -71 40.5 -127.5t34.5 -99.5q20 -53 31 -75.5t16 -30.5q4 7 10 24.5t14 52.5q12 51 21.5 107t16.5 112.5t10.5 113t3.5 108.5q0 24 -1 44.5t-4 37.5q-2 12 -4 18.5t-4 10.5t-4 6q-8 0 -11.5 5t-3.5 10
q0 6 3.5 10.5t11.5 4.5q6 0 14 -3.5t15 -15.5q18 -30 18 -121q0 -29 -2.5 -75t-7.5 -99.5t-12.5 -110t-16.5 -107t-19.5 -90.5t-22.5 -61q-2 -3 -7.5 -10t-15.5 -7q-20 0 -42.5 28.5t-45.5 76t-45.5 107.5t-42.5 123t-36 123.5t-26 108.5q-19 -106 -36.5 -211t-28.5 -211
q-3 -32 -4.5 -53t-1.5 -34t1 -19.5t2 -9.5q9 -4 9 -14q0 -6 -4.5 -10.5t-10.5 -4.5q-19 0 -29.5 16t-15.5 37.5t-6.5 44t-1.5 34.5zM559 746q0 3 1 5l41 109q4 9 14 9q14 0 19 -9.5t5 -20.5t-5 -29.5t-13.5 -36t-20.5 -30t-26 -12.5q-15 0 -15 15z" />
    <glyph glyph-name="nacute" unicode="&#x144;" horiz-adv-x="370" 
d="M326 128q10 20 18 38.5t13 32.5q7 17 13 33q3 10 14 10q6 0 10.5 -4t4.5 -11q0 -4 -6.5 -20.5t-14.5 -35.5t-15.5 -35.5t-9.5 -20.5q-25 -50 -43 -75q-28 -40 -53 -40t-34 20t-9 41q0 20 4 46.5t9 59.5q5 29 9.5 59.5t4.5 55.5q0 8 -0.5 17.5t-2.5 18t-7 14.5t-13 6
q-13 0 -29 -19.5t-32.5 -50.5t-32 -68.5t-29 -73.5t-23.5 -66.5t-14 -45.5q0 -8 -6 -11t-12 -3q-17 2 -27 15.5t-15.5 31.5t-7 37t-1.5 32q0 11 2 35.5t6 55.5t10.5 64t16 60.5t21.5 45t28 17.5q14 0 14 -14v-4l-3 -14t-7.5 -37t-9.5 -52.5t-10 -60.5q-6 -38 -11 -75t-5 -75
q22 63 45.5 126t57.5 120q19 31 37 45.5t43 14.5q20 0 34 -9t22.5 -24t12.5 -35t4 -42q0 -35 -7 -75t-15 -76q-4 -19 -8.5 -39t-6.5 -37q3 1 8 5.5t13.5 15t19.5 29t25 47.5zM226 400q-15 0 -15 15q0 3 1 5l41 109q4 9 14 9q14 0 19 -9.5t5 -20.5t-5 -29.5t-13.5 -36
t-20.5 -30t-26 -12.5z" />
    <glyph glyph-name="Ncaron" unicode="&#x147;" horiz-adv-x="781" 
d="M272 132q0 31 3 75t9.5 94.5t15 104.5t19.5 103.5t24 91t27 68.5q-31 -2 -68 -9t-75 -18t-73.5 -27.5t-63 -39t-44 -51t-16.5 -64.5q0 -29 17 -45t48 -16q7 0 11 -4.5t4 -10.5t-4 -10.5t-11 -4.5q-42 0 -68.5 24t-26.5 67q0 45 21 80t55 61.5t77 45.5t88 30.5t88 17
t76 5.5q9 0 12 -6q3 -2 4 -7l7.5 -27.5t20 -72.5t29.5 -102t35 -117q22 -71 40.5 -127.5t34.5 -99.5q20 -53 31 -75.5t16 -30.5q4 7 10 24.5t14 52.5q12 51 21.5 107t16.5 112.5t10.5 113t3.5 108.5q0 24 -1 44.5t-4 37.5q-2 12 -4 18.5t-4 10.5t-4 6q-8 0 -11.5 5t-3.5 10
q0 6 3.5 10.5t11.5 4.5q6 0 14 -3.5t15 -15.5q18 -30 18 -121q0 -29 -2.5 -75t-7.5 -99.5t-12.5 -110t-16.5 -107t-19.5 -90.5t-22.5 -61q-2 -3 -7.5 -10t-15.5 -7q-20 0 -42.5 28.5t-45.5 76t-45.5 107.5t-42.5 123t-36 123.5t-26 108.5q-19 -106 -36.5 -211t-28.5 -211
q-3 -32 -4.5 -53t-1.5 -34t1 -19.5t2 -9.5q9 -4 9 -14q0 -6 -4.5 -10.5t-10.5 -4.5q-19 0 -29.5 16t-15.5 37.5t-6.5 44t-1.5 34.5zM535 855q8 14 23 14q13 0 15 -13l10 -72l52 71q5 6 12 6q6 0 9 -3q5 -4 5.5 -10t-2.5 -11q-11 -15 -19.5 -27t-17 -23t-17.5 -23t-20 -27
q-4 -6 -12 -6q-5 0 -13 3.5t-16 16.5q-5 9 -9.5 23t-6 29t-0.5 29t7 23z" />
    <glyph glyph-name="ncaron" unicode="&#x148;" horiz-adv-x="370" 
d="M326 128q10 20 18 38.5t13 32.5q7 17 13 33q3 10 14 10q6 0 10.5 -4t4.5 -11q0 -4 -6.5 -20.5t-14.5 -35.5t-15.5 -35.5t-9.5 -20.5q-25 -50 -43 -75q-28 -40 -53 -40t-34 20t-9 41q0 20 4 46.5t9 59.5q5 29 9.5 59.5t4.5 55.5q0 8 -0.5 17.5t-2.5 18t-7 14.5t-13 6
q-13 0 -29 -19.5t-32.5 -50.5t-32 -68.5t-29 -73.5t-23.5 -66.5t-14 -45.5q0 -8 -6 -11t-12 -3q-17 2 -27 15.5t-15.5 31.5t-7 37t-1.5 32q0 11 2 35.5t6 55.5t10.5 64t16 60.5t21.5 45t28 17.5q14 0 14 -14v-4l-3 -14t-7.5 -37t-9.5 -52.5t-10 -60.5q-6 -38 -11 -75t-5 -75
q22 63 45.5 126t57.5 120q19 31 37 45.5t43 14.5q20 0 34 -9t22.5 -24t12.5 -35t4 -42q0 -35 -7 -75t-15 -76q-4 -19 -8.5 -39t-6.5 -37q3 1 8 5.5t13.5 15t19.5 29t25 47.5zM196 420q-5 9 -9.5 23t-6 29t-0.5 29t7 23q8 14 23 14q13 0 15 -13l10 -72l52 71q5 6 12 6
q6 0 9 -3q5 -4 5.5 -10t-2.5 -11q-11 -15 -19.5 -27t-17 -23t-17.5 -23t-20 -27q-4 -6 -12 -6q-5 0 -13 3.5t-16 16.5z" />
    <glyph glyph-name="Ohungarumlaut" unicode="&#x150;" horiz-adv-x="532" 
d="M296 753q61 0 102.5 -24.5t66.5 -65.5t36 -95t11 -113q0 -81 -19 -162t-57 -146.5t-95 -106t-134 -40.5q-45 0 -83 15t-65.5 42t-43 65.5t-15.5 85.5q0 41 11.5 87t34.5 86q-11 44 -11 89q0 63 20 115t55.5 89.5t83 58t102.5 20.5zM186 479q6 0 10.5 -4.5t4.5 -10.5
t-4.5 -10.5t-10.5 -4.5q-25 0 -43.5 -18.5t-32.5 -47.5q6 -35 18.5 -65t32 -51.5t46.5 -34t60 -12.5q7 0 11 -4.5t4 -10.5t-4 -10.5t-11 -4.5q-60 0 -107 29t-78 79q-6 -27 -9 -52t-3 -44q0 -30 7.5 -60.5t25 -55.5t45.5 -40.5t69 -15.5q65 0 114 38.5t83 99.5t51 136.5
t17 148.5q0 55 -10 104t-30.5 86t-52.5 58.5t-76 21.5q-41 0 -78.5 -19.5t-66 -55.5t-45.5 -86t-18 -111q17 13 37.5 20.5t43.5 7.5zM343 768q-15 0 -15 15q0 3 1 5l41 109q4 9 14 9q14 0 19 -9.5t5 -20.5t-5 -29.5t-13.5 -36t-20.5 -30t-26 -12.5zM266 768q-15 0 -15 15
q0 3 1 5l41 109q4 9 14 9q14 0 19 -9.5t5 -20.5t-5 -29.5t-13.5 -36t-20.5 -30t-26 -12.5z" />
    <glyph glyph-name="ohungarumlaut" unicode="&#x151;" horiz-adv-x="343" 
d="M371 222q-16 -41 -47 -66.5t-69 -42.5q-10 -23 -24.5 -43.5t-33 -36t-41 -24.5t-49.5 -9q-25 0 -47.5 8.5t-39 24t-26.5 37.5t-10 49q0 20 5 40.5t15 38.5q-4 15 -4 35q0 29 11 58.5t32 53t50.5 38t66.5 14.5q36 0 60 -14t38.5 -36t20 -49.5t5.5 -53.5q0 -42 -14 -90
q24 13 43 32.5t30 45.5q3 10 14 10q6 0 10.5 -4t4.5 -11q0 -3 -1 -5zM100 268q6 0 10.5 -4.5t4.5 -10.5t-4.5 -10.5t-10.5 -4.5q-11 0 -20.5 -10t-16.5 -25q5 -32 25.5 -55t65.5 -23q15 0 36 3t43 11q11 27 16 55t5 50q0 19 -3.5 40.5t-13 40t-25.5 30.5t-40 12
q-21 0 -38 -9t-30.5 -23.5t-22.5 -33.5t-14 -40q14 7 33 7zM153 95q-32 0 -60 10t-48 28q-1 -6 -1 -10.5v-9.5q0 -15 4 -29.5t12.5 -26.5t22 -19.5t33.5 -7.5q33 0 58 20.5t42 51.5q-17 -4 -33.5 -5.5t-29.5 -1.5zM138 426q-15 0 -15 15q0 3 1 5l41 109q4 9 14 9
q14 0 19 -9.5t5 -20.5t-5 -29.5t-13.5 -36t-20.5 -30t-26 -12.5zM215 426q-15 0 -15 15q0 3 1 5l41 109q4 9 14 9q14 0 19 -9.5t5 -20.5t-5 -29.5t-13.5 -36t-20.5 -30t-26 -12.5z" />
    <glyph glyph-name="OE" unicode="&#x152;" horiz-adv-x="902" 
d="M296 753q77 0 122.5 -37.5t68.5 -97.5q29 62 88 98.5t136 36.5q44 0 79 -12.5t60 -35.5t38.5 -54.5t13.5 -70.5q0 -29 -8 -57.5t-23.5 -51.5t-39.5 -37t-56 -14q-6 0 -10.5 4.5t-4.5 10.5t4.5 10.5t10.5 4.5q25 0 43.5 12t30.5 30.5t17.5 42t5.5 46.5q0 63 -39.5 102.5
t-106.5 39.5q-41 0 -76 -16t-60.5 -44.5t-40 -67.5t-14.5 -85q0 -59 22.5 -94t59.5 -35q6 0 10.5 -4t4.5 -11q0 -6 -4.5 -10.5t-10.5 -4.5q-33 0 -59.5 -12t-45.5 -34.5t-29.5 -53t-10.5 -68.5q0 -74 38.5 -113.5t102.5 -39.5q54 0 92.5 25t70.5 60q14 17 24.5 32.5
t18.5 28.5q9 14 15 27q3 9 14 9q6 0 10.5 -4.5t4.5 -10.5q0 -2 -2 -6q-20 -39 -45 -73.5t-57 -61t-70.5 -41.5t-85.5 -15q-69 0 -119.5 30t-70.5 82q-38 -51 -89 -81.5t-117 -30.5q-45 0 -83 15t-65.5 42t-43 65.5t-15.5 85.5q0 41 11.5 87t34.5 86q-11 44 -11 89
q0 63 20 115t55.5 89.5t83 58t102.5 20.5zM186 479q6 0 10.5 -4.5t4.5 -10.5t-4.5 -10.5t-10.5 -4.5q-25 0 -43.5 -18.5t-32.5 -47.5q6 -35 18.5 -65t32 -51.5t46.5 -34t60 -12.5q7 0 11 -4.5t4 -10.5t-4 -10.5t-11 -4.5q-60 0 -107 29t-78 79q-6 -27 -9 -52t-3 -44
q0 -30 7.5 -60.5t25 -55.5t45.5 -40.5t69 -15.5q60 0 106.5 33t80.5 87q-1 6 -1.5 12t-0.5 12q0 45 18 84t50 68q9 53 12 105q-17 39 -17 87q0 13 1.5 25t3.5 24q-8 34 -21.5 62.5t-33 49.5t-45 32.5t-57.5 11.5q-41 0 -78.5 -19.5t-66 -55.5t-45.5 -86t-18 -111
q17 13 37.5 20.5t43.5 7.5zM505 353q7 4 13.5 7.5t14.5 6.5q-13 7 -24 20q-1 -9 -2 -17.5t-2 -16.5z" />
    <glyph glyph-name="oe" unicode="&#x153;" horiz-adv-x="556" 
d="M107 0q-25 0 -47.5 8.5t-39 24t-26.5 37.5t-10 49q0 20 5 40.5t15 38.5q-4 15 -4 35q0 29 11 58.5t32 53t50.5 38t66.5 14.5q30 0 51.5 -9.5t35.5 -25.5t22.5 -37t11.5 -43q12 24 28 44.5t35 36.5t40.5 25t45.5 9q31 0 55 -16t24 -50q0 -35 -20 -63.5t-50.5 -48.5
t-66.5 -31.5t-67 -12.5q-2 -12 -3 -23.5t-1 -21.5q0 -17 2.5 -34.5t9.5 -32t20 -24t33 -9.5q39 0 69.5 20t53.5 50t39.5 65.5t27.5 66.5q3 10 14 10q6 0 10.5 -4t4.5 -11q0 -3 -1 -5q-14 -36 -32.5 -75.5t-44.5 -72t-60.5 -53.5t-80.5 -21q-51 0 -81 26.5t-39 68.5
q-22 -40 -56.5 -67.5t-82.5 -27.5zM115 253q0 -6 -4.5 -10.5t-10.5 -4.5q-11 0 -20.5 -10t-16.5 -25q5 -32 25.5 -55t65.5 -23q15 0 36 3t43 11q11 27 16 55t5 50q0 19 -3.5 40.5t-13 40t-25.5 30.5t-40 12q-21 0 -38 -9t-30.5 -23.5t-22.5 -33.5t-14 -40q14 7 33 7
q6 0 10.5 -4.5t4.5 -10.5zM434 367q-24 0 -45 -18t-36.5 -43.5t-26 -53t-15.5 -47.5q34 2 64.5 13.5t55.5 31.5q22 18 35 39.5t13 39.5q0 22 -15.5 30t-29.5 8zM45 133q-1 -6 -1 -10.5v-9.5q0 -15 4 -29.5t12.5 -26.5t22 -19.5t33.5 -7.5q33 0 58 20.5t42 51.5
q-17 -4 -33.5 -5.5t-29.5 -1.5q-32 0 -60 10t-48 28z" />
    <glyph glyph-name="Racute" unicode="&#x154;" horiz-adv-x="620" 
d="M344 723q-66 0 -123.5 -14.5t-99.5 -40.5t-66.5 -62t-24.5 -79q0 -38 18 -58t48 -20q6 0 10.5 -4.5t4.5 -10.5t-4.5 -10.5t-10.5 -4.5q-44 0 -70 28.5t-26 79.5q0 50 27 91.5t74 71.5t112 46.5t140 16.5q53 0 101 -9t84 -29.5t57.5 -53.5t21.5 -81q0 -41 -16 -79
t-42.5 -68.5t-60.5 -53t-71 -33.5q20 -6 33 -22t22 -38t14.5 -48.5t11.5 -54.5q7 -34 11.5 -66.5t10 -58.5t15 -42t26.5 -16q7 0 11 -4.5t4 -10.5t-4.5 -10.5t-10.5 -4.5q-31 0 -49.5 16.5t-30.5 43t-20 60.5t-17 69q-9 33 -17 65t-21 56.5t-32.5 39.5t-50.5 15
q-7 0 -11 4.5t-4 10.5q0 15 15 15q47 0 86 21.5t67.5 55t44 73.5t15.5 76q0 69 -54 100.5t-148 31.5zM212 0q-19 0 -29.5 16t-15.5 37.5t-6.5 44t-1.5 34.5q0 50 6 115t17 133.5t26 133t32 113.5q13 37 25.5 53t26.5 16q7 0 12 -5.5t3 -12.5l-5 -26.5t-13 -70t-18 -99
t-19 -114.5q-11 -69 -18.5 -124.5t-12.5 -98.5q-3 -32 -4.5 -53t-1.5 -34t1 -19.5t2 -9.5q9 -4 9 -14q0 -6 -4.5 -10.5t-10.5 -4.5zM438 768q-15 0 -15 15q0 3 1 5l41 109q4 9 14 9q14 0 19 -9.5t5 -20.5t-5 -29.5t-13.5 -36t-20.5 -30t-26 -12.5z" />
    <glyph glyph-name="racute" unicode="&#x155;" horiz-adv-x="330" 
d="M-1 227q0 3 1 5l3 9t8.5 24t12 34.5t12.5 40.5q4 14 7.5 25.5t5.5 21.5q-10 28 -10 53q0 28 10 39t22 11q13 0 17.5 -9.5t4.5 -20.5q0 -7 -1.5 -16.5t-3.5 -23.5q-2 -7 -3.5 -14.5t-3.5 -16.5q6 -13 19.5 -27.5t37.5 -14.5q35 0 53.5 9.5t25.5 16.5q5 8 12 14.5t18 6.5
q14 0 14 -14v-4l-3 -14t-7.5 -37t-9.5 -52.5t-10 -60.5q-5 -32 -10.5 -70.5t-5.5 -70.5q0 -19 1.5 -28t3.5 -12q3 1 8 5.5t13.5 15t19.5 29t25 47.5q10 20 18 38.5t13 32.5q7 17 13 33q3 10 14 10q6 0 10.5 -4t4.5 -11q0 -4 -6.5 -20.5t-14.5 -35.5t-15.5 -35.5t-9.5 -20.5
q-25 -50 -43 -75q-28 -40 -53 -40q-18 0 -29 13t-16.5 31.5t-7 38.5t-1.5 33q0 22 2 50t6 56.5t10.5 55.5t14.5 48q-11 -4 -25.5 -6.5t-32.5 -2.5q-40 0 -68 33q-9 -32 -20 -64l-22 -64q-3 -10 -14 -10q-6 0 -10.5 4.5t-4.5 10.5zM169 426q-15 0 -15 15q0 3 1 5l41 109
q4 9 14 9q14 0 19 -9.5t5 -20.5t-5 -29.5t-13.5 -36t-20.5 -30t-26 -12.5z" />
    <glyph glyph-name="Rcaron" unicode="&#x158;" horiz-adv-x="620" 
d="M344 723q-66 0 -123.5 -14.5t-99.5 -40.5t-66.5 -62t-24.5 -79q0 -38 18 -58t48 -20q6 0 10.5 -4.5t4.5 -10.5t-4.5 -10.5t-10.5 -4.5q-44 0 -70 28.5t-26 79.5q0 50 27 91.5t74 71.5t112 46.5t140 16.5q53 0 101 -9t84 -29.5t57.5 -53.5t21.5 -81q0 -41 -16 -79
t-42.5 -68.5t-60.5 -53t-71 -33.5q20 -6 33 -22t22 -38t14.5 -48.5t11.5 -54.5q7 -34 11.5 -66.5t10 -58.5t15 -42t26.5 -16q7 0 11 -4.5t4 -10.5t-4.5 -10.5t-10.5 -4.5q-31 0 -49.5 16.5t-30.5 43t-20 60.5t-17 69q-9 33 -17 65t-21 56.5t-32.5 39.5t-50.5 15
q-7 0 -11 4.5t-4 10.5q0 15 15 15q47 0 86 21.5t67.5 55t44 73.5t15.5 76q0 69 -54 100.5t-148 31.5zM212 0q-19 0 -29.5 16t-15.5 37.5t-6.5 44t-1.5 34.5q0 50 6 115t17 133.5t26 133t32 113.5q13 37 25.5 53t26.5 16q7 0 12 -5.5t3 -12.5l-5 -26.5t-13 -70t-18 -99
t-19 -114.5q-11 -69 -18.5 -124.5t-12.5 -98.5q-3 -32 -4.5 -53t-1.5 -34t1 -19.5t2 -9.5q9 -4 9 -14q0 -6 -4.5 -10.5t-10.5 -4.5zM408 788q-5 9 -9.5 23t-6 29t-0.5 29t7 23q8 14 23 14q13 0 15 -13l10 -72l52 71q5 6 12 6q6 0 9 -3q5 -4 5.5 -10t-2.5 -11
q-11 -15 -19.5 -27t-17 -23t-17.5 -23t-20 -27q-4 -6 -12 -6q-5 0 -13 3.5t-16 16.5z" />
    <glyph glyph-name="rcaron" unicode="&#x159;" horiz-adv-x="330" 
d="M-1 227q0 3 1 5l3 9t8.5 24t12 34.5t12.5 40.5q4 14 7.5 25.5t5.5 21.5q-10 28 -10 53q0 28 10 39t22 11q13 0 17.5 -9.5t4.5 -20.5q0 -7 -1.5 -16.5t-3.5 -23.5q-2 -7 -3.5 -14.5t-3.5 -16.5q6 -13 19.5 -27.5t37.5 -14.5q35 0 53.5 9.5t25.5 16.5q5 8 12 14.5t18 6.5
q14 0 14 -14v-4l-3 -14t-7.5 -37t-9.5 -52.5t-10 -60.5q-5 -32 -10.5 -70.5t-5.5 -70.5q0 -19 1.5 -28t3.5 -12q3 1 8 5.5t13.5 15t19.5 29t25 47.5q10 20 18 38.5t13 32.5q7 17 13 33q3 10 14 10q6 0 10.5 -4t4.5 -11q0 -4 -6.5 -20.5t-14.5 -35.5t-15.5 -35.5t-9.5 -20.5
q-25 -50 -43 -75q-28 -40 -53 -40q-18 0 -29 13t-16.5 31.5t-7 38.5t-1.5 33q0 22 2 50t6 56.5t10.5 55.5t14.5 48q-11 -4 -25.5 -6.5t-32.5 -2.5q-40 0 -68 33q-9 -32 -20 -64l-22 -64q-3 -10 -14 -10q-6 0 -10.5 4.5t-4.5 10.5zM139 446q-5 9 -9.5 23t-6 29t-0.5 29t7 23
q8 14 23 14q13 0 15 -13l10 -72l52 71q5 6 12 6q6 0 9 -3q5 -4 5.5 -10t-2.5 -11q-11 -15 -19.5 -27t-17 -23t-17.5 -23t-20 -27q-4 -6 -12 -6q-5 0 -13 3.5t-16 16.5z" />
    <glyph glyph-name="Sacute" unicode="&#x15a;" horiz-adv-x="483" 
d="M87 548q0 45 16 82.5t44.5 64.5t67.5 42.5t85 15.5q42 0 75.5 -13t57.5 -36.5t37 -56.5t13 -74q0 -34 -9 -62.5t-26 -48.5t-40 -31.5t-52 -11.5q-6 0 -10.5 4.5t-4.5 10.5t4.5 10.5t10.5 4.5q44 0 70.5 34.5t26.5 91.5q0 67 -38.5 108t-102.5 41q-35 0 -63.5 -12.5
t-49 -35t-32 -54t-11.5 -68.5t11 -65.5t29.5 -51.5t42.5 -42.5t49 -38.5q26 -19 50.5 -38.5t44 -42.5t31.5 -50t12 -60q0 -37 -16 -67.5t-43.5 -52t-66 -33.5t-83.5 -12q-49 0 -89 14t-68.5 39.5t-44 62t-15.5 80.5q0 6 4.5 10.5t10.5 4.5q7 0 11 -4.5t4 -10.5
q0 -37 12.5 -68t35.5 -52.5t55.5 -33.5t71.5 -12q69 0 109.5 34.5t40.5 93.5q0 30 -10.5 53.5t-28.5 43.5t-41 37.5t-47 35.5q-27 20 -52.5 42t-45 48.5t-31.5 58.5t-12 71zM318 768q-15 0 -15 15q0 3 1 5l41 109q4 9 14 9q14 0 19 -9.5t5 -20.5t-5 -29.5t-13.5 -36
t-20.5 -30t-26 -12.5z" />
    <glyph glyph-name="sacute" unicode="&#x15b;" horiz-adv-x="301" 
d="M170 132q5 17 7.5 35.5t2.5 35.5q0 26 -6 52.5t-18.5 49t-32 40t-46.5 24.5q-4 -16 -10.5 -35t-13.5 -38.5t-14 -38.5t-13 -35q-3 -10 -14 -10q-6 0 -10.5 4.5t-4.5 10.5q0 3 1 5l4 10.5t10 27t13.5 37.5t13.5 42q4 14 8 25.5t6 21.5q-10 28 -10 53q0 28 10 39t22 11
q13 0 17.5 -9.5t4.5 -20.5q0 -7 -1.5 -16.5t-3.5 -23.5q-2 -7 -3.5 -14.5t-3.5 -16.5q27 -8 55 -23t50 -38.5t36 -57.5t14 -80q0 -20 -3 -38q21 12 38 29.5t26 41.5q3 10 14 10q6 0 10.5 -4t4.5 -11q0 -3 -1 -5q-14 -36 -41 -60t-59 -39q-19 -57 -59.5 -90t-91.5 -33
q-34 0 -53.5 12t-32.5 33q-9 15 -12.5 27t-3.5 13q-1 7 3 13q4 8 13 8q42 0 84 4.5t94 21.5zM68 30q32 0 54 20t36 49q-42 -11 -77.5 -16t-70.5 -7q2 -5 4 -9.5t6 -9.5q6 -10 17 -18.5t31 -8.5zM76 517q-15 0 -15 15q0 3 1 5l41 109q4 9 14 9q14 0 19 -9.5t5 -20.5t-5 -29.5
t-13.5 -36t-20.5 -30t-26 -12.5z" />
    <glyph glyph-name="Scedilla" unicode="&#x15e;" horiz-adv-x="483" 
d="M187 -175q-2 0 -2.5 -0.5t-2.5 -0.5q-10 0 -13 13v5l23 115q2 9 13 11q14 0 20 -6t8 -20q2 -11 0 -30t-7.5 -37.5t-15 -33t-23.5 -16.5zM87 548q0 45 16 82.5t44.5 64.5t67.5 42.5t85 15.5q42 0 75.5 -13t57.5 -36.5t37 -56.5t13 -74q0 -34 -9 -62.5t-26 -48.5t-40 -31.5
t-52 -11.5q-6 0 -10.5 4.5t-4.5 10.5t4.5 10.5t10.5 4.5q44 0 70.5 34.5t26.5 91.5q0 67 -38.5 108t-102.5 41q-35 0 -63.5 -12.5t-49 -35t-32 -54t-11.5 -68.5t11 -65.5t29.5 -51.5t42.5 -42.5t49 -38.5q26 -19 50.5 -38.5t44 -42.5t31.5 -50t12 -60q0 -37 -16 -67.5
t-43.5 -52t-66 -33.5t-83.5 -12q-49 0 -89 14t-68.5 39.5t-44 62t-15.5 80.5q0 6 4.5 10.5t10.5 4.5q7 0 11 -4.5t4 -10.5q0 -37 12.5 -68t35.5 -52.5t55.5 -33.5t71.5 -12q69 0 109.5 34.5t40.5 93.5q0 30 -10.5 53.5t-28.5 43.5t-41 37.5t-47 35.5q-27 20 -52.5 42
t-45 48.5t-31.5 58.5t-12 71z" />
    <glyph glyph-name="scedilla" unicode="&#x15f;" horiz-adv-x="302" 
d="M62 -175q-2 0 -2.5 -0.5t-2.5 -0.5q-10 0 -13 13v5l23 115q2 9 13 11q14 0 20 -6t8 -20q2 -11 0 -30t-7.5 -37.5t-15 -33t-23.5 -16.5zM170 132q5 17 7.5 35.5t2.5 35.5q0 26 -6 52.5t-18.5 49t-32 40t-46.5 24.5q-4 -16 -10.5 -35t-13.5 -38.5t-14 -38.5t-13 -35
q-3 -10 -14 -10q-6 0 -10.5 4.5t-4.5 10.5q0 3 1 5l4 10.5t10 27t13.5 37.5t13.5 42q4 14 8 25.5t6 21.5q-10 28 -10 53q0 28 10 39t22 11q13 0 17.5 -9.5t4.5 -20.5q0 -7 -1.5 -16.5t-3.5 -23.5q-2 -7 -3.5 -14.5t-3.5 -16.5q27 -8 55 -23t50 -38.5t36 -57.5t14 -80
q0 -20 -3 -38q21 12 38 29.5t26 41.5q3 10 14 10q6 0 10.5 -4t4.5 -11q0 -3 -1 -5q-14 -36 -41 -60t-59 -39q-19 -57 -59.5 -90t-91.5 -33q-34 0 -53.5 12t-32.5 33q-9 15 -12.5 27t-3.5 13q-1 7 3 13q4 8 13 8q42 0 84 4.5t94 21.5zM68 30q32 0 54 20t36 49
q-42 -11 -77.5 -16t-70.5 -7q2 -5 4 -9.5t6 -9.5q6 -10 17 -18.5t31 -8.5z" />
    <glyph glyph-name="Scaron" unicode="&#x160;" horiz-adv-x="483" 
d="M87 548q0 45 16 82.5t44.5 64.5t67.5 42.5t85 15.5q42 0 75.5 -13t57.5 -36.5t37 -56.5t13 -74q0 -34 -9 -62.5t-26 -48.5t-40 -31.5t-52 -11.5q-6 0 -10.5 4.5t-4.5 10.5t4.5 10.5t10.5 4.5q44 0 70.5 34.5t26.5 91.5q0 67 -38.5 108t-102.5 41q-35 0 -63.5 -12.5
t-49 -35t-32 -54t-11.5 -68.5t11 -65.5t29.5 -51.5t42.5 -42.5t49 -38.5q26 -19 50.5 -38.5t44 -42.5t31.5 -50t12 -60q0 -37 -16 -67.5t-43.5 -52t-66 -33.5t-83.5 -12q-49 0 -89 14t-68.5 39.5t-44 62t-15.5 80.5q0 6 4.5 10.5t10.5 4.5q7 0 11 -4.5t4 -10.5
q0 -37 12.5 -68t35.5 -52.5t55.5 -33.5t71.5 -12q69 0 109.5 34.5t40.5 93.5q0 30 -10.5 53.5t-28.5 43.5t-41 37.5t-47 35.5q-27 20 -52.5 42t-45 48.5t-31.5 58.5t-12 71zM272 788q-5 9 -9.5 23t-6 29t-0.5 29t7 23q8 14 23 14q13 0 15 -13l10 -72l52 71q5 6 12 6
q6 0 9 -3q5 -4 5.5 -10t-2.5 -11q-11 -15 -19.5 -27t-17 -23t-17.5 -23t-20 -27q-4 -6 -12 -6q-5 0 -13 3.5t-16 16.5z" />
    <glyph glyph-name="scaron" unicode="&#x161;" horiz-adv-x="301" 
d="M170 132q5 17 7.5 35.5t2.5 35.5q0 26 -6 52.5t-18.5 49t-32 40t-46.5 24.5q-4 -16 -10.5 -35t-13.5 -38.5t-14 -38.5t-13 -35q-3 -10 -14 -10q-6 0 -10.5 4.5t-4.5 10.5q0 3 1 5l4 10.5t10 27t13.5 37.5t13.5 42q4 14 8 25.5t6 21.5q-10 28 -10 53q0 28 10 39t22 11
q13 0 17.5 -9.5t4.5 -20.5q0 -7 -1.5 -16.5t-3.5 -23.5q-2 -7 -3.5 -14.5t-3.5 -16.5q27 -8 55 -23t50 -38.5t36 -57.5t14 -80q0 -20 -3 -38q21 12 38 29.5t26 41.5q3 10 14 10q6 0 10.5 -4t4.5 -11q0 -3 -1 -5q-14 -36 -41 -60t-59 -39q-19 -57 -59.5 -90t-91.5 -33
q-34 0 -53.5 12t-32.5 33q-9 15 -12.5 27t-3.5 13q-1 7 3 13q4 8 13 8q42 0 84 4.5t94 21.5zM68 30q32 0 54 20t36 49q-42 -11 -77.5 -16t-70.5 -7q2 -5 4 -9.5t6 -9.5q6 -10 17 -18.5t31 -8.5zM46 537q-5 9 -9.5 23t-6 29t-0.5 29t7 23q8 14 23 14q13 0 15 -13l10 -72
l52 71q5 6 12 6q6 0 9 -3q5 -4 5.5 -10t-2.5 -11q-11 -15 -19.5 -27t-17 -23t-17.5 -23t-20 -27q-4 -6 -12 -6q-5 0 -13 3.5t-16 16.5z" />
    <glyph glyph-name="uni0162" unicode="&#x162;" horiz-adv-x="379" 
d="M212 -175q-2 0 -2.5 -0.5t-2.5 -0.5q-10 0 -13 13v5l23 115q2 9 13 11q14 0 20 -6t8 -20q2 -11 0 -30t-7.5 -37.5t-15 -33t-23.5 -16.5zM95 422q-43 0 -69 27.5t-26 75.5q0 51 32 93t89 72t134.5 46.5t167.5 16.5q60 0 102.5 -6.5t69.5 -14t40 -14t14 -6.5q5 -4 5.5 -10
t-3.5 -11q-4 -6 -12 -6q-4 0 -9 3q-18 10 -47 18q-25 6 -63.5 11.5t-95.5 5.5q-83 0 -155 -14t-125 -40t-83.5 -62t-30.5 -81q0 -35 18 -54.5t47 -19.5q7 0 11 -4.5t4 -10.5t-4 -10.5t-11 -4.5zM242 0q-19 0 -29.5 16t-15.5 37.5t-6.5 44t-1.5 34.5q0 50 6 115t17 133.5
t26 133t32 113.5q13 37 25.5 53t26.5 16q7 0 12 -5.5t3 -12.5l-5 -26.5t-13 -70t-18 -99t-19 -114.5q-11 -69 -18.5 -124.5t-12.5 -98.5q-3 -32 -4.5 -53t-1.5 -34t1 -19.5t2 -9.5q9 -4 9 -14q0 -6 -4.5 -10.5t-10.5 -4.5z" />
    <glyph glyph-name="uni0163" unicode="&#x163;" horiz-adv-x="151" 
d="M16 -175q-2 0 -2.5 -0.5t-2.5 -0.5q-10 0 -13 13v5l23 115q2 9 13 11q14 0 20 -6t8 -20q2 -11 0 -30t-7.5 -37.5t-15 -33t-23.5 -16.5zM38 0q-16 0 -25 15t-13 35t-5 40t-1 31q0 102 16 212.5t40 210.5h-58q-6 0 -10.5 4.5t-4.5 10.5t4.5 10.5t10.5 4.5h65q4 14 7 27
t7 24q9 31 18 47q5 9 11 17t17 8q6 0 10 -5t4 -10v-3q0 -1 -5.5 -29.5t-13.5 -75.5h59q7 0 11 -4.5t4 -10.5t-4 -10.5t-11 -4.5h-64q-19 -100 -34 -199.5t-26 -199.5q-3 -30 -4 -50t-1 -33q0 -12 0.5 -19t1.5 -10q3 2 8.5 7t13.5 16t18 28.5t23 43.5q10 20 18 38.5t13 32.5
q7 17 13 33q3 10 14 10q6 0 10.5 -4.5t4.5 -10.5q0 -4 -1 -5q0 -1 -3.5 -10t-9.5 -24t-14.5 -34t-17.5 -39q-6 -12 -16 -31t-22.5 -38t-27.5 -32.5t-30 -13.5z" />
    <glyph glyph-name="Tcaron" unicode="&#x164;" horiz-adv-x="378" 
d="M95 422q-43 0 -69 27.5t-26 75.5q0 51 32 93t89 72t134.5 46.5t167.5 16.5q60 0 102.5 -6.5t69.5 -14t40 -14t14 -6.5q5 -4 5.5 -10t-3.5 -11q-4 -6 -12 -6q-4 0 -9 3q-18 10 -47 18q-25 6 -63.5 11.5t-95.5 5.5q-83 0 -155 -14t-125 -40t-83.5 -62t-30.5 -81
q0 -35 18 -54.5t47 -19.5q7 0 11 -4.5t4 -10.5t-4 -10.5t-11 -4.5zM242 0q-19 0 -29.5 16t-15.5 37.5t-6.5 44t-1.5 34.5q0 50 6 115t17 133.5t26 133t32 113.5q13 37 25.5 53t26.5 16q7 0 12 -5.5t3 -12.5l-5 -26.5t-13 -70t-18 -99t-19 -114.5q-11 -69 -18.5 -124.5
t-12.5 -98.5q-3 -32 -4.5 -53t-1.5 -34t1 -19.5t2 -9.5q9 -4 9 -14q0 -6 -4.5 -10.5t-10.5 -4.5zM297 788q-5 9 -9.5 23t-6 29t-0.5 29t7 23q8 14 23 14q13 0 15 -13l10 -72l52 71q5 6 12 6q6 0 9 -3q5 -4 5.5 -10t-2.5 -11q-11 -15 -19.5 -27t-17 -23t-17.5 -23t-20 -27
q-4 -6 -12 -6q-5 0 -13 3.5t-16 16.5z" />
    <glyph glyph-name="tcaron" unicode="&#x165;" horiz-adv-x="256" 
d="M38 0q-16 0 -25 15t-13 35t-5 40t-1 31q0 102 16 212.5t40 210.5h-58q-6 0 -10.5 4.5t-4.5 10.5t4.5 10.5t10.5 4.5h65q4 14 7 27t7 24q9 31 18 47q5 9 11 17t17 8q6 0 10 -5t4 -10v-3q0 -1 -5.5 -29.5t-13.5 -75.5h59q7 0 11 -4.5t4 -10.5t-4 -10.5t-11 -4.5h-64
q-19 -100 -34 -199.5t-26 -199.5q-3 -30 -4 -50t-1 -33q0 -12 0.5 -19t1.5 -10q3 2 8.5 7t13.5 16t18 28.5t23 43.5q10 20 18 38.5t13 32.5q7 17 13 33q3 10 14 10q6 0 10.5 -4.5t4.5 -10.5q0 -4 -1 -5q0 -1 -3.5 -10t-9.5 -24t-14.5 -34t-17.5 -39q-6 -12 -16 -31
t-22.5 -38t-27.5 -32.5t-30 -13.5zM212 473q-8 0 -12 2t-6 10v5l23 115q2 9 13 11q14 0 20 -6t8 -20q2 -11 0 -30t-7.5 -37.5t-15 -33t-23.5 -16.5z" />
    <glyph glyph-name="Uring" unicode="&#x16e;" horiz-adv-x="735" 
d="M606 425q5 20 13 48.5t20 60.5t27 64t34 57t41.5 41t48.5 16q6 0 10.5 -4.5t4.5 -10.5t-4.5 -10.5t-10.5 -4.5q-18 0 -35 -26t-31 -59.5t-23.5 -65.5t-12.5 -45q-11 -43 -20.5 -90t-16 -94t-10 -92t-3.5 -84q0 -5 0.5 -25.5t3.5 -43t8.5 -40t14.5 -17.5q6 0 10.5 -4.5
t4.5 -10.5t-4.5 -10.5t-10.5 -4.5q-32 0 -50.5 23t-27.5 55.5t-11.5 66.5t-2.5 56q0 20 1 41.5t3 43.5q-1 -3 -2 -5.5t-2 -4.5q-52 -123 -103.5 -184.5t-114.5 -61.5q-36 0 -58 19t-34 47t-16 60.5t-4 59.5q0 55 10.5 127.5t28 147t41 143.5t50.5 117q-27 -1 -63 -6.5
t-74 -16.5t-75 -27.5t-66 -39.5t-47 -52.5t-18 -66.5q0 -29 17.5 -45t48.5 -16q6 0 10.5 -4.5t4.5 -10.5t-4.5 -10.5t-10.5 -4.5q-42 0 -69 24t-27 67q0 45 20.5 80t54.5 61.5t77 45.5t88 30.5t88.5 17t77.5 5.5q8 0 11.5 -5.5t3.5 -12.5q0 -2 -7.5 -28t-19.5 -68t-26 -96.5
t-26 -113.5q-14 -67 -25.5 -139t-11.5 -163q1 -27 8 -48q5 -18 17 -33t35 -15q27 0 53.5 22.5t50.5 58t45.5 80t39.5 88.5t31 83zM565 766q-29 0 -48.5 15.5t-19.5 41.5q0 16 7 29.5t19 24t28 16.5t34 6q29 0 48 -16t19 -41q0 -15 -7 -28.5t-19 -24t-28 -17t-33 -6.5z
M594 869q-18 0 -32.5 -14.5t-14.5 -32.5q0 -13 8.5 -19.5t20.5 -6.5q17 0 31.5 13.5t14.5 30.5q0 29 -28 29z" />
    <glyph glyph-name="uring" unicode="&#x16f;" horiz-adv-x="367" 
d="M-7 151q0 12 2 34.5t7 49.5t12.5 55t17.5 51.5t23.5 38t30.5 14.5q6 0 10.5 -4.5t4.5 -10.5q0 -3 -1 -5q-10 -27 -19.5 -59.5t-17 -66.5t-12.5 -67.5t-5 -63.5q0 -12 1 -27.5t5 -28.5t13 -22t24 -9t29 12t26.5 31.5t23.5 43.5t20 47.5t15 44.5t10 34v2l8 40t14 49t21 42
t28 18q14 0 14 -14v-4l-3 -14t-7.5 -37t-9.5 -52.5t-10 -60.5q-5 -32 -10.5 -70.5t-5.5 -70.5q0 -19 1.5 -28t3.5 -12q3 1 8 5.5t13.5 15t19.5 29t25 47.5q10 20 18 38.5t13 32.5q7 17 13 33q3 10 14 10q6 0 10.5 -4t4.5 -11q0 -4 -6.5 -20.5t-14.5 -35.5t-15.5 -35.5
t-9.5 -20.5q-25 -50 -43 -75q-28 -40 -53 -40q-18 0 -29 13t-16.5 31.5t-7 38t-1.5 32.5q-26 -58 -52.5 -86.5t-63.5 -28.5q-28 0 -45.5 14.5t-27.5 36.5t-14 48.5t-4 51.5zM175 424q-29 0 -48.5 15.5t-19.5 41.5q0 16 7 29.5t19 24t28 16.5t34 6q29 0 48 -16t19 -41
q0 -15 -7 -28.5t-19 -24t-28 -17t-33 -6.5zM204 527q-18 0 -32.5 -14.5t-14.5 -32.5q0 -13 8.5 -19.5t20.5 -6.5q17 0 31.5 13.5t14.5 30.5q0 29 -28 29z" />
    <glyph glyph-name="Uhungarumlaut" unicode="&#x170;" horiz-adv-x="735" 
d="M606 425q5 20 13 48.5t20 60.5t27 64t34 57t41.5 41t48.5 16q6 0 10.5 -4.5t4.5 -10.5t-4.5 -10.5t-10.5 -4.5q-18 0 -35 -26t-31 -59.5t-23.5 -65.5t-12.5 -45q-11 -43 -20.5 -90t-16 -94t-10 -92t-3.5 -84q0 -5 0.5 -25.5t3.5 -43t8.5 -40t14.5 -17.5q6 0 10.5 -4.5
t4.5 -10.5t-4.5 -10.5t-10.5 -4.5q-32 0 -50.5 23t-27.5 55.5t-11.5 66.5t-2.5 56q0 20 1 41.5t3 43.5q-1 -3 -2 -5.5t-2 -4.5q-52 -123 -103.5 -184.5t-114.5 -61.5q-36 0 -58 19t-34 47t-16 60.5t-4 59.5q0 55 10.5 127.5t28 147t41 143.5t50.5 117q-27 -1 -63 -6.5
t-74 -16.5t-75 -27.5t-66 -39.5t-47 -52.5t-18 -66.5q0 -29 17.5 -45t48.5 -16q6 0 10.5 -4.5t4.5 -10.5t-4.5 -10.5t-10.5 -4.5q-42 0 -69 24t-27 67q0 45 20.5 80t54.5 61.5t77 45.5t88 30.5t88.5 17t77.5 5.5q8 0 11.5 -5.5t3.5 -12.5q0 -2 -7.5 -28t-19.5 -68t-26 -96.5
t-26 -113.5q-14 -67 -25.5 -139t-11.5 -163q1 -27 8 -48q5 -18 17 -33t35 -15q27 0 53.5 22.5t50.5 58t45.5 80t39.5 88.5t31 83zM602 768q-15 0 -15 15q0 3 1 5l41 109q4 9 14 9q14 0 19 -9.5t5 -20.5t-5 -29.5t-13.5 -36t-20.5 -30t-26 -12.5zM525 768q-15 0 -15 15
q0 3 1 5l41 109q4 9 14 9q14 0 19 -9.5t5 -20.5t-5 -29.5t-13.5 -36t-20.5 -30t-26 -12.5z" />
    <glyph glyph-name="uhungarumlaut" unicode="&#x171;" horiz-adv-x="367" 
d="M-7 151q0 12 2 34.5t7 49.5t12.5 55t17.5 51.5t23.5 38t30.5 14.5q6 0 10.5 -4.5t4.5 -10.5q0 -3 -1 -5q-10 -27 -19.5 -59.5t-17 -66.5t-12.5 -67.5t-5 -63.5q0 -12 1 -27.5t5 -28.5t13 -22t24 -9t29 12t26.5 31.5t23.5 43.5t20 47.5t15 44.5t10 34v2l8 40t14 49t21 42
t28 18q14 0 14 -14v-4l-3 -14t-7.5 -37t-9.5 -52.5t-10 -60.5q-5 -32 -10.5 -70.5t-5.5 -70.5q0 -19 1.5 -28t3.5 -12q3 1 8 5.5t13.5 15t19.5 29t25 47.5q10 20 18 38.5t13 32.5q7 17 13 33q3 10 14 10q6 0 10.5 -4t4.5 -11q0 -4 -6.5 -20.5t-14.5 -35.5t-15.5 -35.5
t-9.5 -20.5q-25 -50 -43 -75q-28 -40 -53 -40q-18 0 -29 13t-16.5 31.5t-7 38t-1.5 32.5q-26 -58 -52.5 -86.5t-63.5 -28.5q-28 0 -45.5 14.5t-27.5 36.5t-14 48.5t-4 51.5zM212 426q-15 0 -15 15q0 3 1 5l41 109q4 9 14 9q14 0 19 -9.5t5 -20.5t-5 -29.5t-13.5 -36
t-20.5 -30t-26 -12.5zM135 426q-15 0 -15 15q0 3 1 5l41 109q4 9 14 9q14 0 19 -9.5t5 -20.5t-5 -29.5t-13.5 -36t-20.5 -30t-26 -12.5z" />
    <glyph glyph-name="Ydieresis" unicode="&#x178;" horiz-adv-x="719" 
d="M464 1q29 14 56 18.5t49 5.5q17 86 28 182.5t18 187.5q-7 -30 -19 -71t-28 -85t-37 -87t-47.5 -76.5t-58.5 -54.5t-70 -21q-36 0 -58 19t-34 47t-16 60.5t-4 59.5q0 55 10.5 127.5t28 147t41 143.5t50.5 117q-27 -1 -63 -6.5t-74 -16.5t-75 -27.5t-66 -39.5t-47 -52.5
t-18 -66.5q0 -29 17.5 -45t48.5 -16q6 0 10.5 -4.5t4.5 -10.5t-4.5 -10.5t-10.5 -4.5q-42 0 -69 24t-27 67q0 45 20.5 80t54.5 61.5t77 45.5t88 30.5t88.5 17t77.5 5.5q8 0 11.5 -5.5t3.5 -12.5q0 -2 -7.5 -28t-19.5 -68t-26 -96.5t-26 -113.5q-14 -67 -25.5 -139
t-11.5 -163q1 -27 8 -48q5 -18 17 -33t35 -15t43.5 12.5t39 35t36 53.5t34.5 67q21 45 41 108.5t35.5 131t25 133.5t9.5 117q3 12 16 12q4 0 10 -2t10 -14q6 -18 9.5 -57.5t5 -93.5t0 -118t-6.5 -132t-14.5 -137t-24.5 -131q11 -4 21 -8.5t16 -9.5q7 -5 7 -13q0 -5 -5 -10
t-10 -5q-4 0 -9 3q-1 1 -7.5 5t-20.5 9q-13 -51 -31 -94.5t-40 -75t-49 -49t-60 -17.5q-42 0 -64.5 24.5t-22.5 64.5q0 25 8.5 49t22.5 45.5t33 39t41 28.5zM446 -220q20 0 36.5 16t31 45t27 68t22.5 86q-32 -1 -63.5 -13t-56 -32.5t-39.5 -49t-15 -63.5q0 -27 14 -42
t43 -15zM613 795q0 -11 -8 -19t-19 -8t-18.5 8t-7.5 19t7.5 18.5t18.5 7.5t19 -7.5t8 -18.5zM533 795q0 -11 -8 -19t-19 -8t-18.5 8t-7.5 19t7.5 18.5t18.5 7.5t19 -7.5t8 -18.5z" />
    <glyph glyph-name="Zacute" unicode="&#x179;" horiz-adv-x="498" 
d="M253 753q51 0 92.5 -15.5t71 -45.5t45.5 -73.5t16 -98.5q0 -52 -14.5 -103t-40.5 -94.5t-63.5 -76.5t-84.5 -49q49 -23 76.5 -70.5t32.5 -109.5q5 -1 14 -4t18 -7.5t15.5 -10t6.5 -12.5q0 -5 -5 -10t-10 -5q-4 0 -9 3q-1 1 -8 5t-21 9q0 -47 -13 -90t-36 -75.5t-56 -51.5
t-74 -19q-42 0 -64.5 24.5t-22.5 64.5q0 25 8.5 49t22.5 45.5t33 39t41 28.5q28 14 54 18.5t49 5.5q-2 30 -10 58.5t-23.5 51t-40 36t-59.5 13.5q-6 0 -10.5 4.5t-4.5 10.5q0 10 7.5 12.5t15.5 2.5q43 4 81 37.5t66 82t44.5 104.5t16.5 104q0 83 -47 132.5t-127 49.5
q-42 0 -79.5 -14.5t-65.5 -39.5t-44.5 -59.5t-16.5 -74.5t16 -61.5t42 -21.5q6 0 10.5 -4.5t4.5 -10.5t-4.5 -10.5t-10.5 -4.5q-40 0 -64 29.5t-24 82.5q0 47 19.5 87.5t53.5 69.5t80.5 45.5t99.5 16.5zM149 -164q0 -27 14 -42t43 -15q30 0 52 21t37 53t22.5 69.5t8.5 71.5
q-33 0 -64.5 -11.5t-56.5 -32.5t-40.5 -50t-15.5 -64zM255 768q-15 0 -15 15q0 3 1 5l41 109q4 9 14 9q14 0 19 -9.5t5 -20.5t-5 -29.5t-13.5 -36t-20.5 -30t-26 -12.5z" />
    <glyph glyph-name="zacute" unicode="&#x17a;" horiz-adv-x="311" 
d="M281 288q-4 -26 -17 -53t-32.5 -51.5t-44 -44.5t-51.5 -32q50 -27 72 -86q6 -1 17 -4t22 -7.5t19.5 -11t8.5 -14.5q0 -5 -5 -10t-10 -5q-4 0 -9 3q-1 1 -9 5.5t-24 9.5q4 -17 4 -42q0 -39 -12.5 -74.5t-35.5 -62.5t-56.5 -42.5t-74.5 -15.5q-42 0 -64.5 24.5t-22.5 64.5
q0 25 8 49t22.5 45.5t33.5 39t41 28.5q24 11 48 16t44 7q-11 29 -29.5 48t-46.5 21q-8 0 -12 3q-6 4 -6 12q0 6 4.5 10.5t10.5 4.5q23 0 48 21t47 50t37.5 59.5t19.5 49.5q4 16 5 26.5t1 16.5q-12 -10 -34.5 -19.5t-59.5 -9.5q-40 0 -68 33q-9 -32 -20 -64l-22 -64
q-3 -10 -14 -10q-6 0 -10.5 4.5t-4.5 10.5q0 3 1 5l3 9t8.5 24t12 34.5t12.5 40.5q4 14 7.5 25.5t5.5 21.5q-10 28 -10 53q0 28 10 39t22 11q13 0 17.5 -9.5t4.5 -20.5q0 -7 -1.5 -16.5t-3.5 -23.5q-2 -7 -3.5 -14.5t-3.5 -16.5q6 -13 19.5 -27.5t37.5 -14.5q39 0 58 12
t23 17q3 12 14 12q25 0 40 -23q11 -17 11 -38.5t-3 -38.5zM-14 -163q0 -27 14 -42t43 -15q32 0 54.5 18t37.5 44.5t22 57t7 56.5q0 22 -4 39q-32 0 -63.5 -12t-56 -33t-39.5 -50t-15 -63zM179 426q-15 0 -15 15q0 3 1 5l41 109q4 9 14 9q14 0 19 -9.5t5 -20.5t-5 -29.5
t-13.5 -36t-20.5 -30t-26 -12.5z" />
    <glyph glyph-name="Zdotaccent" unicode="&#x17b;" horiz-adv-x="498" 
d="M253 753q51 0 92.5 -15.5t71 -45.5t45.5 -73.5t16 -98.5q0 -52 -14.5 -103t-40.5 -94.5t-63.5 -76.5t-84.5 -49q49 -23 76.5 -70.5t32.5 -109.5q5 -1 14 -4t18 -7.5t15.5 -10t6.5 -12.5q0 -5 -5 -10t-10 -5q-4 0 -9 3q-1 1 -8 5t-21 9q0 -47 -13 -90t-36 -75.5t-56 -51.5
t-74 -19q-42 0 -64.5 24.5t-22.5 64.5q0 25 8.5 49t22.5 45.5t33 39t41 28.5q28 14 54 18.5t49 5.5q-2 30 -10 58.5t-23.5 51t-40 36t-59.5 13.5q-6 0 -10.5 4.5t-4.5 10.5q0 10 7.5 12.5t15.5 2.5q43 4 81 37.5t66 82t44.5 104.5t16.5 104q0 83 -47 132.5t-127 49.5
q-42 0 -79.5 -14.5t-65.5 -39.5t-44.5 -59.5t-16.5 -74.5t16 -61.5t42 -21.5q6 0 10.5 -4.5t4.5 -10.5t-4.5 -10.5t-10.5 -4.5q-40 0 -64 29.5t-24 82.5q0 47 19.5 87.5t53.5 69.5t80.5 45.5t99.5 16.5zM149 -164q0 -27 14 -42t43 -15q30 0 52 21t37 53t22.5 69.5t8.5 71.5
q-33 0 -64.5 -11.5t-56.5 -32.5t-40.5 -50t-15.5 -64zM282 795q0 -11 -8 -19t-19 -8t-18.5 8t-7.5 19t7.5 18.5t18.5 7.5t19 -7.5t8 -18.5z" />
    <glyph glyph-name="zdotaccent" unicode="&#x17c;" horiz-adv-x="311" 
d="M281 288q-4 -26 -17 -53t-32.5 -51.5t-44 -44.5t-51.5 -32q50 -27 72 -86q6 -1 17 -4t22 -7.5t19.5 -11t8.5 -14.5q0 -5 -5 -10t-10 -5q-4 0 -9 3q-1 1 -9 5.5t-24 9.5q4 -17 4 -42q0 -39 -12.5 -74.5t-35.5 -62.5t-56.5 -42.5t-74.5 -15.5q-42 0 -64.5 24.5t-22.5 64.5
q0 25 8 49t22.5 45.5t33.5 39t41 28.5q24 11 48 16t44 7q-11 29 -29.5 48t-46.5 21q-8 0 -12 3q-6 4 -6 12q0 6 4.5 10.5t10.5 4.5q23 0 48 21t47 50t37.5 59.5t19.5 49.5q4 16 5 26.5t1 16.5q-12 -10 -34.5 -19.5t-59.5 -9.5q-40 0 -68 33q-9 -32 -20 -64l-22 -64
q-3 -10 -14 -10q-6 0 -10.5 4.5t-4.5 10.5q0 3 1 5l3 9t8.5 24t12 34.5t12.5 40.5q4 14 7.5 25.5t5.5 21.5q-10 28 -10 53q0 28 10 39t22 11q13 0 17.5 -9.5t4.5 -20.5q0 -7 -1.5 -16.5t-3.5 -23.5q-2 -7 -3.5 -14.5t-3.5 -16.5q6 -13 19.5 -27.5t37.5 -14.5q39 0 58 12
t23 17q3 12 14 12q25 0 40 -23q11 -17 11 -38.5t-3 -38.5zM-14 -163q0 -27 14 -42t43 -15q32 0 54.5 18t37.5 44.5t22 57t7 56.5q0 22 -4 39q-32 0 -63.5 -12t-56 -33t-39.5 -50t-15 -63zM206 453q0 -11 -8 -19t-19 -8t-18.5 8t-7.5 19t7.5 18.5t18.5 7.5t19 -7.5t8 -18.5z
" />
    <glyph glyph-name="Zcaron" unicode="&#x17d;" horiz-adv-x="498" 
d="M253 753q51 0 92.5 -15.5t71 -45.5t45.5 -73.5t16 -98.5q0 -52 -14.5 -103t-40.5 -94.5t-63.5 -76.5t-84.5 -49q49 -23 76.5 -70.5t32.5 -109.5q5 -1 14 -4t18 -7.5t15.5 -10t6.5 -12.5q0 -5 -5 -10t-10 -5q-4 0 -9 3q-1 1 -8 5t-21 9q0 -47 -13 -90t-36 -75.5t-56 -51.5
t-74 -19q-42 0 -64.5 24.5t-22.5 64.5q0 25 8.5 49t22.5 45.5t33 39t41 28.5q28 14 54 18.5t49 5.5q-2 30 -10 58.5t-23.5 51t-40 36t-59.5 13.5q-6 0 -10.5 4.5t-4.5 10.5q0 10 7.5 12.5t15.5 2.5q43 4 81 37.5t66 82t44.5 104.5t16.5 104q0 83 -47 132.5t-127 49.5
q-42 0 -79.5 -14.5t-65.5 -39.5t-44.5 -59.5t-16.5 -74.5t16 -61.5t42 -21.5q6 0 10.5 -4.5t4.5 -10.5t-4.5 -10.5t-10.5 -4.5q-40 0 -64 29.5t-24 82.5q0 47 19.5 87.5t53.5 69.5t80.5 45.5t99.5 16.5zM149 -164q0 -27 14 -42t43 -15q30 0 52 21t37 53t22.5 69.5t8.5 71.5
q-33 0 -64.5 -11.5t-56.5 -32.5t-40.5 -50t-15.5 -64zM225 788q-5 9 -9.5 23t-6 29t-0.5 29t7 23q8 14 23 14q13 0 15 -13l10 -72l52 71q5 6 12 6q6 0 9 -3q5 -4 5.5 -10t-2.5 -11q-11 -15 -19.5 -27t-17 -23t-17.5 -23t-20 -27q-4 -6 -12 -6q-5 0 -13 3.5t-16 16.5z" />
    <glyph glyph-name="zcaron" unicode="&#x17e;" horiz-adv-x="311" 
d="M281 288q-4 -26 -17 -53t-32.5 -51.5t-44 -44.5t-51.5 -32q50 -27 72 -86q6 -1 17 -4t22 -7.5t19.5 -11t8.5 -14.5q0 -5 -5 -10t-10 -5q-4 0 -9 3q-1 1 -9 5.5t-24 9.5q4 -17 4 -42q0 -39 -12.5 -74.5t-35.5 -62.5t-56.5 -42.5t-74.5 -15.5q-42 0 -64.5 24.5t-22.5 64.5
q0 25 8 49t22.5 45.5t33.5 39t41 28.5q24 11 48 16t44 7q-11 29 -29.5 48t-46.5 21q-8 0 -12 3q-6 4 -6 12q0 6 4.5 10.5t10.5 4.5q23 0 48 21t47 50t37.5 59.5t19.5 49.5q4 16 5 26.5t1 16.5q-12 -10 -34.5 -19.5t-59.5 -9.5q-40 0 -68 33q-9 -32 -20 -64l-22 -64
q-3 -10 -14 -10q-6 0 -10.5 4.5t-4.5 10.5q0 3 1 5l3 9t8.5 24t12 34.5t12.5 40.5q4 14 7.5 25.5t5.5 21.5q-10 28 -10 53q0 28 10 39t22 11q13 0 17.5 -9.5t4.5 -20.5q0 -7 -1.5 -16.5t-3.5 -23.5q-2 -7 -3.5 -14.5t-3.5 -16.5q6 -13 19.5 -27.5t37.5 -14.5q39 0 58 12
t23 17q3 12 14 12q25 0 40 -23q11 -17 11 -38.5t-3 -38.5zM-14 -163q0 -27 14 -42t43 -15q32 0 54.5 18t37.5 44.5t22 57t7 56.5q0 22 -4 39q-32 0 -63.5 -12t-56 -33t-39.5 -50t-15 -63zM149 446q-5 9 -9.5 23t-6 29t-0.5 29t7 23q8 14 23 14q13 0 15 -13l10 -72l52 71
q5 6 12 6q6 0 9 -3q5 -4 5.5 -10t-2.5 -11q-11 -15 -19.5 -27t-17 -23t-17.5 -23t-20 -27q-4 -6 -12 -6q-5 0 -13 3.5t-16 16.5z" />
    <glyph glyph-name="circumflex" unicode="&#x2c6;" horiz-adv-x="233" 
d="M147 515q5 -9 9.5 -23t6 -29t0.5 -29t-7 -23q-8 -14 -23 -14q-13 0 -15 13l-10 72l-52 -71q-4 -6 -12 -6q-6 0 -9 3q-5 4 -5.5 10t2.5 11q11 15 19.5 27t17 23t17.5 23t20 27q5 6 12 6q5 0 13 -3.5t16 -16.5z" />
    <glyph glyph-name="caron" unicode="&#x2c7;" horiz-adv-x="229" 
d="M81 417q-5 9 -9.5 23t-6 29t-0.5 29t7 23q8 14 23 14q13 0 15 -13l10 -72l52 71q5 6 12 6q6 0 9 -3q5 -4 5.5 -10t-2.5 -11q-11 -15 -19.5 -27t-17 -23t-17.5 -23t-20 -27q-4 -6 -12 -6q-5 0 -13 3.5t-16 16.5z" />
    <glyph glyph-name="breve" unicode="&#x2d8;" horiz-adv-x="276" 
d="M135 397q-23 0 -43.5 12t-20.5 40q0 18 10 34.5t25 16.5t18.5 -10.5t3.5 -23.5q0 -14 1 -26.5t15 -12.5q17 0 24 19t7 38q0 6 4 11t10 5t11 -4t5 -10q0 -16 -3.5 -32t-12 -29t-21.5 -20.5t-33 -7.5z" />
    <glyph glyph-name="dotaccent" unicode="&#x2d9;" horiz-adv-x="196" 
d="M117 424q0 -11 -8 -19t-19 -8t-18.5 8t-7.5 19t7.5 18.5t18.5 7.5t19 -7.5t8 -18.5z" />
    <glyph glyph-name="ring" unicode="&#x2da;" horiz-adv-x="291" 
d="M136 397q-29 0 -48.5 15.5t-19.5 41.5q0 16 7 29.5t19 24t28 16.5t34 6q29 0 48 -16t19 -41q0 -15 -7 -28.5t-19 -24t-28 -17t-33 -6.5zM165 500q-18 0 -32.5 -14.5t-14.5 -32.5q0 -13 8.5 -19.5t20.5 -6.5q17 0 31.5 13.5t14.5 30.5q0 29 -28 29z" />
    <glyph glyph-name="ogonek" unicode="&#x2db;" horiz-adv-x="264" 
d="M123 -225q-34 0 -54 22t-20 58q0 25 10.5 50.5t27.5 47.5t39 40.5t46 30.5q3 2 8 2q7 0 11.5 -4.5t4.5 -10.5q0 -7 -8 -12q-15 -8 -30 -28t-27 -44t-19.5 -48.5t-7.5 -42.5q0 -31 26 -31q14 0 24.5 7.5t17.5 16.5t10 16.5l3 7.5q3 10 16 10q14 0 14 -16q0 -3 -2.5 -8.5
t-6.5 -11.5t-7 -11t-5 -7q-29 -34 -71 -34z" />
    <glyph glyph-name="tilde" unicode="&#x2dc;" horiz-adv-x="332" 
d="M204 397q-13 0 -26.5 3t-27.5 6q-9 2 -19.5 5.5t-17.5 3.5q-5 0 -5 -3q0 -6 -4.5 -10.5t-10.5 -4.5t-10.5 4.5t-4.5 10.5q0 23 14 34.5t36 11.5q12 0 25 -2.5t27 -5.5q3 -1 16 -4.5t22 -3.5q7 0 7 4q0 6 4.5 10.5t10.5 4.5t10.5 -4.5t4.5 -10.5q0 -25 -13.5 -37
t-37.5 -12z" />
    <glyph glyph-name="hungarumlaut" unicode="&#x2dd;" horiz-adv-x="173" 
d="M97 397q-15 0 -15 15q0 3 1 5l41 109q4 9 14 9q14 0 19 -9.5t5 -20.5t-5 -29.5t-13.5 -36t-20.5 -30t-26 -12.5zM20 397q-15 0 -15 15q0 3 1 5l41 109q4 9 14 9q14 0 19 -9.5t5 -20.5t-5 -29.5t-13.5 -36t-20.5 -30t-26 -12.5z" />
    <glyph glyph-name="quoteleft" unicode="&#x2018;" horiz-adv-x="168" 
d="M96 538q2 0 2.5 0.5t2.5 0.5q10 0 13 -13v-5l-23 -115q-2 -9 -13 -11q-14 0 -20 6t-8 20q-2 11 0 30t7.5 37.5t15 33t23.5 16.5z" />
    <glyph glyph-name="quoteright" unicode="&#x2019;" horiz-adv-x="167" 
d="M61 394q-8 0 -12 2t-6 10v5l23 115q2 9 13 11q14 0 20 -6t8 -20q2 -11 0 -30t-7.5 -37.5t-15 -33t-23.5 -16.5z" />
    <glyph glyph-name="quotesinglbase" unicode="&#x201a;" horiz-adv-x="167" 
d="M61 -76q-2 0 -2.5 -0.5t-2.5 -0.5q-10 0 -13 13v5l23 115q2 9 13 11q14 0 20 -6t8 -20q2 -11 0 -30t-7.5 -37.5t-15 -33t-23.5 -16.5z" />
    <glyph glyph-name="quotedblleft" unicode="&#x201c;" horiz-adv-x="274" 
d="M184 538q2 0 2.5 0.5t2.5 0.5q10 0 13 -13v-5l-23 -115q-2 -9 -13 -11q-14 0 -20 6t-8 20q-2 11 0 30t7.5 37.5t15 33t23.5 16.5zM114 538q2 0 2.5 0.5t2.5 0.5q10 0 13 -13v-5l-23 -115q-2 -9 -13 -11q-14 0 -20 6t-8 20q-2 11 0 30t7.5 37.5t15 33t23.5 16.5z" />
    <glyph glyph-name="quotedblright" unicode="&#x201d;" horiz-adv-x="273" 
d="M83 394q-8 0 -12 2t-6 10v5l23 115q2 9 13 11q14 0 20 -6t8 -20q2 -11 0 -30t-7.5 -37.5t-15 -33t-23.5 -16.5zM153 394q-8 0 -12 2t-6 10v5l23 115q2 9 13 11q14 0 20 -6t8 -20q2 -11 0 -30t-7.5 -37.5t-15 -33t-23.5 -16.5z" />
    <glyph glyph-name="quotedblbase" unicode="&#x201e;" horiz-adv-x="273" 
d="M83 -76q-2 0 -2.5 -0.5t-2.5 -0.5q-10 0 -13 13v5l23 115q2 9 13 11q14 0 20 -6t8 -20q2 -11 0 -30t-7.5 -37.5t-15 -33t-23.5 -16.5zM153 -76q-2 0 -2.5 -0.5t-2.5 -0.5q-10 0 -13 13v5l23 115q2 9 13 11q14 0 20 -6t8 -20q2 -11 0 -30t-7.5 -37.5t-15 -33t-23.5 -16.5z
" />
    <glyph glyph-name="Euro" unicode="&#x20ac;" horiz-adv-x="620" 
d="M428 436q0 6 4 10.5t11 4.5q25 0 43 12t30 31t17.5 42.5t5.5 45.5q0 28 -8 53.5t-24.5 45t-41 31t-56.5 11.5q-56 0 -98.5 -34t-72 -86.5t-48 -115t-26.5 -120.5h181q7 0 11 -4.5t4 -10.5t-4 -10.5t-11 -4.5h-184l-3 -30h187q7 0 11 -4.5t4 -10.5t-4 -10.5t-11 -4.5h-188
q0 -32 5 -74.5t19.5 -81t41 -65t69.5 -26.5q33 0 65 16.5t60 42t49.5 56.5t34.5 59q5 9 14 9q6 0 10.5 -4t4.5 -11t-9 -23t-20.5 -32.5t-23 -31.5t-17.5 -21q-35 -38 -78.5 -64t-97.5 -26q-53 0 -90 26t-60 66.5t-34 89.5t-13 95h-21q-6 0 -10.5 4.5t-4.5 10.5t4.5 10.5
t10.5 4.5h21q0 8 0.5 15t1.5 15h-23q-6 0 -10.5 4.5t-4.5 10.5t4.5 10.5t10.5 4.5h26q8 66 31.5 134.5t62 124.5t92 91.5t121.5 35.5q42 0 74 -14t53.5 -38t32 -55t10.5 -65q0 -29 -7.5 -57.5t-23.5 -51.5t-39.5 -37t-55.5 -14q-7 0 -11 4.5t-4 10.5z" />
    </font>
</defs>
</svg>
